<?xml version="1.0" encoding="UTF-8"?><svg id="a" xmlns="http://www.w3.org/2000/svg" width="800.608mm" height="590.635mm" viewBox="0 0 2269.44 1674.24">
<path d="M1.919,0h2267.521v1673.281l-2268.485.005L1.919,0ZM2268.48.959H3.359l-1.439,1.439v1668.483l1.439,1.439h2265.122V.959Z" fill="#fff" />
<polygon points="1.919 0 .955 1673.286 2269.44 1673.281 2269.44 1674.24 0 1674.24 0 0 1.919 0" fill="#fff"/>
<path d="M2268.48.959v1671.362H3.359l-1.439-1.439V2.399l1.439-1.439h2265.122ZM677.48,593.896c1.925-58.381-7.586-119.879-35.011-171.759-6.774-12.814-20.211-28.291-19.729-42.718.362-10.831,2.888-15.116-1.139-26.606-16.691-47.621-99.163-12.562-67.745,37.032,9.419,14.868,17.684,11.897,31.037,17.9,5.826,2.619,9.422,9.827,12.474,15.352,9.372,16.969,17.522,38.969,23.008,57.59,11.51,39.071,16.599,80.44,18.292,120.947-31.3,8.142-60.106,22.834-86.632,40.984-10.771,7.37-20.681,15.911-31.471,23.25-32.752-29.15-76.32-38.05-117.772-22.796-58.291,21.451-86.871,82.099-69.104,141.528,10.763,36.003,40.282,66.097,77,75.104-10.015,54.498-6.201,112.526,29.795,156.802,82.155,101.053,240.605,135.174,365.136,128.155,19.413-1.094,38.66-4.144,58.011-5.791-1.715,6.06-4.147,21.626-8.669,25.383-6.255,5.197-11.649,4.314-17.625,13.08-23.932,35.107,16.103,76.843,51.928,56.717,16.318-9.167,23.485-32.731,15.499-49.477-6.118-12.829-9.65-10.233-5.136-26.513,5.491-19.804,19.711-38.856,27.331-58.061l100.784,11.503c1.809.88,5.35,16.34,6.23,19.676,8.214,31.13,17.208,69.077,14.902,101.27-.193,2.698-.9,8.145-2.073,10.401-1.463,2.812-9.185,6.96-12.338,10.691-29.441,34.838,4.198,85.857,47.507,73.405,26.162-7.522,37.893-36.803,27.791-61.425-3.223-7.856-14.725-15.784-15.767-22.613-2.559-16.762,1.05-38.687-.068-56.54-1.428-22.802-9.062-46.754-12.096-69.499l1.053-1.947,113.734,2.833c1.191,1.207-4.583,24.988-6.308,27.761-3.702,5.95-15.03,6.356-21.028,18.313-14.842,29.588,7.071,56.277,38.401,53.747,24.245-1.958,36.018-23.812,30.923-46.339-1.551-6.858-7.824-11.738-9.337-18.366l11.637-34.957,185.01-12.586c9.98,33.511,21.658,65.701,22.116,101.167.021,1.591.96,3.196.961,4.817.005,6.426-8.309,10.543-11.914,15.914-13.212,19.681-9.466,46.003,9.019,60.846,35.005,28.108,83.489-6.037,71.503-48.465-4.156-14.71-17.266-18.186-21.115-30.699-5.39-17.524-4.731-40.801-8.437-59.685-3.337-17.003-9.326-33.521-12.198-50.648l76.788-10.135c3.751,11.259-7.956,12.976-13.972,18.723-16.901,16.146-14.298,43.72,5.584,55.906,26.851,16.458,56.937-5.709,53.371-36.092-.992-8.449-8.597-14.693-8.621-21.204-.01-2.92,5.955-22.556,7.804-23.952l125.942-28.201c1.536.447,2.008,1.872,2.788,3.03,6.819,10.124,23.723,61.911,24.656,74.187.896,11.793-7.732,14.994-11.579,24.648-15.313,38.426,21.586,74.118,59.649,58.681,26.8-10.869,36.319-48.054,17.314-70.043-5.884-6.808-12.82-8.092-19.015-13.609-5.266-31.456-14.086-61.046-25.066-90.87,17.259-7.8,35.903-13.595,53.345-21.497,18.053-8.179,53.043-25.466,62.432-43.117,10.113-19.013-.431-74.073-4.989-96.209-42.503-206.385-193.252-343.3-393.545-395.182-200.875-52.032-464.231-27.887-627.475,109.326-11.072,9.306-21.617,21.893-33.212,30.117-4.251,3.016-9.913,6.31-13.221-.044-2.984-5.731,4.244-18.564,7.045-24.36,13.657-28.253,34.406-60.57,54.263-84.865,4.678-5.724,15.484-19.834,22.503-20.676,13.42-1.61,21.714,3.287,34.402-5.9,25.181-18.235,27.811-56.559.561-74.109-28.739-18.509-65.734-.97-69.719,32.783-.647,5.479,1.617,9.547.21,14.612-17.883,18.557-34.72,35.685-49.609,56.89-17.766,25.301-33.549,53.481-44.934,82.203-30.333-5.154-61.347-8.968-92.069-5.718Z" fill="#fff" stroke="#fff"/>
<path d="M895.301,1132.16l-12.538,43.689c-.154,4.743,6.64,8.526,9.111,12.978,6.95,12.523.324,31.208-14.024,34.773-22.174,5.51-40.786-12.652-31.677-34.55,4.599-11.058,18.729-10.966,22.664-17.637,4.936-8.369,4.584-28.915,10.122-34.973,3.157-3.454,11.848-3.039,16.341-4.279Z" fill="#fff"/>
<path d="M922.179,953.694c60.393,14.117,112.446-43.833,87.487-102.355-16.597-38.914-59.422-51.144-98.045-39.64-8.069-55.7-28.004-115.985-64.328-159.723-2.85-3.431-12.268-10.686-12.464-14.507-.156-.851.14-1.536.485-2.286.666-1.445,12.642-12.844,14.872-14.911,169.195-156.791,459.788-180.136,672.464-112.977,189.683,59.898,330.829,215.576,353.237,416.295,1.599,14.323,5.502,36.502-3.323,48.251-20.472,27.254-109.482,55.867-143.379,65.803-207.061,60.693-468.987,79.5-683.7,61.879-43.352-3.558-86.69-9.415-129.115-18.706l5.808-127.122ZM1207.505,631.942c49.273,49.236,129.023-20.037,81.201-75.912-51.703-60.41-136.541,20.614-81.201,75.912ZM1568.535,738.376c59.505-66.312,12.728-177.412-79.716-176.127-139.524,1.938-128.248,210.074-2.032,210.014,28.703-.014,62.463-12.396,81.747-33.886ZM981.472,603.781c-87.943,8.239-77.768,148.205,16.01,140.736,46.141-3.675,70.774-46.482,60.114-89.817-8.859-36.013-39.996-54.304-76.124-50.919ZM1184.906,725.632c-125.264,11.1-115.157,217.887,23.69,207.901,78.324-5.633,116.782-86.763,82.742-154.664-21.114-42.117-60.842-57.277-106.432-53.237ZM1692.528,758.248c-17.672,1.828-35.341,14.27-45.319,28.567-45.246,64.831,52.123,140.473,104.023,74.265,34.736-44.311-6.708-108.21-58.705-102.832ZM1496.771,859.951c-146.047,10.496-116.22,239.667,33.808,205.545,117.667-26.762,95.207-214.817-33.808-205.545ZM1084.149,960.697c-70.084,6.88-62.915,119.013,13.132,112.913,38.692-3.104,57.29-39.239,47.029-74.815-8.028-27.831-32.059-40.856-60.16-38.097Z" fill="#fff"/>
<path d="M922.267,939.207l-5.872-111.483c28.613-18.272,69.383.747,81.755,30.331,7.081,16.932,5.169,38.154-3.847,54.067-14.096,24.878-44.976,35.471-72.037,27.085Z" fill="#fff"/>
<path d="M1061.791,1112.962c.227.04,3.838,1.959,4.057,2.179,2.189,2.194,5.815,18.46,6.696,22.569,7.919,36.952,10.78,76.041,7.178,113.672.993,4.626,5.37,5.077,7.979,7.415,33.208,29.753-8.288,74.149-39.322,48.91-19.708-16.028-12.113-47.526,11.506-54.651.621-2.667,1.242-5.396,1.461-8.134,1.424-17.868.078-40.6-2.091-58.426-3.033-24.928-9.589-49.164-15.217-73.534,5.379.658,12.657-.898,17.752,0Z" fill="#fff"/>
<path d="M1452.205,1275.73c-11.095-10.92-12.979-32.278-1.811-43.829,2.66-2.752,12.131-7.037,12.803-9.266-.093-21.809-2.96-43.558-7.771-64.779-4.25-18.745-11.886-36.519-15.068-55.445,6.231,1.16,15.452-2.15,20.639,1.903,4.244,3.316,7.04,17.562,8.449,23.215,7.6,30.486,11.821,61.779,13.304,93.196,10.687,8.262,21.466,13.822,22.842,28.966,2.623,28.876-32.456,46.64-53.386,26.04Z" fill="#fff"/>
<path d="M1758.807,1044.975c4.363,14.85,11.247,28.934,15.007,43.996,3.219,12.894,5.11,40.571,10.738,50.591,2.783,4.955,17.449,8.189,23.132,18.205,18.111,31.924-20.241,58.739-48.488,38.886-13.539-9.516-13.71-29.467-4.094-41.951,5.016-6.512,10.66-4.985,10.478-16.165-.158-9.719-5.4-26.175-8.307-35.905-5.423-18.154-12.573-35.842-19.372-53.491.131-1.483,19.5-5.07,20.907-4.166Z" fill="#fff"/>
<path d="M1218.428,1117.031c1.711-.316,7.404-.95,7.766,1.175l-12.049,41.171c8.69,11.037,18.148,20.394,8.615,34.894-16.053,24.417-55.742,2.877-42.037-23.802,5.016-9.765,16.539-9.168,21.111-15.351,6.578-8.894,3.362-35.646,16.595-38.088Z" fill="#fff"/>
<path d="M1580.393,1084.248c1.144,1.592-6.591,20.782-6.494,25.383.188,8.898,11.573,11.154,10.425,25.921-2.468,31.766-53.702,21.389-41.751-11.05,4.254-11.546,15.944-9.951,20.102-15.401,5.786-7.585-.047-29.202,17.718-24.853Z" fill="#fff"/>
<path d="M1568.535,738.376c-19.284,21.49-53.044,33.873-81.747,33.886-126.216.06-137.493-208.075,2.032-210.014,92.444-1.284,139.221,109.815,79.716,176.127ZM1479.501,576.916c-109.247,9.365-104.699,187.293,17.985,181.09,109.998-5.562,108.03-174.753,3.839-181.417-6.59-.422-15.224-.239-21.824.327Z" fill="#000000"/>
<path d="M1496.771,859.951c129.015-9.272,151.476,178.783,33.808,205.545-150.029,34.122-179.856-195.049-33.808-205.545ZM1491.011,874.34c-96.337,9.28-102.733,154.752-12.108,177.528,68.347,17.177,123.613-32.853,113.907-102.377-7.406-53.054-50.024-80.139-101.8-75.151Z" fill="#000000"/>
<path d="M1184.906,725.632c45.59-4.04,85.318,11.12,106.432,53.237,34.04,67.901-4.419,149.031-82.742,154.664-138.847,9.986-148.954-196.801-23.69-207.901ZM1192.583,737.144c-71.742,4.994-110.782,91.848-62.155,148.882,78.983,92.637,210.73-18.184,143.351-108.789-18.078-24.31-50.377-42.238-81.196-40.093Z" fill="#000000"/>
<path d="M981.472,603.781c36.128-3.385,67.266,14.906,76.124,50.919,10.66,43.335-13.973,86.142-60.114,89.817-93.778,7.468-103.954-132.498-16.01-140.736ZM982.41,617.192c-67.707,7.638-65.072,119.621,16.032,112.934,69.944-5.767,63.353-121.89-16.032-112.934Z" fill="#000000"/>
<path d="M1692.528,758.248c51.997-5.379,93.44,58.52,58.705,102.832-51.901,66.209-149.27-9.434-104.023-74.265,9.978-14.297,27.647-26.739,45.319-28.567ZM1690.593,773.584c-10.489,1.252-23.856,10.403-30.331,18.605-30.628,38.795,10.809,94.116,56.441,77.54,56.406-20.489,36.766-103.65-26.11-96.146Z" fill="#000000"/>
<path d="M1084.149,960.697c28.101-2.758,52.133,10.266,60.16,38.097,10.262,35.576-8.336,71.711-47.029,74.815-76.046,6.101-83.216-106.033-13.132-112.913ZM1082.21,975.069c-48.092,5.738-44.178,90.76,15.069,85.107,34.042-3.248,47.344-46.763,26.805-71.862-10.335-12.629-26.316-15.101-41.874-13.245Z" fill="#000000"/>
<path d="M1479.501,576.916c6.6-.566,15.234-.748,21.824-.327,104.191,6.664,106.159,175.855-3.839,181.417-122.684,6.204-127.233-171.725-17.985-181.09Z" fill="#fff"/>
<path d="M1491.011,874.34c51.775-4.987,94.393,22.098,101.8,75.151,9.706,69.524-45.56,119.554-113.907,102.377-90.625-22.776-84.229-168.249,12.108-177.528Z" fill="#fff"/>
<path d="M1192.583,737.144c30.819-2.145,63.118,15.783,81.196,40.093,67.379,90.605-64.367,201.426-143.351,108.789-48.627-57.033-9.588-143.888,62.155-148.882Z" fill="#fff"/>
<path d="M982.41,617.192c79.386-8.955,85.977,107.168,16.032,112.934-81.105,6.687-83.739-105.297-16.032-112.934Z" fill="#fff"/>
<path d="M1690.593,773.584c62.876-7.504,82.515,75.657,26.11,96.146-45.632,16.575-87.069-38.746-56.441-77.54,6.475-8.202,19.843-17.353,30.331-18.605Z" fill="#fff"/>
<path d="M1082.21,975.069c15.558-1.856,31.539.616,41.874,13.245,20.539,25.099,7.237,68.614-26.805,71.862-59.247,5.653-63.162-79.369-15.069-85.107Z" fill="#fff"/>
<path d="M1207.505,631.942c-55.339-55.299,29.498-136.323,81.201-75.912,47.821,55.875-31.929,125.149-81.201,75.912ZM1238.602,550.01c-38.123,4.843-44.659,54.175-17.541,76.533,23.568,19.43,64.644,2.916,67.665-27.376,3.149-31.575-18.428-53.183-50.124-49.157Z" fill="#000000"/>
<path d="M1238.602,550.01c31.695-4.026,53.273,17.582,50.124,49.157-3.021,30.292-44.097,46.806-67.665,27.376-27.118-22.357-20.582-71.69,17.541-76.533Z" fill="#fff"/>
<path d="M677.48,593.896c30.722-3.25,61.736.563,92.069,5.718,11.385-28.722,27.168-56.902,44.934-82.203,14.89-21.205,31.726-38.332,49.609-56.89,1.407-5.065-.856-9.133-.21-14.612,3.985-33.753,40.98-51.292,69.719-32.783,27.249,17.55,24.62,55.873-.561,74.109-12.687,9.188-20.982,4.29-34.402,5.9-7.018.842-17.824,14.952-22.503,20.676-19.857,24.296-40.606,56.612-54.263,84.865-2.802,5.796-10.029,18.63-7.045,24.36,3.308,6.353,8.969,3.059,13.221.044,11.594-8.224,22.14-20.811,33.212-30.117,163.244-137.213,426.6-161.359,627.475-109.326,200.293,51.882,351.042,188.797,393.545,395.182,4.559,22.136,15.102,77.196,4.989,96.209-9.389,17.652-44.378,34.939-62.432,43.117-17.442,7.902-36.086,13.697-53.345,21.497,10.981,29.824,19.801,59.414,25.066,90.87,6.195,5.517,13.131,6.801,19.015,13.609,19.006,21.989,9.486,59.174-17.314,70.043-38.064,15.437-74.962-20.255-59.649-58.681,3.847-9.654,12.476-12.855,11.579-24.648-.933-12.275-17.838-64.063-24.656-74.187-.78-1.158-1.251-2.583-2.788-3.03l-125.942,28.201c-1.85,1.396-7.815,21.033-7.804,23.952.023,6.511,7.629,12.755,8.621,21.204,3.566,30.383-26.52,52.55-53.371,36.092-19.882-12.186-22.485-39.76-5.584-55.906,6.016-5.747,17.723-7.464,13.972-18.723l-76.788,10.135c2.872,17.127,8.861,33.646,12.198,50.648,3.706,18.884,3.047,42.162,8.437,59.685,3.849,12.513,16.959,15.988,21.115,30.699,11.986,42.428-36.498,76.573-71.503,48.465-18.485-14.843-22.231-41.164-9.019-60.846,3.605-5.371,11.92-9.488,11.914-15.914-.001-1.621-.941-3.226-.961-4.817-.458-35.465-12.136-67.656-22.116-101.167l-185.01,12.586-11.637,34.957c1.514,6.627,7.786,11.507,9.337,18.366,5.095,22.527-6.678,44.381-30.923,46.339-31.329,2.53-53.243-24.159-38.401-53.747,5.998-11.956,17.326-12.363,21.028-18.313,1.725-2.773,7.499-26.554,6.308-27.761l-113.734-2.833-1.053,1.947c3.034,22.746,10.668,46.697,12.096,69.499,1.118,17.853-2.491,39.778.068,56.54,1.043,6.829,12.544,14.758,15.767,22.613,10.102,24.622-1.629,53.903-27.791,61.425-43.309,12.452-76.948-38.567-47.507-73.405,3.153-3.731,10.875-7.879,12.338-10.691,1.173-2.255,1.879-7.703,2.073-10.401,2.306-32.193-6.688-70.14-14.902-101.27-.88-3.336-4.421-18.796-6.23-19.676l-100.784-11.503c-7.62,19.205-21.84,38.257-27.331,58.061-4.514,16.279-.982,13.684,5.136,26.513,7.986,16.745.819,40.309-15.499,49.477-35.825,20.126-75.86-21.61-51.928-56.717,5.976-8.766,11.37-7.883,17.625-13.08,4.522-3.757,6.954-19.323,8.669-25.383-19.352,1.647-38.598,4.697-58.011,5.791-124.531,7.019-282.982-27.102-365.136-128.155-35.996-44.276-39.81-102.305-29.795-156.802-36.719-9.008-66.237-39.101-77-75.104-17.767-59.429,10.813-120.077,69.104-141.528,41.452-15.254,85.02-6.355,117.772,22.796,10.79-7.339,20.7-15.88,31.471-23.25,26.525-18.15,55.332-32.842,86.632-40.984-1.692-40.507-6.782-81.876-18.292-120.947-5.486-18.621-13.635-40.621-23.008-57.59-3.052-5.525-6.647-12.733-12.474-15.352-13.353-6.003-21.617-3.032-31.037-17.9-31.419-49.594,51.054-84.653,67.745-37.032,4.027,11.49,1.501,15.775,1.139,26.606-.482,14.427,12.955,29.904,19.729,42.718,27.425,51.879,36.936,113.378,35.011,171.759ZM651.565,615.971c5.747-.273,10.396-.88,11.425-7.289,9.802-61.039-12.302-149.664-43.89-202.517-2.692-4.504-11.569-14.344-12.451-18.282-1.244-5.558,2.743-8.237,4.146-12.722,2.833-9.051-.727-18.867-7.171-25.483-21.003-21.562-60.872,16.743-34.084,37.916,7.398,5.847,15.611,7.102,24.842,4.983l1.01.769c42.902,65.223,56.683,145.394,56.171,222.623ZM757.398,714.52c1.328,1.54,7.945,4.515,9.81,2.201,19.266-79.419,50.905-157.273,105.089-219.221,3.854-4.406,14.771-17.349,19.842-18.531,5.483-1.278,9.303,1.267,14.204,1.703,36.799,3.273,45.188-51.332,10.266-60.15-15.422-3.894-29.779,2.475-35.872,17.295-3.758,9.141-2.752,16.948-2.206,26.523-51.433,50.713-93.038,114.017-112.293,184.248-3.638,13.268-12.505,47.612-10.955,59.879.181,1.431,1.243,5.04,2.116,6.052ZM922.179,953.694l-5.808,127.122c42.424,9.291,85.763,15.148,129.115,18.706,214.713,17.622,476.64-1.186,683.7-61.879,33.897-9.936,122.907-38.549,143.379-65.803,8.825-11.749,4.922-33.928,3.323-48.251-22.407-200.719-163.554-356.397-353.237-416.295-212.677-67.159-503.269-43.814-672.464,112.977-2.231,2.067-14.207,13.466-14.872,14.911-.345.749-.641,1.435-.485,2.286.195,3.82,9.614,11.075,12.464,14.507,36.324,43.739,56.259,104.023,64.328,159.723,38.622-11.504,81.448.727,98.045,39.64,24.96,58.522-27.094,116.472-87.487,102.355ZM762.875,612.134c-24.731-1.887-50.071-9.44-75.058-6.453-2.894.346-8.792,1.551-10.779,3.614-4.074,4.23-1.332,10.08-2.645,14.625-1.968,6.811-27.884,6.68-33.852,11.247l-1.455-18.242c-29.012,5.929-56.878,20.562-80.903,37.598-5.735,4.066-13.414,9.467-18.436,14.188-12.584,11.829-5.023,11.406,1.651,22.387,36.322,59.758,9.504,139.268-54.899,165.195-19.937,8.026-41.958,9.784-63.216,8.276-9.717,47.662-4.918,94.95,23.107,135.48,49.348,71.369,153.643,111.967,236.641,125.107,59.854,9.476,136.554,10.351,196.006-2.072,3.684-.77,16.974-3.403,18.001-6.948,11.679-101.089,20.189-205.767,1.801-306.538-10.774-59.044-35.043-130.32-82.68-169.667-6.616-5.465-7.701-6.85-12.186,1.293-13.214,23.988-17.188,60.359-24.657,86.643-2.207,7.768-1.639,11.747-10.662,8.488-10.061-3.634-17.898-13.365-28.808-14.853,3.44-37.313,13.012-73.453,23.032-109.368ZM432.581,649.832c-46.451,3.528-87.53,46.03-90.954,92.315-5.702,77.087,73.508,132.392,144.271,100.115,101.863-46.463,61.498-201.149-53.317-192.43ZM922.267,939.207c27.06,8.386,57.941-2.207,72.037-27.085,9.016-15.912,10.927-37.135,3.847-54.067-12.372-29.584-53.142-48.603-81.755-30.331l5.872,111.483ZM1758.807,1044.975c-1.407-.905-20.776,2.683-20.907,4.166,6.799,17.649,13.949,35.337,19.372,53.491,2.907,9.73,8.149,26.186,8.307,35.905.182,11.181-5.462,9.653-10.478,16.165-9.616,12.484-9.445,32.435,4.094,41.951,28.247,19.853,66.599-6.962,48.488-38.886-5.683-10.017-20.349-13.251-23.132-18.205-5.628-10.02-7.519-37.697-10.738-50.591-3.76-15.062-10.644-29.147-15.007-43.996ZM1580.393,1084.248c-17.764-4.349-11.932,17.268-17.718,24.853-4.157,5.45-15.848,3.855-20.102,15.401-11.951,32.439,39.282,42.816,41.751,11.05,1.147-14.767-10.238-17.023-10.425-25.921-.097-4.601,7.638-23.791,6.494-25.383ZM1452.205,1275.73c20.93,20.6,56.009,2.836,53.386-26.04-1.376-15.143-12.154-20.704-22.842-28.966-1.484-31.417-5.705-62.71-13.304-93.196-1.409-5.652-4.204-19.898-8.449-23.215-5.187-4.053-14.408-.743-20.639-1.903,3.181,18.926,10.818,36.701,15.068,55.445,4.811,21.22,7.679,42.97,7.771,64.779-.673,2.23-10.143,6.515-12.803,9.266-11.167,11.551-9.284,32.909,1.811,43.829ZM1061.791,1112.962c-5.096-.898-12.374.658-17.752,0,5.628,24.37,12.184,48.606,15.217,73.534,2.169,17.826,3.516,40.559,2.091,58.426-.218,2.738-.839,5.467-1.461,8.134-23.62,7.125-31.214,38.623-11.506,54.651,31.034,25.239,72.53-19.158,39.322-48.91-2.609-2.338-6.986-2.788-7.979-7.415,3.601-37.631.741-76.72-7.178-113.672-.881-4.109-4.506-20.375-6.696-22.569-.219-.22-3.831-2.139-4.057-2.179ZM1218.428,1117.031c-13.233,2.442-10.017,29.194-16.595,38.088-4.572,6.183-16.095,5.586-21.111,15.351-13.705,26.679,25.984,48.219,42.037,23.802,9.534-14.501.076-23.858-8.615-34.894l12.049-41.171c-.362-2.125-6.054-1.491-7.766-1.175ZM895.301,1132.16c-4.493,1.241-13.184.825-16.341,4.279-5.538,6.059-5.187,26.605-10.122,34.973-3.935,6.671-18.064,6.579-22.664,17.637-9.109,21.899,9.503,40.061,31.677,34.55,14.348-3.565,20.973-22.25,14.024-34.773-2.471-4.452-9.265-8.235-9.111-12.978l12.538-43.689Z" fill="#000000"/>
<path d="M762.875,612.134c-10.02,35.915-19.591,72.055-23.032,109.368,10.911,1.488,18.747,11.218,28.808,14.853,9.023,3.259,8.455-.72,10.662-8.488,7.469-26.284,11.443-62.655,24.657-86.643,4.485-8.142,5.57-6.757,12.186-1.293,47.638,39.347,71.906,110.623,82.68,169.667,18.388,100.771,9.878,205.449-1.801,306.538-1.026,3.544-14.317,6.178-18.001,6.948-59.452,12.423-136.152,11.548-196.006,2.072-82.998-13.14-187.293-53.738-236.641-125.107-28.024-40.53-32.824-87.818-23.107-135.48,21.257,1.507,43.279-.25,63.216-8.276,64.403-25.927,91.222-105.437,54.899-165.195-6.675-10.982-14.235-10.559-1.651-22.387,5.022-4.721,12.702-10.122,18.436-14.188,24.025-17.036,51.891-31.669,80.903-37.598l1.455,18.242c5.968-4.567,31.884-4.436,33.852-11.247,1.313-4.545-1.429-10.396,2.645-14.625,1.987-2.063,7.885-3.268,10.779-3.614,24.987-2.987,50.327,4.566,75.058,6.453ZM618.407,777.552c-68.55,71.854-30.465,211.098,73.095,223.998,115.769,14.421,190.227-103.52,130.309-202.248-42.013-69.224-148.187-79.629-203.404-21.751Z" fill="#fff"/>
<path d="M432.581,649.832c114.815-8.719,155.181,145.966,53.317,192.43-70.763,32.277-149.973-23.028-144.271-100.115,3.423-46.285,44.503-88.787,90.954-92.315ZM382.629,698.71c-32.709,5.088-32.298,62.657-.149,66.85,27.145,3.54,46.704-15.009,40.415-42.328-4.484-19.481-21.198-27.487-40.266-24.521Z" fill="#fff"/>
<path d="M757.398,714.52c-.873-1.012-1.935-4.621-2.116-6.052-1.549-12.267,7.318-46.611,10.955-59.879,19.255-70.231,60.86-133.535,112.293-184.248-.546-9.575-1.552-17.382,2.206-26.523,6.093-14.821,20.45-21.189,35.872-17.295,34.921,8.817,26.532,63.422-10.266,60.15-4.9-.436-8.721-2.981-14.204-1.703-5.071,1.182-15.989,14.125-19.842,18.531-54.183,61.948-85.823,139.802-105.089,219.221-1.865,2.314-8.482-.661-9.81-2.201Z" fill="#fff"/>
<path d="M651.565,615.971c.512-77.229-13.269-157.4-56.171-222.623l-1.01-.769c-9.232,2.118-17.445.864-24.842-4.983-26.789-21.173,13.08-59.479,34.084-37.916,6.444,6.615,10.003,16.432,7.171,25.483-1.404,4.485-5.39,7.163-4.146,12.722.881,3.938,9.759,13.778,12.451,18.282,31.588,52.853,53.692,141.477,43.89,202.517-1.029,6.409-5.678,7.017-11.425,7.289Z" fill="#fff"/>
<path d="M618.407,777.552c55.217-57.879,161.391-47.473,203.404,21.751,59.919,98.728-14.54,216.669-130.309,202.248-103.56-12.9-141.645-152.144-73.095-223.998ZM704.144,754.409c-92.113,4.782-142.626,118.646-83.258,190.14,52.088,62.727,154.013,56.978,193.973-16.117,45.56-83.338-17.591-178.858-110.715-174.023Z" fill="#000000"/>
<path d="M382.629,698.71c19.068-2.966,35.782,5.041,40.266,24.521,6.289,27.319-13.27,45.869-40.415,42.328-32.149-4.193-32.56-61.762.149-66.85Z" fill="#000000"/>
<path d="M704.144,754.409c93.124-4.835,156.275,90.685,110.715,174.023-39.96,73.096-141.885,78.844-193.973,16.117-59.368-71.494-8.855-185.358,83.258-190.14ZM679.051,878.515c18.658-18.687,7.25-56.618-20.404-59.022-47.789-4.153-49.304,73.467.807,67.728,6.48-.742,14.961-4.063,19.597-8.706Z" fill="#fff"/>
<path d="M679.051,878.515c-4.636,4.643-13.117,7.964-19.597,8.706-50.11,5.738-48.596-71.882-.807-67.728,27.653,2.403,39.062,40.334,20.404,59.022Z" fill="#000000"/>
</svg>