<?xml version="1.0" encoding="UTF-8"?><svg id="a" xmlns="http://www.w3.org/2000/svg" width="214.207mm" height="165.947mm" viewBox="0 0 607.2 470.4"><path d="M607.2,0v470.4H0V0h607.2ZM277.707,115.561c-14.97-39.766-46.013-71.601-89.524-77.611-51.078-7.055-106.584,15.455-123.081,67.176-18.808,58.965,19.066,118.801,71.109,144.705-24.753,19.938-44.414,46.393-47.9,78.934-3.434,32.058,11.089,72.953,36.164,93.671,36.523,30.176,89.341,24.911,126.713-.84,10.482-7.222,20.568-16.716,27.961-26.959,12.447,15.684,34.458,16.013,47.234.488,32.298,42.679,97.691,63.764,145.524,34.236,36.875-22.764,54.253-77.168,42.374-118.046-7.291-25.089-24.053-45.079-43.772-61.482,52.845-26.676,91.292-87.652,70.513-147.467-17.372-50.009-72.181-71.298-122.004-64.417-43.673,6.032-75.113,38.1-90.002,78.091-1.501-1.682-1.628-4.392-2.859-6.486-1.012-1.721-4.211-4.142-4.581-5.033-.583-1.403,3.336-13.683,4.201-15.94.962-2.512,6.866-14.618,8.619-15.593,1.498-.833,4.214.442,6.877-2.48,7.525-8.26-6.27-18.847-12.171-9.291-1.703,2.757-.48,4.42-1.301,6.851-.545,1.614-5.209,7.372-6.536,9.769-4.006,7.236-6.572,15.181-7.839,23.346-6.265-1.398-12.626-.869-18.972-.696-1.649-9.351-4.89-18.043-9.838-26.124-.961-1.569-4.494-5.675-4.81-6.742-.294-.993.308-1.885.201-2.991-.546-5.608-6.653-8.946-11.586-6.061-5.024,2.939-5.083,10.332,0,13.283,1.751,1.017,4.203.734,5.24,1.474,2.673,1.908,7.966,13.706,9.194,17.181.908,2.571,3.283,9.639,3.395,12,.082,1.738-1.484,1.893-2.565,2.971-3.359,3.351-3.702,5.009-5.016,9.377-.205.681.3.848-.961.703Z" fill="#fff"/><path d="M541.02,102.37c20.78,59.81-17.67,120.79-70.51,147.46,19.72,16.41,36.48,36.4,43.77,61.49,11.88,40.87-5.5,95.28-42.37,118.04-47.84,29.53-113.23,8.44-145.53-34.23-12.77,15.52-34.78,15.19-47.23-.49-7.39,10.24-17.48,19.73-27.96,26.96-37.37,25.75-90.19,31.01-126.72.84-25.07-20.72-39.59-61.62-36.16-93.67,3.49-32.55,23.15-59,47.9-78.94-52.04-25.9-89.92-85.74-71.11-144.7,16.5-51.73,72-74.24,123.08-67.18,43.51,6.01,74.56,37.84,89.53,77.61,1.26.15.75-.02.96-.7,1.31-4.37,1.66-6.03,5.01-9.38,1.08-1.08,2.65-1.23,2.57-2.97-.03-.74-.29-1.94-.65-3.31l2.63-.64c.26,1.05.5,2.09.73,3.11.33.78,1.96.13,2.1-.09.38-.6.33-1.86.02-3.48l2.77-.59c.23.99.42,1.98.6,2.98,6.35-.17,12.71-.7,18.98.69,1.26-8.16,3.83-16.11,7.83-23.34.58-1.05,1.8-2.74,3.03-4.45l2.48,1.25c-.36.47-.65.87-.83,1.16-4.85,7.69-8.63,17.2-9.32,26.27l2.33.55,2.65.54c-.1.66-.12,1.14-.03,1.36.37.89,3.57,3.31,4.59,5.04,1.23,2.09,1.35,4.8,2.85,6.48,14.89-39.99,46.33-72.06,90.01-78.09,49.82-6.88,104.63,14.41,122,64.42ZM425.67,63.3c60.41-6.23,110.71,35.12,91.6,98.29-18.42,60.9-92.95,86.73-150.6,89.67l-35.73.49,6.54,21.03c60.6.91,130.32-12.73,172.6-59.39,55.15-60.85,37.19-154-49.08-169.12-31.86-5.59-62.89-1.56-88.76,18.84-18.55,14.62-31.21,35.51-39.86,57.24,4.8-.34,9.25.77,13.39,3.16,2.11,1.22,3.4,2.9,5.07,4.05.4.28.47.66,1.2.47,13.33-33.38,35.53-60.8,73.63-64.73ZM470.28,424.38c30.68-19.83,47.13-63.89,41.88-99.43-4.34-29.34-23.37-54.51-46.48-72.02l-15.79,6.49c18.7,15.12,34.37,34.21,40.63,57.91,12.14,45.99-6.22,85.46-53,98.27-34.24,9.38-70.77-7.87-93.88-32.94-1.87-2.03-3.68-5.02-5.47-6.9-.38-.4-.32-.44-.99-.3-1.49,5.71-4.9,10.6-7.45,15.82,30.67,41.26,94.97,62.56,140.55,33.1ZM494.96,192.03c37.05-44.74,25.68-110.06-35.87-121.87-39.13-7.51-69.85,2.48-90.94,36.81-2.22,3.6-13.43,24.34-13.22,27,.14,1.65,1.26,3.66,1.45,5.79.71,8.34-2.06,15.51-8.6,20.71,1.37,8.11-.6,16.12-5.82,22.45-1.85,2.23-4.04,3.16-4.95,6.08-3.67,11.68-3.41,26.84-5.13,38.99l.02,18.48c21.74,1.12,44.32-.14,65.79-3.99,36.06-6.46,73.45-21.69,97.27-50.45ZM436.45,410.7c44.67-12.52,61.5-50.54,48.69-94.22-6.56-22.36-22.38-41.02-40.89-54.58l-18.62,5.64-1.16.98c10.03,6.68,19.95,16.12,27.04,25.95,25.87,35.89,25.15,87.37-26.17,96.97-27.73,5.19-60.78-19.23-73.68-42.69l-7.29-15.97c-.49,12.04-1.54,24.1-4.82,35.73.01,1.92,6.05,8.77,7.68,10.56,21.86,23.86,56.7,40.74,89.22,31.63ZM462.77,351.66c4.44-33.7-18.16-64.87-45.25-81.96-25.94,6.1-52.72,8.29-79.39,7.94,1.47,6.61,2.65,13.29,3.76,19.98,3.76,22.55,7.14,42.06,22.15,60.32,12.69,15.42,38.81,32.52,59.48,28.8,18.04-3.24,36.71-15.79,39.25-35.08ZM351.6,142.62c0-9.56-7.75-17.31-17.32-17.31s-17.32,7.75-17.32,17.31,7.76,17.32,17.32,17.32,17.32-7.75,17.32-17.32ZM321.83,189.65c12.34-3.05,22.09-12.84,21.58-26.14-7.04,1.7-13.05,2.33-19.67-1.19-15.9-8.45-15.56-32.25.91-39.62-.89-6.71-2.6-13.5-9.65-15.9-5.67-1.94-19.35-2.12-24.83.37-6.07,2.76-6.76,8.59-8,14.42,12.52,6.32,18.25,21.31,9.93,33.54-6.41,9.43-17.91,11.93-28.31,7.91-1.46,13.61,9.13,23.6,21.49,26.71,9.89,2.48,26.63,2.36,36.55-.1ZM336.07,362.12c10.3-46.02-4.46-102.59-23.9-144.59-2.34-5.05-5.62-12.38-8.48-16.95-.17-.27-.72-1.34-1.04-1.1-17.93,37.01-31.86,77.22-34.54,118.68-1.47,22.81,1.1,76.07,29.35,82.86,22.56,5.42,34.64-21.2,38.61-38.9ZM307.44,196.12l19.66,43.63c-.49-16.27,1.46-32.46,4.31-48.43-7.31,3.77-15.8,4.93-23.97,4.8ZM281.06,236.4l17.74-40.28c-7.57.38-14.95-1.42-22.06-3.83,2.42,14.57,4.21,29.28,4.32,44.11ZM290.94,142.62c0-9.55-7.75-17.29-17.3-17.29s-17.3,7.74-17.3,17.29,7.75,17.29,17.3,17.29,17.3-7.74,17.3-17.29ZM270.05,272.62l6.21-20.87c-51.76,1.23-108.98-6.36-150.35-39.82-30.9-25-49.89-67.39-32.8-106.13,14.96-33.88,54.65-46.17,89.38-42.5,38.08,4.02,60.25,31.85,73.63,65.21,4.88-5.15,10.88-8.44,18.22-8.16-13.77-37.11-41.08-68.88-81.52-76.48-73.03-13.75-142.6,37.26-124.87,115.72,18.59,82.21,112.13,111.34,186.47,113.27,2.08.06,14.93.22,15.63-.24ZM276.18,390.17l-7.11-13.75c-.62,1.42-2.07,3.18-3.11,4.32-31.4,34.24-77.44,51.12-119.64,24.17-28.93-18.49-36.77-47.38-30.58-80.37,4.95-26.35,20.94-48.03,41.57-64.41l-15.34-7.23c-.65-.31-1.06.08-1.6.34-1.92.95-6.87,5.45-8.73,7.12-30.1,27.21-45.37,61.62-35.87,102.54,11.63,50.09,49.04,80.49,101.53,74.35,30.56-3.57,61.18-22.22,78.88-47.08ZM275.78,246.46c.86-14.63-.22-29.77-2.48-44.27-.39-2.53-1.88-12.88-2.99-14.26-.76-.95-2.96-2.26-4.13-3.55-6.47-7.12-8.34-14.77-6.78-24.37-5.51-5.08-8.74-12.09-8.02-19.69.2-2.1,1.6-4.93,1.73-6.37.13-1.42-6.56-14.64-7.77-16.96-20.54-39.14-49.03-55.17-93.87-47.31-70.91,12.43-75.96,87.97-29.17,132.44,33.84,32.17,86.6,43.58,132.12,44.85,2.59.07,20.58.23,21.36-.51ZM269.07,277.64c-26.51.37-53.11-1.67-78.92-7.7-27.08,16.93-47.76,45.99-45.3,79.38,1.72,23.3,30.56,41.5,52.3,37.43,24.17-4.53,48.35-25.02,58.23-47.27,6.29-14.17,7.6-25.96,9.93-40.9,1.1-7.02,2.42-13.98,3.76-20.94ZM267.5,370.03c-3.28-11.5-3.91-23.48-4.91-35.34-8.89,25.44-30.46,46.31-56.1,54.69-26.56,8.68-64.22-8.62-66.43-38.62-2.17-29.23,10.27-53.88,31.39-73.14,3.64-3.31,7.88-6,11.29-9.57l-19.8-5.68c-30.35,21.91-48.24,55.99-43.46,94.09,3.82,30.38,31.92,51.55,60.76,56.26,29.87,4.88,63.12-13.95,82.36-35.82,1.06-1.2,4.9-5.65,4.9-6.87Z"/><path d="M517.27,161.59c19.11-63.17-31.19-104.52-91.6-98.29-38.1,3.93-60.3,31.35-73.63,64.73-.73.19-.8-.19-1.2-.47-1.67-1.15-2.96-2.83-5.07-4.05-4.14-2.39-8.59-3.5-13.39-3.16,8.65-21.73,21.31-42.62,39.86-57.24,25.87-20.4,56.9-24.43,88.76-18.84,86.27,15.12,104.23,108.27,49.08,169.12-42.28,46.66-112,60.3-172.6,59.39l-6.54-21.03,35.73-.49c57.65-2.94,132.18-28.77,150.6-89.67Z" fill="#fff"/><path d="M512.16,324.95c5.25,35.54-11.2,79.6-41.88,99.43-45.58,29.46-109.88,8.16-140.55-33.1,2.55-5.22,5.96-10.11,7.45-15.82.67-.14.61-.1.99.3,1.79,1.88,3.6,4.87,5.47,6.9,23.11,25.07,59.64,42.32,93.88,32.94,46.78-12.81,65.14-52.28,53-98.27-6.26-23.7-21.93-42.79-40.63-57.91l15.79-6.49c23.11,17.51,42.14,42.68,46.48,72.02Z" fill="#fff"/><path d="M459.09,70.16c61.55,11.81,72.92,77.13,35.87,121.87-23.82,28.76-61.21,43.99-97.27,50.45-21.47,3.85-44.05,5.11-65.79,3.99l-.02-18.48c1.72-12.15,1.46-27.31,5.13-38.99.91-2.92,3.1-3.85,4.95-6.08,5.22-6.33,7.19-14.34,5.82-22.45,6.54-5.2,9.31-12.37,8.6-20.71-.19-2.13-1.31-4.14-1.45-5.79-.21-2.66,11-23.4,13.22-27,21.09-34.33,51.81-44.32,90.94-36.81ZM487.54,165.92c20.54-38.58-3.9-79.48-47.83-76.59-53.56,3.52-78.27,63.73-84.72,109.5-.98,6.92-2.29,17.53-1.83,24.32.24,3.54,4.18,2.87,6.79,2.69,11.28-.76,25.99-4.36,37.18-6.94,35.69-8.22,71.95-18.28,90.41-52.98Z" fill="#fff"/><path d="M439.71,89.33c43.93-2.89,68.37,38.01,47.83,76.59-18.46,34.7-54.72,44.76-90.41,52.98-11.19,2.58-25.9,6.18-37.18,6.94-2.61.18-6.55.85-6.79-2.69-.46-6.79.85-17.4,1.83-24.32,6.45-45.77,31.16-105.98,84.72-109.5ZM481.45,166.54c28.36-47.61-17.31-87.73-63.87-66.25-24.76,11.41-38.3,33.99-47.32,58.66-7.2,19.68-11.74,41.07-11.98,62.1,25.31-3.96,51.45-8.94,75.55-17.73,19.7-7.19,36.68-18.42,47.62-36.78Z"/><path d="M485.14,316.48c12.81,43.68-4.02,81.7-48.69,94.22-32.52,9.11-67.36-7.77-89.22-31.63-1.63-1.79-7.67-8.64-7.68-10.56,3.28-11.63,4.33-23.69,4.82-35.73l7.29,15.97c12.9,23.46,45.95,47.88,73.68,42.69,51.32-9.6,52.04-61.08,26.17-96.97-7.09-9.83-17.01-19.27-27.04-25.95l1.16-.98,18.62-5.64c18.51,13.56,34.33,32.22,40.89,54.58Z" fill="#fff"/><path d="M417.58,100.29c46.56-21.48,92.23,18.64,63.87,66.25-10.94,18.36-27.92,29.59-47.62,36.78-24.1,8.79-50.24,13.77-75.55,17.73.24-21.03,4.78-42.42,11.98-62.1,9.02-24.67,22.56-47.25,47.32-58.66ZM468.08,145.05c0-16.19-13.13-29.31-29.32-29.31s-29.31,13.12-29.31,29.31,13.12,29.31,29.31,29.31,29.32-13.13,29.32-29.31Z" fill="#fff"/><path d="M417.52,269.7c27.09,17.09,49.69,48.26,45.25,81.96-2.54,19.29-21.21,31.84-39.25,35.08-20.67,3.72-46.79-13.38-59.48-28.8-15.01-18.26-18.39-37.77-22.15-60.32-1.11-6.69-2.29-13.37-3.76-19.98,26.67.35,53.45-1.84,79.39-7.94ZM437.37,332.59c0-14.4-11.68-26.08-26.09-26.08s-26.08,11.68-26.08,26.08,11.68,26.08,26.08,26.08,26.09-11.68,26.09-26.08Z" fill="#fff"/><path d="M438.76,115.74c16.19,0,29.32,13.12,29.32,29.31s-13.13,29.31-29.32,29.31-29.31-13.13-29.31-29.31,13.12-29.31,29.31-29.31ZM463.06,145.05c0-13.42-10.88-24.3-24.3-24.3s-24.31,10.88-24.31,24.3,10.88,24.3,24.31,24.3,24.3-10.88,24.3-24.3Z"/><path d="M438.76,120.75c13.42,0,24.3,10.88,24.3,24.3s-10.88,24.3-24.3,24.3-24.31-10.88-24.31-24.3,10.88-24.3,24.31-24.3Z" fill="#fff"/><path d="M411.28,306.51c14.41,0,26.09,11.68,26.09,26.08s-11.68,26.08-26.09,26.08-26.08-11.68-26.08-26.08,11.68-26.08,26.08-26.08ZM432.34,332.6c0-11.63-9.43-21.06-21.06-21.06s-21.06,9.43-21.06,21.06,9.43,21.06,21.06,21.06,21.06-9.43,21.06-21.06Z"/><circle cx="411.28" cy="332.6" r="21.06" fill="#fff"/><path d="M334.28,125.31c9.57,0,17.32,7.75,17.32,17.31s-7.75,17.32-17.32,17.32-17.32-7.75-17.32-17.32,7.76-17.31,17.32-17.31ZM345.99,147.2c0-5.78-4.69-10.47-10.47-10.47s-10.46,4.69-10.46,10.47,4.68,10.46,10.46,10.46,10.47-4.68,10.47-10.46Z" fill="#fff"/><path d="M343.41,163.51c.51,13.3-9.24,23.09-21.58,26.14-9.92,2.46-26.66,2.58-36.55.1-12.36-3.11-22.95-13.1-21.49-26.71,10.4,4.02,21.9,1.52,28.31-7.91,8.32-12.23,2.59-27.22-9.93-33.54,1.24-5.83,1.93-11.66,8-14.42,5.48-2.49,19.16-2.31,24.83-.37,7.05,2.4,8.76,9.19,9.65,15.9-16.47,7.37-16.81,31.17-.91,39.62,6.62,3.52,12.63,2.89,19.67,1.19Z" fill="#fff"/><path d="M335.52,136.73c5.78,0,10.47,4.69,10.47,10.47s-4.69,10.46-10.47,10.46-10.46-4.68-10.46-10.46,4.68-10.47,10.46-10.47Z"/><path d="M329.1,61.22c5.9-9.56,19.7,1.03,12.17,9.29-2.66,2.92-5.38,1.65-6.88,2.48-1.75.97-7.65,13.08-8.62,15.59-.73,1.91-3.63,10.96-4.17,14.58l-2.65-.54c1.21-8.07,4.12-16.65,8.07-23.82,1-1.81,5.13-8.66,6.77-9.07,2.22-.55,4.25,1.29,6.02-2.6,2.5-5.49-5.55-9.4-8.33-4.01-1.25,2.43.31,3.6-.25,5.46-.22.72-2.93,4.02-4.46,6.06l-2.48-1.25c1.59-2.2,3.2-4.41,3.51-5.32.82-2.43-.4-4.09,1.3-6.85Z"/><path d="M331.48,63.12c2.78-5.39,10.83-1.48,8.33,4.01-1.77,3.89-3.8,2.05-6.02,2.6-1.64.41-5.77,7.26-6.77,9.07-3.95,7.17-6.86,15.75-8.07,23.82l-2.33-.55c.69-9.07,4.47-18.58,9.32-26.27.18-.29.47-.69.83-1.16,1.53-2.04,4.24-5.34,4.46-6.06.56-1.86-1-3.03.25-5.46Z" fill="#fff"/><path d="M312.17,217.53c19.44,42,34.2,98.57,23.9,144.59-3.97,17.7-16.05,44.32-38.61,38.9-28.25-6.79-30.82-60.05-29.35-82.86,2.68-41.46,16.61-81.67,34.54-118.68.32-.24.87.83,1.04,1.1,2.86,4.57,6.14,11.9,8.48,16.95Z" fill="#fff"/><path d="M327.1,239.75l-19.66-43.63c8.17.13,16.66-1.03,23.97-4.8-2.85,15.97-4.8,32.16-4.31,48.43Z" fill="#fff"/><path d="M298.8,196.12l-17.74,40.28c-.11-14.83-1.9-29.54-4.32-44.11,7.11,2.41,14.49,4.21,22.06,3.83Z" fill="#fff"/><path d="M293.85,97.51l-2.77.59c-1.11-5.78-5.65-16.25-7.06-18.82-1.16-2.12-7.53-10.39-7.68-11.05-.43-1.84,1.82-4.2-1.06-6.59-3.79-3.15-9.06,1.05-7.29,5.37.34.81,2.13,2.54,2.98,2.8,3.06.93,2.47-1.63,5.69,2.44,5.81,7.34,9.31,17.1,11.57,26.31l-2.63.64c-.8-3.03-2.12-6.92-2.75-8.69-1.22-3.47-6.52-15.27-9.19-17.18-1.04-.74-3.49-.46-5.24-1.48-5.08-2.95-5.02-10.34,0-13.28,4.93-2.88,11.04.45,11.58,6.06.11,1.11-.49,2-.2,2.99.32,1.07,3.85,5.18,4.81,6.74,4.42,7.22,7.48,14.93,9.24,23.15Z"/><path d="M291.08,98.1c.31,1.62.36,2.88-.02,3.48-.14.22-1.77.87-2.1.09-.23-1.02-.47-2.06-.73-3.11-2.26-9.21-5.76-18.97-11.57-26.31-3.22-4.07-2.63-1.51-5.69-2.44-.85-.26-2.64-1.99-2.98-2.8-1.77-4.32,3.5-8.52,7.29-5.37,2.88,2.39.63,4.75,1.06,6.59.15.66,6.52,8.93,7.68,11.05,1.41,2.57,5.95,13.04,7.06,18.82Z" fill="#fff"/><path d="M273.64,125.33c9.55,0,17.3,7.74,17.3,17.29s-7.75,17.29-17.3,17.29-17.3-7.74-17.3-17.29,7.75-17.29,17.3-17.29ZM283.02,148.67c0-5.77-4.68-10.45-10.45-10.45s-10.46,4.68-10.46,10.45,4.68,10.45,10.46,10.45,10.45-4.68,10.45-10.45Z" fill="#fff"/><path d="M272.57,138.22c5.77,0,10.45,4.68,10.45,10.45s-4.68,10.45-10.45,10.45-10.46-4.68-10.46-10.45,4.68-10.45,10.46-10.45Z"/><path d="M276.26,251.75l-6.21,20.87c-.7.46-13.55.3-15.63.24-74.34-1.93-167.88-31.06-186.47-113.27C50.22,81.13,119.79,30.12,192.82,43.87c40.44,7.6,67.75,39.37,81.52,76.48-7.34-.28-13.34,3.01-18.22,8.16-13.38-33.36-35.55-61.19-73.63-65.21-34.73-3.67-74.42,8.62-89.38,42.5-17.09,38.74,1.9,81.13,32.8,106.13,41.37,33.46,98.59,41.05,150.35,39.82Z" fill="#fff"/><path d="M269.07,376.42l7.11,13.75c-17.7,24.86-48.32,43.51-78.88,47.08-52.49,6.14-89.9-24.26-101.53-74.35-9.5-40.92,5.77-75.33,35.87-102.54,1.86-1.67,6.81-6.17,8.73-7.12.54-.26.95-.65,1.6-.34l15.34,7.23c-20.63,16.38-36.62,38.06-41.57,64.41-6.19,32.99,1.65,61.88,30.58,80.37,42.2,26.95,88.24,10.07,119.64-24.17,1.04-1.14,2.49-2.9,3.11-4.32Z" fill="#fff"/><path d="M273.3,202.19c2.26,14.5,3.34,29.64,2.48,44.27-.78.74-18.77.58-21.36.51-45.52-1.27-98.28-12.68-132.12-44.85-46.79-44.47-41.74-120.01,29.17-132.44,44.84-7.86,73.33,8.17,93.87,47.31,1.21,2.32,7.9,15.54,7.77,16.96-.13,1.44-1.53,4.27-1.73,6.37-.72,7.6,2.51,14.61,8.02,19.69-1.56,9.6.31,17.25,6.78,24.37,1.17,1.29,3.37,2.6,4.13,3.55,1.11,1.38,2.6,11.73,2.99,14.26ZM254.09,225.26c.9-.91.66-7.11.61-8.78-1.56-46.29-24.58-113.28-75.12-125.34-41.44-9.89-78.15,21.99-63.52,64.95,15.92,46.76,72.45,59.53,115.59,67.13,3.56.63,20.5,3.97,22.44,2.04Z" fill="#fff"/><path d="M190.15,269.94c25.81,6.03,52.41,8.07,78.92,7.7-1.34,6.96-2.66,13.92-3.76,20.94-2.33,14.94-3.64,26.73-9.93,40.9-9.88,22.25-34.06,42.74-58.23,47.27-21.74,4.07-50.58-14.13-52.3-37.43-2.46-33.39,18.22-62.45,45.3-79.38ZM222.72,332.57c0-14.4-11.68-26.08-26.09-26.08s-26.09,11.68-26.09,26.08,11.68,26.08,26.09,26.08,26.09-11.67,26.09-26.08Z" fill="#fff"/><path d="M262.59,334.69c1,11.86,1.63,23.84,4.91,35.34,0,1.22-3.84,5.67-4.9,6.87-19.24,21.87-52.49,40.7-82.36,35.82-28.84-4.71-56.94-25.88-60.76-56.26-4.78-38.1,13.11-72.18,43.46-94.09l19.8,5.68c-3.41,3.57-7.65,6.26-11.29,9.57-21.12,19.26-33.56,43.91-31.39,73.14,2.21,30,39.87,47.3,66.43,38.62,25.64-8.38,47.21-29.25,56.1-54.69Z" fill="#fff"/><path d="M254.7,216.48c.05,1.67.29,7.87-.61,8.78-1.94,1.93-18.88-1.41-22.44-2.04-43.14-7.6-99.67-20.37-115.59-67.13-14.63-42.96,22.08-74.84,63.52-64.95,50.54,12.06,73.56,79.05,75.12,125.34ZM249.42,220.85c1.16-.84.03-3.2-.01-4.36-1.89-48.95-29.32-127.79-90.75-121.89-25.45,2.45-44.3,23.38-40.54,49.36,4.41,30.49,31.35,50.83,58.61,60.32,23.19,8.07,48.39,13.13,72.69,16.57Z"/><path d="M249.41,216.49c.04,1.16,1.17,3.52.01,4.36-24.3-3.44-49.5-8.5-72.69-16.57-27.26-9.49-54.2-29.83-58.61-60.32-3.76-25.98,15.09-46.91,40.54-49.36,61.43-5.9,88.86,72.94,90.75,121.89ZM198.45,145.05c0-16.18-13.12-29.3-29.31-29.3s-29.31,13.12-29.31,29.3,13.13,29.3,29.31,29.3,29.31-13.12,29.31-29.3Z" fill="#fff"/><path d="M196.63,306.49c14.41,0,26.09,11.68,26.09,26.08s-11.68,26.08-26.09,26.08-26.09-11.67-26.09-26.08,11.68-26.08,26.09-26.08ZM217.72,332.57c0-11.64-9.44-21.08-21.09-21.08s-21.09,9.44-21.09,21.08,9.45,21.09,21.09,21.09,21.09-9.44,21.09-21.09Z"/><path d="M196.63,311.49c11.65,0,21.09,9.44,21.09,21.08s-9.44,21.09-21.09,21.09-21.09-9.44-21.09-21.09,9.45-21.08,21.09-21.08Z" fill="#fff"/><path d="M169.14,115.75c16.19,0,29.31,13.12,29.31,29.3s-13.12,29.3-29.31,29.3-29.31-13.12-29.31-29.3,13.13-29.3,29.31-29.3ZM193.44,145.05c0-13.42-10.89-24.3-24.31-24.3s-24.3,10.88-24.3,24.3,10.88,24.3,24.3,24.3,24.31-10.88,24.31-24.3Z"/><path d="M169.13,120.75c13.42,0,24.31,10.88,24.31,24.3s-10.89,24.3-24.31,24.3-24.3-10.88-24.3-24.3,10.88-24.3,24.3-24.3Z" fill="#fff"/></svg>