<?xml version="1.0" encoding="UTF-8"?>
<svg id="a" xmlns="http://www.w3.org/2000/svg" width="800.16" height="590.16" viewBox="0 0 800.16 590.16">
<path d="M800.16,0v590.16H0V0h800.16ZM427.679,147.296c-.997-1.14,7.386-13.69,8.729-15.502,6.458-8.714,16.663-18.548,26.303-23.608,2.907-1.526,18.617-7.354,19.428-8.409,1.975-2.569.472-6.694-3.208-6.577-5.292.168-18.221,7.108-23.078,10.049-15.801,9.569-29.204,24.866-35.905,42.075-32.156-2.598-65.518,18.396-66.184,52.837-31.801,3.498-63.493,14.972-89.434,33.673-20.1,14.49-39.161,35.691-43.78,60.836-4.82,26.244,7.391,48.55,28.578,63.205l-.018,107.867c.185,2.754,3.323,4.324,5.449,5.589,46.491,27.683,110.669,29.221,163.263,27.727,41.284-1.173,85.91-4.386,119.027-31.68,3.786-23.307,3.919-47.181,4.573-70.758.031-1.135.494-2.185.52-3.319l.056-22.495c43.719-23.814,46.087-77.346,17.395-114.459-20.097-25.996-52.285-41.043-83.99-47.521.395-7.012,1.76-13.236.627-20.288-3.685-22.949-28.955-32.809-48.348-39.241Z" fill="#fff"/>
<path d="M353.742,206.325c2.365,14.607,8.462,27.939,21.075,36.28,30.985,20.49,82.15,4.918,97.536-28.6,24.396,5.394,49.148,14.783,68.134,31.409,24.278,21.258,38.667,56.606,25.037,87.894-17.899,41.087-83.533,48.618-100.769,3.161-1.237-3.263-1.573-6.921-2.91-10.046-.59-1.38-1.411-3.484-3.205-3.475-3.774.018-10.506,12.34-13.214,15.541-23.634,27.929-73.573,40.083-99.811,9.116-5.893-6.956-6.491-13.172-10.671-19.561-5.364-8.199-9.271,3.403-12.08,7.403-18.68,26.601-59.262,28.621-80.956,4.508-29.157-32.408-10.64-70.506,18.025-94.762,25.862-21.885,60.086-35.562,93.81-38.867Z" fill="#fff"/>
<path d="M416.158,153.06c-1.143,8.347-4.75,17.683-3.838,26.155.404,3.755,4.971,4.071,6.937,1.168l5.103-25.371c16.409,3.383,42.147,14.75,44.062,33.849,5.57,55.563-90.599,78.161-105.3,24.649-9.575-34.854,19.221-62.203,53.036-60.451Z" fill="#fff"/>
<path d="M427.679,147.296c19.393,6.431,44.663,16.291,48.348,39.241,1.132,7.052-.233,13.276-.627,20.288,31.705,6.479,63.893,21.525,83.99,47.521,28.692,37.113,26.325,90.645-17.395,114.459l-.056,22.495c-.026,1.135-.488,2.184-.52,3.319-.654,23.577-.787,47.451-4.573,70.758-33.117,27.295-77.743,30.507-119.027,31.68-52.594,1.495-116.771-.044-163.263-27.727-2.125-1.265-5.263-2.835-5.449-5.589l.018-107.867c-21.187-14.656-33.398-36.961-28.578-63.205,4.618-25.145,23.679-46.346,43.78-60.836,25.941-18.701,57.633-30.175,89.434-33.673.666-34.441,34.028-55.434,66.184-52.837,6.701-17.209,20.104-32.506,35.905-42.075,4.857-2.941,17.785-9.881,23.078-10.049,3.68-.117,5.184,4.008,3.208,6.577-.811,1.055-16.521,6.883-19.428,8.409-9.64,5.06-19.845,14.893-26.303,23.608-1.343,1.812-9.726,14.362-8.729,15.502ZM416.158,153.06c-33.815-1.752-62.611,25.597-53.036,60.451,14.7,53.511,110.87,30.913,105.3-24.649-1.915-19.1-27.653-30.466-44.062-33.849l-5.103,25.371c-1.966,2.903-6.533,2.586-6.937-1.168-.912-8.472,2.695-17.808,3.838-26.155ZM353.742,206.325c-33.725,3.305-67.948,16.982-93.81,38.867-28.665,24.256-47.182,62.354-18.025,94.762,21.694,24.113,62.275,22.093,80.956-4.508,2.809-4,6.716-15.602,12.08-7.403,4.18,6.389,4.778,12.605,10.671,19.561,26.238,30.967,76.178,18.813,99.811-9.116,2.708-3.201,9.44-15.523,13.214-15.541,1.794-.009,2.614,2.096,3.205,3.475,1.337,3.125,1.673,6.783,2.91,10.046,17.235,45.458,82.87,37.927,100.769-3.161,13.63-31.289-.759-66.636-25.037-87.894-18.987-16.625-43.738-26.015-68.134-31.409-15.386,33.518-66.551,49.09-97.536,28.6-12.613-8.341-18.71-21.673-21.075-36.28ZM257.28,360.813v25.43c71.09,11.202,143.621,13.825,215.22,5.698,20.493-2.326,40.93-5.747,61.06-9.991l.681-10.103c-5.445-.049-10.693,1.82-16.087,2.395-15.806,1.686-30.259-1.031-42.905-10.84-8.323-6.456-15.189-15.839-17.814-26.101-1.439-1.257-6.038,6.189-6.95,7.203-26.052,28.994-69.656,40.673-102.436,15.059-6.781-5.299-13.528-12.638-16.376-20.819-1.694-1.197-5.907,5.161-6.947,6.242-14.631,15.199-35.032,22.06-56.016,18.555-3.891-.65-7.604-1.865-11.431-2.728ZM257.28,393.44v24.71c.277.485.751.53,1.201.719,3.106,1.309,12.108,2.476,15.99,3.209,66.862,12.623,139.458,15.591,207.207,9.264,16.792-1.568,33.476-4.298,50.191-6.446l1.892-34.334c-25.153,3.707-50.205,8.235-75.603,10.553-44.239,4.036-89.645,4.353-133.914.958-22.439-1.721-44.844-4.697-66.964-8.632ZM256.32,427.746v32.147c15.338,11.139,35.35,17.709,53.754,22.078,42.553,10.101,95.475,10.088,138.964,5.988,28.289-2.667,58.23-9.232,80.793-27.196l1.532-27.501c-66.986,9.474-135.41,11.728-202.797,4.796-23.918-2.46-47.536-6.702-71.164-10.937l-1.08.625Z" fill="#000000"/>
<path d="M256.32,427.746l1.08-.625c23.628,4.234,47.246,8.476,71.164,10.937,67.387,6.932,135.811,4.678,202.797-4.796l-1.532,27.501c-22.562,17.964-52.504,24.53-80.793,27.196-43.489,4.1-96.411,4.112-138.964-5.988-18.403-4.368-38.415-10.939-53.754-22.078v-32.147Z" fill="#fff"/>
<path d="M257.28,393.44c22.12,3.935,44.525,6.912,66.964,8.632,44.269,3.395,89.675,3.079,133.914-.958,25.398-2.317,50.45-6.846,75.603-10.553l-1.892,34.334c-16.715,2.148-33.399,4.878-50.191,6.446-67.749,6.327-140.345,3.359-207.207-9.264-3.882-.733-12.884-1.899-15.99-3.209-.449-.189-.924-.234-1.201-.719v-24.71Z" fill="#fff"/>
<path d="M257.28,360.813c3.827.863,7.54,2.078,11.431,2.728,20.984,3.505,41.385-3.356,56.016-18.555,1.04-1.08,5.252-7.438,6.947-6.242,2.848,8.181,9.595,15.521,16.376,20.819,32.78,25.614,76.384,13.935,102.436-15.059.912-1.015,5.511-8.46,6.95-7.203,2.625,10.262,9.491,19.645,17.814,26.101,12.646,9.809,27.1,12.526,42.905,10.84,5.393-.575,10.642-2.445,16.087-2.395l-.681,10.103c-20.13,4.244-40.566,7.664-61.06,9.991-71.6,8.127-144.131,5.504-215.22-5.698v-25.43Z" fill="#fff"/></svg>