<?xml version="1.0" encoding="UTF-8"?><svg id="a" xmlns="http://www.w3.org/2000/svg" width="800.608mm" height="590.635mm" viewBox="0 0 2269.44 1674.24">
<path d="M1.919,0h2267.521v1673.281l-2267.526.005L1.919,0ZM2268.48.959H2.879v1671.362h2265.602V.959Z" fill="#fff"/>
<polygon points="1.919 0 1.914 1673.286 2269.44 1673.281 2269.44 1674.24 0 1674.24 0 0 1.919 0" fill="#fff"/>
<path d="M2268.48.959v1671.362H2.879V.959h2265.602ZM1720.552,239.867l-5.756,1.902,5.751.966.005-2.868ZM1265.436,263.204c-1.267-.573-17.338-.694-19.195-.277-.585.131-8.887,5.738-9.852,6.631-22.678,20.996-24.495,58.246-36.329,83.564-11.809,25.263-28.665,44.361-37.527,71.899-.912,2.833-3.268,5.037-2.387,8.657-5.95,1.172-7.835-4.236-10.855-6.408-17.692-12.728-38.227-22.275-58.486-27.394-12.124-3.064-34.067-3.643-46.052.277-.482.158-5.803,3.64-6.191,3.739-17.51,4.491-40.291,15.773-55.123,25.078-1.714,1.075-4.354,2.39-5.576,3.294-3.999,2.958-2.957,6.57-9.515,5.364-.646,5.111-2.385,2.843-4.632,4.011-3.548,1.845-11.709,11.134-15.407,14.058-15.951,12.612-33.466,24.104-49.395,37.447-2.788,2.336-10.393,10.913-12.534,12.194-.985.589-2.616-.011-3.358.461-.435.277-1.069,3.261-2.561,4.67-.663.626-7.986,7.05-8.474,7.342-.985.589-2.616-.011-3.358.461-.433.276-1.071,3.261-2.561,4.67-1.829,1.73-7.063,4.55-9.097,6.413-10.547,9.658-20.472,20.154-31.127,29.613-.696.618-2.452.48-3.017,1.322-.751,1.119-.126,3.274-.572,3.748-.231.245-4.507.332-6.329,2.31-5.851,6.35-13.006,12.758-19.426,19.387-4.699,4.852-10.652,11.967-16.015,16.674-1.266,1.111-5.688,2.903-5.901,3.161-.537.65.096,2.346-.483,3.406-.292.535-8.061,8.381-8.611,8.646-1.184.571-3.248.009-3.539.298-.231.231.193,2.313-.33,3.526-.505,1.171-4.055,2.4-4.889,3.209-1.134,1.1-3.202,5.237-3.673,5.5-1.088.607-3.264-.105-3.592.228-.233.236.226,2.337-.308,3.548-.779,1.766-10.321,10.08-12.201,12.211-21.062,23.879-32.232,44.716-39.35,76.631-.16.719-1.707.58-1.883,1.311-3.194,13.311,5.347,43.939,11.813,56.141,3.834,7.235,8.136,13.767,12.817,21.645.867,1.459,4.291,3.194,2.273,6.495-2.087,1.234-5.693-.062-8.035.47-.767.174-.253,1.743-2.032,1.975-15.796,2.061-36.731.137-53.793,1.852-21.422,2.153-44.87,6.277-62.145,14.656-8.312,4.032-17.242,8.467-22.051,16.266-.388.629-3.632,7.427-3.688,7.867-2.809,21.905,5.473,35.434,19.564,50.123,14.712,8.266,31.613,9.748,45.997,18.529,13.07,11.024,9.311,28.065,13.445,43.417,2.639,9.8,11.721,23.198,18.977,29.957,6.595,6.143,20.378,12.089,28.059,16.121,20.87,10.954,38.462,23.984,57.888,35.579,4.795,2.862,9.292,4.265,14.959,6.489.848.333.818,1.625,1.459,1.775,1.79.418,18.917.294,20.189-.235,2.725-3.71,7.638-6.945,9.108-11.496,1.773-5.491,3.165-17.537,2.64-23.245-1.664-18.114-1.031-36.132,2.903-53.565,2.613-11.579,6.027-24.768,7.612-37.64.524-4.258-.756-8.709,1.055-12.874,1.372-.356,1.773-.038,2.796.626,5.167,3.355,10.728,9.784,16.225,13.626,27.184,19.006,57.921,27.201,91.494,14.413,4.916-1.872,5.82-2.933,9.691-5.358,10.52-6.59,22.531-10.417,31.107-19.479,35.335-22.131,67.896-47.356,101.076-73.379,1.104-.866,1.567-2.896,2.087-3.193.976-.558,2.682.14,3.44-.346.264-.169,1.658-4.438,3.329-5.318,1.086-.572,2.789.016,3.381-.456.396-.316.316-2.251,1.069-3.231,1.577-2.054,5.412-2.36,6.553-3.558.872-.915.721-3.04,1.363-3.458.698-.455,2.381.164,3.384-.438,1.155-.693,6.984-7.251,8.884-8.882,21.164-18.171,41.747-37.194,62.354-55.809,2.821-2.548,13.539-11.061,14.269-11.919.512-.602-.107-2.331.474-3.414.696-1.298,15.262-13.602,17.591-16.004,25.063-25.851,60.401-70.176,68.824-103.379,6.397-25.218,2.886-48.433-6.687-71.724-1.975-4.804-5.845-8.855-6.131-14.488,2.611-.302,5.698.405,8.203.044,11.855-1.711,24.148-6.14,34.674-8.664,3.722-.893,10.156.575,14.28.055,1.835-.231.914-1.839,2.75-2.07,15.344-1.934,36.585.698,52.876.11,13.142-.475,27.395-2.762,40.318-3.823,16.312-1.339,36.416-1.023,50.554-8.013.607-.3,7.957-6.168,8.127-6.665,1.67-4.894,1.032-13.028-2.352-16.962-.408-.474-4.088-3.501-4.356-3.589-1.859-.612-3.257-.026-4.809-.333-.272-.054-3.92-3.551-4.043-3.799-1.3-2.609-.048-7.791-.516-11.01-.506-3.485-2.887-8.994-4.167-12.142-.616-1.515-1.419-5.109-2.406-6.004-1.171-1.063-2.677-.279-3.639-.911-.694-.456-1.615-2.48-2.595-3.128-8.101-5.365-19.976-11.023-23.854-20.792-.71-1.789-2.05-5.765-2.519-7.268-6.334-20.282-3.698-45.987-15.48-62.763-9.927-14.134-26.891-23.394-41.826-27.505-10.9-3.001-22.752-4.772-33.252-8.788-1.122-.429-10.254-8.718-11.293-9.986-7.874-9.611-9.274-20.908-14.928-31.104-1.537-2.772-4.587-4.508-4.509-8.474-7.878-5.238-10.727-7.965-20.133-10.885-.796-.247-.747-1.435-.983-1.542ZM1599.375,862.851c-11.172-1.204-18.744-.749-28.395,4.137-8.54,4.323-23.206,16.256-28.941,23.141-1.184,1.422-1.481,4.059-2.141,4.784-2.513,2.761-1.062-.633-3.896,4.752-.237.45-5.18,4.412-7.111,6.958-4.34,5.719-11.093,14.154-16.542,19.551-22.3,22.089-55.312,35.31-75.526,59.486-.566.676-.054,2.523-.622,3.23-.59.735-5.933,5.559-6.346,5.659-4.581-.294-3.233-3.589-4.176-5.068-3.209-5.036-6.745-10.814-10.32-15.872-1.005-1.423-3.484-2.61-4.467-4.349-.94-1.662-1.09-4.388-1.473-4.84-.315-.373-1.831.087-2.703-.811-17.589-18.129-24.204-25.67-49.067-34.974-7.208-2.697-11.682-2.593-19.445-3.777-17.162-2.617-48.237-3.76-65.127.072-.767.174-.253,1.744-2.032,1.976-4.119.537-10.54-.95-14.279-.055-9.426,2.257-29.427,7.4-37.767,10.86-22.139,9.186-47.31,13.209-70.167,20.502-25.189,8.037-50.623,17.103-74.254,27.256-12.298,5.284-26.856,10.373-40.948,15.902-25.083,9.841-51.171,20.844-74.812,30.894-17.286,7.348-35.8,15.128-50.342,25.336-6.733,4.727-12.611,8.167-18.909,13.667-7.15,6.245-16.083,13.482-22.119,20.344-3.96,4.502-16.725,27.14-17.953,32.642-1.168,5.235-1.002,12.699-2.196,17.796-.169.72-1.703.589-1.877,1.317-1.661,6.94.771,17.311,1.85,23.855.53,3.215-.607,7.457.07,10.325.184.778,1.741.259,1.973,2.035.511,3.915-.518,8.933-.081,13.012-3.437-1.993-6.774-1.285-9.881-1.933-.575-.12-.876-1.718-2.476-2.459-5.591-2.587-14.31-4.3-20.496-6.231-25.21-7.868-54.008-16.806-80.868-19.102-11.399-.974-24.164.141-34.991,3.4-2.403.723-3.591,3.744-5.121,4.91-.73.556-2.414.057-3.233.624-.579.401-8.762,10.235-8.904,10.925-.36,1.754.316,3.696-.049,5.382-.149.69-1.669.542-1.87,1.325-2.047,7.99-3.947,17.449-2.768,25.567,1.219,8.394,7.721,16.77,12.905,22.621,9.716,10.964,23.807,16.435,29.285,30.949.319.845,1.622.82,1.771,1.461,2.194,9.437-3.283,17.426-5.66,25.766-5.072,17.796-5.293,34.934,3.897,51.412,2.377,4.262,6.263,9.133,8.819,12.996,1.268,1.917,5.774,3.88,7.071,5.389,3.759,4.374,9.748,14.755,13.065,19.551,7.572,10.951,15.728,21.82,23.046,33.148,2.346,3.631,1.316,7.623,6.399,6.503-1.338,4.785,3.535,5.07,5.491,6.972,1.421,1.381,2.101,5.167,2.331,5.346.708.554,2.768-.146,3.977.161,1.705.433,7.549,5.836,10.043,6.462,2.145.538,10.037.63,12.215.213,1.091-.209,9.166-6.262,10.033-7.453,5.477-7.513,10.208-19.013,13.175-26.424,11.941-29.828,32.167-51.023,49.319-78.804,1.814-2.937,1.747-6.202,6.191-8.185,7.544,14.147,14.707,26.462,25.401,38.158,12.045,13.174,23.631,22.384,40.632,26.132.726.16.576,1.728,1.305,1.891,14.44,3.226,35.98,2.953,50.779.11,10.951-2.104,22.698-3.387,33.447-5.899,13.219-3.09,25.526-7.805,36.69-10.484,8.317-1.996,11.506-.499,20.835-3.991,7.576-2.836,17.529-3.506,23.856-6.288,5.637-2.478,13.098-2.555,19.167-4.39,13.513-4.084,20.57-6.229,33.794-8.428,14.703-2.445,34.453-11.134,48.304-16.17,16.742-6.086,32.598-11.411,48.164-16.867,18.107-6.347,34.69-14.519,52.613-22.475,15.714-6.976,28.121-12.691,43.493-20.624,22.646-11.688,48.386-26.959,66.379-44.35,11.192-10.817,22.729-23.67,28.168-37.13,5.281-13.07,12.35-35.535,10.888-50.064-.474-4.71-3.227-9.453-1.92-14.861,2.148.974,5.113.482,6.98,1.002.791.22.581,1.631,1.386,1.844,11.697,3.087,25.416,4.1,38.407,6.506,20.398,3.778,35.484,7.973,54.225,14.692,9.175,3.289,17.532,6.683,27.555,10.039,20.766,6.953,39.633,13.266,61.877,16.807,5.443.867,10.252,1.136,15.354,1.918,1.488.228,2.486,1.659,3.936,1.917,1.686.3,1.077-1.574,2.082-1.905,2.15-.707,3.828-.315,6.709-1.713,1.004-.487,7.932-9.633,8.013-10.28.73-5.789-.279-11.244-5.158-14.627-1.636-1.134-5.332.245-5.571-5.612-.07-1.728,1.776-1.177,1.996-2.071.983-3.994,1.165-9.414,1.964-13.074.155-.712,1.708-.577,1.884-1.309.329-1.367.329-9.792,0-11.157-.174-.722-1.72-.582-1.885-1.315-.348-1.544.327-3.108-.297-4.867-.261-.736-9.041-9.767-10.153-11.602-2.121-3.501-5.556-11.032-5.929-14.965-1.327-13.999,1.801-29.326,6.12-41.955,2.493-7.29,2.858-9.029,4.504-16.447.172-.774,1.744-.246,1.978-2.029,2.391-18.268-4.435-34.169-16.369-47.117-10.317-11.194-23.325-17.436-35.148-26.761-.901-.71-10.321-10.649-10.646-11.362-9.325-20.474,2.333-44.118-9.855-62.608-1.962-2.977-9.245-10.849-12.341-12.821-1.987-1.265-5.237-1.195-6.187-3.637Z" fill="#fff" />
<polygon points="1720.552 239.867 1720.547 242.736 1714.797 241.77 1720.552 239.867"/>
<path d="M1265.436,263.204c.236.107.187,1.294.983,1.542,9.406,2.92,12.255,5.646,20.133,10.885-.077,3.965,2.972,5.702,4.509,8.474,5.654,10.196,7.054,21.493,14.928,31.104,1.039,1.268,10.171,9.557,11.293,9.986,10.5,4.015,22.352,5.787,33.252,8.788,14.935,4.112,31.899,13.372,41.826,27.505,11.782,16.775,9.146,42.481,15.48,62.763.47,1.503,1.809,5.479,2.519,7.268,3.878,9.769,15.753,15.427,23.854,20.792.98.649,1.9,2.672,2.595,3.128.962.632,2.467-.151,3.639.911.987.895,1.79,4.489,2.406,6.004,1.28,3.148,3.661,8.657,4.167,12.142.467,3.219-.784,8.402.516,11.01.124.248,3.771,3.745,4.043,3.799,1.553.307,2.951-.278,4.809.333.268.088,3.948,3.115,4.356,3.589,3.384,3.934,4.021,12.068,2.352,16.962-.17.497-7.52,6.366-8.127,6.665-14.138,6.989-34.242,6.673-50.554,8.013-12.923,1.061-27.176,3.348-40.318,3.823-16.291.589-37.532-2.044-52.876-.11-1.835.231-.915,1.839-2.75,2.07-4.124.52-10.557-.948-14.28-.055-10.526,2.524-22.819,6.954-34.674,8.664-2.505.362-5.593-.346-8.203-.044.287,5.633,4.157,9.683,6.131,14.488,9.574,23.292,13.085,46.507,6.687,71.724-8.423,33.203-43.761,77.528-68.824,103.379-2.329,2.402-16.895,14.706-17.591,16.004-.581,1.083.038,2.813-.474,3.414-.73.858-11.448,9.371-14.269,11.919-20.607,18.615-41.19,37.638-62.354,55.809-1.9,1.632-7.73,8.19-8.884,8.882-1.003.602-2.686-.018-3.384.438-.642.419-.491,2.544-1.363,3.458-1.141,1.197-4.977,1.504-6.553,3.558-.753.981-.672,2.915-1.069,3.231-.592.472-2.295-.116-3.381.456-1.67.88-3.065,5.149-3.329,5.318-.758.486-2.464-.211-3.44.346-.52.297-.983,2.327-2.087,3.193-33.18,26.023-65.741,51.248-101.076,73.379-8.576,9.062-20.587,12.889-31.107,19.479-3.871,2.425-4.776,3.486-9.691,5.358-33.574,12.788-64.311,4.593-91.494-14.413-5.496-3.843-11.058-10.271-16.225-13.626-1.023-.664-1.424-.982-2.796-.626-1.811,4.165-.53,8.616-1.055,12.874-1.585,12.873-4.999,26.062-7.612,37.64-3.934,17.433-4.567,35.451-2.903,53.565.524,5.707-.867,17.754-2.64,23.245-1.47,4.552-6.383,7.786-9.108,11.496-1.272.529-18.399.653-20.189.235-.641-.15-.611-1.442-1.459-1.775-5.667-2.224-10.164-3.627-14.959-6.489-19.426-11.595-37.018-24.625-57.888-35.579-7.681-4.032-21.464-9.978-28.059-16.121-7.256-6.759-16.338-20.157-18.977-29.957-4.134-15.351-.375-32.393-13.445-43.417-14.384-8.781-31.285-10.263-45.997-18.529-14.091-14.689-22.373-28.218-19.564-50.123.056-.44,3.3-7.238,3.688-7.867,4.809-7.8,13.739-12.235,22.051-16.266,17.275-8.379,40.723-12.503,62.145-14.656,17.062-1.715,37.996.209,53.793-1.852,1.778-.232,1.264-1.801,2.032-1.975,2.342-.532,5.947.764,8.035-.47,2.018-3.301-1.406-5.036-2.273-6.495-4.681-7.879-8.983-14.41-12.817-21.645-6.466-12.202-15.007-42.83-11.813-56.141.175-.731,1.722-.593,1.883-1.311,7.118-31.915,18.288-52.751,39.35-76.631,1.88-2.131,11.423-10.445,12.201-12.211.534-1.21.075-3.312.308-3.548.328-.333,2.504.379,3.592-.228.471-.263,2.539-4.4,3.673-5.5.833-.809,4.384-2.038,4.889-3.209.523-1.214.099-3.296.33-3.526.29-.289,2.354.272,3.539-.298.55-.265,8.318-8.111,8.611-8.646.579-1.059-.054-2.756.483-3.406.213-.258,4.636-2.05,5.901-3.161,5.363-4.706,11.316-11.822,16.015-16.674,6.42-6.629,13.575-13.037,19.426-19.387,1.822-1.977,6.098-2.064,6.329-2.31.445-.474-.179-2.629.572-3.748.565-.843,2.321-.704,3.017-1.322,10.655-9.459,20.58-19.955,31.127-29.613,2.034-1.863,7.268-4.683,9.097-6.413,1.49-1.41,2.128-4.395,2.561-4.67.742-.472,2.373.129,3.358-.461.488-.292,7.811-6.716,8.474-7.342,1.493-1.409,2.126-4.394,2.561-4.67.742-.472,2.373.129,3.358-.461,2.141-1.281,9.745-9.859,12.534-12.194,15.929-13.343,33.444-24.835,49.395-37.447,3.698-2.924,11.859-12.213,15.407-14.058,2.247-1.168,3.986,1.1,4.632-4.011,6.558,1.206,5.515-2.406,9.515-5.364,1.222-.904,3.862-2.219,5.576-3.294,14.833-9.305,37.613-20.586,55.123-25.078.388-.1,5.709-3.582,6.191-3.739,11.985-3.92,33.927-3.341,46.052-.277,20.259,5.119,40.793,14.666,58.486,27.394,3.02,2.173,4.905,7.58,10.855,6.408-.881-3.619,1.476-5.824,2.387-8.657,8.862-27.538,25.718-46.637,37.527-71.899,11.835-25.318,13.651-62.567,36.329-83.564.964-.893,9.267-6.5,9.852-6.631,1.857-.417,17.928-.296,19.195.277ZM1272.153,283.373c-5.516-6.582-16.768-7.707-23.934-3.157-8.036,5.102-12.525,17.59-15.203,26.094-5.699,18.1-12.017,39.794-20.063,57.057-4.634,9.942-10.143,17.139-14.812,26.293s-13.031,18.323-16.76,27.54c-2.632,6.507-9.286,25.868-6.303,31.807.266.529,7.827,8.125,8.366,8.368,2.745,1.238,3.707-1.585,4.052,4.093,11.229,9.358,20.416,20.277,29.657,31.341,1.058,1.267,6.816,5.799,7.027,6.335.609,1.545-.141,3.83.411,4.471.212.246,1.652-.031,2.347.448,2.515,1.731,8.33,10.459,9.93,12.846,1.717,2.561,2.015,6.047,5.505,6.724,2.933.57,8.23.492,11.258.149,4.41-.5,13.399-2.742,18.138-3.776.712-.155.577-1.709,1.309-1.884,5.001-1.2,10.074-.104,17.145-1.898,41.58-10.548,90.319.807,133.158-8.693.764-.169.248-1.745,2.029-1.977,2.658-.347,16.288.689,16.862.071,1.196-4.558-2.679-4.134-4.811-7.187-1.894-2.712-6.799-13.612-7.473-16.51-.745-3.205.193-6.984-.249-10.304-.303-2.271-2.419-4.474-1.897-7.216-5.66,1.414-8.525-3.595-12.513-6.239-.955-.633-2.755-.208-3.544-.729-.936-.619-1.52-4.853-2.348-5.365-.777-.48-2.399.137-3.341-.454-7.1-4.458-15.7-29.652-17.303-37.882-1.514-7.77-2.566-16.255-4.085-22.938-.44-1.934.371-4.421-.089-6.473-5.069-22.594-16.062-26.63-35.119-34.454-13.324-5.47-30.365-6.88-43.202-14.353-17.971-10.46-20.614-26.757-28.474-43.972-.678-1.485-.952-4.395-1.442-5.09-.869-1.233-3.119-.035-3.856-.685-.322-.285.083-1.854-.376-2.402ZM1079.287,412.87c-10.001-4.657-37.164,5.589-47.02,10.277-19.278,9.171-42.947,19.606-60.532,36.057-2.84,2.657-5.202,3.914-8.025,5.456-.589.322-3.377,4.163-4.493,5.064-1.139.92-5.466,2.431-6.106,3.542-.477.826.002,2.194-.312,2.791-.48.914-1.566.844-1.759,1.526-1.686,5.946.35,8.197,2.147,13.354,11.246,10.743,26.627,22.518,41.487,27.124,3.935,1.22,10.636,3.504,14.774,4.405,10.138,2.207,29.783,2.452,39.609-.786,5.141-1.694,5.318-2.175,11.589-3.6.717-.163,10.252-6.546,11.747-7.649.775-.572,2.986-4.256,3.578-4.515,1.213-.531,3.301-.077,3.541-.318.288-.288-.277-2.357.293-3.546,2.024-4.223,4.418-.938,6.502-10.11.133-.587,3.959-3.097,4.819-4.909,1.252-2.638,1.668-6.66,2.945-9.373.626-1.33,5.363-7.585,5.561-8.251,1.182-3.975,4.429-15.602,4.809-19.001.701-6.27.343-17.79-3.731-22.832-.556-.688-8.058-4.861-8.483-5.651-.549-1.02.181-2.799-.391-3.456-1.678-1.928-9.446-3.524-11.639-4-.697-.151-.655-1.482-.91-1.6ZM1124.209,429.323c-1.586-.861-2.832-2.955-5.318-2.363-.079,8.225,1.236,16.244,1.001,24.507-.337,11.843-2.857,16.44-6.682,26.122-12.743,32.257-26.913,51.265-61.789,59.729-.748.182-.612,1.701-1.324,1.872-2.311.553-10.085,1.552-13.205,1.99-14.08,1.975-34.27-3.029-47.79-6.824-.99-.278-2.521-3.593-3.327-3.746-3.83-.729-3.255-.413-6.34-1.631-8.018-3.165-25.798-13.141-32.041-19.785-.915-.974-.839-3.075-1.392-3.429-.784-.502-2.584.239-3.488-.3-1.138-.68-1.612-5.5-2.228-6.714-.475-.935-2.859-3.142-3.37-4.029-.541-.939-2.376-7.823-4.656-7.317-1.443,3.914-4.83,3.295-5.957,4.133-4.096,3.046-5.161,5.329-10.524,8.698-2.922,1.835-2.063,5.137-2.282,5.356-.257.257-2.329-.213-3.536.323-.325.145-2.355,3.201-3.263,3.869-16.283,11.982-30.27,26.608-45.304,39.656-14.222,12.343-28.611,23.066-42.445,35.233-2.936,2.582-5.451,6.812-9.03,8.285l.461,1.904c3.06,1.028,4.924-1.098,6.98-1.669,7.474-2.079,14.231-3.422,21.842-2.212,5.496.873,6.641-1.394,10.469-1.929,15.758-2.2,38.117,1.556,52.582,5.878,7.423,2.218,23.151,10.456,30.28,15.974,9.816,7.598,17.032,16.99,23.237,26.598,4.358,6.748,5.877,9.359,7.618,17.366.919,4.226,1.067,10.253,1.985,14.17.169.72,1.703.589,1.877,1.317.474,1.982.409,13.799.097,16.195-.232,1.776-1.798,1.264-1.974,2.032-.942,4.109-.926,9.532-2.16,13.994-6.068,21.937-25.892,44.594-43.385,57.874-6.393,4.854-8.7,7.434-16.156,9.059-.642.14-4.14,5.139-5.292,5.646-2.381,1.048-5.509,1.104-8.127,2.224-5.237,2.239-4.572,2.706-10.73,4.614-4.244,1.315-11.059,5.093-13.664,5.697-12.217,2.832-33.577.527-44.746-1.918-1.881-.412-11.407-4.622-13.896-5.65-26.252-10.835-49.055-34.987-55.604-63.182-.598-2.576.205-5.107-.268-7.253-.167-.761-1.745-.248-1.978-2.029-.902-6.908.675-14.183,2.048-20.148,4.143-18.007,8.556-28.625,15.298-44.023.204-.467,1.478-.558,1.639-.909.707-1.541.094-3.802,1.242-5.495-1.643-1.281-8.111,4.622-9.287,6.049-5.672,6.885-12.505,15.521-18.179,23.065-11.731,15.599-24.098,35.093-28.141,53.92-8.384,39.051,24.49,80.003,47.612,109.586,6.898,8.826,14.395,16.283,20.048,25.126,4.044,6.325,16.77,18.345,22.932,25.005,1.159,1.252,6.39,4.989,6.95,6.01.578,1.052-.058,2.809.464,3.42.301.353,1.777.024,2.314.477,7.125,6.009,12.668,11.684,20.199,17.3,2.063,1.538,2.058,4.649,6.093,3.48.431-.401-.389-8.064.036-9.882.159-.68,1.582-.671,1.808-1.416,3.391-11.18,9.184-17.428,17.944-24.579,19.164-15.644,44.669-23.985,67.102-28.367,14.315-2.796,29.372-5.427,44.097-5.607,17.689-.216,34.061,1.451,49.125,9.687.7.382,1.536,2.829,3.913,3.363,5.166,1.161,6.624-3.374,9.171-5.219,4.773-3.458,9.521-6.674,14.136-10.201,8.077-6.172,16.965-13.751,24.346-19.938,10.882-9.12,21.632-17.394,31.834-26.266,7.888-6.86,15.822-14.197,23.871-21.678,1.315-1.222,4.693-1.341,5.292-4.767-3.969-1.872-7.967.368-11.713,2.002-2.964,1.293-5.486,1.689-9.838,1.871-22.744.95-40.776-1.612-59.857-12.403-6.408-3.624-10.628-6.991-15.94-10.284-.758-.47-2.039-.264-2.272-.527-.608-.686.207-2.603-.33-3.517-.348-.592-4.023-1.256-5.333-2.435-1.286-1.157-2.133-5.986-2.352-6.251-.6-.728-3.838-1.439-6.039-5.938-1.728-3.532-2.991-5.056-4.218-7.486-21.343-42.277-1.129-93.315,34.283-117.085,43.599-26.608,97.448-22.959,139.156,8.211,1.068.798,4.782,5.618,5.175,5.794,1.198.537,3.275.056,3.537.318.237.238-.188,2.303.337,3.518.565,1.306,3.865,2.141,4.205,2.496,4.844,5.06,9.161,13.156,12.519,19.581,2.798,5.353,2.568,4.969,4.123,11.109.199.787,1.691.628,1.862,1.338,1.221,5.056-2.925,11.745,3.85,13.732-1.874-4.742,5.786-7.471,6.525-8.822.963-1.761-.407-2.465,2.077-6.298,10.328-15.936,13.685-29.863,16.41-47.672,2.152-14.063.975-18.905-2.019-31.656-5.326-22.684-18.963-41.877-32.249-59.394-6.018-7.936-11.438-15.133-17.643-21.971-8.135-8.966-17.154-16.928-25.388-25.69-.895-.952-1.049-3.275-1.638-3.651-.737-.47-2.366.134-3.358-.465-1.85-1.118-8.417-9.475-11.143-11.865-.629-.551-2.41-.055-3.232-.625-1.991-1.38-7.334-8.963-9.223-9.947-1.091-.568-2.727-.008-3.381-.435-.749-.49-.485-2.904-1.334-3.504-.634-.448-2.706-.233-4.171-1.072-3.881-2.224-6.644-5.235-10.458-7.304ZM1131.104,603.801c-5.25-2.415-35.643.718-42.515,1.533-1.756.208-1.263,1.814-2.02,1.979-1.947.426-4.272-.333-6.333.056-.804.152-2.464,3.578-3.312,3.757-15.903,3.363-33.775,18.484-42.286,32.379-3.032,4.95-4.019,7.931-5.009,13.042-.091.468-3.015,1.859-3.569,4.272-1.535,6.69-1.22,31.78-.302,39.146.869,6.971,11.719,24.587,17.076,29.215,1.708,1.476,4.071-.296,3.141,4.782,4.119-1.211,6.945,4.249,9.326,5.747,1.789,1.125,4.679,1.466,6.734,2.624,7.211,4.062,6.395,4.209,14.941,6.052.709.153.58,1.727,1.3,1.89,8.108,1.83,22.677,2,30.624,1.064,13.693-1.612,15.964-1.578,27.09-6.694,23.084-10.615,45.744-32.618,61.527-52.674,4.588-5.83,8.103-12.342,8.766-19.841.452-5.114-1.776-4.198-1.971-5.012-.637-2.652.561-6.51-.041-9.223-.148-.668-1.548-.77-2.158-1.892-4.983-9.157-6.985-13.082-13.224-20.301-11.739-13.583-27.229-24.653-44.399-28.383-.789-.171-.24-1.745-2.03-1.981-5.516-.729-5.892.978-11.357-1.536ZM834.64,605.679c-.879-.478-11.957,3.1-13.871,3.897-5.6,2.333-12.343,6.231-17.535,10.926-4.418,3.997-6.752,9.216-10.22,12.136-5.056,4.257-11.503,17.957-13.738,23.414-3.751,9.161-6.712,16.248-8.734,25.463-.161.733-1.712.58-1.887,1.311-.902,3.771-.807,12.874-.939,17.044-.95,29.9,21.305,54.127,46.797,64.703,2.064.856,10.548,4.897,11.164,4.974,6.86.857,32.512.889,39.141-.239,5.489-.934,24.552-10.01,30.036-13.21,16.745-9.77,38.923-29.599,47.353-45.936,2.212-4.287,3.72-11.002,6.804-14.271,11.495-59.772-47.031-96.548-99.321-90.508-4.583.529-8.461,3.285-14.202,1.937-.72-.169-.666-1.541-.849-1.641ZM736.739,825.377l-45.376,1.644c-26.685,4.894-53.378,3.817-77.048,12.383-5.31,1.922-11.494,2.418-16.17,5.262-.798.485-1.861,2.787-2.524,3.193-1.067.653-2.741-.229-3.655.883-5.013,6.095-3.587,23.159.137,29.39,7.291,12.197,26.641,14.619,38.586,19.959,4.545,2.032,5.569,2.283,10.554,3.858,1.779.562,2.619,4.265,3.269,4.784.992.792,3.18.905,4.406,1.912,4.76,3.912,10.656,10.515,12.42,16.571,1.849,6.349,2.158,17.287,3.68,23.986.541,2.38,1.297,5.252,1.948,8.766,1.801,9.724,8.262,17.681,15.743,23.557,10.051,7.895,19.019,9.767,30.025,16.025,14.281,8.12,28.202,19.041,42.113,27.495,7.087,4.307,14.619,9.558,23.161,11.861,5.406,1.457,7.953-2.982,8.723-7.867.797-5.053-1.249-9.298-1.831-13.41-1.593-11.248,1.753-39.817,4.24-50.743,3.197-14.047,8.239-29.943,10.156-43.381,1.001-7.02-.5-16.064-.111-23.314-5.184-.909-7.908-7.214-10.778-10.355-6.641-7.267-23.421-23.556-28.113-31.333-.797-1.322.643-4.409-2.872-4.32-2.167.055-2.604,2.377-4.206,3.103-13.495,6.117-25.774,9.765-39.417,16.027-1.028.472-3.477,3.086-4.524,3.566-3.893,1.784-15.882,6.969-19.308,5.4-.379-.173-4.694-5.574-4.777-5.946-.331-1.499-.31-5.722.001-7.255.058-.287,3.759-4.146,4.034-4.246,1.956-.714,3.872.054,5.794-.319.73-.142,2.084-2.956,2.929-3.45,9.792-5.712,22.397-8.889,32.556-12.881.92-.361,4.251-3.505,6.43-4.303,2.515-.922,6.767-.999,9.632-2.371-1.78-5.447-6.103-9.699-9.826-14.131ZM1002.497,860.95c-16.254-4.959-38.278-3.899-54.727-.309-.712.155-.578,1.709-1.309,1.884-5.298,1.27-14.585.484-20.886,1.989-11.705,2.796-31.627,9.593-40.541,14.626-4.463,2.52-9.642,5.861-13.848,8.458-3.374,2.083-3.307,3.91-4.616,5.193-1.567,1.536-5.249,3.719-6.488,5.549-.51.753-.06,2.077-.365,2.754-.477,1.059-1.7.53-1.917,2.164-.279,2.097-.218,8.432.306,10.389.43,1.606,8.164,12.369,9.602,12.896,1.98.725,3.905-.096,5.816.311.653.139.618,1.567,1.421,1.802,5.018,1.467,16.073,4.57,20.786,3.873,22.628-3.346,39.407-16.846,57.877-28.429,16.258-10.196,31.685-18.662,47.621-30.597,2.073-1.553,9.918-4.76,9.822-7.599-.157-4.605-5.09-2.812-7.617-3.378-.644-.144-.667-1.494-.936-1.576Z" fill="#000000"/>
<path d="M1124.209,429.323c3.814,2.07,6.576,5.08,10.458,7.304,1.465.839,3.536.624,4.171,1.072.848.6.585,3.015,1.334,3.504.654.428,2.29-.133,3.381.435,1.889.984,7.232,8.568,9.223,9.947.822.57,2.604.074,3.232.625,2.726,2.39,9.293,10.747,11.143,11.865.992.599,2.621-.005,3.358.465.59.376.744,2.699,1.638,3.651,8.234,8.761,17.252,16.724,25.388,25.69,6.205,6.838,11.624,14.036,17.643,21.971,13.285,17.518,26.922,36.71,32.249,59.394,2.994,12.751,4.171,17.593,2.019,31.656-2.725,17.808-6.082,31.736-16.41,47.672-2.484,3.833-1.114,4.537-2.077,6.298-.739,1.351-8.399,4.08-6.525,8.822-6.775-1.987-2.629-8.676-3.85-13.732-.171-.71-1.663-.552-1.862-1.338-1.555-6.14-1.325-5.756-4.123-11.109-3.359-6.425-7.676-14.522-12.519-19.581-.339-.354-3.64-1.189-4.205-2.496-.525-1.214-.1-3.28-.337-3.518-.262-.262-2.339.219-3.537-.318-.393-.176-4.107-4.996-5.175-5.794-41.708-31.171-95.557-34.819-139.156-8.211-35.413,23.77-55.627,74.809-34.283,117.085,1.227,2.43,2.49,3.955,4.218,7.486,2.202,4.498,5.44,5.209,6.039,5.938.219.265,1.065,5.094,2.352,6.251,1.311,1.179,4.985,1.843,5.333,2.435.537.914-.278,2.831.33,3.517.233.263,1.514.057,2.272.527,5.312,3.294,9.532,6.66,15.94,10.284,19.081,10.791,37.113,13.354,59.857,12.403,4.352-.182,6.874-.579,9.838-1.871,3.747-1.634,7.745-3.874,11.713-2.002-.599,3.426-3.977,3.544-5.292,4.767-8.05,7.481-15.984,14.819-23.871,21.678-10.202,8.873-20.952,17.146-31.834,26.266-7.381,6.186-16.27,13.766-24.346,19.938-4.616,3.527-9.363,6.743-14.136,10.201-2.547,1.845-4.005,6.38-9.171,5.219-2.377-.534-3.213-2.981-3.913-3.363-15.065-8.236-31.436-9.903-49.125-9.687-14.725.18-29.782,2.811-44.097,5.607-22.433,4.382-47.939,12.722-67.102,28.367-8.76,7.151-14.553,13.399-17.944,24.579-.226.745-1.65.737-1.808,1.416-.425,1.818.394,9.481-.036,9.882-4.035,1.169-4.03-1.942-6.093-3.48-7.531-5.616-13.074-11.291-20.199-17.3-.536-.452-2.013-.124-2.314-.477-.522-.611.113-2.368-.464-3.42-.56-1.021-5.792-4.758-6.95-6.01-6.162-6.66-18.888-18.68-22.932-25.005-5.653-8.843-13.149-16.3-20.048-25.126-23.122-29.583-55.996-70.535-47.612-109.586,4.042-18.828,16.409-38.322,28.141-53.92,5.674-7.544,12.507-16.18,18.179-23.065,1.175-1.426,7.643-7.33,9.287-6.049-1.148,1.693-.536,3.954-1.242,5.495-.161.35-1.434.442-1.639.909-6.742,15.398-11.155,26.016-15.298,44.023-1.373,5.965-2.95,13.24-2.048,20.148.233,1.781,1.811,1.268,1.978,2.029.472,2.146-.331,4.678.268,7.253,6.549,28.196,29.352,52.348,55.604,63.182,2.49,1.028,12.015,5.238,13.896,5.65,11.168,2.445,32.528,4.75,44.746,1.918,2.605-.604,9.42-4.382,13.664-5.697,6.158-1.908,5.493-2.375,10.73-4.614,2.618-1.12,5.746-1.176,8.127-2.224,1.151-.507,4.65-5.506,5.292-5.646,7.456-1.625,9.763-4.206,16.156-9.059,17.493-13.28,37.317-35.937,43.385-57.874,1.234-4.463,1.218-9.886,2.16-13.994.176-.768,1.742-.256,1.974-2.032.312-2.397.377-14.214-.097-16.195-.174-.728-1.708-.597-1.877-1.317-.918-3.917-1.066-9.943-1.985-14.17-1.742-8.007-3.26-10.619-7.618-17.366-6.205-9.608-13.422-19-23.237-26.598-7.129-5.518-22.857-13.756-30.28-15.974-14.465-4.322-36.824-8.079-52.582-5.878-3.828.535-4.973,2.802-10.469,1.929-7.611-1.209-14.369.134-21.842,2.212-2.055.572-3.92,2.698-6.98,1.669l-.461-1.904c3.58-1.473,6.094-5.702,9.03-8.285,13.834-12.167,28.222-22.89,42.445-35.233,15.034-13.048,29.021-27.674,45.304-39.656.908-.668,2.938-3.725,3.263-3.869,1.207-.537,3.279-.066,3.536-.323.219-.22-.639-3.521,2.282-5.356,5.363-3.368,6.428-5.651,10.524-8.698,1.127-.838,4.514-.219,5.957-4.133,2.279-.506,4.114,6.378,4.656,7.317.511.887,2.895,3.094,3.37,4.029.617,1.213,1.09,6.034,2.228,6.714.904.54,2.705-.202,3.488.3.552.354.477,2.455,1.392,3.429,6.243,6.644,24.024,16.62,32.041,19.785,3.085,1.218,2.51.902,6.34,1.631.806.153,2.338,3.469,3.327,3.746,13.519,3.796,33.71,8.799,47.79,6.824,3.121-.438,10.894-1.436,13.205-1.99.713-.171.576-1.69,1.324-1.872,34.876-8.465,49.046-27.473,61.789-59.729,3.825-9.682,6.346-14.28,6.682-26.122.235-8.262-1.08-16.282-1.001-24.507,2.486-.592,3.732,1.503,5.318,2.363Z" fill="#fff"/>
<path d="M834.64,605.679c.183.099.129,1.472.849,1.641,5.741,1.348,9.619-1.407,14.202-1.937,52.289-6.041,110.816,30.736,99.321,90.508-3.085,3.269-4.592,9.985-6.804,14.271-8.43,16.337-30.608,36.166-47.353,45.936-5.485,3.2-24.547,12.276-30.036,13.21-6.629,1.128-32.281,1.096-39.141.239-.615-.077-9.1-4.118-11.164-4.974-25.492-10.577-47.747-34.804-46.797-64.703.132-4.17.037-13.273.939-17.044.175-.73,1.726-.578,1.887-1.311,2.023-9.215,4.983-16.302,8.734-25.463,2.234-5.457,8.682-19.157,13.738-23.414,3.468-2.92,5.802-8.139,10.22-12.136,5.191-4.696,11.935-8.593,17.535-10.926,1.914-.797,12.992-4.376,13.871-3.897Z" fill="#fff"/>
<path d="M736.739,825.377c3.723,4.432,8.046,8.684,9.826,14.131-2.865,1.372-7.117,1.449-9.632,2.371-2.179.798-5.51,3.942-6.43,4.303-10.159,3.992-22.765,7.169-32.556,12.881-.846.493-2.199,3.308-2.929,3.45-1.922.373-3.838-.396-5.794.319-.275.1-3.976,3.959-4.034,4.246-.311,1.533-.332,5.755-.001,7.255.082.372,4.398,5.773,4.777,5.946,3.425,1.569,15.415-3.616,19.308-5.4,1.047-.48,3.496-3.094,4.524-3.566,13.643-6.261,25.922-9.91,39.417-16.027,1.602-.726,2.038-3.048,4.206-3.103,3.515-.089,2.075,2.998,2.872,4.32,4.692,7.777,21.472,24.066,28.113,31.333,2.87,3.141,5.595,9.445,10.778,10.355-.389,7.25,1.112,16.294.111,23.314-1.917,13.438-6.959,29.334-10.156,43.381-2.487,10.926-5.832,39.495-4.24,50.743.582,4.113,2.628,8.357,1.831,13.41-.77,4.885-3.318,9.324-8.723,7.867-8.542-2.302-16.074-7.554-23.161-11.861-13.911-8.454-27.832-19.375-42.113-27.495-11.006-6.258-19.974-8.129-30.025-16.025-7.481-5.877-13.942-13.833-15.743-23.557-.651-3.514-1.408-6.386-1.948-8.766-1.522-6.7-1.832-17.638-3.68-23.986-1.763-6.056-7.66-12.66-12.42-16.571-1.226-1.007-3.414-1.121-4.406-1.912-.65-.519-1.49-4.222-3.269-4.784-4.984-1.575-6.008-1.826-10.554-3.858-11.945-5.34-31.296-7.762-38.586-19.959-3.725-6.231-5.15-23.295-.137-29.39.915-1.112,2.588-.23,3.655-.883.664-.406,1.726-2.708,2.524-3.193,4.677-2.844,10.861-3.34,16.17-5.262,23.67-8.566,50.363-7.488,77.048-12.383l45.376-1.644ZM774.11,882.024c-3.366-3.69-9.077-4.071-12.709-.311-3.985,4.126-14.22,16.524-17.065,21.35-1.102,1.87-2.543,6.991-2.822,7.263-.411.401-1.869-.111-2.689.8-1.297,1.441-1.247,4.912-1.974,6.27-4.694,8.772-12.219,21.196-14.224,31.072-.695,3.422,1.132,7.552-1.959,10.527l4.084,4.945c4.04.491,11.553,1.551,13.569-2.617,2.937-6.071,4.092-14.931,5.387-21.347.062-.306,3.063-2.738,3.988-4.816,3.609-8.118,5.625-15.154,12.016-21.086.378-.351,3.375-7.247,4.778-9.139,3.078-4.149,8.835-8.564,11.773-13.347.6-2.365-.604-7.867-2.154-9.566Z" fill="#fff"/>
<path d="M1131.104,603.801c5.465,2.514,5.841.807,11.357,1.536,1.79.237,1.241,1.81,2.03,1.981,17.17,3.73,32.659,14.799,44.399,28.383,6.239,7.219,8.24,11.143,13.224,20.301.611,1.122,2.01,1.224,2.158,1.892.602,2.713-.596,6.571.041,9.223.196.815,2.423-.102,1.971,5.012-.663,7.498-4.178,14.011-8.766,19.841-15.783,20.056-38.443,42.059-61.527,52.674-11.126,5.116-13.397,5.082-27.09,6.694-7.947.936-22.517.766-30.624-1.064-.72-.162-.591-1.737-1.3-1.89-8.547-1.843-7.73-1.991-14.941-6.052-2.056-1.158-4.945-1.498-6.734-2.624-2.381-1.497-5.207-6.958-9.326-5.747.929-5.077-1.433-3.306-3.141-4.782-5.357-4.629-16.208-22.244-17.076-29.215-.918-7.366-1.233-32.456.302-39.146.554-2.412,3.478-3.803,3.569-4.272.991-5.111,1.977-8.092,5.009-13.042,8.512-13.894,26.383-29.016,42.286-32.379.848-.179,2.507-3.606,3.312-3.757,2.06-.389,4.385.37,6.333-.056.758-.166.265-1.771,2.02-1.979,6.872-.815,37.266-3.948,42.515-1.533Z" fill="#fff"/>
<path d="M1079.287,412.87c.255.119.213,1.449.91,1.6,2.193.477,9.961,2.072,11.639,4,.572.657-.159,2.436.391,3.456.425.79,7.927,4.963,8.483,5.651,4.073,5.042,4.432,16.562,3.731,22.832-.38,3.399-3.627,15.026-4.809,19.001-.198.667-4.935,6.921-5.561,8.251-1.277,2.713-1.693,6.735-2.945,9.373-.86,1.812-4.685,4.322-4.819,4.909-2.083,9.172-4.478,5.887-6.502,10.11-.57,1.189-.005,3.257-.293,3.546-.241.241-2.328-.213-3.541.318-.592.259-2.803,3.943-3.578,4.515-1.495,1.103-11.03,7.486-11.747,7.649-6.271,1.425-6.449,1.906-11.589,3.6-9.826,3.239-29.471,2.993-39.609.786-4.138-.901-10.839-3.185-14.774-4.405-14.86-4.606-30.241-16.381-41.487-27.124-1.797-5.157-3.833-7.409-2.147-13.354.194-.683,1.279-.612,1.759-1.526.314-.597-.164-1.965.312-2.791.641-1.11,4.967-2.622,6.106-3.542,1.116-.901,3.903-4.742,4.493-5.064,2.823-1.542,5.185-2.799,8.025-5.456,17.585-16.451,41.254-26.887,60.532-36.057,9.856-4.689,37.019-14.934,47.02-10.277Z" fill="#fff"/>
<path d="M1002.497,860.95c.269.082.292,1.431.936,1.576,2.528.567,7.461-1.227,7.617,3.378.097,2.839-7.748,6.046-9.822,7.599-15.936,11.935-31.363,20.401-47.621,30.597-18.47,11.583-35.249,25.083-57.877,28.429-4.712.697-15.767-2.406-20.786-3.873-.803-.235-.768-1.663-1.421-1.802-1.911-.407-3.836.415-5.816-.311-1.438-.527-9.173-11.29-9.602-12.896-.524-1.957-.584-8.293-.306-10.389.217-1.634,1.44-1.105,1.917-2.164.305-.677-.145-2.001.365-2.754,1.239-1.83,4.921-4.013,6.488-5.549,1.308-1.282,1.241-3.109,4.616-5.193,4.207-2.597,9.385-5.939,13.848-8.458,8.913-5.032,28.835-11.829,40.541-14.626,6.301-1.505,15.588-.719,20.886-1.989.732-.175.597-1.729,1.309-1.884,16.448-3.59,38.473-4.65,54.727.309Z" fill="#fff"/>
<path d="M774.11,882.024c1.55,1.699,2.754,7.2,2.154,9.566-2.938,4.783-8.695,9.198-11.773,13.347-1.403,1.891-4.4,8.788-4.778,9.139-6.392,5.932-8.407,12.968-12.016,21.086-.924,2.079-3.926,4.51-3.988,4.816-1.295,6.416-2.45,15.275-5.387,21.347-2.016,4.168-9.529,3.108-13.569,2.617l-4.084-4.945c3.091-2.975,1.264-7.105,1.959-10.527,2.005-9.876,9.53-22.299,14.224-31.072.727-1.358.678-4.83,1.974-6.27.82-.911,2.278-.399,2.689-.8.279-.272,1.719-5.393,2.822-7.263,2.845-4.826,13.081-17.224,17.065-21.35,3.631-3.76,9.343-3.379,12.709.311Z" fill="#000000"/>
<path d="M1272.153,283.373c.459.548.054,2.117.376,2.402.737.65,2.987-.547,3.856.685.49.695.764,3.605,1.442,5.09,7.859,17.216,10.503,33.512,28.474,43.972,12.838,7.472,29.878,8.882,43.202,14.353,19.056,7.824,30.05,11.86,35.119,34.454.46,2.052-.35,4.539.089,6.473,1.519,6.683,2.571,15.168,4.085,22.938,1.603,8.229,10.203,33.424,17.303,37.882.942.592,2.564-.026,3.341.454.828.512,1.411,4.746,2.348,5.365.789.522,2.589.096,3.544.729,3.988,2.644,6.854,7.653,12.513,6.239-.522,2.742,1.594,4.945,1.897,7.216.442,3.319-.496,7.099.249,10.304.674,2.898,5.579,13.799,7.473,16.51,2.133,3.054,6.007,2.629,4.811,7.187-.574.617-14.205-.419-16.862-.071-1.781.233-1.266,1.808-2.029,1.977-42.838,9.5-91.578-1.855-133.158,8.693-7.072,1.794-12.144.699-17.145,1.898-.732.176-.597,1.729-1.309,1.884-4.739,1.034-13.728,3.276-18.138,3.776-3.028.343-8.325.42-11.258-.149-3.49-.678-3.787-4.163-5.505-6.724-1.601-2.387-7.415-11.116-9.93-12.846-.695-.479-2.135-.202-2.347-.448-.553-.641.198-2.926-.411-4.471-.211-.536-5.969-5.068-7.027-6.335-9.241-11.064-18.428-21.983-29.657-31.341-.345-5.678-1.307-2.855-4.052-4.093-.539-.243-8.101-7.84-8.366-8.368-2.983-5.939,3.671-25.301,6.303-31.807,3.729-9.218,12.076-18.358,16.76-27.54s10.178-16.351,14.812-26.293c8.046-17.263,14.364-38.957,20.063-57.057,2.678-8.505,7.167-20.993,15.203-26.094,7.166-4.55,18.418-3.425,23.934,3.157ZM1275.925,382.242c-8.921-4.609-10.36,1.153-15.35,6.963-9.627,11.209-20.672,24.443-31.935,34.777-1.08.991-2.694.875-3.339,1.69-.553.698-.345,2.606-1.031,3.058-.44.289-4.63.249-5.275,2.324-2.885,9.276,5.022,13.937,13.388,12.167.607-.128,2.05-2.686,3.055-3.385,16.271-11.321,24.306-27.358,37.518-40.607,1.245-1.248,2.81-1.035,4.168-2.593,2.932-3.364,3.067-12.19-1.198-14.393ZM1347.699,465.893c-6.391-8.94-10.369-5.365-19.251-3.548-3.458.708-5.586,1.719-6.786,2.008-4.644,1.119-11.436.543-17.036,1.987-7.463,1.924-13.193,2.23-19.202,3.839-12.779,3.422-25.589,7.516-36.716,10.466-5.644,1.496-11.449-.432-13.44,7.5-.747,2.977.79,6.788,3.174,8.75,4.522,3.721,6.192.989,9.734.319,7.553-1.428,14.854-4.459,21.065-5.954,4.338-1.045,11.623-.806,16.911-1.958,12.575-2.74,27.774-8.786,41.498-10.483,3.724-.461,9.079.69,12.243-.073.716-.172.576-1.696,1.323-1.873,1.615-.384,4.511.673,5.622-.937l2.455-8.222c.096-1.635-1.249-1.335-1.596-1.819Z" fill="#fff"/>
<path d="M1347.699,465.893c.347.485,1.691.185,1.596,1.819l-2.455,8.222c-1.111,1.61-4.007.554-5.622.937-.747.177-.608,1.701-1.323,1.873-3.164.762-8.519-.388-12.243.073-13.724,1.697-28.922,7.743-41.498,10.483-5.287,1.152-12.573.913-16.911,1.958-6.212,1.496-13.512,4.526-21.065,5.954-3.542.67-5.212,3.402-9.734-.319-2.384-1.962-3.922-5.772-3.174-8.75,1.991-7.931,7.796-6.003,13.44-7.5,11.127-2.95,23.937-7.044,36.716-10.466,6.009-1.609,11.739-1.915,19.202-3.839,5.6-1.444,12.392-.868,17.036-1.987,1.2-.289,3.328-1.3,6.786-2.008,8.882-1.818,12.86-5.392,19.251,3.548Z" fill="#000000"/>
<path d="M1275.925,382.242c4.265,2.203,4.13,11.029,1.198,14.393-1.358,1.558-2.924,1.345-4.168,2.593-13.212,13.248-21.247,29.286-37.518,40.607-1.005.699-2.448,3.257-3.055,3.385-8.366,1.77-16.273-2.891-13.388-12.167.646-2.075,4.835-2.035,5.275-2.324.686-.452.479-2.359,1.031-3.058.645-.815,2.259-.699,3.339-1.69,11.263-10.334,22.309-23.568,31.935-34.777,4.99-5.81,6.429-11.571,15.35-6.963Z" fill="#000000"/>
<path d="M1599.375,862.851c.95,2.441,4.2,2.371,6.187,3.637,3.096,1.972,10.379,9.844,12.341,12.821,12.189,18.49.53,42.134,9.855,62.608.325.713,9.745,10.651,10.646,11.362,11.823,9.324,24.831,15.566,35.148,26.761,11.933,12.948,18.759,28.849,16.369,47.117-.233,1.783-1.806,1.255-1.978,2.029-1.646,7.419-2.011,9.157-4.504,16.447-4.319,12.629-7.447,27.957-6.12,41.955.373,3.933,3.808,11.463,5.929,14.965,1.112,1.835,9.892,10.866,10.153,11.602.623,1.76-.051,3.323.297,4.867.165.732,1.711.593,1.885,1.315.329,1.364.328,9.789,0,11.157-.176.732-1.729.597-1.884,1.309-.799,3.66-.981,9.08-1.964,13.074-.22.893-2.067.343-1.996,2.071.238,5.857,3.935,4.478,5.571,5.612,4.879,3.383,5.888,8.838,5.158,14.627-.082.647-7.01,9.793-8.013,10.28-2.881,1.397-4.559,1.005-6.709,1.713-1.005.331-.396,2.205-2.082,1.905-1.45-.258-2.448-1.689-3.936-1.917-5.101-.782-9.911-1.051-15.354-1.918-22.244-3.542-41.111-9.854-61.877-16.807-10.022-3.356-18.38-6.75-27.555-10.039-18.74-6.719-33.826-10.914-54.225-14.692-12.991-2.406-26.71-3.42-38.407-6.506-.805-.212-.594-1.624-1.386-1.844-1.867-.519-4.832-.027-6.98-1.002-1.307,5.408,1.446,10.152,1.92,14.861,1.462,14.528-5.606,36.993-10.888,50.064-5.439,13.46-16.976,26.313-28.168,37.13-17.992,17.39-43.733,32.662-66.379,44.35-15.372,7.933-27.779,13.649-43.493,20.624-17.923,7.956-34.506,16.128-52.613,22.475-15.566,5.456-31.421,10.781-48.164,16.867-13.851,5.035-33.601,13.725-48.304,16.17-13.224,2.199-20.281,4.343-33.794,8.428-6.069,1.834-13.529,1.912-19.167,4.39-6.327,2.781-16.28,3.452-23.856,6.288-9.329,3.492-12.518,1.995-20.835,3.991-11.164,2.679-23.471,7.394-36.69,10.484-10.749,2.512-22.495,3.795-33.447,5.899-14.799,2.843-36.339,3.116-50.779-.11-.729-.163-.579-1.731-1.305-1.891-17.001-3.747-28.587-12.957-40.632-26.132-10.693-11.696-17.856-24.011-25.401-38.158-4.443,1.982-4.377,5.247-6.191,8.185-17.152,27.781-37.377,48.977-49.319,78.804-2.967,7.411-7.698,18.911-13.175,26.424-.868,1.19-8.942,7.243-10.033,7.453-2.178.418-10.07.326-12.215-.213-2.494-.626-8.338-6.029-10.043-6.462-1.21-.307-3.27.394-3.977-.161-.23-.18-.91-3.965-2.331-5.346-1.956-1.902-6.828-2.187-5.491-6.972-5.083,1.12-4.053-2.872-6.399-6.503-7.319-11.328-15.475-22.197-23.046-33.148-3.317-4.797-9.306-15.177-13.065-19.551-1.297-1.509-5.802-3.473-7.071-5.389-2.556-3.863-6.442-8.734-8.819-12.996-9.19-16.478-8.968-33.615-3.897-51.412,2.377-8.34,7.854-16.329,5.66-25.766-.149-.641-1.452-.617-1.771-1.461-5.478-14.514-19.568-19.985-29.285-30.949-5.184-5.85-11.686-14.226-12.905-22.621-1.179-8.118.721-17.577,2.768-25.567.201-.783,1.721-.635,1.87-1.325.365-1.687-.311-3.628.049-5.382.142-.69,8.325-10.524,8.904-10.925.819-.567,2.503-.068,3.233-.624,1.53-1.166,2.718-4.187,5.121-4.91,10.826-3.26,23.592-4.375,34.991-3.4,26.86,2.296,55.658,11.234,80.868,19.102,6.186,1.931,14.905,3.644,20.496,6.231,1.6.74,1.901,2.339,2.476,2.459,3.107.648,6.444-.06,9.881,1.933-.437-4.079.592-9.098.081-13.012-.232-1.776-1.79-1.256-1.973-2.035-.677-2.868.46-7.11-.07-10.325-1.079-6.544-3.511-16.916-1.85-23.855.174-.728,1.708-.597,1.877-1.317,1.195-5.097,1.028-12.561,2.196-17.796,1.228-5.502,13.993-28.14,17.953-32.642,6.036-6.862,14.969-14.099,22.119-20.344,6.298-5.5,12.176-8.941,18.909-13.667,14.542-10.208,33.056-17.988,50.342-25.336,23.641-10.05,49.729-21.053,74.812-30.894,14.092-5.529,28.65-10.618,40.948-15.902,23.632-10.153,49.065-19.219,74.254-27.256,22.856-7.293,48.028-11.316,70.167-20.502,8.339-3.46,28.34-8.602,37.767-10.86,3.739-.895,10.16.592,14.279.055,1.779-.232,1.264-1.802,2.032-1.976,16.89-3.832,47.965-2.689,65.127-.072,7.762,1.184,12.237,1.08,19.445,3.777,24.863,9.304,31.478,16.845,49.067,34.974.872.898,2.387.439,2.703.811.383.452.532,3.177,1.473,4.84.984,1.739,3.462,2.927,4.467,4.349,3.575,5.058,7.111,10.836,10.32,15.872.943,1.48-.405,4.774,4.176,5.068.413-.1,5.756-4.923,6.346-5.659.567-.707.056-2.554.622-3.23,20.215-24.175,53.226-37.396,75.526-59.486,5.449-5.397,12.202-13.832,16.542-19.551,1.932-2.545,6.874-6.508,7.111-6.958,2.834-5.386,1.383-1.992,3.896-4.752.66-.725.957-3.362,2.141-4.784,5.735-6.885,20.401-18.818,28.941-23.141,9.651-4.886,17.222-5.341,28.395-4.137ZM1600.221,882.148c-4.203-3.207-9.159-4.201-14.439-3.239-12.15,2.212-28.587,18.374-36.715,28.06-4.498,5.36-9.934,13.325-14.718,19.137-1.392,1.691-4.997,3.725-5.796,4.964-.979,1.518-.733,4.113-.96,4.323-.348.322-2.296-.171-3.489.358-1.446.642-9.029,10.419-11.126,11.871-3.575,2.475-10.385,5.9-13.804,9.23-1.104,1.075-2.676,4.803-3.424,5.245-10.262,6.07-20.556,12.028-30.113,19.78-1.41,1.143-5.483,6.559-6.373,7.026-1.09.571-2.77.009-3.387.425-.786.531-.556,3.403-1.379,4.413-.878,1.078-4.198,1.255-5.231,2.45-.71.822-.822,3.004-1.886,4.28-2.614,3.134-5.815,4.741-6.819,9.569-.534,2.566.878,10.61,1.902,13.053.198.471,3.93,4.849,4.484,6.235,1.28,3.201,1.428,6.917,2.329,9.512.131.376,3.354,2.092,3.518,2.857.856,3.979,1.154,7.044,1.963,11.119.138.697,1.634.724,2.178,1.865,6.265,13.136,10.385,31.097,13.404,46.046.314,1.553,1.67,7.915,2.298,8.483.743.671,10.817,4.059,12.465,4.42,10.315,2.256,23.205,1.925,33.285,4.146.758.167.246,1.742,2.029,1.976,6.364.836,10.82.389,17.132,2.048,18.379,4.829,34.618,11.213,51.763,17.144,18.294,6.328,40.937,14.994,59.005,20.025,4.227,1.177,11.198,1.19,15.998,2.07,2.165.397,3.793,2.263,6.081,2.563,1.851.243,4.225-1.154,6.43.095,3.737-2.979-2.334-5.102-3.062-9.225-1.067-6.043-.477-11.222,1.81-16.724.872-2.097.931-1.559,1.832-4.901.225-.835,1.693-.641,1.867-1.358.378-1.555.312-9.404-.026-11.106-.165-.829-5.233-3.761-6.585-5.334-3.254-3.786-10.488-19.684-11.368-24.868-3.22-18.976,2.943-38.114,7.709-54.181,3.968-13.378,7.388-19.669,1.28-33.982-.559-1.31-4.966-6.855-5.329-7.845-.32-.873.23-2.702-.09-3.027-.253-.258-2.338.216-3.535-.319-.187-.084-1.879-2.529-2.596-3.175-11.49-10.345-27.182-18.285-38.402-30.194-.98-1.04-.991-2.89-1.756-3.517-.675-.555-2.562-.272-3.141-1.142-.796-1.197-.093-3.158-.705-4.621-.115-.274-1.478-.528-1.964-1.413-4.597-8.379-4.79-14.138-6.372-23.399-.692-4.049,1.702-2.632,1.965-4.63,1.348-10.268.444-30.045-8.134-36.59ZM1330.7,939.608c-6.202-2.853-53.409,2.026-62.52,3.607-10.262,1.78-20.372,4.618-29.65,6.653-5.401,1.185-13.175,4.506-18.582,5.73-2.5.566-6.351-1.483-5.808,3.218.391,3.384,2.924,2.772,4.163,3.917,2.948,2.723,4.621,2.772,5.837,3.747,6.003,4.81,13.763,16.451,17.251,23.039,3.225,6.092,2.768,7.133,4.18,13.414.112.498,3.258,6.56,3.778,8.85,5.615,24.737-3.604,53.887-7.688,77.618-1.937,11.255-3.956,27.194.148,38.147,1.657,4.423,3.716,9.327,5.338,13.554,7.661,19.957,43.82,44.333,62.379,55.659,1.397.852,2.967,4.586,4.917,6.331,1.795,1.606,9.314,5.55,9.593,6.047.535.951-.134,2.634.363,3.417.34.535,8.467,5.849,9.992,7.285,7.239,6.82,21.44,25.504,23.408,33.865.486,2.062-.257,4.814.03,7.015,4.036,1.16,4.177-2.206,6.568-3.719,7.58-4.795,16.38-8.355,23.844-12.879,20.204-12.248,34.884-23.57,50.113-41.53.976-1.151,3.531-2.2,3.709-2.513.841-1.486-.4-4.63.362-5.467.171-.188,2.707-.136,4.214-2.417,1.291-1.954,3.137-6.612,3.933-8.562,9.363-22.96,9.08-49.456,4.901-73.788-1.817-10.58-6.102-21.276-8.369-30.183-4.848-19.047-13.117-35.936-20.865-53.336-8.824-19.814-18.949-37.828-32.461-53.385-6.015-6.925-17.357-16.831-24.793-20.815-6.492-3.478-22.032-9.687-28.964-10.854-4.82-.811-4.583.516-9.322-1.664ZM1204.533,974.584c-.599-.358-.716-2.154-2.218-3.068-5.199-3.162-11.419-6.448-17.653-5.296-7.722,1.427-14.116,3.72-21.648,6.185-4.853,1.589-9.697,2.866-14.15,4.242-21.519,6.653-40.254,13.696-59.91,21.286-12.596,4.864-31.561,15.157-44.637,18.09-3.717.834-4.829-.348-8.015,3.494.287,5.239,3.075,4.177,5.021,5.256,11.416,6.33,22.481,14.894,31.498,23.449.74.702,1.852,4.385,3.163,4.957,1.191.52,3.103.053,3.463.38.189.172.414,3.219,1.345,4.935,4.976,9.169,13.145,17.326,16.87,26.466,2.958,7.259,7.825,20.491,8.798,27.472.368,2.64.451,16.886-.07,19.06-.176.732-1.729.597-1.884,1.309-4.403,20.185-11.438,36.754-16.037,54.81-1.982,7.781-.962,16.319-2.405,22.54-.487,2.101-2.359,3.019-2.728,5.907-1.432,11.186,1.365,18.199,2.863,27.929.76,4.936-.383,11.077.075,16.235,1.807,20.335,10.771,57.292,29.496,68.582,18.996,9.623,42.261,7.923,63.036,2.859,8.887-2.166,17.835-7.135,24.215-8.564,1.932-.433,4.273.334,6.334-.055.795-.15,2.515-3.617,3.299-3.767,4.07-.778,6.553-.744,10.615-2.608,8.018-3.679,14.916-6.07,23.011-9.616,10.132-4.439,21.343-8.712,31.725-12.645,16.305-6.177,31.804-10.681,47.372-17.478.68-.297,4.077-3.636,4.356-3.698,3.216-.718,7.532-.328,10.861-2.568.803-5.461,1.378-9.184-.79-14.476-9.586-23.397-51.89-52.235-71.965-67.377-2.907-2.192-13.551-8.556-15.294-10.883-.82-1.095-.475-3.197-1.469-4.293-.953-1.05-4.882-1.579-5.359-2.344-.499-.801.169-2.479-.366-3.409-.469-.815-3.717-1.36-4.656-2.829-1.399-2.186-3.102-8.134-4.039-9.621-1.898-3.01-5.425-5.119-7.702-10.081-4.453-9.703-4.73-16.815-6.481-26.109-.85-4.513-2.713-6.856-1.944-12.584.239-1.78,1.798-1.263,1.973-2.03,3.055-13.386,3.195-29.722,6.772-43.759.198-.775,1.69-.629,1.862-1.339.883-3.651.935-7.401,1.92-11.512.782-3.264.501-24.509-.027-28.556-1.802-13.836-9.306-25.552-17.278-35.491-1.655-2.063-5.465-7.079-7.915-8.874-.794-.582-2.445-.002-3.304-.515ZM1016.896,1026.941c-3.722-1.501-3.164,1.011-4.347,1.473-21.494,8.411-41.452,18.437-61.907,26.655-24.328,9.774-61.51,32.131-74.858,53.726-5.648,9.138-10.54,18.338-12.103,28.678-3.065,20.267,1.627,46.761,6.93,65.886,6.453,23.275,12.062,46.926,19.807,68.658,9.242,25.932,17.322,46.592,32.137,69.907,3.444,5.419,14.502,12.12,18.153,18.258,13.386,6.906,21.517,12,36.691,12.732,3.961.191,4.212.008,7.573,0,10.608-.027,19.339.433,28.795-1.906,18.341-4.537,35.82-8.766,52.037-12.411,13.019-2.926,27.827-5.39,39.864-8.884.929-.27,1.597-.97,2.193-1.688-.107,4.056,4.154.197,4.323-.482.513-2.067-3.984-2.697-5.393-3.739-4.839-3.582-17.747-14.513-20.041-19.781-.691-1.587-.182-4.075-.638-4.636-.391-.481-2.815.088-4.127-2.106-.512-.857-1.658-4.157-2.175-5.51-11.322-29.614-16.074-82.452-10.863-113.94,1.835-11.084,3.796-19.194,7.274-30.151,1.167-3.675,4.032-8.152,5.151-11.339,9.098-25.912,9.816-45.255-2.744-69.857-10.29-20.157-29.78-36.878-48.69-47.684l-13.041-11.86ZM732.872,1180.43c-5.144-2.367-26.463,1.729-30.2,5.693-.489.519-4.886,8.777-5.374,9.994-.133.331-1.406.348-1.564.991-.372,1.511-.376,14.412-.009,15.938.174.722,1.72.582,1.885,1.314.754,3.348-1.236,3.742,2.337,6.645.6.487,2.039.196,2.307.509.592.689-.216,2.609.323,3.523.43.728,4.979,1.53,5.442,2.286.543.886-.202,2.745.278,3.5.212.333,5.595,2.27,7.131,3.404,4.382,3.235,16.931,16.812,19.271,21.082,3.656,6.672,2.718,10.583,4.199,17.235.184.827,2.092.309,2.014,2.056-.089,1.986-1.588,3.158-1.93,4.923-1.325,6.839-1.84,11.321-3.821,17.478-4.946,15.373-5.883,26.258,1.618,41.138,2.968,5.889,7.268,8.179,10.774,12.522,2.305,2.854,2.298,8.24,7.652,7.928-2.083,3.797.915,6.236,4.784,5.748-1.19,4.144,1.08,4.094,1.872,5.561.338.625-.309,2.257.238,2.925.16.196,2.536.494,4.196,2.458,8.708,10.295,14.639,25.375,23.525,36.252,3.583,4.385,9.361,8.077,12.628,12.997l7.779.303c3.372-3.873,3.877-8.462,6.129-13.226,4.888-10.339,8.573-19.491,14.031-29.132,9.124-16.115,21.034-31.571,31.636-46.618.76-1.079,4.483-3.417,5.082-4.468,2.87-5.032,5.301-9.172,7.687-13.943,3.022-6.044,7.214-10.544,6.053-17.817-.479-2.996-3.305-6.959-4.46-9.96-2.047-5.317-1.2-8.048-2.244-12.899-.06-.28-3.244-3.51-3.651-4.408-2.802-6.179-3.19-14.089-5.239-20.457-.318-.987-3.059-7.188-3.558-7.475-2.079-1.193-1.824,1.433-2.109,1.622-2.44,1.623-39.335-.694-46.395.198-1.857.235-.989,2.003-2.776,2.106-2.113.122-4.102-.947-5.798-.879-4.57.183-9.61,1.414-14.426.828-.587-.075-5.124-4.253-5.198-4.591-1.255-5.727,2.951-6.216,1.925-11.736,7.791-2.976,15.513-2.167,23.449-2.933,4.262-.411,9.173-1.743,13.404-1.949,11.349-.553,22.831.182,34.109,1.004-.206-1.916.399-4.274-.024-6.065-.171-.727-1.721-.579-1.882-1.309-.359-1.626.299-3.524-.214-5.383-1.445-5.233-4.589-3.811-7.785-4.529-2.784-.625-11.164-4.782-14.767-5.709-22.182-5.702-43.217-14.481-66.071-19.168-10.195-2.091-26.456-1.913-34.266-5.507Z" fill="#000000"/>
<path d="M1016.896,1026.941l13.041,11.86c18.91,10.806,38.399,27.527,48.69,47.684,12.56,24.603,11.842,43.945,2.744,69.857-1.119,3.187-3.984,7.663-5.151,11.339-3.478,10.957-5.44,19.067-7.274,30.151-5.212,31.488-.459,84.327,10.863,113.94.517,1.352,1.663,4.653,2.175,5.51,1.312,2.194,3.736,1.625,4.127,2.106.456.561-.053,3.049.638,4.636,2.295,5.268,15.202,16.198,20.041,19.781,1.408,1.043,5.906,1.673,5.393,3.739-.169.679-4.43,4.539-4.323.482-.595.719-1.264,1.418-2.193,1.688-12.037,3.494-26.845,5.958-39.864,8.884-16.218,3.644-33.696,7.873-52.037,12.411-9.456,2.339-18.187,1.878-28.795,1.906-3.361.009-3.612.192-7.573,0-15.174-.731-23.305-5.825-36.691-12.732-3.651-6.138-14.709-12.839-18.153-18.258-14.815-23.315-22.895-43.975-32.137-69.907-7.745-21.732-13.354-45.383-19.807-68.658-5.302-19.125-9.994-45.62-6.93-65.886,1.564-10.34,6.455-19.541,12.103-28.678,13.348-21.595,50.53-43.952,74.858-53.726,20.455-8.218,40.413-18.245,61.907-26.655,1.182-.463.625-2.974,4.347-1.473Z" fill="#fff"/>
<path d="M1204.533,974.584c.86.513,2.51-.067,3.304.515,2.45,1.795,6.26,6.811,7.915,8.874,7.973,9.939,15.476,21.655,17.278,35.491.527,4.047.809,25.292.027,28.556-.985,4.11-1.037,7.861-1.92,11.512-.172.709-1.664.563-1.862,1.339-3.577,14.037-3.717,30.373-6.772,43.759-.175.768-1.734.251-1.973,2.03-.769,5.728,1.094,8.071,1.944,12.584,1.751,9.294,2.028,16.406,6.481,26.109,2.277,4.962,5.804,7.071,7.702,10.081.938,1.487,2.641,7.434,4.039,9.621.94,1.469,4.187,2.014,4.656,2.829.535.931-.133,2.608.366,3.409.476.766,4.405,1.295,5.359,2.344.995,1.095.649,3.198,1.469,4.293,1.742,2.327,12.387,8.69,15.294,10.883,20.075,15.142,62.379,43.981,71.965,67.377,2.168,5.292,1.593,9.014.79,14.476-3.33,2.24-7.645,1.85-10.861,2.568-.279.062-3.676,3.401-4.356,3.698-15.568,6.796-31.067,11.301-47.372,17.478-10.382,3.933-21.593,8.206-31.725,12.645-8.094,3.547-14.993,5.937-23.011,9.616-4.062,1.864-6.545,1.831-10.615,2.608-.785.15-2.504,3.616-3.299,3.767-2.06.389-4.402-.378-6.334.055-6.379,1.43-15.328,6.398-24.215,8.564-20.775,5.064-44.04,6.764-63.036-2.859-18.726-11.289-27.689-48.247-29.496-68.582-.458-5.158.685-11.299-.075-16.235-1.499-9.73-4.295-16.743-2.863-27.929.37-2.888,2.241-3.806,2.728-5.907,1.443-6.22.424-14.759,2.405-22.54,4.599-18.055,11.634-34.625,16.037-54.81.155-.712,1.709-.577,1.884-1.309.522-2.175.438-16.42.07-19.06-.973-6.981-5.84-20.213-8.798-27.472-3.725-9.14-11.894-17.297-16.87-26.466-.931-1.716-1.156-4.763-1.345-4.935-.36-.328-2.272.139-3.463-.38-1.311-.572-2.423-4.255-3.163-4.957-9.017-8.555-20.083-17.119-31.498-23.449-1.946-1.079-4.734-.017-5.021-5.256,3.186-3.842,4.298-2.66,8.015-3.494,13.075-2.933,32.041-13.226,44.637-18.09,19.656-7.59,38.391-14.634,59.91-21.286,4.452-1.376,9.296-2.654,14.15-4.242,7.531-2.465,13.925-4.758,21.648-6.185,6.234-1.152,12.454,2.134,17.653,5.296,1.502.914,1.619,2.71,2.218,3.068Z" fill="#fff"/>
<path d="M1330.7,939.608c4.74,2.18,4.502.853,9.322,1.664,6.931,1.167,22.471,7.375,28.964,10.854,7.436,3.984,18.778,13.89,24.793,20.815,13.511,15.557,23.637,33.57,32.461,53.385,7.748,17.4,16.017,34.289,20.865,53.336,2.267,8.908,6.552,19.603,8.369,30.183,4.179,24.332,4.461,50.828-4.901,73.788-.795,1.95-2.642,6.608-3.933,8.562-1.507,2.281-4.043,2.229-4.214,2.417-.762.837.479,3.981-.362,5.467-.178.314-2.733,1.362-3.709,2.513-15.229,17.961-29.909,29.282-50.113,41.53-7.463,4.524-16.264,8.084-23.844,12.879-2.392,1.513-2.532,4.879-6.568,3.719-.287-2.201.455-4.953-.03-7.015-1.969-8.361-16.169-27.045-23.408-33.865-1.525-1.437-9.651-6.75-9.992-7.285-.497-.782.172-2.465-.363-3.417-.28-.497-7.799-4.441-9.593-6.047-1.95-1.745-3.521-5.479-4.917-6.331-18.559-11.326-54.718-35.702-62.379-55.659-1.623-4.227-3.681-9.131-5.338-13.554-4.104-10.954-2.085-26.892-.148-38.147,4.084-23.731,13.303-52.882,7.688-77.618-.52-2.29-3.666-8.352-3.778-8.85-1.412-6.281-.955-7.322-4.18-13.414-3.487-6.588-11.248-18.228-17.251-23.039-1.217-.975-2.889-1.025-5.837-3.747-1.239-1.144-3.772-.532-4.163-3.917-.543-4.701,3.308-2.652,5.808-3.218,5.408-1.224,13.182-4.546,18.582-5.73,9.277-2.035,19.387-4.872,29.65-6.653,9.111-1.581,56.318-6.46,62.52-3.607Z" fill="#fff"/>
<path d="M732.872,1180.43c7.81,3.594,24.071,3.416,34.266,5.507,22.854,4.687,43.888,13.466,66.071,19.168,3.603.926,11.984,5.083,14.767,5.709,3.196.718,6.34-.705,7.785,4.529.513,1.859-.145,3.757.214,5.383.161.729,1.711.581,1.882,1.309.422,1.791-.183,4.149.024,6.065-11.278-.822-22.76-1.557-34.109-1.004-4.231.206-9.142,1.538-13.404,1.949-7.936.765-15.658-.043-23.449,2.933,1.025,5.52-3.18,6.009-1.925,11.736.074.339,4.611,4.517,5.198,4.591,4.817.586,9.856-.645,14.426-.828,1.696-.068,3.685,1.001,5.798.879,1.787-.103.92-1.872,2.776-2.106,7.06-.892,43.955,1.425,46.395-.198.284-.189.03-2.814,2.109-1.622.5.287,3.241,6.488,3.558,7.475,2.049,6.368,2.437,14.277,5.239,20.457.407.898,3.591,4.128,3.651,4.408,1.044,4.851.197,7.582,2.244,12.899,1.155,3,3.981,6.964,4.46,9.96,1.162,7.273-3.031,11.774-6.053,17.817-2.385,4.771-4.817,8.91-7.687,13.943-.6,1.052-4.322,3.39-5.082,4.468-10.603,15.047-22.513,30.503-31.636,46.618-5.458,9.64-9.143,18.792-14.031,29.132-2.252,4.764-2.758,9.353-6.129,13.226l-7.779-.303c-3.267-4.92-9.046-8.612-12.628-12.997-8.886-10.877-14.817-25.956-23.525-36.252-1.661-1.963-4.036-2.262-4.196-2.458-.547-.669.1-2.3-.238-2.925-.792-1.466-3.062-1.416-1.872-5.561-3.869.488-6.867-1.951-4.784-5.748-5.354.312-5.347-5.074-7.652-7.928-3.506-4.343-7.806-6.633-10.774-12.522-7.501-14.881-6.564-25.765-1.618-41.138,1.981-6.157,2.496-10.639,3.821-17.478.342-1.765,1.842-2.936,1.93-4.923.078-1.747-1.83-1.229-2.014-2.056-1.482-6.652-.543-10.564-4.199-17.235-2.34-4.27-14.889-17.847-19.271-21.082-1.536-1.134-6.92-3.071-7.131-3.404-.48-.755.265-2.614-.278-3.5-.464-.757-5.013-1.558-5.442-2.286-.539-.914.269-2.833-.323-3.523-.269-.313-1.708-.021-2.307-.509-3.574-2.903-1.583-3.297-2.337-6.645-.165-.733-1.711-.593-1.885-1.314-.368-1.526-.363-14.427.009-15.938.158-.643,1.431-.66,1.564-.991.488-1.217,4.885-9.475,5.374-9.994,3.737-3.964,25.055-8.06,30.2-5.693ZM863.631,1273.191c-3.9.63-10.245-.877-13.717-.022-.865.213-1.312,2.389-2.602,3.35-2.904,2.164-8.157,3.367-11.63,5.441-6.185,3.693-13.542,8.661-19.602,12.73-2.179,1.463-2.103,4.531-6.164,3.461,1.145,4.739-3.815,4.833-7.219,7.694-5.685,4.779-11.725,12.531-15.872,18.426-.595.846-3.435,2.675-3.506,2.891-1.559,4.753-.219,8.798,3.592,11.684,4.142,3.137,7.724,3.204,11.791-.374.88-.774.505-2.113,1.319-2.883,3.32-3.141,22.942-23.996,24.533-24.702,1.161-.515,2.359-.224,3.559-.295-1.116-5.043,2.572-3.838,5.916-5.87,1.793-1.09,7.695-6.471,8.212-6.572,8.052-1.575,3.26-1.072,7.732-3.811,2.644-1.619,6.08-2.103,8.613-3.606.612-.363,6.535-4.905,6.747-5.277,2.075-3.628-2.574-8.441-1.703-12.268Z" fill="#fff"/>
<path d="M1600.221,882.148c8.578,6.545,9.483,26.322,8.134,36.59-.262,1.998-2.656.581-1.965,4.63,1.582,9.261,1.775,15.02,6.372,23.399.485.884,1.849,1.138,1.964,1.413.611,1.463-.091,3.424.705,4.621.579.87,2.465.588,3.141,1.142.765.628.776,2.478,1.756,3.517,11.219,11.909,26.912,19.849,38.402,30.194.717.645,2.408,3.091,2.596,3.175,1.197.536,3.281.062,3.535.319.32.325-.23,2.154.09,3.027.363.99,4.77,6.535,5.329,7.845,6.108,14.312,2.689,20.603-1.28,33.982-4.766,16.067-10.929,35.205-7.709,54.181.88,5.184,8.114,21.082,11.368,24.868,1.351,1.572,6.42,4.505,6.585,5.334.339,1.702.404,9.551.026,11.106-.174.717-1.642.523-1.867,1.358-.9,3.342-.96,2.804-1.832,4.901-2.288,5.501-2.877,10.681-1.81,16.724.728,4.123,6.799,6.246,3.062,9.225-2.205-1.249-4.579.148-6.43-.095-2.289-.3-3.916-2.166-6.081-2.563-4.799-.88-11.771-.894-15.998-2.07-18.068-5.031-40.711-13.697-59.005-20.025-17.145-5.931-33.384-12.316-51.763-17.144-6.312-1.658-10.768-1.212-17.132-2.048-1.782-.234-1.27-1.809-2.029-1.976-10.08-2.221-22.97-1.89-33.285-4.146-1.649-.361-11.723-3.749-12.465-4.42-.628-.567-1.984-6.93-2.298-8.483-3.019-14.949-7.139-32.91-13.404-46.046-.544-1.141-2.04-1.168-2.178-1.865-.808-4.075-1.107-7.14-1.963-11.119-.164-.764-3.387-2.48-3.518-2.857-.9-2.595-1.049-6.312-2.329-9.512-.554-1.386-4.287-5.764-4.484-6.235-1.024-2.443-2.436-10.487-1.902-13.053,1.004-4.828,4.205-6.435,6.819-9.569,1.064-1.276,1.176-3.458,1.886-4.28,1.033-1.195,4.353-1.373,5.231-2.45.823-1.011.593-3.883,1.379-4.413.617-.417,2.297.146,3.387-.425.891-.467,4.964-5.882,6.373-7.026,9.557-7.752,19.851-13.709,30.113-19.78.748-.442,2.32-4.17,3.424-5.245,3.42-3.329,10.23-6.754,13.804-9.23,2.097-1.453,9.68-11.229,11.126-11.871,1.193-.53,3.141-.037,3.489-.358.227-.21-.019-2.804.96-4.323.799-1.239,4.404-3.273,5.796-4.964,4.783-5.811,10.22-13.776,14.718-19.137,8.128-9.686,24.565-25.848,36.715-28.06,5.28-.961,10.236.032,14.439,3.239ZM1562.836,983.827c-3.605-2.136-7.152-.292-10.777,1.399-15.733,7.341-31.932,18.298-48.652,22.227-.87.204-.672,1.695-1.862,2.174-4.023,1.618-8.741,2.305-12.592,4.422-1.542,5.282-1.084,10.452,1.853,14.545,3.637-.499,8.028.466,11.502.012.881-.115,8.506-3.139,9.847-3.799,15.698-7.73,31.133-14.898,46.07-23.017.851-.462,2.411-.272,3.573-1.003,2.121-1.333,2.933-3.558,5.211-3.935-3.027-2.807-.243-3.081-.22-5.055.026-2.232-1.935-6.773-3.954-7.969ZM1489.995,1068.18c-6.244-2.854-12.414,8.051-10.05,11.936.223.367,1.505.552,2.007,1.324,5.948,9.148,6.107,3.721,14.356,5.636,11.326,2.63,23.558,2.255,35.75,3.741,1.827.223.913,1.839,2.749,2.071,8.122,1.026,15.148.653,23.043,1.896,10.056,1.583,21.039,5.237,30.701,6.709,4.364.665,6.365-.246,9.829-2.269,4.944-8.813,3.128-14.531-7.118-16.736-25.707-5.532-55.301-7.165-83.158-10.884-5.405-.722-14.517-1.784-18.107-3.424Z" fill="#fff"/>
<path d="M1489.995,1068.18c3.59,1.641,12.702,2.703,18.107,3.424,27.856,3.719,57.451,5.351,83.158,10.884,10.247,2.205,12.062,7.923,7.118,16.736-3.464,2.024-5.464,2.934-9.829,2.269-9.662-1.472-20.645-5.125-30.701-6.709-7.895-1.243-14.921-.871-23.043-1.896-1.836-.232-.921-1.849-2.749-2.071-12.191-1.485-24.423-1.111-35.75-3.741-8.249-1.915-8.408,3.512-14.356-5.636-.502-.772-1.783-.957-2.007-1.324-2.364-3.885,3.807-14.79,10.05-11.936Z" fill="#000000"/>
<path d="M1562.836,983.827c2.02,1.196,3.98,5.737,3.954,7.969-.023,1.974-2.806,2.248.22,5.055-2.279.377-3.09,2.602-5.211,3.935-1.162.73-2.723.54-3.573,1.003-14.937,8.119-30.372,15.288-46.07,23.017-1.341.66-8.966,3.684-9.847,3.799-3.475.453-7.865-.511-11.502-.012-2.937-4.093-3.395-9.263-1.853-14.545,3.851-2.118,8.57-2.805,12.592-4.422,1.189-.478.992-1.969,1.862-2.174,16.72-3.929,32.92-14.886,48.652-22.227,3.625-1.691,7.171-3.535,10.777-1.399Z" fill="#000000"/>
<path d="M863.631,1273.191c-.871,3.827,3.778,8.64,1.703,12.268-.213.372-6.136,4.914-6.747,5.277-2.533,1.502-5.969,1.986-8.613,3.606-4.472,2.739.32,2.235-7.732,3.811-.516.101-6.419,5.482-8.212,6.572-3.344,2.032-7.032.827-5.916,5.87-1.2.071-2.398-.22-3.559.295-1.591.706-21.213,21.561-24.533,24.702-.814.77-.439,2.109-1.319,2.883-4.067,3.578-7.649,3.511-11.791.374-3.811-2.886-5.151-6.931-3.592-11.684.071-.216,2.911-2.045,3.506-2.891,4.147-5.895,10.186-13.647,15.872-18.426,3.404-2.861,8.364-2.956,7.219-7.694,4.062,1.069,3.985-1.998,6.164-3.461,6.06-4.07,13.417-9.037,19.602-12.73,3.473-2.074,8.726-3.278,11.63-5.441,1.29-.961,1.737-3.137,2.602-3.35,3.472-.855,9.817.652,13.717.022Z" fill="#000000"/>
</svg>