<?xml version="1.0" encoding="UTF-8"?><svg id="a" xmlns="http://www.w3.org/2000/svg" width="147.687mm" height="161.041mm" viewBox="0 0 418.639 456.495">
<path d="M250.439,122.278c-.796.769,3.798,9.194,4.258,10.934,8.858,46.133-62.83,90.535-94.108,116.697-22.851,17.338-41.334,28.301-66.484,6.502.145,9.982-3.983,20.186-4.436,30.016,5.626,32.813-19.227,16.267-33.876,5.7-15.313-7.179-19.9-11.029-21.916-28.47-3.007-9.437-13.179-7.25-19.749-12.115-27.37-30.878,28.672-32.046,47.375-32.931-22.834-32.74,2.039-57.309,26.214-79.743,20.108-19.404,64.47-60.509,90.645-66.818,8.828-2.128,22.366,2.139,30.092,6.629,1.612.937,8.149,6.846,9.381,5.803,1.639-11.435,10.796-19.648,14.969-29.871,4.232-10.367,5.493-32.372,20.978-30.897,12.76,1.215,10.683,15.958,19.252,21.5,5.774,3.734,15.442,3.341,21.82,7.82,14.61,10.26,4.871,25.921,16.735,35.878,8.895,4.888,7.047,5.695,8.865,14.107.984,1.926,5.24,1.223,5.63,5.537-.534,14.155-42.468,7.901-53.032,10.025-7.632.54-14.927,3.464-22.611,3.699ZM259.103,32.093c-14.197-13.026-17.634,17.112-21.87,26.208-3.838,8.565-13.753,19.612-14.227,28.807-.068,1.315-.194,2.607.722,3.713,7.402,6.695,14.06,14.141,20.371,21.865,1.199,1.468,1.332,4.131,3.78,4.402,8.051-.509,16.479-3.777,24.433-4.435,9.074-.751,19.058.635,28.175.019,6.081-.411,11.977-2.731,18.119-2.257,0,0-3.951-6.787-3.951-6.787-.535-1.804-.544-7.021-1.405-7.858-14.065-3.905-12.983-19.726-15.716-30.597-9.123-19.718-30.742-3.089-38.431-33.08ZM188.677,110.152c6.076-7.224,14.787-25.578,3.508-31.506-12.411-6.525-42.6,12.205-49.565,22.823,6.955,15.72,33.712,20.926,46.057,8.683ZM210.139,86.259c-.645-.474-6.845-4.304-7.114-3.997,5.619,41.606-46.678,55.632-66.315,21.491l-44.088,38.164c34.221-9.539,73.398,15.218,48.161,51.133-28.796,38.066-90.041,9.977-62.243-35.937-9.999,6.12-21.322,25.355-20.669,37.338,1.386,14.029,25.468,42.936,35.935,52.989,1.356.854,10.268,10.788,9.911,6.373,4.592-21.69,49.011-29.537,65.721-19.039l.989-.137,37.776-31.217c-29.685,7.342-57.636-18.435-39.876-48.035,17.694-27.756,66.478-17.801,72.471,13.579,24.327-32.598-6.003-61.815-30.66-82.703ZM177.403,191.622c17.144,14.301,36.955,4.628,49.71-10.051,6.337-7.293,9.468-10.961,4.205-20.53-20.077-35.676-85.714-4.92-53.915,30.581ZM100.494,146.224c-11.077,1.244-20.48,17.897-22.488,27.761-4.829,23.723,20.998,36.759,41.205,27.872,40.543-19.131,23.907-62.165-18.717-55.633ZM74.823,234.179l-22.961,10.046c-3.103,1.335-4.974-3.608-2.619-5.639,2.908-2.507,20.165-8.153,20.408-9.247-1.419-4.955-4.045-4.999-8.555-4.825-10.575,1.756-55.149-.79-46.459,18.364,3.27,7.815,21.327,5.272,25.183,18.539,2.98,10.253-.289,14.632,10.648,21.215,7.439,4.478,17.21,10.806,24.615,14.658,12.77,6.643,8.404-.757,8.607-9.42.301-12.786,5.444-24.213,5.239-36.87-4.968-4.845-10.737-10.684-14.105-16.823ZM164.488,240.091c-6.571-10.074-42.204.368-50.315,7.118-11.837,9.353,2.069,17.636,12.685,14.907,5.757-.99,32.194-18.998,37.63-22.024Z" fill="#000000"/>
<path d="M406.873,340.443c3.903-12.079,1.885-9.835-3.958-20.511-4.183-14.101,11.283-24.022-.939-39.078-4.173-5.14-10.353-7.518-14.759-12.288-8.582-9.291.471-19.665-8.664-28.017-12.912-11.804-27.619,12.747-35.01,20.046-9.076,8.962-22.392,13.72-29.75,24.701-21.005-46.082-83.04-18.845-118.682-6.788-34.388,16.054-100.348,25.942-88.418,77.199-16.88-4.147-58.111-24.772-61.002,4.562-.98,12.867,14.831,15.731,15.793,24.045-4.892,22.495-5.978,20.822,9.521,39.33,5.05,7.2,11.703,23.51,22.683,21.694,7.448-2.601,8.573-15.068,13.149-21.68,4.47-7.325,10.595-13.862,15.049-21.246,15.357,33.963,42.665,24.755,72.139,17.297,41.446-12.987,141.052-30.139,135.703-86.968,22.461,2.491,42.807,11.54,64.434,17.437,5.129,1.028,15.278,3.91,16.308-3.793.664-4.963-3.216-4.373-3.598-5.942ZM115.557,401.803c-3.549,6.545-11.279,13.936-15.382,21.12-1.595,2.793-6.281,15.172-8.076,15.691-2.405.695-5.734-3.264-7.211-5.141-4.517-5.742-9.341-13.909-13.628-19.685-3.399-4.581-6.948-7.486-6.854-13.98.095-6.571,4.994-11.311,2.486-18.744-.858-2.542-2.372-4.578-4.122-6.376-4.156-4.27-9.64-7.194-10.817-12.36-.31-1.36-.321-2.874.068-4.61,1.063-3.444,3.805-5.256,7.553-5.965,7.116-1.395,17.821,1.254,27.62,4.301,8.548,2.636,16.392,5.573,20.5,6.441l1.964,5.81c-7.317.466-16.741-.919-23.777,1.073-2.652.751-2.964,6.052.459,6.319l24.844-1.114,6.683,20.048c.069,1.533-1.554,5.777-2.31,7.173ZM159.065,420.131c-12.413.235-21.662-4.036-29.164-15.822-4.15-6.515-7.765-15.325-11.079-26.946-.221-.776-.442-1.562-.661-2.364-4.955-13.72-7-24.458-6.524-33.148.676-12.471,6.546-20.709,16.501-27.461,9.476-6.434,22.647-11.516,38.537-17.611.879.736,1.753,1.542,2.689,2.187,8.584,6.092,14.19,11.147,17.63,15.948,5.363,7.468,5.472,14.304,3.398,23.489-1.247,5.542-3.291,11.948-5.457,19.835-.142.519-.283,1.028-.426,1.56-.036,1.739-.073,3.561-.094,5.437-.069,6.128.042,12.853,1.005,19.319.003.02.005.04.008.06.013.085.028.168.041.253.358,2.331.826,4.628,1.44,6.847,2.229,8.048,6.354,15.092,13.886,19.202-17.082,5.225-30.661,9.01-41.73,9.215ZM280.194,384.281c-7.772,2.115-19.493,7.941-31.871,13.125-13.496,5.659-27.761,10.554-38.548,9.028-7.158-1.003-12.777-4.829-15.617-13.118-.018-.052-.039-.099-.056-.151-1.065-2.954-1.871-5.782-2.454-8.521-.047-.221-.087-.44-.131-.66-.065-.324-.134-.65-.193-.972-2.577-14.061.683-25.891,4.814-40.483,7.488-24.169-6.197-35.49-22.751-48.687l48.133-17.823c11.283-4.4,20.749,7.871,22.045,18.021,2.625,20.551-12.833,33.786,4.946,53.975.918,1.102,1.954,2.156,3.079,3.178,4.846,4.402,11.337,8.188,17.099,12.446,2.706,1.999,5.251,4.102,7.388,6.422,3.521,3.822,5.938,8.232,6.149,13.734-.643.129-1.321.291-2.031.484ZM310.737,365.628c.07.217-.408.701-1.268,1.367-2.406,1.867-7.808,5.149-12.567,7.976-4.077,2.424-7.679,4.511-8.515,5.08-.068.047-.12.084-.151.111-2.927-15.949-21.043-23.867-32.142-33.471-24.696-21.367,7.862-48.789-14.14-70.305-1.327-1.297-6.328-3.351-4.848-5.147.74-.897,20.12-4.786,22.686-5.112,34.494-4.381,46.837,11.086,57.916,41.205,7.937,21.579,11.987,41.704-6.97,58.295ZM355.818,331.466c-8.717-2.347-17.704-2.863-26.373-5.324-1.446-5.886-2.876-11.767-4.893-17.503-1.689-4.804-7.822-15.186-6.123-19.429,2.352-5.872,14.174-12.022,18.98-15.885,8.59-6.904,13.188-13.486,20.452-21.012,3.876-4.016,13.655-13.342,18.443-5.808,4.044,6.364-1.419,14.963,4.115,23.696,6.099,9.626,22.437,10.267,20.372,25.793-.089.67-.201,1.325-.332,1.967-.13.642-.279,1.27-.44,1.888-.161.618-.336,1.225-.518,1.823-.183.599-.373,1.189-.567,1.772-.194.584-.391,1.162-.586,1.736-2.145,6.313-4.063,12.166.879,20.664,4,3.325,4.176,5.841,3.468,8.196-.598,1.993-1.83,3.87-1.919,6.018-.064,1.562.477,3.269,2.304,5.27-16.426-1.353-31.528-9.627-47.261-13.862Z" fill="#000000"/>
<path d="M93.807,247.439c1.319.792,10.3,10.843,9.911,6.37,4.555-21.713,49.127-29.515,65.721-19.037l.989-.138,37.776-31.216c-29.691,7.345-57.626-18.434-39.877-48.033,17.691-27.764,66.479-17.798,72.472,13.576,24.308-32.615-5.951-61.755-30.66-82.703-.645-.474-6.844-4.304-7.113-3.997,5.623,41.572-46.653,55.657-66.315,21.491l-44.088,38.164c34.221-9.535,73.395,15.21,48.16,51.129-28.777,38.069-90.042,9.987-62.242-35.934-9.987,6.141-21.334,25.337-20.668,37.338,1.385,14.028,25.467,42.935,35.934,52.988Z" fill="#fff"/>
<path d="M244.1,112.686c1.199,1.468,1.332,4.131,3.78,4.402,8.05-.509,16.479-3.777,24.433-4.435,9.074-.751,19.058.635,28.175.019,6.081-.411,11.977-2.731,18.119-2.257l-3.951-6.787c-.535-1.804-.544-7.021-1.405-7.858-14.053-3.886-12.993-19.742-15.716-30.597-9.167-19.763-30.683-3.025-38.432-33.079-14.196-13.045-17.634,17.127-21.87,26.208-3.838,8.565-13.753,19.612-14.227,28.807-.068,1.315-.194,2.607.722,3.713,7.402,6.695,14.06,14.141,20.371,21.865ZM281.309,94.149l3.605,2.211-.569,3.508-36.642,8.092c-3.315.396-4.226-4.598-1.515-5.924l35.121-7.887ZM238.988,83.741c.349-.674,6.443-5.565,7.77-7.021,1.478-1.622,11.1-15.844,13.212-9.549,1.193,3.557-.743,3.547-1.836,4.984-2.724,3.583-10.831,14.063-14.397,15.658-2.679,1.198-6.406-.871-4.749-4.071Z" fill="#fff"/>
<path d="M119.209,201.858c40.534-19.114,23.924-62.164-18.715-55.634-11.077,1.244-20.48,17.896-22.488,27.761-4.829,23.723,20.998,36.759,41.203,27.873Z" fill="#fff"/>
<path d="M50.467,282.633c7.439,4.478,17.21,10.806,24.615,14.658,12.77,6.643,8.404-.757,8.607-9.42.301-12.786,5.444-24.213,5.239-36.87-4.968-4.845-10.737-10.684-14.105-16.823l-22.961,10.046c-3.103,1.335-4.974-3.608-2.619-5.639,2.908-2.507,20.165-8.153,20.408-9.247-1.419-4.955-4.045-4.999-8.556-4.826-10.556,1.763-55.173-.79-46.458,18.367,3.269,7.814,21.326,5.271,25.182,18.538,2.98,10.253-.289,14.632,10.648,21.215ZM67.154,255.765c1.752-1.994,4.245-7.374,7.125-10.153.006-.005.011-.011.017-.017.062-.06.126-.114.188-.171.083-.076.165-.154.248-.225.007-.006.015-.011.022-.017.432-.366.872-.669,1.318-.888.026-.012.051-.021.077-.032.126-.059.252-.115.379-.16,1.071-.38,2.179-.255,3.309.636.721.719.9,1.578.724,2.51-.076.399-.217.812-.409,1.233-.088.193-.187.388-.295.583-.203.367-.438.739-.697,1.111-.227.326-.471.653-.728.978-1.796,2.277-4.172,4.481-5.011,5.85-1.401,2.017-2.645,4.889-3.679,7.818-1.079,3.058-1.93,6.177-2.487,8.451-.197.085-.373.146-.559.219-11.601,4.552-1.95-13.428.459-17.727Z" fill="#fff"/><path d="M177.403,191.622c17.144,14.301,36.955,4.628,49.71-10.051,6.337-7.293,9.468-10.961,4.205-20.528-20.061-35.672-85.716-4.934-53.915,30.579Z" fill="#fff"/><path d="M188.677,110.152c6.084-7.214,14.778-25.586,3.508-31.508-12.426-6.521-42.626,12.226-49.565,22.827,6.946,15.719,33.719,20.924,46.057,8.682Z" fill="#fff"/><path d="M114.172,247.21c-11.837,9.352,2.069,17.635,12.685,14.906,5.917-1.094,32.014-18.902,37.63-22.025-6.576-10.076-42.228.375-50.315,7.118Z" fill="#fff"/><path d="M186.909,391.714c-.615-2.219-1.082-4.515-1.44-6.847-.013-.085-.029-.168-.041-.253-.003-.02-.005-.04-.008-.06-.964-6.467-1.074-13.191-1.005-19.319.021-1.876.058-3.699.094-5.438.143-.531.285-1.041.427-1.559,2.166-7.887,4.21-14.293,5.457-19.835,2.065-9.176,1.949-16.026-3.398-23.489-3.44-4.801-9.046-9.856-17.63-15.948-.937-.646-1.811-1.452-2.689-2.187-15.89,6.095-29.061,11.177-38.537,17.611-9.945,6.752-15.818,14.997-16.501,27.461-.476,8.689,1.569,19.428,6.524,33.148.219.801.439,1.588.661,2.364,3.318,11.622,6.932,20.431,11.079,26.946,7.502,11.786,16.751,16.057,29.164,15.822,11.063-.21,24.639-3.994,41.73-9.215-7.532-4.11-11.657-11.154-13.886-19.202Z" fill="#fff"/><path d="M268.688,363.64c-5.762-4.258-12.253-8.044-17.099-12.446-1.125-1.022-2.161-2.076-3.079-3.178-17.779-20.189-2.32-33.424-4.946-53.975-1.297-10.15-10.762-22.421-22.045-18.021l-48.133,17.823c16.545,13.179,30.246,24.531,22.752,48.686-4.132,14.592-7.392,26.422-4.815,40.484.059.322.127.648.193.972.044.22.084.439.131.66.583,2.739,1.39,5.567,2.454,8.521.018.052.038.099.056.151,2.861,8.278,8.476,12.107,15.617,13.118,10.788,1.526,25.053-3.368,38.548-9.028,12.355-5.181,24.065-11.003,31.871-13.125.71-.193,1.388-.356,2.031-.484-.211-5.502-2.627-9.912-6.149-13.734-2.137-2.32-4.682-4.423-7.388-6.422Z" fill="#fff"/><path d="M259.791,266.128c-2.566.326-21.947,4.214-22.686,5.112-1.48,1.796,3.521,3.849,4.848,5.147,22.003,21.516-10.555,48.937,14.14,70.305,11.099,9.604,29.215,17.522,32.142,33.471.031-.026.083-.064.151-.111.836-.569,4.438-2.656,8.515-5.08,4.757-2.828,10.159-6.112,12.567-7.976.86-.666,1.339-1.15,1.268-1.367,18.957-16.591,14.907-36.715,6.97-58.295-11.078-30.12-23.422-45.586-57.916-41.205Z" fill="#fff"/><path d="M402.695,334.04c.709-2.354.532-4.871-3.468-8.196-4.942-8.499-3.024-14.351-.879-20.664.195-.574.392-1.152.586-1.736.194-.584.384-1.174.567-1.772.183-.598.357-1.206.518-1.823.161-.618.31-1.246.44-1.888.13-.642.242-1.297.332-1.967,2.065-15.526-14.273-16.167-20.372-25.793-5.534-8.734-.071-17.333-4.115-23.696-4.788-7.534-14.567,1.792-18.443,5.808-7.264,7.526-11.862,14.109-20.452,21.012-4.806,3.863-16.629,10.013-18.98,15.885-1.699,4.243,4.435,14.625,6.123,19.429,2.016,5.736,3.447,11.617,4.893,17.503,8.669,2.461,17.656,2.977,26.373,5.324,15.733,4.235,30.835,12.51,47.261,13.862-1.827-2.002-2.367-3.708-2.304-5.27.088-2.15,1.32-4.026,1.919-6.018ZM335.055,293.408c.124-.536.318-1.138.589-1.811l23.52-10.628c1.032-.211,1.83-.036,2.421.364.886.601,1.305,1.712,1.347,2.799,0,.007,0,.014,0,.021.012.355-.015.708-.081,1.039-.134.675-.422,1.261-.839,1.599-.861.392-3.55,1.936-6.912,3.716-.188.099-.371.197-.563.298-.031.016-.065.033-.096.05-5.63,2.951-12.877,6.38-16.777,6.316-.056,0-.103-.011-.157-.014-.218-.009-.434-.022-.629-.055-.092-.016-.166-.049-.252-.07-.143-.036-.292-.065-.419-.116-.107-.043-.192-.109-.287-.164-.086-.05-.183-.088-.259-.148-.125-.098-.223-.222-.319-.348-.027-.036-.065-.06-.09-.098-.093-.142-.158-.312-.216-.487-.012-.037-.035-.064-.045-.103-.056-.202-.083-.431-.094-.677,0-.024-.008-.041-.009-.065-.01-.411.045-.882.169-1.418ZM371.628,323.136c-7.163-1.379-14.396-2.636-21.619-3.646-1.921-.229-6.461-.281-10.532-.822-3.043-.405-5.824-1.082-7.051-2.316-1.123-1.128-.947-2.72,1.52-4.991l38.177,5.28c4.228.611,3.76,6.388-.494,6.494Z" fill="#fff"/>
<path d="M86.34,375.696c-3.422-.267-3.111-5.568-.459-6.319,7.035-1.992,16.46-.606,23.777-1.073l-1.964-5.81c-4.186-.859-12.001-3.798-20.5-6.441-9.798-3.047-20.503-5.696-27.62-4.301-3.7.725-6.429,2.542-7.553,5.967-.39,1.735-.378,3.249-.069,4.608,1.177,5.166,6.661,8.091,10.817,12.36,1.75,1.798,3.264,3.834,4.122,6.376,2.508,7.432-2.391,12.172-2.486,18.744-.094,6.494,3.455,9.399,6.854,13.98,4.287,5.777,9.11,13.943,13.628,19.685,1.477,1.877,4.806,5.836,7.211,5.141,1.795-.519,6.481-12.898,8.076-15.691,4.103-7.184,11.833-14.575,15.382-21.12.757-1.396,2.379-5.64,2.31-7.173l-6.683-20.048-24.844,1.114ZM112.589,388.012c-.042,1.829-10.557,6.856-12.727,8.488-3.111,2.339-10.261,11.229-12.445,12.221-2.57,1.168-5.043-1.984-4.048-4.804.108-.306.92-1.382,1.941-2.654,1.702-2.119,3.985-4.78,4.56-5.324,4.922-3.485,15.629-12.841,21.925-11.235.069,1.057.815,2.376.794,3.307Z" fill="#fff"/>
<path d="M247.703,107.96l36.642-8.092.569-3.508-3.605-2.211-35.121,7.887c-2.711,1.326-1.8,6.32,1.515,5.924Z" fill="#000000"/>
<path d="M243.737,87.812c3.567-1.595,11.673-12.074,14.397-15.658,1.092-1.436,3.029-1.427,1.836-4.984-2.112-6.295-11.734,7.927-13.212,9.549-1.327,1.456-7.421,6.347-7.77,7.021-1.656,3.2,2.07,5.269,4.749,4.071Z" fill="#000000"/>
<path d="M66.695,273.492c.186-.073.362-.135.559-.219.557-2.274,1.408-5.393,2.487-8.451,1.034-2.93,2.277-5.803,3.678-7.819.839-1.37,3.215-3.574,5.011-5.85.257-.325.501-.652.728-.978.259-.373.495-.744.697-1.111.108-.196.207-.391.295-.583.192-.421.334-.834.409-1.233.177-.932-.003-1.791-.724-2.51-1.13-.89-2.238-1.016-3.309-.636-.127.045-.253.101-.379.16-.026.012-.051.02-.077.032-.447.219-.887.522-1.318.888-.007.006-.015.011-.022.017-.083.071-.166.15-.248.225-.063.057-.126.111-.188.171-.006.005-.011.011-.017.017-2.878,2.779-5.367,8.159-7.124,10.154-2.41,4.302-12.06,22.274-.46,17.726Z" fill="#000000"/>
<path d="M372.122,316.642l-38.177-5.28c-2.466,2.27-2.643,3.862-1.52,4.991,1.227,1.233,4.008,1.911,7.051,2.316,4.071.542,8.611.593,10.532.822,7.224,1.009,14.456,2.267,21.619,3.646,4.254-.106,4.722-5.883.494-6.494Z" fill="#000000"/>
<path d="M334.989,295.568c.01.039.033.066.045.103.058.176.123.345.216.487.025.038.063.062.09.098.096.126.195.25.319.348.076.06.173.098.259.148.095.055.18.12.287.164.127.052.276.081.419.116.086.021.161.054.252.07.195.034.41.046.629.055.055.002.101.013.157.014,3.899.064,11.147-3.365,16.777-6.316.031-.017.065-.034.096-.05.192-.101.375-.198.563-.298,3.365-1.781,6.055-3.326,6.913-3.716.417-.338.705-.924.839-1.599.066-.331.093-.684.081-1.039,0-.007,0-.014,0-.021-.042-1.087-.461-2.198-1.347-2.799-.591-.401-1.389-.575-2.421-.364l-23.52,10.628c-.27.672-.464,1.274-.589,1.811-.124.536-.178,1.008-.169,1.418,0,.024.008.042.009.065.01.245.038.475.094.677Z" fill="#000000"/>
<path d="M89.871,395.941c-.576.544-2.859,3.205-4.561,5.323-1.021,1.271-1.833,2.347-1.941,2.654-.996,2.82,1.478,5.972,4.048,4.804,2.184-.993,9.334-9.882,12.445-12.221,2.17-1.632,12.685-6.659,12.727-8.488.021-.931-.725-2.25-.794-3.307-6.326-1.589-16.974,7.737-21.924,11.236Z" fill="#000000"/>
</svg>