<?xml version="1.0" encoding="UTF-8"?><svg id="a" xmlns="http://www.w3.org/2000/svg" width="109.718mm" height="162.089mm" viewBox="0 0 311.01 459.464">
<path d="M265.377,113.476c-7.05-3.809-15.864-3.093-23.234-3.056,0,0,15.909-10.387,15.909-10.387,22.593-19.134-4.33-47.992-27.954-35.384,0-.001-10.911,5.748-10.911,5.748,9.43-13.159,16.434-32.319-.965-42.382-17.266-10.824-30.832,2.318-39.763,16.45v-15.192c0-1.12-2.526-6.555-3.372-7.742-10.345-14.524-35.361-12.988-41.633,4.202-.515,1.413-2.387,7.733-2.387,8.727v12.228l-8.573-13.282c-8.283-10.283-19.4-13.155-30.293-4.493-13.886,10.433-9.27,26.957-1.864,40.005l-12.593-6.289c-18.224-8.791-35.504,7.637-32.407,26.503,1.578,9.613,11.479,15.573,18.344,21.289-6.889-.18-14.574-.312-21.244,2.825-14.43,6.815-14.658,31.448-2.812,40.888,8.076,6.765,16.975,5.087,26.278,5.198,0,0-13.344,9.248-13.344,9.248-23.161,21.128,6.138,55.053,35.554,32.993-8.369,13.632-13.616,30.799,4.056,40.041,16.548,9.152,28.803.493,37.412-14.101-1.129,12.552,2.69,26.75,16.333,30.107l-.783,23.989c-8.591-12.501-26.215-15.91-39.109-8.027.924,17.804,21.269,36.255,39.115,25.813v17.415c-15.166,3.643-33.951.28-47.929,9.461-1.464,1.643-1.127,14.185-.951,17.225,1.043,8.961.445,21.42,4.773,29.312,0,0,8.474,3.377,8.474,3.377.735,14.824,3.038,29.521,4.611,44.296,1.857,10.181.353,16.501,12.329,18.046,14.487,2.877,47.553,2.903,61.66-.906,10.216-1.544,7.729-18.228,9.6-25.965,1.592-11.793,3.335-23.54,3.673-35.468,5.392-2.443,8.096-1.961,9.471-8.44,1.965-9.261,2.733-22.117,3.192-31.636.573-11.896-3.513-12.371-14.092-14.869-11.624-2.744-23.633-3.721-35.56-3.319l-.732-17.789c29.452,20.431,59.523-10.288,65.1-38.8-21.562-14.992-55.613-6.226-65.841,18.788l-.653-22.51c13-5.155,16.234-17.548,16.204-30.841,0,0,6.67,9.991,6.67,9.991,23.036,24.831,54.204-4.646,35.535-33.705,12.433,7.828,29.434,12.617,38.382-2.719,11.173-16.602.291-30.9-13.949-40.266,10.393.151,16.966.966,25.923-6.294,10.514-10.541,8.47-33.542-5.651-40.301ZM133.055,288.883c3.226,1.773,6.237,4.486,9.861,5.33.298,1.625-1.42,2.331-2.675,2.873-14.121,6.092-26.595-9.092-29.896-21.376,13.168-6.077,30.164-.021,33.307,14.79-3.049-1.79-15.319-8.93-18.072-8.11-5.346,1.591,6.527,5.972,7.475,6.493ZM260.07,75.805c11.563,24.637-33.366,36.684-50.469,41.272-2.208-7.758-7.197-14.108-11.582-20.704-.21-.813,1.64-3.013,2.272-3.755,14.089-14.17,43.114-41.713,59.778-16.813ZM143.639,187.88c-92.19-27.889-14.914-156.5,52.585-86.71,32.596,38.937-3.986,98.366-52.585,86.71ZM197.948,29.506c10.769-4.787,26.854,3.953,27.203,16.095.413,14.375-19.643,37.183-30.375,45.996l-1.708.183c-6.494-4.977-13.36-9.211-21.164-11.848.143-15.118,12.31-43.374,26.044-50.427ZM153.131,15.758c33.979-1.692,20.857,45.049,11.523,62.734-5.376-.885-11.448-.976-16.932-.688-1.859.098-3.736,1.448-5.591.423-1.057-.749-4.504-14.259-4.936-16.55-2.878-15.288-5.908-44.408,15.936-45.918ZM92.8,33.586c24.408-22.735,43.37,29.917,44.044,47.043-7.928,1.918-14.23,7.063-20.965,11.289-13.76-11.523-39.924-40.342-23.08-58.333ZM61.963,103.619c-16.29-8.523-17.16-33.187,1.52-38.977,20.494-1.372,35.166,17.5,48.742,30.211l.002,1.492c-6.009,6.174-9.768,14.018-12.971,21.923-12.898-2.435-26.258-7.229-37.292-14.649ZM41.456,150.079c-7.164-6.318-8.03-19.702-3.096-27.577,13.167-16.889,42.768-4.154,59.299,1.343v23.541c-15.116,5.344-42.623,14.67-56.204,2.693ZM83.44,199.482c-16.825,12.507-39.22,1.518-33.993-19.939,5.745-14.997,36.024-23.808,50.449-26.07,2.975,7.312,6.78,14.337,11.876,20.398-7.13,10.343-17.44,19.137-28.332,25.61ZM125.458,225.97c-7.314,12.205-16.739,19.659-31.181,12.051-26.609-16.096,7.27-46.135,21.235-59.094l1.482.009c5.962,5.272,12.863,9.769,20.738,11.526-2.449,11.958-5.973,24.993-12.274,35.508ZM116.721,323.941c8.797-1.346,18.336-1.79,27.202-2.212l1.214,1.007v14.451c-12.523-.953-34.374-.526-44.42-7.781,3.864-3.613,10.839-4.675,16.003-5.465ZM164.391,321.625c9.824-.164,35.509,1.012,45.16,7.781-11.899,7.546-29.987,7.025-43.946,7.678l-1.214-1.008v-14.451ZM191.223,259.919c10.561-2.989,22.223-1.305,32.354,2.47-3.414,25.053-34.473,53.357-59.184,33.666,7.364-5.632,15.575-9.85,23.927-13.844,1.765-.844,9.07-3.172,9.391-4.688-1.584-7.582-29.89,12.075-34.058,13.715,3.088-14.25,13.219-27.257,27.57-31.319ZM183.281,340.159c8.951-.813,17.678-2.72,26.278-5.193-2.383,43.382,2.422,36.437-39.987,40.762l.328,3.005c-.146,1.755,26.132-2.358,27.07-2.267.295,8.32-1.337,16.57-2.229,24.813-1.446,10.056-.599,21.452-4.744,30.823-13.167,6.337-50.296,4.529-64.273,1.958-7.239-.113-6.858-10.257-7.914-15.797-1.612-13.934-2.012-27.978-4.511-41.796,12.757.309,25.439,2.108,38.099,2.996,2.731.102,7.987.387,10.409-.028,3.648-.624,1.482-3.975-2.295-4.381-18.201-2.17-37.896.315-55.677-5.42-2.032-1.63-3.248-30.182-3.124-34.669,26.223,7.738,55.513,7.428,82.57,5.192ZM158.46,274.574c1.114,20.81,1.774,41.789,1.491,62.616l-10.788-.694.742-77.908,7.798-.671c1.261,5.481.515,11.081.757,16.657ZM158.043,254.134c-35.47,4.662-23.964-42.27-15.167-61.126,7.368-.749,14.755.685,22.094-.926,1.099-.49,1.63.36,2.253,1.101,5.238,18.127,16.607,54.204-9.18,60.951ZM222.909,223.434c.007,8.135-8.272,15.608-15.57,17.783-23.805,5.404-31.787-33.895-35.545-50.75,7.342-1.047,15.995-8.578,21.82-11.175,11.704,9.337,28.133,28.585,29.296,44.141ZM255.782,197.064c-16.604,25.11-47.448-8.166-57.764-22.943,4.872-6.333,9.175-13.135,11.911-20.725l.832-.689c20.326,4.795,59.956,16.317,45.021,44.358ZM262.141,154.517c-16.794,5.152-34.307-2.262-50.302-7.096.924-8.23.966-16.444-.088-24.672,13.989-7.124,41.313-12.876,55.513-3.01,9.921,8.294,7.425,29.799-5.123,34.778Z" fill="#000000"/>
<path d="M115.049,98.825c-27.17,32.195-12.362,79.232,28.59,89.055,48.599,11.657,85.18-47.773,52.582-86.712-20.248-24.186-60.119-27.29-81.172-2.343ZM138.149,119.352c-2.563,6.835-12.927,2.855-9.888-3.925,3.041-6.165,12.102-2.758,9.888,3.925ZM168.497,130.461c-6.475,7.236-22.691,6.05-24.839-4.477l2.482-.621c9.637,10.203,13.616,4.45,23.056-.122,2.131,1.484.728,3.675-.699,5.22ZM179.451,122.815c-6.994.429-7.323-10.297-.5-10.71,6.816-.413,7.704,10.268.5,10.71Z" fill="#fff"/>
<path d="M171.904,79.933c7.805,2.637,14.67,6.871,21.164,11.848l1.708-.183c10.731-8.813,30.787-31.621,30.375-45.996-.349-12.142-16.434-20.882-27.203-16.095-13.736,7.062-25.897,35.298-26.044,50.427Z" fill="#fff"/>
<path d="M97.66,123.845c-16.5-5.504-46.157-18.228-59.3-1.345-15.78,42.371,34.833,35.713,59.3,24.886v-23.541Z" fill="#fff"/>
<path d="M267.264,119.74c-14.197-9.866-41.53-4.116-55.514,3.008,1.054,8.23,1.012,16.443.088,24.673,15.985,4.834,33.517,12.248,50.302,7.096,12.549-4.98,15.044-26.485,5.123-34.777Z" fill="#fff"/>
<path d="M99.255,118.268c3.204-7.906,6.962-15.749,12.971-21.923l-.002-1.492c-14.278-15.845-52.723-51.438-62.617-13.708-2.056,23.793,31.468,32.867,49.647,37.124Z" fill="#fff"/>
<path d="M116.994,178.936l-1.482-.009c-13.951,12.933-47.848,43.014-21.237,59.094,28.708,13.91,38.883-27.137,43.457-47.559-7.875-1.757-14.777-6.254-20.738-11.526Z" fill="#fff"/>
<path d="M210.76,152.706l-.832.689c-8.251,24.256-21.119,14.426,1.84,36.705,11.604,10.64,32.459,26.327,44.014,6.964,14.927-28.044-24.682-39.556-45.021-44.358Z" fill="#fff"/>
<path d="M167.223,193.182c-.641-.746-1.137-1.594-2.253-1.099-7.341,1.609-14.724.176-22.094.925-8.797,18.856-20.303,65.788,15.167,61.126,25.789-6.753,14.414-42.817,9.18-60.951Z" fill="#fff"/>
<path d="M142.131,78.227c7.176.035,15.183-1.383,22.522.266,1.23-.334,3.586-7.446,4.199-9.185,6.309-17.911,14.773-55.658-15.721-53.549-27.6,3.706-17.361,45.182-11,62.469Z" fill="#fff"/>
<path d="M111.487,174.899l.284-1.027c-5.096-6.061-8.901-13.086-11.876-20.398-23.29,2.454-75.217,24.362-39.918,49.955,20.528,6.404,38.836-15.043,51.509-28.529Z" fill="#fff"/>
<path d="M200.292,92.618c-.633.742-2.483,2.942-2.272,3.755,4.385,6.596,9.373,12.946,11.582,20.704,17.066-4.572,62.043-16.637,50.471-41.271-16.668-24.901-45.687,2.641-59.78,16.812Z" fill="#fff"/>
<path d="M193.614,179.294c-5.855,2.606-14.447,10.119-21.82,11.174,3.75,16.849,11.745,56.158,35.544,50.751,33.742-11.635,2.68-48.872-13.724-61.925Z" fill="#fff"/>
<path d="M115.88,91.919c6.735-4.226,13.037-9.372,20.963-11.288,1.284-.999-.4-5.843-.796-7.43-21.468-86.71-83.535-30.948-20.167,18.718Z" fill="#fff"/>
<path d="M195.853,275.636c6.405,2.272-5.424,5.484-7.533,6.574-8.352,3.995-16.563,8.212-23.927,13.845,24.712,19.694,55.774-8.619,59.185-33.667-24.84-11.007-54.76.951-59.925,28.849,7.507-3.938,23.816-15.003,32.2-15.602Z" fill="#fff"/>
<path d="M157.703,257.917l-7.798.671-.742,77.908,10.788.694c.101-26.366-.499-53.016-2.248-79.274Z" fill="#fff"/>
<path d="M125.58,282.389c2.753-.82,15.023,6.32,18.072,8.11-3.143-14.811-20.139-20.868-33.307-14.79,3.301,12.283,15.775,27.467,29.896,21.376,1.255-.542,2.973-1.248,2.675-2.873-3.625-.844-6.635-3.557-9.861-5.33-.948-.521-12.821-4.902-7.475-6.493Z" fill="#fff"/>
<path d="M169.196,125.242c-9.444,4.585-13.443,10.309-23.056.121l-2.482.621c2.156,10.528,18.358,11.712,24.839,4.477,1.427-1.545,2.831-3.736.7-5.219Z" fill="#000000"/>
<path d="M128.261,115.427c-3.039,6.781,7.328,10.759,9.889,3.924,2.214-6.683-6.847-10.09-9.889-3.924Z" fill="#000000"/>
<path d="M178.951,112.105c-6.823.413-6.494,11.14.5,10.71,7.204-.442,6.316-11.123-.5-10.71Z" fill="#000000"/>
<path d="M120.41,339.332c-6.641-.956-13.277-2.513-19.699-4.365-.124,4.487,1.092,33.039,3.124,34.668,17.78,5.736,37.476,3.25,55.677,5.421,3.777.405,5.943,3.756,2.295,4.38-2.422.414-7.678.129-10.409.027-12.66-.888-25.341-2.686-38.099-2.996,2.5,13.818,2.898,27.862,4.511,41.797,1.104,5.538.642,15.684,7.914,15.794,14.019,2.573,51.06,4.374,64.273-1.954,4.147-9.373,3.296-20.768,4.745-30.825.891-8.243,2.523-16.494,2.228-24.813-1.037-.094-27.099,4.033-27.07,2.267l-.328-3.005c42.515-4.312,37.579,2.536,39.987-40.762-28.386,8.07-60.021,7.834-89.149,4.366Z" fill="#fff"/>
<path d="M200.834,333.27c1.544-.402,8.684-2.447,8.717-3.864-9.56-6.754-35.437-7.96-45.16-7.781v14.451l1.214,1.008c11.419-.012,24.158-.928,35.229-3.813Z" fill="#fff"/>
<path d="M116.091,334.762c7.95,1.217,20.86,2.252,29.047,2.426v-14.451l-1.214-1.007c-14.035,1.468-31.056-.421-43.206,7.677.024,2.048,13.081,4.958,15.372,5.356Z" fill="#fff"/></svg>