<?xml version="1.0" encoding="UTF-8"?><svg id="a" xmlns="http://www.w3.org/2000/svg" width="147.637mm" height="171.45mm" viewBox="0 0 418.5 486"><path d="M255.546,300.585c-7.432-4.276-13.37,5.229-18.181,9.156-6.976,5.693-14.918,7.988-23.384,3.904-3.454-1.667-14.609-10.567-13.622-14.6l137.343-208.467c3.442-1.279,7.01-2.359,10.669-2.831,4.833-.624,8.26,1.319,11.525-4.225,4.052-6.881,6.675-21.482,10.028-29.722,1.982-4.869,5.474-11.13,8.837-15.163,2.697-3.234,9.984-7.715,10.471-11.308,1.183-8.718-14.191-7.566-18.727-3.329-.97-2.688.254-8.694-3.404-9.029-3.235-.398-9.902,6.607-5.595,8.651,1.755.833,4.877-.12,5.239,2.99l-5.99,4.137-1.444-7.18c-2.625-3.345-9.394,2.266-8.747,5.719.569,3.039,5.981,1.167,6.405,4.772l-5.597,4.939-1.287-8.077c-4.345-2.674-10.219,2.474-8.776,7.272,2.208.302,4.631.714,5.916,2.752l-5.603,5.552c-.916-2.13.447-7.26-1.848-8.642-3.093-1.863-10.24,3.376-7.923,7.173.731,1.198,5.513,1.726,6.389,4.097-1.033.96-5.682,5.178-6.738,4.122.041-2.07.469-7.348-1.986-8.154-3.299-1.083-9.797,4.082-7.433,7.452.968,1.38,6.164.79,6.416,4.44l-6.748,3.762c-.252-2.206.949-6.65-1.492-7.88-3.844-1.936-10.066,4.218-7.935,7.178.868,1.206,5.467,1.069,6.415,3.33-3.118,2.779-4.273,3.747-3.682,8.198.28,2.113,2.294,4.572,1.636,6.182l-127.28,180.285c-7.884,2.677-15.807-1.999-19.554-9.025-4.657-8.733-4.188-17.92-.729-27.007,1.653-4.342,9.554-14.481,5.437-18.581-4.388-4.369-14.255,1.126-18.184,4.333-22.965,18.746-23.17,48.388-36.526,72.224-14.743,26.312-43.859,34.218-65.474,53.026-57.618,50.136-5.736,99.025,42.883,125.848,40.304,22.236,74.922,19.331,94.629-25.837,8.118-18.608,6.888-33.45,10.812-52.188,6.822-32.581,31.475-33.827,48.532-55.718,4.085-5.243,12.386-19.882,4.306-24.53ZM198.42,296.976l-22.138-15.027.837-2.453,3.146-3.422,22.156,15.396c-.199,1.23-2.643,5.818-4.002,5.505ZM146.264,382.106l-30.785-20.958c-3.309-1.721-3.894,2-6.986.246-8.039-4.561-7.652-13.789-4.27-21.296,7.031-15.605,27.664-24.108,40.142-34.858,12.369-10.656,20.487-24.387,25.071-40.004,3.818-3.921,8.702,7.054,8.344,9.613-.284,2.033-7.765,10.248-9.2,13.369-.506,1.101-.838,1.572-.233,2.771.553,1.095,6.141,4.796,7.66,5.879,2.526,1.8,15.307,10.688,17.094,10.684,1.132-.003,2.266-1.004,3.383-.464,1.613.78,5.852,6.236,7.901,7.903,11.341,9.227,23.801,9.442,35.862,1.382,2.775-1.854,4.83-4.233,7.317-6.183.619-.485,3.189-2.47,3.683-1.936-1.123,9.433-9.808,17.528-16.888,23.232-16.728,13.477-32.699,18.842-37.654,42.596-3.879,18.597-3.518,35.875-11.088,54.162-1.852,4.473-5.975,14.202-12.018,9.779-5.602-4.101-7.808-21.934-10.71-29.036-3.023-7.399-9.176-16.207-15.813-20.581-.62-.862,1.883-3.324-.812-6.299ZM145.504,385.106l-11.991,18.045-1.835.369-31.085-20.752.309-3.246,12.117-16.436,2.73.792,29.415,20.117.339,1.11ZM193.126,305.991l-21.755-14.985c-2.875-2.218,2.308-4.762,2.69-7.463l23.94,14.969-4.875,7.479ZM362.252,21.747c-.627-1.845,4.608-5.208,5.242-4.497l.751,6.75c-1.918-1.342-3.439-2.609-5.992-2.253ZM352.502,29.247c-.957-.884,3.014-4.234,4.224-4.415,2.599-.389,1.665,4.981,1.769,6.667-1.918-1.342-3.439-2.609-5.992-2.253ZM343.495,36.748c-1.007-2.419,4.275-6.186,5.153-3.271.474,1.575-.091,3.823.096,5.523-1.783-1.278-2.7-2.74-5.25-2.252ZM333.745,44.248c-.441-2.911,2.678-4.627,5.252-4.496v5.995l-5.252-1.5ZM323.996,51.747c-.443-2.901,2.66-4.625,5.251-4.496l-.003,5.998-5.249-1.502ZM314.246,59.247c-.442-2.911,2.677-4.627,5.251-4.496l.748,6.748c-1.915-1.345-3.451-2.602-5.999-2.252ZM319.484,65.61c5.204-4.694,13.281-9.36,19.124-13.876,10.157-7.85,20.46-17.447,30.898-24.602,3.029-2.076,6.04-4.051,9.824-4.475,2.853-.32,6.282.424,8.049,2.823.287,3.662-2.912,4.469-4.896,6.379-6.625,6.378-11.086,12.835-14.602,21.398-2.386,5.811-8.015,27.905-11.233,30.767-4.442,3.951-15.015.576-20.277,4.985l-16.906-11.351c-1.81-5.24-4.798-7.705.018-12.048ZM316.505,81.383c.204-.452,1.523-1.9,2.276-1.583l15.717,10.21c.586.462-1.175,3.139-2.279,2.69-4.803-3.203-9.559-6.484-14.295-9.784-.551-.384-1.999-.248-1.42-1.532ZM314.675,83.95l2.251.751,14.566,10.219-9.755,16.081-17.231-11.671,10.167-15.38ZM302.311,101.293l17.93,11.581-9.767,15.358c-.84.168-1.464.035-2.222-.357-2.599-1.343-11.843-7.8-14.198-9.799-.552-.468-1.22-.797-1.474-1.547l9.732-15.237ZM290.67,118.508l17.55,11.29c.953,1.368-9.32,13.647-9.733,16.453l-18.739-12.013,10.921-15.73ZM278.616,135.779l18.385,11.981-10.176,15.79c-.924.167-1.517-.36-2.251-.752-5.66-3.019-11.294-8.201-16.792-11.664l10.834-15.355ZM266.612,153.116l18.358,11.931-10.141,16.445-19.036-13.204,10.818-15.172ZM254.621,170.354l19.13,12.658-10.874,16.432-19.867-13.819,11.612-15.272ZM241.512,187.499l20.195,13.962-10.153,15.248-20.499-13.832,10.456-15.378ZM229.874,204.759l20.57,14.614-10.139,14.589-21.306-13.474,10.875-15.729ZM217.478,222.349l1.103-.324,19.837,13.554c.357.788.014,1.444-.312,2.15-.629,1.362-6.893,11.078-7.552,11.234-6.055-3.35-12.112-7.315-17.797-11.342-.902-.639-3.703-2.208-3.543-3.238l8.263-12.034ZM207.471,237.079l21.211,13.49c.321.79.011,1.455-.319,2.165-.833,1.791-5.44,8.781-6.77,10.48-.449.574-.839,1.184-1.565,1.455l-21.996-14.534,9.439-13.055ZM196.864,252.119l22.08,15.254-7.441,10.556-2.02-.255-20.446-14.119,7.826-11.437ZM209.664,280.495l-4.924,9.003-22.916-14.984c-1.186-1.6,4.379-6.851,4.911-8.69l1.023-.256,21.906,14.927ZM249.74,323.615c-16.209,20.889-41.28,23.722-48.532,54.218-5.455,22.938-2.72,39.712-15.072,62.178-27.509,50.029-73.436,29.062-109.878,3.107-40.919-29.144-66.933-67.738-20.774-108.258,22.013-19.324,51.028-26.707,66.151-53.849,13.086-23.486,14.076-53.326,35.851-71.399,3.02-2.506,12.191-8.105,15.587-4.69,2.766,2.781-3.346,10.35-4.697,13.33-8.174,18.027-4.072,41.982,19.121,43.121l-7.875,10.875c-1.354-3.761-5.443-12.729-10.896-9.391-1.342.821-6.953,16.99-8.843,20.402-12.068,21.786-29.499,26.501-46.249,41.501-11.291,10.112-22.312,29.096-4.891,39.006l-.056,1.037c-2.171,4.118-10.289,12.331-10.493,16.58-.044.909-.028,1.809.42,2.632l32.304,21.721c1.501.208,2.484.145,3.756-.69,1.393-.914,7.404-10.396,9.063-12.705.499-.695.872-1.443,1.083-2.27.78-.287,1.485-.086,2.189.294,1.579.853,6.5,6.902,7.809,8.692,9.317,12.731,7.815,27.373,14.801,37.699,4.495,6.643,10.636,5.427,14.761-.749,10.779-16.138,10.395-44.276,14.558-62.692,6.426-28.426,35.159-32.199,49.648-53.102,2.613-3.77,6.298-9.618,4.083-14.127-3.088-2.112-10.679,6.637-13.474,8.486-15.017,9.934-30.416,5.266-40.846-8.544-.631-.836-1.429-1.322-1.098-2.643l1.889-.401c10.415,14.404,25.246,20.5,40.125,7.907,3.786-3.204,9.373-11.789,15.217-8.494,6.279,3.541-1.577,17.14-4.742,21.218Z"/><path d="M323.096,220.99c-1.098.294-2.277,1.438-2.869,2.429l-15.87,32.516c-5.289-4.25-16.644-4.437-20.143,1.972-5.676,10.398,14.061,20.453,21.8,8.301,5.655-8.88,9.487-20.838,14.937-30.06l1.152-1.146,24.262,7.437-11.614,22.442c-7.491-6.009-23.303-2.776-19.554,9.096,2.388,7.561,17.783,9.704,21.565,1.979,5.48-12.893,14.339-25.349,19.49-38.259.805-2.018,1.488-3.432.444-5.595-5.004-1.332-30.544-11.93-33.601-11.112ZM336.748,271.442c-2.489,4.125-4.265,7.049-9.51,7.042-13.561-.018-13.417-15.317-.745-14.319,4.331.341,6.326,2.695,9.366,5.268l13.508-28.495-27.417-9.003-1.745,1.216-18.103,34.394c-4.203,2.563-9.125,2.611-13.118-.354-9.136-6.785,1.691-15.092,10.887-10.887,2.243,1.026,3.013,3.139,5.237,3.38l18.356-36.6,31.842,11.465c-6.903,11.573-11.664,25.469-18.558,36.893Z"/><path d="M61.069,244.119c-.804-10.757-5.432-22.975-6.666-33.898l.294-1.099,23.711-7.881,5.226,24.412c-8.03-.811-17.076,6.761-14.019,15.16,3.522,9.677,20.591,3.7,21.538-5.005.171-1.57.06-3.602-.096-5.199-1.04-10.628-5.019-28.168-7.649-38.847-.409-1.662-.686-3.404-1.426-4.953l-3.418-.381-32.074,11.457c-.675,1.119-.411,2.798-.281,4.071,1.083,10.574,5.447,22.519,6.599,33.157.092.852.13,1.696.08,2.545-6.855-1.454-15.507,7.072-14.12,13.702,2.288,10.937,23.358,6.934,22.299-7.24ZM41.741,252.181c-3.729-6.736,7.652-15.294,14.139-11.524l-7.174-41.293,31.905-10.435,8.297,46.123c-.631,6.754-12.911,11.99-16.843,5.553-4.066-6.657,7.465-15.559,13.814-11.948l-5.247-30.754-29.247,9.781,7.477,39.303c-.956,6.945-13.27,12.151-17.121,5.194Z"/><path d="M338.532,431.045l-10.556-40.876c12.136.242,17.545,9.566,18.754,20.616.227,2.076-.941,10.785,3.76,8.289,4.115-2.185,1.833-18.691.35-22.899-5.044-14.307-20.455-15.198-27.248-25.252-.916-1.355-2.729-6.388-3.284-6.838-1.695-1.375-4.92-.205-5.726,1.848l14.89,57.23c-8.856-1.704-18.956,12.786-10.133,18.764,7.3,4.947,19.144-2.183,19.194-10.881ZM322.698,440.812c-8.103-2.171-3.551-12.308,2.483-14.81l7.303-.97-15.762-58.479c.873-.843.85-1.573,1.867-.377,1.092,1.284,1.724,3.931,2.751,5.499.551.841,2.491,3.389,3.126,4,3.755,3.617,10.383,6.488,14.701,9.674,9.579,7.069,12.351,16.595,11.236,28.368-.066.701-.369,3.537-1.421,3.444-.787-2.148.211-4.175.017-6.366-1.232-13.87-8.989-24.403-24.021-22.877l11.285,42.395c-.018,6.683-7.121,12.224-13.564,10.497Z"/><path d="M219.941,32.262c-1.1-1.787-4.746-2.555-5.86-.741l-16.712,56.453c-16.104-10.321-29.436,15.373-7.945,17.039,3.286.255,10.803-2.912,11.757-6.134l11.816-39.913c8.104,4.827,10.456,14.984,7.035,23.516-1.277,3.184-9.71,13.292-1.943,13.086,1.851-.049,7.821-9.63,8.686-11.791,6.465-16.136,1.174-20.527-4.711-34.263-2.647-6.179-2.893-10.561-2.122-17.253ZM219.321,91.167c-.627.799-1.028,2.003-2.317,1.838,1.504-4.103,4.783-7.66,5.94-11.935,2.926-10.809-1.158-20.713-11.254-25.618l-12.454,42.07c-.727,2.456-7.293,5.318-9.892,5.116-15.401-1.199-8.52-18.033,4.382-14.244,2.395.703,2.966,2.147,4.949,3.096l17.138-57.892c.305-.524,1.674-1.116,1.918.165.278,1.462-.546,4.355-.495,6.304.202,7.763,5.443,14.584,8.147,21.526,4.298,11.037,1.014,20.557-6.062,29.574Z"/><path d="M254.482,302.397c-5.843-3.296-11.43,5.29-15.217,8.494-14.879,12.592-29.71,6.497-40.125-7.907l-1.889.401c-.331,1.321.467,1.807,1.098,2.643,10.43,13.81,25.829,18.478,40.846,8.544,2.795-1.849,10.386-10.597,13.474-8.486,2.215,4.508-1.47,10.357-4.083,14.127-14.489,20.904-43.222,24.676-49.648,53.102-4.163,18.416-3.779,46.554-14.558,62.692-4.125,6.176-10.266,7.392-14.761.749-6.986-10.325-5.484-24.968-14.801-37.699-1.31-1.789-6.23-7.839-7.809-8.692-.704-.38-1.409-.581-2.189-.294-.211.827-.583,1.575-1.083,2.27-1.659,2.309-7.67,11.791-9.063,12.705-1.272.835-2.255.898-3.756.69l-32.304-21.721c-.448-.823-.464-1.723-.42-2.632.204-4.249,8.322-12.462,10.493-16.58l.056-1.037c-17.421-9.91-6.401-28.894,4.891-39.006,16.75-15,34.181-19.715,46.249-41.501,1.89-3.412,7.501-19.581,8.843-20.402,5.452-3.338,9.541,5.63,10.896,9.391l7.875-10.875c-23.193-1.138-27.295-25.094-19.121-43.121,1.351-2.98,7.463-10.549,4.697-13.33-3.396-3.415-12.567,2.184-15.587,4.69-21.775,18.073-22.765,47.913-35.851,71.399-15.123,27.142-44.138,34.525-66.151,53.849-46.159,40.52-20.145,79.114,20.774,108.258,36.442,25.956,82.369,46.922,109.878-3.107,12.353-22.466,9.617-39.24,15.072-62.178,7.253-30.496,32.323-33.329,48.532-54.218,3.165-4.079,11.021-17.677,4.742-21.218Z" fill="#fff"/><path d="M147.076,388.405c6.637,4.373,12.79,13.182,15.813,20.581,2.901,7.102,5.108,24.935,10.71,29.036,6.043,4.424,10.167-5.306,12.018-9.779,7.57-18.287,7.209-35.565,11.088-54.162,4.955-23.754,20.926-29.119,37.654-42.596,7.08-5.704,15.765-13.799,16.888-23.232-.495-.534-3.064,1.451-3.683,1.936-2.487,1.95-4.542,4.328-7.317,6.183-12.061,8.061-24.521,7.845-35.862-1.382-2.049-1.667-6.288-7.122-7.901-7.903-1.117-.54-2.25.461-3.383.464-1.786.004-14.567-8.884-17.094-10.684-1.52-1.082-7.107-4.784-7.66-5.879-.605-1.198-.273-1.67.233-2.771,1.435-3.121,8.916-11.336,9.2-13.369.358-2.559-4.526-13.535-8.344-9.613-4.584,15.617-12.702,29.348-25.071,40.004-12.478,10.75-33.111,19.253-40.142,34.858-3.382,7.507-3.769,16.734,4.27,21.296,3.092,1.754,3.677-1.967,6.986-.246l30.785,20.958c2.695,2.975.193,5.437.812,6.299ZM167.978,374.603c6.82-7.491,17.296,3.151,11.059,9.937-6.523,7.097-17.305-3.076-11.059-9.937ZM173.024,391.652c11.179-2.526,12.611,14.163,2.101,14.163-8.844,0-9.43-12.507-2.101-14.163ZM172.21,423.666c-5.009-3.43-2.772-12.204,3.093-13.297,3.188-.594,7.855,2.152,8.437,5.534,1.198,6.967-5.583,11.836-11.529,7.763ZM162.511,292.64c1.679-.513,3.682-.214,5.283.444,3.694,1.517,18.881,12.216,22.32,15.178,1.975,1.701,3.674,3.386,3.253,6.17-.695,4.595-4.502,5.938-8.663,4.486-7.065-2.466-16.486-12.592-23.836-15.908-3.22-2.663-2.285-9.168,1.644-10.369ZM144.526,319.654c1.73-.385,3.654-.363,5.267.431,6.58,5.891,17.41,10.268,23.488,16.26,4.575,4.511-.61,12.482-6.823,9.817-6.734-5.499-16.421-9.899-22.822-15.423-1.622-1.4-3.487-3.199-3.369-5.544.123-2.439,1.787-4.991,4.258-5.542ZM145.534,372.342c-3.654-2.304-10.625-10.686-14.268-14.232-2.474-2.408-6.13-3.912-7.187-7.842-.74-2.749.985-6.708,3.955-7.368,1.949-.433,3.834-.237,5.433,1.01,3.57,5.129,20.484,16.85,21.63,21.864,1.418,6.205-4.19,9.956-9.562,6.569Z" fill="#fff"/><path d="M336.373,89.01c5.263-4.408,15.836-1.033,20.277-4.985,3.217-2.862,8.846-24.957,11.233-30.767,3.516-8.563,7.977-15.02,14.602-21.398,1.984-1.91,5.183-2.717,4.896-6.379-1.767-2.399-5.196-3.143-8.049-2.823-3.785.424-6.795,2.399-9.824,4.475-10.438,7.155-20.742,16.752-30.898,24.602-5.844,4.516-13.92,9.183-19.124,13.876-4.815,4.343-1.828,6.809-.018,12.048l16.906,11.351ZM372.513,27.123c6.382-1.887,6.382,8.391,0,6.504-2.786-.824-2.786-5.68,0-6.504ZM362.763,34.623c6.382-1.887,6.382,8.391,0,6.504-2.786-.824-2.786-5.68,0-6.504ZM353.013,42.123c5.929-1.753,6.631,7.189.635,6.657-3.322-.295-3.685-5.755-.635-6.657ZM341.941,50.564c2.913-3.647,8.573,1.342,5.134,4.758-2.648,2.631-8.159-.97-5.134-4.758ZM332.191,58.064c2.913-3.647,8.573,1.342,5.134,4.758-2.648,2.631-8.159-.97-5.134-4.758ZM322.441,65.564c2.913-3.647,8.573,1.342,5.134,4.758-2.648,2.631-8.159-.97-5.134-4.758Z" fill="#fff"/><polygon points="113.019 363.087 100.901 379.523 100.592 382.769 131.677 403.52 133.512 403.151 145.504 385.106 145.164 383.996 115.749 363.879 113.019 363.087" fill="#fff"/><polygon points="250.444 219.373 229.874 204.759 218.999 220.488 240.305 233.962 250.444 219.373" fill="#fff"/><polygon points="261.707 201.461 241.512 187.499 231.056 202.877 251.555 216.709 261.707 201.461" fill="#fff"/><polygon points="273.751 183.012 254.621 170.354 243.01 185.625 262.877 199.444 273.751 183.012" fill="#fff"/><polygon points="284.97 165.048 266.612 153.116 255.794 168.288 274.83 181.493 284.97 165.048" fill="#fff"/><path d="M221.593,263.214c1.33-1.699,5.938-8.688,6.77-10.48.33-.709.639-1.375.319-2.165l-21.211-13.49-9.439,13.055,21.996,14.534c.726-.271,1.116-.881,1.565-1.455Z" fill="#fff"/><path d="M286.826,163.55l10.176-15.79-18.385-11.981-10.834,15.355c5.498,3.463,11.133,8.645,16.792,11.664.734.391,1.327.919,2.251.752Z" fill="#fff"/><path d="M308.221,129.797l-17.55-11.29-10.921,15.73,18.739,12.013c.413-2.806,10.686-15.085,9.733-16.453Z" fill="#fff"/><path d="M212.758,237.62c5.685,4.026,11.742,7.992,17.797,11.342.659-.155,6.923-9.872,7.552-11.234.326-.706.669-1.362.312-2.15l-19.837-13.554-1.103.324-8.263,12.034c-.16,1.03,2.642,2.599,3.543,3.238Z" fill="#fff"/><path d="M294.053,118.076c2.356,1.998,11.6,8.455,14.198,9.799.758.392,1.382.525,2.222.357l9.767-15.358-17.93-11.581-9.732,15.237c.254.749.922,1.078,1.474,1.547Z" fill="#fff"/><polygon points="331.493 94.92 316.926 84.701 314.675 83.95 304.507 99.33 321.738 111.001 331.493 94.92" fill="#fff"/><polygon points="211.503 277.929 218.944 267.373 196.864 252.119 189.038 263.555 209.484 277.674 211.503 277.929" fill="#fff"/><path d="M181.824,274.514l22.916,14.984,4.924-9.003-21.906-14.927-1.023.256c-.532,1.839-6.097,7.089-4.911,8.69Z" fill="#fff"/><path d="M174.061,283.543c-.383,2.701-5.565,5.245-2.69,7.463l21.755,14.985,4.875-7.479-23.94-14.969Z" fill="#fff"/><path d="M177.119,279.496l-.837,2.453,22.138,15.027c1.358.312,3.803-4.275,4.002-5.505l-22.156-15.396-3.146,3.422Z" fill="#fff"/><path d="M317.925,82.916c4.735,3.3,9.492,6.581,14.295,9.784,1.103.449,2.865-2.228,2.279-2.69l-15.717-10.21c-.753-.317-2.072,1.131-2.276,1.583-.579,1.284.869,1.148,1.42,1.532Z" fill="#fff"/><path d="M356.726,24.832c-1.21.181-5.181,3.531-4.224,4.415,2.553-.356,4.074.911,5.992,2.253-.104-1.686.83-7.057-1.769-6.667Z" fill="#fff"/><path d="M367.494,17.25c-.634-.711-5.868,2.652-5.242,4.497,2.553-.356,4.074.911,5.992,2.253l-.751-6.75Z" fill="#fff"/><path d="M319.497,54.752c-2.574-.131-5.693,1.585-5.251,4.496,2.548-.35,4.084.907,5.999,2.252l-.748-6.748Z" fill="#fff"/><path d="M338.997,39.752c-2.574-.131-5.693,1.585-5.252,4.496l5.252,1.5v-5.995Z" fill="#fff"/><path d="M348.648,33.477c-.878-2.915-6.161.852-5.153,3.271,2.549-.488,3.467.974,5.25,2.252-.187-1.7.378-3.948-.096-5.523Z" fill="#fff"/><path d="M329.247,47.252c-2.591-.129-5.694,1.595-5.251,4.496l5.249,1.502.003-5.998Z" fill="#fff"/><path d="M305.108,259.683c-2.224-.241-2.995-2.354-5.237-3.38-9.196-4.205-20.023,4.103-10.887,10.887,3.993,2.965,8.915,2.917,13.118.354l18.103-34.394,1.745-1.216,27.417,9.003-13.508,28.495c-3.039-2.573-5.035-4.928-9.366-5.268-12.672-.997-12.817,14.301.745,14.319,5.245.007,7.021-2.917,9.51-7.042,6.894-11.425,11.655-25.32,18.558-36.893l-31.842-11.465-18.356,36.6Z" fill="#fff"/><path d="M58.862,246.987l-7.477-39.303,29.247-9.781,5.247,30.754c-6.35-3.611-17.881,5.291-13.814,11.948,3.932,6.437,16.212,1.201,16.843-5.553l-8.297-46.123-31.905,10.435,7.174,41.293c-6.487-3.77-17.868,4.788-14.139,11.524,3.851,6.957,16.165,1.752,17.121-5.194Z" fill="#fff"/><path d="M324.976,387.919c15.032-1.526,22.789,9.007,24.021,22.877.195,2.191-.804,4.219-.017,6.366,1.052.093,1.354-2.743,1.421-3.444,1.115-11.773-1.657-21.3-11.236-28.368-4.318-3.186-10.946-6.057-14.701-9.674-.635-.611-2.575-3.159-3.126-4-1.027-1.569-1.659-4.215-2.751-5.499-1.016-1.196-.994-.466-1.867.377l15.762,58.479-7.303.97c-6.033,2.502-10.586,12.638-2.483,14.81,6.443,1.727,13.546-3.814,13.564-10.497l-11.285-42.395Z" fill="#fff"/><path d="M217.731,33.763c-.244-1.281-1.612-.69-1.918-.165l-17.138,57.892c-1.983-.948-2.554-2.393-4.949-3.096-12.902-3.789-19.783,13.045-4.382,14.244,2.599.202,9.165-2.659,9.892-5.116l12.454-42.07c10.096,4.904,14.181,14.809,11.254,25.618-1.157,4.275-4.436,7.832-5.94,11.935,1.288.165,1.69-1.039,2.317-1.838,7.076-9.016,10.36-18.537,6.062-29.574-2.703-6.942-7.944-13.763-8.147-21.526-.051-1.949.773-4.842.495-6.304Z" fill="#fff"/><path d="M143.636,330.739c6.401,5.523,16.088,9.924,22.822,15.423,6.213,2.665,11.398-5.306,6.823-9.817-6.077-5.992-16.908-10.369-23.488-16.26-1.614-.794-3.537-.816-5.267-.431-2.471.55-4.136,3.103-4.258,5.542-.118,2.345,1.746,4.144,3.369,5.544ZM146.641,321.297c.975.04,2.381,1.12,3.303,1.64,4.882,2.758,17.728,10.959,21.438,14.552,3.765,3.646.264,8.241-4.678,6.175-2.809-1.174-20.068-12.928-22.338-15.155-3.004-2.948-1.733-7.378,2.274-7.212Z"/><path d="M155.096,365.773c-1.146-5.014-18.06-16.735-21.63-21.864-1.598-1.247-3.484-1.443-5.433-1.01-2.97.66-4.695,4.62-3.955,7.368,1.057,3.93,4.714,5.434,7.187,7.842,3.643,3.546,10.614,11.929,14.268,14.232,5.373,3.387,10.981-.364,9.562-6.569ZM146.214,370.157c-4.419-3.34-9.918-10.154-14.198-14.297-2.096-2.029-9.034-5.988-5.091-9.938.992-.994,3.758-1.219,5.074-.549,1.723.877,6.944,7.128,8.986,9.018,2.472,2.288,10.359,8.32,11.634,10.86,2.134,4.25-1.779,8.403-6.405,4.906Z"/><path d="M160.867,303.008c7.35,3.316,16.771,13.442,23.836,15.908,4.162,1.453,7.969.11,8.663-4.486.421-2.784-1.278-4.469-3.253-6.17-3.44-2.962-18.626-13.661-22.32-15.178-1.601-.657-3.604-.957-5.283-.444-3.929,1.201-4.864,7.706-1.644,10.369ZM164.612,294.28c1.132.102,2.058.696,3.038,1.199,4.742,2.433,16.906,10.773,20.962,14.284,5.034,4.357,2.211,9.202-3.906,6.901l-22.356-15.136c-2.831-2.926-1.351-6.119,2.261-7.248Z"/><path d="M175.303,410.368c-5.865,1.093-8.102,9.867-3.093,13.297,5.947,4.072,12.727-.796,11.529-7.763-.581-3.382-5.248-6.128-8.437-5.534ZM176.553,422.979c-4.624.224-6.344-6.344-3.872-8.803.422-.42,3.325-1.628,3.992-1.683,5.879-.479,7.26,10.129-.12,10.486Z"/><path d="M179.037,384.54c6.237-6.786-4.239-17.428-11.059-9.937-6.246,6.861,4.536,17.034,11.059,9.937ZM178.554,379.134c.048,1.058-.258,3.217-.985,3.94-2.388,2.376-8.151,2.132-8.819-1.71-1.489-8.567,9.477-9.468,9.804-2.23Z"/><path d="M175.125,405.815c10.51,0,9.078-16.689-2.101-14.163-7.329,1.656-6.743,14.163,2.101,14.163ZM173.013,393.894c9.474-2.807,9.473,12.269,0,9.461-3.826-1.134-3.838-8.324,0-9.461Z"/><path d="M362.763,41.127c6.382,1.887,6.382-8.391,0-6.504-2.786.824-2.786,5.68,0,6.504Z"/><path d="M372.513,33.627c6.382,1.887,6.382-8.391,0-6.504-2.786.824-2.786,5.68,0,6.504Z"/><path d="M353.648,48.78c5.996.533,5.294-8.41-.635-6.657-3.05.902-2.687,6.362.635,6.657Z"/><path d="M327.575,70.322c3.439-3.416-2.221-8.405-5.134-4.758-3.026,3.788,2.485,7.389,5.134,4.758Z"/><path d="M337.325,62.822c3.439-3.416-2.221-8.405-5.134-4.758-3.026,3.788,2.485,7.389,5.134,4.758Z"/><path d="M347.075,55.322c3.439-3.416-2.221-8.405-5.134-4.758-3.026,3.788,2.485,7.389,5.134,4.758Z"/><path d="M166.705,343.664c4.942,2.066,8.442-2.529,4.678-6.175-3.71-3.593-16.556-11.794-21.438-14.552-.922-.521-2.328-1.6-3.303-1.64-4.008-.166-5.278,4.264-2.274,7.212,2.269,2.228,19.529,13.981,22.338,15.155Z" fill="#fff"/><path d="M152.618,365.251c-1.275-2.54-9.162-8.572-11.634-10.86-2.042-1.889-7.263-8.141-8.986-9.018-1.316-.67-4.082-.445-5.074.549-3.943,3.95,2.995,7.908,5.091,9.938,4.28,4.143,9.779,10.957,14.198,14.297,4.626,3.497,8.539-.655,6.405-4.906Z" fill="#fff"/><path d="M184.707,316.664c6.116,2.301,8.939-2.544,3.906-6.901-4.057-3.511-16.22-11.851-20.962-14.284-.98-.503-1.906-1.097-3.038-1.199-3.612,1.129-5.092,4.321-2.261,7.248l22.356,15.136Z" fill="#fff"/><path d="M176.674,412.494c-.668.054-3.57,1.262-3.992,1.683-2.472,2.459-.752,9.027,3.872,8.803,7.38-.357,5.999-10.965.12-10.486Z" fill="#fff"/><path d="M177.569,383.074c.727-.723,1.033-2.882.985-3.94-.328-7.238-11.293-6.337-9.804,2.23.668,3.842,6.431,4.086,8.819,1.71Z" fill="#fff"/><path d="M173.013,403.356c9.473,2.808,9.474-12.268,0-9.461-3.838,1.137-3.826,8.327,0,9.461Z" fill="#fff"/></svg>