<?xml version="1.0" encoding="UTF-8"?><svg id="a" xmlns="http://www.w3.org/2000/svg" width="800.523mm" height="590.55mm" viewBox="0 0 2269.2 1674">
<path d="M2269.2.96v1672.08H1.92V.96h2267.28ZM1133.4,232.579c-12.96-9.735-30.886-13.534-46.083-7.739-2.07.789-8.096,3.449-9.702,4.538-.725.491-.503,1.531-.812,1.742-.669.455-1.86-.044-2.462.386-.337.24-.46,1.415-1.245,2.145-3.892,3.619-6.7,5.998-9.39,10.774-5.352,9.506-6.561,19.248-5.909,30.084-3.368-.198-6.936,1.557-10.124,1.877-14.34,1.443-28.105,2.315-42.128,4.907-21.129,3.905-41.657,9.758-61.711,16.04-21.399,6.703-41.721,16.321-61.721,24.658-15.105,6.296-33.065,18.094-45.766,26.769-39.907,27.257-76.48,69.359-80.874,120.168-4.903,56.689-.599,118.572,6.738,174.61.42,3.21,4.093,21.514,2.816,22.595-7.586.164-13.895,4.578-20.496,7.661-23.319,18.466-26.095,52.128-3.517,72.546,3.088,2.792,8.138,6.351,12.263,7.878,2.36.874,4.198.828,6.285,1.394.873.237,1.478,1.3,2.29,1.549,4.032,1.237,16.066-1.087,18.596.602,1.632,1.458.583,3.812.961,5.758,4.296,22.14,9.44,44.649,14.514,66.115,3.696,15.636,8.681,31.025,13.047,46.465,7.344,25.971,15.937,52.864,26.9,77.758.306.695.11,1.7.203,2.498l1.922,1.249c4.464,13.331,12.354,28.622,19.731,40.563,9.059,14.666,25.651,35.943,42.41,41.134,5.374,1.664,11.149,1.558,16.355,3.331,8.497,13.463,15.36,28.123,24.21,41.366,4.498,6.732,10.581,13.683,16.01,20.109,13.981,16.547,23.299,27.111,45.701,31.613,9.453,1.9,23.095,3.213,32.873,2.709,19.916-1.026,42.756-2.686,62.37-5.783,1.57-.248,2.276-1.718,3.816-1.944,3.47-.509,7.887-.437,11.49-.989,4.139-.634,8.093-3.071,13.005-1.879-.742,5.096,1.553,9.339,2.651,14.147,2.139,9.368,4.524,18.4,6.779,27.776,2.473,10.283,4.449,21.117,7.053,31.342,12.703,49.874,27.051,99.933,42.991,148.85l1.992,1.155c.355,7.087,4.419,14.023,7.188,20.515,5.104,11.968,12.976,31.171,23.127,39.249,10.867,8.646,28.599,10.518,42.084,8.727,3.963-.526,10.008-2.395,13.705-3.573,15.128-4.82,28.993-12.483,38.34-24.486.693-.89,4.271-5.378,4.407-5.718.887-2.208.347-4.064.873-5.846.284-.961,1.522-1.542,1.759-3.041,1.347-8.518-1.063-17.023-1.874-25.023-.931-9.187-1.116-17.672-3.101-26.655-4.076-18.453-7.511-37.387-11.518-55.673-10.738-49.004-24.921-96.182-36.512-143.943-2.056-8.469-5.983-17.644-8.238-26.317-.514-1.977-.673-4.327-1.078-6.365,1.554-3.154,5.115-2.774,7.847-3.742,27.843-9.869,57.464-22.01,81.987-37.206,8.387-5.197,15.707-9.445,22.878-16.31,22.875-21.9,22.786-68.56,24.513-98.351.121-2.083.114-4.708-.009-6.793-1.072-18.201-1.51-36.481-2.88-54.712-2.235-29.739-6.647-59.59-10.629-89.198-.564-4.196-2.742-9.799-2.787-14.442-.029-2.938,5.139-10.56,5.69-14.404,2.729-19.011-1.086-40.913-4.841-59.443-5.614-27.704-13.689-54.029-19.097-81.565l-2.013-1.115c-7.661-37.978-21.387-75.114-31.858-111.998-.594-2.092-2.849-3.992-1.679-7.412,10.948-.992,20.124-6.353,27.39-14.386.701-.775,3.17-3.262,3.347-3.517,1.653-2.381,2.096-6.465,4.769-7.692,15.368-38.777-20.499-78.536-60.472-62.245-2.396.977-6.94,4.915-8.649,3.885-2.741-2.948-3.214-7.766-4.801-11.411-2.063-4.738-6.584-12.293-9.389-17.635-16.078-30.623-34.435-60.644-63.466-78.56-7.64-4.715-15.918-10.034-24.432-11.937l-1.194-1.963c-9.022-1.635-18.071-6.258-26.977-8.405-3.303-.796-11.834-.442-11.815-4.488.377-2.012,1.614-3.792,1.893-5.83,1.159-8.475-4.538-25.336-9.504-32.449-.646-.925-2.364-1.282-3.474-2.501-.84-.922-2.671-3.9-3.539-4.552Z" fill="#fff"/>
<polygon points="2269.2 1673.04 2269.2 1674 0 1674 0 0 2269.2 0 2269.2 .96 1.92 .96 1.92 1673.04 2269.2 1673.04" fill="#fff"/>
<path d="M1133.4,232.579c.868.652,2.7,3.63,3.539,4.552,1.11,1.219,2.828,1.575,3.474,2.501,4.966,7.112,10.663,23.973,9.504,32.449-.279,2.038-1.516,3.818-1.893,5.83-.02,4.046,8.511,3.692,11.815,4.488,8.907,2.146,17.956,6.77,26.977,8.405l1.194,1.963c8.514,1.903,16.791,7.222,24.432,11.937,29.031,17.916,47.388,47.937,63.466,78.56,2.805,5.342,7.326,12.897,9.389,17.635,1.587,3.645,2.059,8.463,4.801,11.411,1.709,1.031,6.252-2.908,8.649-3.885,39.973-16.291,75.841,23.468,60.472,62.245-2.673,1.227-3.116,5.311-4.769,7.692-.177.255-2.646,2.742-3.347,3.517-7.266,8.033-16.442,13.395-27.39,14.386-1.17,3.42,1.086,5.32,1.679,7.412,10.472,36.884,24.197,74.021,31.858,111.998l2.013,1.115c5.408,27.536,13.483,53.861,19.097,81.565,3.755,18.53,7.57,40.432,4.841,59.443-.552,3.844-5.719,11.466-5.69,14.404.046,4.643,2.223,10.246,2.787,14.442,3.982,29.608,8.393,59.458,10.629,89.198,1.37,18.231,1.808,36.511,2.88,54.712.123,2.085.129,4.71.009,6.793-1.727,29.791-1.638,76.452-24.513,98.351-7.17,6.865-14.49,11.113-22.878,16.31-24.523,15.196-54.144,27.337-81.987,37.206-2.732.969-6.294.588-7.847,3.742.405,2.038.564,4.387,1.078,6.365,2.255,8.673,6.183,17.848,8.238,26.317,11.592,47.761,25.774,94.939,36.512,143.943,4.007,18.286,7.442,37.219,11.518,55.673,1.984,8.984,2.169,17.468,3.101,26.655.811,8,3.221,16.505,1.874,25.023-.237,1.499-1.475,2.08-1.759,3.041-.526,1.782.014,3.638-.873,5.846-.137.34-3.715,4.829-4.407,5.718-9.347,12.002-23.211,19.666-38.34,24.486-3.698,1.178-9.742,3.047-13.705,3.573-13.485,1.791-31.217-.081-42.084-8.727-10.152-8.077-18.024-27.281-23.127-39.249-2.768-6.492-6.833-13.428-7.188-20.515l-1.992-1.155c-15.939-48.917-30.288-98.976-42.991-148.85-2.604-10.225-4.58-21.059-7.053-31.342-2.255-9.376-4.64-18.409-6.779-27.776-1.098-4.808-3.393-9.052-2.651-14.147-4.911-1.192-8.866,1.245-13.005,1.879-3.603.552-8.02.48-11.49.989-1.54.226-2.245,1.696-3.816,1.944-19.613,3.097-42.454,4.756-62.37,5.783-9.778.504-23.42-.81-32.873-2.709-22.402-4.502-31.72-15.066-45.701-31.613-5.429-6.426-11.512-13.377-16.01-20.109-8.849-13.243-15.712-27.903-24.21-41.366-5.206-1.773-10.981-1.667-16.355-3.331-16.759-5.191-33.351-26.468-42.41-41.134-7.376-11.941-15.267-27.232-19.731-40.563l-1.922-1.249c-.093-.797.103-1.803-.203-2.498-10.962-24.894-19.556-51.787-26.9-77.758-4.366-15.44-9.351-30.829-13.047-46.465-5.074-21.466-10.218-43.975-14.514-66.115-.378-1.946.671-4.3-.961-5.758-2.529-1.69-14.563.635-18.596-.602-.812-.249-1.418-1.312-2.29-1.549-2.087-.567-3.924-.52-6.285-1.394-4.124-1.527-9.175-5.085-12.263-7.878-22.578-20.418-19.802-54.08,3.517-72.546,6.601-3.083,12.911-7.497,20.496-7.661,1.277-1.081-2.396-19.384-2.816-22.595-7.338-56.038-11.641-117.921-6.738-174.61,4.394-50.809,40.966-92.911,80.874-120.168,12.701-8.675,30.662-20.473,45.766-26.769,20-8.337,40.322-17.955,61.721-24.658,20.054-6.282,40.582-12.136,61.711-16.04,14.023-2.591,27.788-3.463,42.128-4.907,3.188-.321,6.755-2.075,10.124-1.877-.652-10.836.556-20.578,5.909-30.084,2.689-4.776,5.498-7.155,9.39-10.774.785-.73.908-1.905,1.245-2.145.602-.429,1.793.07,2.462-.386.309-.211.087-1.25.812-1.742,1.607-1.089,7.632-3.748,9.702-4.538,15.197-5.794,33.122-1.995,46.083,7.739ZM1077.299,248.845l-5.095,9.835-.527,13.971,1.114.806c7.955.456,15.975-.236,23.927.07,11.053.426,22.723,2.753,33.606,2.879,1.027.012,1.962.373,2.879.767.774-.052,1.685-1.846,1.925-2.609,1.769-5.623-.343-15.093-2.668-20.459-4.829-11.144-19.16-18.822-31.009-18.012-9.923.678-16.742,4.903-22.851,12.187-.305.363-1.118.32-1.299.565ZM1175.71,301.62c-71.42-21.835-151.261-14.611-221.855,6.692-4.882,1.473-10.094,3.854-15.417,4.597l-1.235,1.932c-46.41,15.381-94.506,40.34-127.557,74.835-16.538,17.26-35.394,44.494-38.9,68.607-1.616,11.115-3.405,22.306-3.821,33.614-1.089,29.633.532,61.825,2.88,91.253,3.106,38.947,9.553,77.764,14.471,116.07,2.593,20.198,7.471,40.705,11.276,60.714,9.436,49.62,21.93,99.01,36.647,146.554l1.99,1.157c11.723,37.826,28.256,81.96,56.569,109.373,3.061,2.963,4.908,4.072,8.392,5.976,1.747.955,5.054,3.416,6.696,3.875,3.886,1.088,9.306,1.011,13.243.17,2.868-.612,7.606-2.889,10.521-3.878,10.614-3.6,16.362-7.593,22.607-16.582.508-.731,1.498-.591,1.675-.845,1.11-1.596,4.568-13.164,5.011-15.673,1.185-6.723.783-17.943-.018-24.867-1.154-9.977-4.269-20.982-6.472-30.963-1.299-5.885-2.043-11.817-3.246-17.871-2-10.066-4.974-20.195-5.621-30.855-.546-8.99,2.221-21.913,6.873-29.669,3.121-5.205,6.58-6.249,10.792-9.208.734-.516.517-1.476.804-1.707.536-.431,12.019-4.924,12.753-5.052,8.273-1.44,19.081,1.272,26.368,5.326,8.763,4.874,18.756,16.927,25.925,23.947,14.457,14.156,28.971,29.919,48.974,36.498,35.629,11.717,81.236-8.928,93.126-44.013,2.805-.989,1.446-2.017,2.111-3.764,10.116-26.578,13.359-54.274,18.954-81.739l2.005-1.131c-.921-2.865,1.003-4.061,1.656-5.89,5.386-15.072,12.188-22.371,28.01-26.703,17.575-4.813,32.292-1.799,49.383,2.422l.747,1.73c22.349,7.42,41.089,24.302,65.558,26.17,6.387.487,17.025-1.215,22.533-4.407,3.44-1.994,6.559-5.8,7.781-9.502,5.211-15.786,1.064-33.077-1.907-49.052-8.72-46.892-22.5-92.442-33.621-138.061l-1.988-1.158c-10.365-42.249-25.833-83.785-42.248-124.637-11.24-27.973-23.194-56.812-39.09-81.841-17.668-27.818-39.482-51.669-72.589-60.714l-.746-1.73ZM1338.796,427.405c-10.407-9.244-24.891-10.654-37.107-4.519-.998.501-3.979,2.479-4.428,3.272-.392,3.001,1.467,5.284,2.22,7.441,4.339,12.434,9.824,24.256,14.387,36.486,1.244,3.335,2.057,8.058,3.269,11.129.87,2.206,5.75,2.048,7.827,1.419,8.766-2.657,17.163-9.86,21.228-18.127,5.746-11.685,2.37-28.428-7.395-37.101ZM766.959,680.538c-4.08-.42-7.975,1.511-11.435,3.449-9.033,5.059-12.083,11.241-14.681,20.835-.236.872-1.301,1.478-1.55,2.29-2.707,8.837,5.399,24.075,11.964,30.091,7.175,3.758,14.432,7.856,22.923,6.713,3.224-.434,2.764-5.555,2.362-8.167-.28-1.816-1.615-3.019-1.894-4.824-2.382-15.436-4.018-30.958-7.491-46.264-.31-1.365-.226-2.747-.199-4.122ZM1365.935,783.245c-4.303-.615-7.858,2.348-12.053,2.828-7.755.886-19.807.909-27.558-.17-4.38-.609-11.775-3.354-16.085-5.032-20.779-8.091-37.57-22.069-59.922-25.508-10.378-1.597-18.789-.206-28.747,1.934l-.738,1.737c-4.667-.394-4.705,2.533-6.889,4.733-.441.444-3.132,2.252-3.245,2.42-3.94,5.868-6.568,18.249-8.142,25.022-7.264,31.271-10.236,70.549-30.524,95.391-7.126,8.725-12.493,15.321-21.983,21.004-31.193,18.678-65.378,22.464-97.354,3.14-17.924-10.832-31.09-27.673-46.09-41.737-4.33-4.06-8.762-8.371-13.33-11.587-1.924-1.355-8.372-3.224-10.819-3.219-2.361.004-10.976,1.988-12.755,3.205-.259.177-.12,1.169-.846,1.671-1.07.739-3.137,1.407-3.904,2.174-.455.455-4.431,6.755-4.63,7.368-.648,1.993-.103,3.694-.463,5.297-2.126,9.489-.994,8.413-.012,17.371,2.089,19.061,6.742,35.34,9.7,53.651,1.322,8.185,3.635,16.935,4.712,25.044,1.372,10.329-1.315,27.274-5.243,36.912-1.252,3.072-2.94,5.641-4.327,8.957-.354.846-1.403.57-1.908,1.295-4.751,6.821-10.471,11.428-17.921,15.505-3.802,2.081-8.545,4.556-12.712,5.037l-.774,2.332,19.856,34.421c9.996,14.067,20.038,27.562,34.899,38.999.705.543.668,1.437.917,1.61,5.811,4.051,14.248,7.342,21.297,8.024,11.864,1.148,23.629,1.944,35.498.876,26.785-1.757,52.797-5,78.54-10.73,32.553-7.246,64.555-14.426,96.735-24.211,38.708-11.77,81.687-26.203,117.409-46.732,7.502-4.311,13.556-9.012,19.824-14.692,3.536-3.205,6.247-4.837,9.058-9.22,7.394-11.529,12.315-35.831,13.043-49.348,1.487-27.617.536-55.025-1.026-82.548-1.538-27.101-4.663-54.887-8.654-81.573-1.078-7.209-3.284-14.314-2.831-21.648ZM1242.989,1097.2l-4.165-.121-1.136,1.996-8.436.896-1.158,1.988c-26.653,7.166-53.598,14.424-80.735,20.88-2.91.692-5.885.5-8.92,2.125l-.016.499c2.06,3.871,2.081,7.987,3.123,12.229,10.533,42.871,20.435,86.749,32.581,128.677,10.657,36.787,22.455,76.419,38.237,112.312.393.894,1.519.402,1.9,1.278,2.039,4.682,2.116,5.48,4.808,9.611,2.356,3.614,3.919,7.027,7.192,9.921,10.611,9.38,31.419,7.439,43.727,3.395,2.592-.852,4.596-3.334,8.008-2.415,5.89-4.623,13.596-7.722,19.337-13.435,1.397-1.391,6.624-8.641,6.995-10.283.871-3.864.527-16.492.205-20.979-.945-13.168-5.014-28.442-7.518-41.435-2.309-11.982-4.25-24.34-7.08-36.114-4.266-17.748-8.108-35.004-12.511-52.76-10.06-40.572-21.765-82.683-32.636-122.862-.495-1.828-1.435-3.536-1.801-5.402Z" fill="#000000"/>
<path d="M1175.71,301.62l.746,1.73c33.106,9.044,54.921,32.896,72.589,60.714,15.896,25.029,27.85,53.869,39.09,81.841,16.416,40.851,31.883,82.387,42.248,124.637l1.988,1.158c11.122,45.619,24.901,91.169,33.621,138.061,2.971,15.975,7.119,33.266,1.907,49.052-1.222,3.703-4.341,7.509-7.781,9.502-5.508,3.192-16.146,4.895-22.533,4.407-24.469-1.867-43.209-18.749-65.558-26.17l-.747-1.73c-17.091-4.222-31.808-7.235-49.383-2.422-15.822,4.333-22.624,11.631-28.01,26.703-.654,1.829-2.577,3.024-1.656,5.89l-2.005,1.131c-5.595,27.465-8.839,55.162-18.954,81.739-.665,1.747.694,2.775-2.111,3.764-11.89,35.085-57.497,55.73-93.126,44.013-20.003-6.578-34.517-22.341-48.974-36.498-7.169-7.02-17.162-19.073-25.925-23.947-7.287-4.053-18.095-6.765-26.368-5.326-.734.128-12.218,4.62-12.753,5.052-.287.231-.07,1.191-.804,1.707-4.212,2.958-7.671,4.003-10.792,9.208-4.651,7.756-7.418,20.679-6.873,29.669.647,10.66,3.621,20.789,5.621,30.855,1.203,6.054,1.947,11.986,3.246,17.871,2.203,9.981,5.318,20.985,6.472,30.963.801,6.924,1.203,18.145.018,24.867-.442,2.509-3.901,14.076-5.011,15.673-.177.254-1.167.115-1.675.845-6.245,8.989-11.993,12.982-22.607,16.582-2.915.989-7.654,3.265-10.521,3.878-3.937.841-9.357.918-13.243-.17-1.642-.46-4.949-2.92-6.696-3.875-3.483-1.904-5.331-3.013-8.392-5.976-28.314-27.414-44.847-71.547-56.569-109.373l-1.99-1.157c-14.717-47.545-27.211-96.934-36.647-146.554-3.805-20.009-8.683-40.516-11.276-60.714-4.918-38.306-11.365-77.123-14.471-116.07-2.347-29.429-3.969-61.621-2.88-91.253.416-11.308,2.205-22.498,3.821-33.614,3.506-24.113,22.362-51.347,38.9-68.607,33.051-34.495,81.147-59.455,127.557-74.835l1.235-1.932c5.323-.743,10.535-3.124,15.417-4.597,70.594-21.302,150.435-28.526,221.855-6.692ZM962.511,345.861c-18.39-13.726-45.784-9.407-60.272,6.816-.35.392-1.253.426-1.585.816-1.495,1.755-2.687,5.332-3.426,6.23-.246.299-1.137.159-1.361.456-3.684,4.893-6.487,20.004-6.074,26.2.329,4.934,3.224,17.33,6.054,21.343.206.292,1.195.157,1.659.868.94,1.44,2.45,5.174,3.096,5.859.475.504,1.864.704,2.708,1.591,1.039,1.091,1.502,2.56,2.124,3.172,1.32,1.296,4.525,2.159,5.863,3.098.734.516.517,1.476.804,1.707,2.562,2.066,16.914,5.666,20.49,5.949,6.452.512,21.943-2.239,27.094-5.963.303-.219.107-1.203.82-1.694,7.139-4.917,9.195-6.78,14.119-14.096.196-.292,1.15-.188,1.347-.471.372-.531,4.575-10.874,4.868-11.976,2.614-9.814.805-26.51-4.58-35.23-.43-.697-1.533-.466-1.751-.791-.451-.673.028-1.787-.424-2.467-.209-.315-1.138-.182-1.381-.483-2.816-3.486-6.844-8.435-10.192-10.934ZM1125.722,417.837c-5.675-4.266-18.153-7.253-25.251-7.923-4.725-.446-16.943,3.074-21.505,5.268-4.743,2.281-10.372,7.102-14.004,10.97-1.15,1.225-1.164,2.865-3.056,3.125-7.508,12.792-9.547,24.979-6.982,39.621,9.789,28.136,38.344,41.472,66.197,28.752,6.469-2.954,15.191-11.59,18.691-17.784,1.816-3.214,4.378-9.575,5.178-13.06.624-2.717.679-18.073.177-20.957-.246-1.413-1.336-2.023-1.702-3.097-3.045-8.927-6.918-16.064-14.351-21.696-.298-.226-.168-1.171-.483-1.381-.68-.451-1.795.028-2.465-.425-.33-.223-.177-1.212-.444-1.413ZM891.046,596.381c27.481-22.09,21.224-67.191-12.221-79.053-2.533-.899-4.651-.519-6.585-1.094-.967-.287-1.546-1.521-3.042-1.757-7.199-1.138-14.104.961-20.924,2.135-33.738,11.116-42.626,54.693-16.512,78.53.671.613,2.821,2.762,2.999,2.885,15.367,10.622,40.082,10.969,55.415,0,.731-.523.578-1.411.87-1.646ZM1257.27,564.643c-.568-.461-12.568-4.852-13.736-5.029-21.468-3.245-44.529,6.807-51.347,28.146l-1.944,1.219c-10.967,36.745,19.233,69.602,56.966,60.669,11.524-4.287,22.087-11.814,27.952-22.922,2.123-4.021,2.554-7.772,3.591-11.767.353-1.36,1.499-2.348,1.738-4.021,1.113-7.789-1.172-15.345-3.599-22.288-3.834-10.965-9.513-16.829-19.191-22.624-.262-.157-.128-1.139-.43-1.383ZM1085.364,712.546c-23.943-20.019-59.561-14.125-73.085,14.137-10.687,22.334-1.351,48.879,19.654,60.842,14.71,7.387,33.752,6.911,46.932-1.904,5.237-3.503,10.608-8.669,13.952-13.952.485-.767.275-1.978.781-2.598.263-.322,1.25-.009,1.633-.865,1.554-3.473,4.301-11.738,4.797-15.209,1.102-7.708-1.566-20.583-5.002-27.604-.555-1.135-4.311-7.584-4.818-8.149-.328-.366-1.289-.373-1.622-.774-.79-.952-2.399-3.236-3.222-3.925Z" fill="#fff"/>
<path d="M1365.935,783.245c-.452,7.334,1.753,14.438,2.831,21.648,3.992,26.686,7.116,54.472,8.654,81.573,1.562,27.523,2.514,54.931,1.026,82.548-.728,13.517-5.65,37.82-13.043,49.348-2.811,4.383-5.522,6.015-9.058,9.22-6.268,5.68-12.321,10.381-19.824,14.692-35.722,20.529-78.701,34.962-117.409,46.732-32.18,9.785-64.182,16.965-96.735,24.211-25.743,5.73-51.755,8.973-78.54,10.73-11.869,1.069-23.634.273-35.498-.876-7.049-.682-15.486-3.973-21.297-8.024-.249-.174-.211-1.068-.917-1.61-14.861-11.437-24.903-24.931-34.899-38.999l-19.856-34.421.774-2.332c4.167-.481,8.91-2.956,12.712-5.037,7.45-4.077,13.17-8.684,17.921-15.505.505-.725,1.554-.449,1.908-1.295,1.387-3.316,3.075-5.885,4.327-8.957,3.928-9.638,6.615-26.583,5.243-36.912-1.077-8.109-3.389-16.859-4.712-25.044-2.958-18.312-7.611-34.591-9.7-53.651-.982-8.958-2.114-7.882.012-17.371.359-1.603-.185-3.303.463-5.297.199-.612,4.175-6.913,4.63-7.368.767-.767,2.834-1.435,3.904-2.174.726-.502.587-1.494.846-1.671,1.779-1.217,10.394-3.201,12.755-3.205,2.447-.005,8.895,1.864,10.819,3.219,4.568,3.216,9,7.528,13.33,11.587,15,14.065,28.166,30.906,46.09,41.737,31.976,19.324,66.16,15.538,97.354-3.14,9.491-5.683,14.858-12.279,21.983-21.004,20.288-24.841,23.26-64.119,30.524-95.391,1.573-6.773,4.202-19.154,8.142-25.022.113-.168,2.804-1.976,3.245-2.42,2.184-2.2,2.223-5.128,6.889-4.733l.738-1.737c9.958-2.14,18.369-3.531,28.747-1.934,22.352,3.439,39.143,17.417,59.922,25.508,4.31,1.678,11.705,4.423,16.085,5.032,7.751,1.078,19.804,1.055,27.558.17,4.195-.479,7.75-3.443,12.053-2.828Z" fill="#fff"/>
<path d="M1242.989,1097.2c.367,1.866,1.306,3.574,1.801,5.402,10.872,40.178,22.576,82.29,32.636,122.862,4.403,17.756,8.245,35.012,12.511,52.76,2.83,11.773,4.771,24.131,7.08,36.114,2.504,12.993,6.574,28.267,7.518,41.435.322,4.487.666,17.115-.205,20.979-.37,1.642-5.597,8.893-6.995,10.283-5.74,5.712-13.447,8.811-19.337,13.435-3.412-.919-5.417,1.563-8.008,2.415-12.307,4.045-33.115,5.985-43.727-3.395-3.273-2.893-4.837-6.306-7.192-9.921-2.692-4.131-2.769-4.929-4.808-9.611-.381-.876-1.507-.384-1.9-1.278-15.782-35.892-27.58-75.525-38.237-112.312-12.146-41.928-22.049-85.806-32.581-128.677-1.042-4.242-1.062-8.358-3.123-12.229l.016-.499c3.036-1.625,6.01-1.432,8.92-2.125,27.138-6.457,54.083-13.715,80.735-20.88l1.158-1.988,8.436-.896,1.136-1.996,4.165.121Z" fill="#fff"/>
<path d="M1085.364,712.546c.824.689,2.433,2.973,3.222,3.925.333.401,1.293.408,1.622.774.507.565,4.263,7.015,4.818,8.149,3.437,7.021,6.104,19.896,5.002,27.604-.496,3.471-3.244,11.735-4.797,15.209-.383.856-1.369.542-1.633.865-.507.62-.296,1.832-.781,2.598-3.343,5.283-8.715,10.449-13.952,13.952-13.18,8.816-32.222,9.291-46.932,1.904-21.005-11.963-30.341-38.508-19.654-60.842,13.524-28.262,49.141-34.156,73.085-14.137ZM1071.032,719.194c-2.824-2.039-14.021-4.853-17.615-5.055-1.386-.078-11.458,2.439-13.141,3.104-.673.266-7.827,4.467-8.171,4.791-1.564,1.474-9.047,13.751-9.637,15.796-.493,1.71-.036,3.698-.218,5.534-.101,1.016-.849,2.006-.923,3.001-.319,4.333,2.886,10.032,2.85,14.223,3.149.753,2.099,3.925,3.111,5.19.319.399,1.879.673,2.73,1.569,3.035,3.197,4.404,5.229,8.676,7.656,7.149,4.061,23.711,5.307,30.402.282.298-.224.157-1.115.456-1.36.631-.519,1.871-.285,2.589-.785,3.081-2.142,8.393-7.729,10.077-11.078,5.403-10.745,5.002-23.699-1.91-33.471-.865-1.223-3.807-5.039-4.702-5.854-1.274-1.16-2.792-1.189-3.754-1.851-.713-.49-.517-1.475-.82-1.693Z" fill="#000000"/>
<path d="M1071.032,719.194c.303.219.108,1.203.82,1.693.962.662,2.481.691,3.754,1.851.895.815,3.837,4.631,4.702,5.854,6.912,9.772,7.313,22.727,1.91,33.471-1.684,3.349-6.996,8.936-10.077,11.078-.718.499-1.958.266-2.589.785-.299.246-.158,1.137-.456,1.36-6.691,5.025-23.253,3.779-30.402-.282-4.272-2.427-5.641-4.459-8.676-7.656-.851-.896-2.41-1.17-2.73-1.569-1.012-1.266.038-4.437-3.111-5.19.036-4.192-3.169-9.89-2.85-14.223.073-.995.822-1.985.923-3.001.182-1.836-.275-3.824.218-5.534.59-2.045,8.072-14.321,9.637-15.796.345-.325,7.499-4.526,8.171-4.791,1.683-.665,11.755-3.182,13.141-3.104,3.594.202,14.791,3.016,17.615,5.055Z" fill="#fff"/>
<path d="M1338.796,427.405c9.765,8.673,13.141,25.416,7.395,37.101-4.065,8.267-12.461,15.47-21.228,18.127-2.077.629-6.956.787-7.827-1.419-1.212-3.071-2.024-7.794-3.269-11.129-4.563-12.23-10.048-24.052-14.387-36.486-.753-2.157-2.612-4.44-2.22-7.441.449-.794,3.43-2.771,4.428-3.272,12.216-6.135,26.701-4.724,37.107,4.519Z" fill="#fff"/>
<path d="M1257.27,564.643c.301.244.168,1.226.43,1.383,9.677,5.795,15.357,11.66,19.191,22.624,2.428,6.942,4.712,14.499,3.599,22.288-.239,1.673-1.385,2.661-1.738,4.021-1.038,3.995-1.468,7.745-3.591,11.767-5.865,11.108-16.428,18.635-27.952,22.922-37.733,8.934-67.933-23.924-56.966-60.669l1.944-1.219c6.818-21.338,29.879-31.391,51.347-28.146,1.168.177,13.168,4.568,13.736,5.029ZM1254.853,629.02c22.197-19.49,9.745-53.886-18.952-56.016-12.996-.965-29.139,8.749-31.447,21.952l-1.748.714c-1.347,10.092-.668,19.388,5.153,27.981.2.295,1.235.14,1.661.856.513.863.421,2.286,1.127,3.04s4.042,2.484,5.284,3.39c.308.224.146,1.247.851,1.655,5.49,3.173,17.643,6.426,23.711,4.581,5.184-1.576,10.566-4.82,14.361-8.153Z" fill="#000000"/>
<path d="M1254.853,629.02c-3.795,3.332-9.177,6.577-14.361,8.153-6.068,1.845-18.221-1.408-23.711-4.581-.705-.408-.543-1.43-.851-1.655-1.242-.906-4.576-2.632-5.284-3.39s-.614-2.178-1.127-3.04c-.426-.716-1.461-.561-1.661-.856-5.821-8.593-6.5-17.888-5.153-27.981l1.748-.714c2.307-13.203,18.451-22.917,31.447-21.952,28.697,2.13,41.149,36.526,18.952,56.016Z" fill="#fff"/>
<path d="M1077.299,248.845c.181-.245.995-.201,1.299-.565,6.109-7.284,12.929-11.509,22.851-12.187,11.848-.81,26.179,6.869,31.009,18.012,2.325,5.366,4.437,14.837,2.668,20.459-.24.763-1.15,2.557-1.925,2.609-.917-.394-1.852-.756-2.879-.767-10.883-.125-22.552-2.452-33.606-2.879-7.952-.307-15.972.385-23.927-.07l-1.114-.806.527-13.971,5.095-9.835Z" fill="#fff"/>
<path d="M962.511,345.861c3.347,2.499,7.376,7.448,10.192,10.934.243.301,1.172.168,1.381.483.452.68-.027,1.794.424,2.467.218.325,1.321.094,1.751.791,5.386,8.72,7.195,25.416,4.58,35.23-.294,1.102-4.496,11.444-4.868,11.976-.198.282-1.151.179-1.347.471-4.924,7.317-6.98,9.179-14.119,14.096-.713.491-.517,1.475-.82,1.694-5.151,3.724-20.642,6.475-27.094,5.963-3.575-.284-17.928-3.884-20.49-5.949-.287-.231-.07-1.191-.804-1.707-1.338-.94-4.543-1.802-5.863-3.098-.622-.611-1.085-2.081-2.124-3.172-.845-.887-2.233-1.087-2.708-1.591-.645-.685-2.156-4.419-3.096-5.859-.464-.711-1.453-.576-1.659-.868-2.829-4.013-5.725-16.409-6.054-21.343-.413-6.196,2.39-21.306,6.074-26.2.223-.297,1.115-.157,1.361-.456.738-.898,1.931-4.475,3.426-6.23.333-.39,1.235-.424,1.585-.816,14.488-16.222,41.883-20.542,60.272-6.816ZM958.692,406.735c15.046-15.064,11.214-39.166-6.132-50.487-2.539-1.657-10.419-4.478-13.314-4.924-5.063-.779-6.726.625-10.737,1.712-7.309,1.98-7.736,2.031-13.318,6.845-6.545,5.645-7.839,8.38-10.199,16.671-1.009,3.544-2.226,4.071-1.67,8.781,1.125,9.53,6.413,19.567,14.375,24.974,4.124,2.8,13.836,6.327,18.69,6.343,2.352.007,3.284-1.412,4.963-1.82,1.628-.396,3.29-.063,5.159-.601,2.728-.786,10.139-5.448,12.183-7.494Z" fill="#000000"/>
<path d="M958.692,406.735c-2.044,2.046-9.456,6.709-12.183,7.494-1.869.538-3.531.205-5.159.601-1.679.408-2.611,1.828-4.963,1.82-4.854-.015-14.566-3.542-18.69-6.343-7.961-5.406-13.249-15.444-14.375-24.974-.556-4.709.661-5.237,1.67-8.781,2.36-8.291,3.654-11.026,10.199-16.671,5.582-4.814,6.01-4.865,13.318-6.845,4.011-1.087,5.674-2.491,10.737-1.712,2.895.445,10.775,3.266,13.314,4.924,17.345,11.321,21.178,35.423,6.132,50.487Z" fill="#fff"/>
<path d="M766.959,680.538c-.027,1.375-.111,2.757.199,4.122,3.473,15.306,5.109,30.829,7.491,46.264.279,1.805,1.614,3.009,1.894,4.824.402,2.611.862,7.733-2.362,8.167-8.491,1.143-15.747-2.955-22.923-6.713-6.564-6.016-14.671-21.254-11.964-30.091.249-.812,1.314-1.418,1.55-2.29,2.598-9.594,5.648-15.776,14.681-20.835,3.459-1.937,7.354-3.868,11.435-3.449Z" fill="#fff"/>
<path d="M1125.722,417.837c.267.201.114,1.19.444,1.413.67.452,1.786-.027,2.465.425.315.209.185,1.155.483,1.381,7.433,5.632,11.305,12.769,14.351,21.696.366,1.074,1.456,1.685,1.702,3.097.502,2.884.447,18.24-.177,20.957-.8,3.485-3.362,9.846-5.178,13.06-3.501,6.195-12.223,14.83-18.691,17.784-27.853,12.72-56.407-.616-66.197-28.752-2.564-14.641-.526-26.829,6.982-39.621,1.892-.259,1.906-1.9,3.056-3.125,3.632-3.868,9.261-8.689,14.004-10.97,4.562-2.194,16.78-5.714,21.505-5.268,7.098.67,19.576,3.657,25.251,7.923ZM1125.731,436.957c-2.491-2.577-8.042-7.665-11.358-9.269-11.336-5.485-23.227-4.27-33.471,2.866-3.736,2.602-4.385,4.191-6.773,7.461-.564.773-1.556.548-1.962,1.236-.561.951-4.619,11.492-4.769,12.356-1.397,8.042,2.546,15.058,5.055,22.364,1.882.225,1.932,1.84,3.069,3.109,8.508,9.493,21.821,14.438,34.391,10.321,7.338-2.404,18.64-13.181,20.668-20.607.397-1.452-.028-3.012.347-4.452.737-2.835,2.437-3.753,1.761-7.858-.248-1.51-1.488-2.1-1.762-3.033-.515-1.753.161-3.651-.341-5.419-.168-.592-4.497-8.704-4.855-9.074Z" fill="#000000"/>
<path d="M1125.731,436.957c.358.37,4.687,8.482,4.855,9.074.502,1.768-.174,3.666.341,5.419.274.933,1.514,1.524,1.762,3.033.675,4.105-1.024,5.023-1.761,7.858-.375,1.44.05,3-.347,4.452-2.028,7.426-13.329,18.204-20.668,20.607-12.57,4.117-25.883-.828-34.391-10.321-1.137-1.268-1.186-2.883-3.069-3.109-2.508-7.305-6.451-14.322-5.055-22.364.15-.864,4.209-11.405,4.769-12.356.405-.688,1.397-.463,1.962-1.236,2.388-3.269,3.037-4.858,6.773-7.461,10.244-7.136,22.135-8.351,33.471-2.866,3.316,1.605,8.867,6.692,11.358,9.269Z" fill="#fff"/>
<path d="M891.046,596.381c-.292.234-.139,1.123-.87,1.646-15.333,10.969-40.047,10.621-55.415,0-.178-.123-2.328-2.272-2.999-2.885-26.114-23.838-17.226-67.414,16.512-78.53,6.819-1.174,13.724-3.273,20.924-2.135,1.496.237,2.075,1.47,3.042,1.757,1.934.575,4.051.196,6.585,1.094,33.445,11.862,39.702,56.963,12.221,79.053ZM880.953,533.965c-6.081-4.304-17.967-6.341-25.212-5.089-1.072.185-10.773,4.36-11.773,5.067-.671.474-4.548,4.401-5.522,5.475-9.975,11.009-10.17,30.552-.462,41.786,2.41,2.789,6.461,6.699,9.934,7.2.647,1.768,5.008,3.181,7.044,3.659,4.222.992,11.904,1.211,15.976.004.634-.188,5.046-1.805,5.282-1.972.268-.19.074-1.158.374-1.431.546-.497,3.01-.714,4.563-1.739,3.515-2.32,9.94-10.646,11.308-14.606,1.682-4.868,2.099-14.617.963-19.682-1.888-8.412-5.55-12.256-11.981-17.34-.306-.242-.225-1.141-.495-1.332Z" fill="#000000"/>
<path d="M880.953,533.965c.27.191.189,1.09.495,1.332,6.431,5.085,10.092,8.928,11.981,17.34,1.137,5.064.719,14.814-.963,19.682-1.368,3.96-7.793,12.286-11.308,14.606-1.553,1.025-4.018,1.243-4.563,1.739-.3.273-.106,1.242-.374,1.431-.236.167-4.648,1.784-5.282,1.972-4.072,1.207-11.755.988-15.976-.004-2.035-.478-6.396-1.891-7.044-3.659-3.473-.501-7.524-4.411-9.934-7.2-9.708-11.234-9.513-30.777.462-41.786.974-1.074,4.851-5.001,5.522-5.475,1-.707,10.701-4.882,11.773-5.067,7.245-1.252,19.131.785,25.212,5.089Z" fill="#fff"/>
</svg>