<?xml version="1.0" encoding="UTF-8"?><svg id="a" xmlns="http://www.w3.org/2000/svg" width="800.453mm" height="590.256mm" viewBox="0 0 2269 1673.167"><path d="M2269,0v1673.167H0V0h2269ZM762.96,320.647c-4.241-1.726-10.811-1.916-15.15-.46-.502.168-8.695,5.064-9.087,5.42-1.888,1.716-2.511,4.721-3.725,6.264-31.219,39.704-59.51,84.559-91.263,122.698-.865,1.038-.911,2.955-2.13,3.899-1.74,1.074-29.793.596-34.484.521-30.132-.478-60.579-2.388-90.718-3.075-11.334-.259-26.377,1.436-37.025.12-1.936-.239-1.474-1.981-1.933-2.094-2.919-.72-2.166,1.719-3.186,1.979-10.254,2.622-9.85-.544-15.641,9.655-.328.578-1.78.792-2.389,2.048-1.349,2.785-1.457,8.668-1.262,11.819.618,9.994,7.761,14.679,12.978,22.151,25.689,36.794,52.282,75.237,78.458,110.899,3.131,4.265,9.285,7.355,6.704,13.848-.409,1.03-1.895,1.044-2.245,1.996-4.05,11.011-7.126,23.085-11.14,34.356-13.296,37.332-28.327,74.59-39.915,112.741-.227.748-1.686.792-2.264,2.878-2.182,7.866,1.935,16.815,7.82,21.875,2.399,2.063,7.829,4.553,11.109,4.861,4.646.436,9.439-.578,13.914-1.803,9.091-2.487,18.973-6.157,28.59-9.161,36.857-11.511,74.46-25.706,111.335-36.726,2.578-.77,9.214-2.415,11.6-2.071,3.003.433,8.137,6.371,10.658,8.324,34.85,27.003,70.39,53.492,105.665,80.96,4.444,3.46,10.384,9.936,15.741,12.404,6.374,2.936,13.96,2.047,20.495.118,3.566-4.062,9.292-7.535,10.428-13.764,2.084-11.424-1.305-27.112.161-38.738.241-1.908,1.912-.951,2.153-2.859.392-3.11-.721-18.659-.069-19.522,1.124.611,2.537.716,3.613,1.377,60.081,36.906,116.227,84.685,167.637,132.18,34.521,31.892,69.098,66.011,100.781,100.267,109.021,117.872,202.664,246.233,289.372,381.099,1.313,2.043,2.157,6.106,3.734,8.277,3.755,5.17,11.199,6.246,16.871,3.367,13.476-6.84,29.044-17.244,42.938-25.138,56.683-32.207,113.891-65.32,172.081-96.504,21.668-11.612,43.175-23.398,65.815-33.719,45.503-20.745,93.326-39.734,138.758-60.038,4.595-2.054,11.201-3.772,15.433-6.311,4.886-2.931,7.161-9.714,4.638-14.982-.626-1.307-4.938-5.976-5.579-7.072-68.564-117.184-152.968-221.954-246.767-320.474-15.089-15.848-32.487-30.703-48.595-45.692-164.274-152.849-362.574-268.135-580.296-316.021-25.231-5.549-52.182-10.199-77.26-15.877-21.897-4.958-50.222-3.086-72.727-5.924-1.908-.241-.951-1.912-2.859-2.153-4.112-.519-20.674,1.1-22.594-.346-1.144-.924-.538-2.88-1.025-3.76-4.58-8.282-6.126-21.256-8.967-30.951-7.498-25.594-16.686-52.269-24.029-77.962-1.999-6.996-1.124-7.658-4.736-14.398-.864-1.613-1.008-4.552-2.355-5.923-.33-.336-7.627-4.705-8.063-4.883Z" fill="#fff"/>
<path d="M762.96,320.647c.437.178,7.733,4.546,8.063,4.883,1.346,1.371,1.49,4.31,2.355,5.923,3.611,6.74,2.736,7.402,4.736,14.398,7.343,25.692,16.531,52.368,24.029,77.962,2.841,9.696,4.386,22.669,8.967,30.951.487.88-.12,2.836,1.025,3.76,1.92,1.446,18.482-.172,22.594.346,1.908.241.951,1.912,2.859,2.153,22.505,2.838,50.83.966,72.727,5.924,25.078,5.678,52.029,10.328,77.26,15.877,217.722,47.886,416.022,163.172,580.296,316.021,16.109,14.988,33.506,29.843,48.595,45.692,93.799,98.52,178.203,203.29,246.767,320.474.641,1.096,4.954,5.765,5.579,7.072,2.523,5.268.248,12.052-4.638,14.982-4.232,2.538-10.838,4.257-15.433,6.311-45.432,20.303-93.254,39.293-138.758,60.038-22.64,10.321-44.147,22.107-65.815,33.719-58.19,31.184-115.397,64.298-172.081,96.504-13.893,7.894-29.461,18.298-42.938,25.138-5.672,2.879-13.116,1.803-16.871-3.367-1.577-2.171-2.421-6.234-3.734-8.277-86.708-134.866-180.35-263.227-289.372-381.099-31.684-34.256-66.26-68.374-100.781-100.267-51.41-47.495-107.556-95.274-167.637-132.18-1.076-.661-2.489-.766-3.613-1.377-.652.863.461,16.412.069,19.522-.241,1.908-1.912.951-2.153,2.859-1.466,11.627,1.923,27.315-.161,38.738-1.136,6.229-6.862,9.703-10.428,13.764-6.534,1.93-14.121,2.819-20.495-.118-5.357-2.468-11.297-8.943-15.741-12.404-35.275-27.467-70.815-53.957-105.665-80.96-2.521-1.953-7.655-7.892-10.658-8.324-2.386-.344-9.022,1.3-11.6,2.071-36.875,11.02-74.478,25.214-111.335,36.726-9.617,3.004-19.498,6.673-28.59,9.161-4.475,1.224-9.268,2.238-13.914,1.803-3.28-.308-8.71-2.798-11.109-4.861-5.886-5.06-10.002-14.009-7.82-21.875.579-2.086,2.037-2.13,2.264-2.878,11.588-38.151,26.618-75.409,39.915-112.741,4.014-11.27,7.09-23.345,11.14-34.356.35-.952,1.836-.966,2.245-1.996,2.581-6.493-3.574-9.583-6.704-13.848-26.176-35.663-52.769-74.106-78.458-110.899-5.217-7.473-12.36-12.157-12.978-22.151-.195-3.15-.087-9.034,1.262-11.819.609-1.257,2.061-1.47,2.389-2.048,5.792-10.199,5.387-7.033,15.641-9.655,1.02-.261.267-2.7,3.186-1.979.459.113-.003,1.855,1.933,2.094,10.648,1.316,25.691-.379,37.025-.12,30.139.688,60.586,2.598,90.718,3.075,4.691.074,32.745.553,34.484-.521,1.219-.944,1.266-2.861,2.13-3.899,31.753-38.139,60.045-82.994,91.263-122.698,1.214-1.544,1.836-4.548,3.725-6.264.391-.356,8.585-5.252,9.087-5.42,4.339-1.456,10.909-1.266,15.15.46ZM755.729,350.835c-.7-1.812-.997-3.739-1.405-5.626-4.023.653-3.471,5.093-5.308,7.651-29.016,40.396-59.829,80.347-89.088,120.939-2.275,3.157-6.724,6.228-7.977,10.159-5.303.799-10.859-.953-15.811-1.106-11.384-.351-26.338,1.468-37.027.12-1.909-.241-.951-1.912-2.859-2.153-11.963-1.509-31.823-.589-44.927-.96-23.754-.672-47.623-.469-71.379-.951l4.346,7.628c28.014,36.162,53.587,73.226,80.153,110.853,4.221,5.978,9.122,11.337,12.968,17.97.58,1.001,2.1,1.172,2.278,1.932,1.227,5.255-1.555,5.044-1.894,6.044-11.487,33.966-24.218,67.647-36.282,101.244-6.109,17.014-11.17,33.427-17.585,49.434-.433,1.081-2.321,6.907-2.078,7.192,2.667.862,1.551-1.536,2.715-1.952,5.145-1.839,12.175-3.405,17.018-4.938,45.679-14.456,91.792-28.391,136.695-43.908,2.399-.829,5.077-1.344,7.576-1.809,2.816.309,2.936,2.785,4.357,3.748,40.25,27.283,80.567,61.641,119.76,91.407.953.724,11.448,10.392,12.203,9.339l-.069-66.415,2.153-2.859.501-102.293c1.198-3.893,5.276-3.533,8.047-5.393,42.426-28.483,85.826-57.734,127.151-86.834.6-.422,7.628-4.125,5.912-5.582-3.627,1.38-6.66-2.532-7.775-2.907-43.975-14.823-88.224-27.119-132.131-42.088-5.278-1.8-12.47-4.384-17.545-6.793-1.453-.69-3.542-.053-5.201-1.623-3.868-3.66-3.665-11.866-5.061-16.668-7.81-26.865-16.965-54.466-24.778-81.359-5.842-20.109-10.334-42.479-17.655-61.44ZM861.832,485.208l-43.63-2.31c-.864,2.706,1.571,1.495,1.963,2.693.478,1.461.246,6.252,1.214,7.093,2.168.675,4.931.498,7.005,1.281,39.721,14.987,81.208,26.18,121.734,39.904,8.894,3.012,20.237,6.882,28.448,10.856,7.24,3.504,12.663,7.714,13.225,16.506.409,6.395-1.401,15.312-6.723,19.456-1.497,1.166-3.303,1.922-5.222,1.989-.075.585,2.191,2.521,2.35,2.595,5.331,2.474,13.194,4.304,18.791,6.482,91.664,35.67,179.082,80.106,262.337,135.927,47.322,31.729,91.529,65.79,134.048,103.426,35.141,31.106,71.518,64.67,103.367,99.257,71.329,77.461,135.176,170.034,183.565,262.194,4.619,8.798,10.899,18.615,14.876,27.425,1.324,2.932.401,9.448,5.451,9.197,1.276-.063,7.788-2.094,9.354-2.697,38.827-14.949,78.538-34.175,116.77-51.088,5.543-2.452,12.104-.616,7.12-9.226-2.898-5.007-7.601-10.527-10.797-15.631-86.924-138.83-191.937-265.341-317.491-372.735-132.207-113.086-287.2-203.831-450.71-252.909-42.966-12.897-86.594-21.226-129.605-31.007-16.329-3.713-56.014-3.525-67.439-8.677ZM959.648,600.907c-4.154-1.853-4.33,1.007-5.575,1.597-16.008,7.583-32.493,21.598-47.431,31.666-14.05,9.469-28.535,17.899-41.603,27.787-.674.51-2.031.458-2.919.565l-.02,2.939c1.735.041,3.616.565,5.11,1.423,15.959,9.163,33.248,17.494,48.841,25.917,181.487,98.044,359.747,227.754,495.877,388.951,53.743,63.639,102.809,132.185,138.762,207.481,2.148,4.498,3.068,7.575,4.941,12.025.413.982,3.931,2.454,2.951,5.749l123.713-65.866.019-2.484c-.886-.594-1.772-.594-2.299-1.739-10.426-22.648-21.648-45.513-33.661-66.882-13.184-23.452-27.787-45.748-42.632-68.267-61.576-93.411-134.927-177.395-220.241-252.742-119.501-105.541-261.215-188.682-408.821-241.528-4.077-1.46-9.096-2.952-13.547-4.584-1.148-.421-1.186-1.883-1.465-2.008ZM852.754,685.826c-1.839-.952-3.697-1.64-5.611-2.391l.069,56.437c-2.653,2.005-2.95,9.4-1.795,12.154.808,1.926,6.998,4.554,8.033,6.884,158.91,98.703,291.527,241.835,406.815,388.696,48.984,62.398,95.646,126.23,139.612,193.078,7.847,11.931,15.158,24.328,22.963,35.897,1.358,2.012,2.909,4.128,4.032,6.24l110.654-62.94c1.013-1.441-1.722-7.829-2.617-9.631-20.928-42.165-47.571-82.802-74.971-122.581-35.059-50.9-71.628-99.979-114.544-144.419-14.445-14.958-28.388-30.741-43.621-45.18-133.937-126.953-287.455-228.609-449.019-312.246Z" fill="#000000"/>
<path d="M959.648,600.907c.279.124.317,1.587,1.465,2.008,4.451,1.633,9.47,3.125,13.547,4.584,147.606,52.846,289.319,135.986,408.821,241.528,85.314,75.347,158.664,159.331,220.241,252.742,14.845,22.52,29.448,44.815,42.632,68.267,12.013,21.369,23.234,44.234,33.661,66.882.527,1.145,1.414,1.146,2.299,1.739l-.019,2.484-123.713,65.866c.98-3.295-2.538-4.768-2.951-5.749-1.873-4.45-2.793-7.526-4.941-12.025-35.953-75.297-85.019-143.843-138.762-207.481-136.13-161.196-314.389-290.907-495.877-388.951-15.593-8.424-32.882-16.754-48.841-25.917-1.494-.858-3.375-1.383-5.11-1.423l.02-2.939c.888-.107,2.245-.055,2.919-.565,13.068-9.888,27.554-18.318,41.603-27.787,14.938-10.068,31.423-24.083,47.431-31.666,1.245-.59,1.421-3.449,5.575-1.597Z" fill="#fff"/><path d="M861.832,485.208c11.425,5.152,51.11,4.963,67.439,8.677,43.01,9.781,86.638,18.11,129.605,31.007,163.51,49.079,318.503,139.823,450.71,252.909,125.554,107.395,230.567,233.905,317.491,372.735,3.196,5.105,7.899,10.625,10.797,15.631,4.984,8.61-1.576,6.773-7.12,9.226-38.231,16.913-77.942,36.139-116.77,51.088-1.566.603-8.078,2.633-9.354,2.697-5.05.251-4.128-6.265-5.451-9.197-3.978-8.81-10.257-18.627-14.876-27.425-48.389-92.16-112.236-184.733-183.565-262.194-31.849-34.586-68.226-68.151-103.367-99.257-42.519-37.636-86.726-71.697-134.048-103.426-83.255-55.821-170.673-100.258-262.337-135.927-5.597-2.178-13.46-4.007-18.791-6.482-.159-.074-2.425-2.01-2.35-2.595,1.919-.067,3.725-.823,5.222-1.989,5.322-4.144,7.131-13.061,6.723-19.456-.562-8.792-5.986-13.002-13.225-16.506-8.211-3.974-19.554-7.844-28.448-10.856-40.526-13.723-82.013-24.916-121.734-39.904-2.074-.783-4.837-.606-7.005-1.281-.968-.841-.736-5.631-1.214-7.093-.392-1.199-2.827.012-1.963-2.693l43.63,2.31Z" fill="#fff"/><path d="M755.729,350.835c7.321,18.961,11.813,41.331,17.655,61.44,7.812,26.893,16.968,54.494,24.778,81.359,1.396,4.802,1.194,13.007,5.061,16.668,1.659,1.571,3.748.933,5.201,1.623,5.075,2.409,12.266,4.994,17.545,6.793,43.907,14.969,88.156,27.265,132.131,42.088,1.115.376,4.147,4.287,7.775,2.907,1.715,1.457-5.313,5.16-5.912,5.582-41.325,29.101-84.725,58.352-127.151,86.834-2.771,1.86-6.849,1.5-8.047,5.393l-.501,102.293-2.153,2.859.069,66.415c-.756,1.053-11.251-8.615-12.203-9.339-39.192-29.765-79.51-64.123-119.76-91.407-1.421-.963-1.541-3.44-4.357-3.748-2.5.465-5.178.98-7.576,1.809-44.903,15.516-91.016,29.452-136.695,43.908-4.843,1.533-11.874,3.098-17.018,4.938-1.164.416-.048,2.814-2.715,1.952-.243-.285,1.645-6.111,2.078-7.192,6.415-16.007,11.476-32.42,17.585-49.434,12.063-33.597,24.795-67.278,36.282-101.244.338-1,3.121-.788,1.894-6.044-.178-.76-1.698-.931-2.278-1.932-3.845-6.633-8.747-11.991-12.968-17.97-26.566-37.626-52.139-74.691-80.153-110.853l-4.346-7.628c23.756.482,47.625.279,71.379.951,13.104.371,32.964-.549,44.927.96,1.909.241.951,1.912,2.859,2.153,10.689,1.348,25.643-.471,37.027-.12,4.953.153,10.509,1.905,15.811,1.106,1.253-3.932,5.701-7.002,7.977-10.159,29.259-40.592,60.072-80.543,89.088-120.939,1.837-2.558,1.285-6.998,5.308-7.651.409,1.887.706,3.814,1.405,5.626Z" fill="#fff"/><path d="M852.754,685.826c161.564,83.637,315.082,185.293,449.019,312.246,15.233,14.438,29.176,30.221,43.621,45.18,42.916,44.44,79.485,93.52,114.544,144.419,27.4,39.779,54.043,80.417,74.971,122.581.895,1.802,3.63,8.19,2.617,9.631l-110.654,62.94c-1.123-2.112-2.674-4.228-4.032-6.24-7.806-11.57-15.117-23.967-22.963-35.897-43.966-66.848-90.628-130.68-139.612-193.078-115.289-146.861-247.906-289.993-406.815-388.696-1.035-2.33-7.225-4.958-8.033-6.884-1.155-2.755-.858-10.15,1.795-12.154l-.069-56.437c1.914.752,3.772,1.44,5.611,2.391Z" fill="#fff"/></svg>