<?xml version="1.0" encoding="UTF-8"?><svg id="a" xmlns="http://www.w3.org/2000/svg" width="800.608mm" height="590.55mm" viewBox="0 0 2269.44 1674">
<path d="M1.919,0h2267.521v1674H1.919V0ZM2268.48.96H2.879v1672.08h2265.602V.96Z" fill="#fff"/>
<rect width="1.919" height="1674" fill="#fff"/>
<path d="M855.722,227.753c1.755.698,10.85,13.203,12.017,15.351,3.935,7.245,7.019,16.311,10.171,23.572,1.999,4.605,12.364,32.223,14.494,33.3,9.176,2.029,18.435-.961,27.377-1.45,5.407-.295,10.891.308,16.294-.019,17.039-1.031,34.137-3.421,51.144-3.612,8.183,11.532.893,14.823-6.058,21.834-6.895,6.954-13.261,14.502-20.423,21.07-9.246,8.48-19.826,15.613-28.586,24.505-.43,2.854,5.802,17.087,7.394,20.859,7.149,16.94,16.464,34.102,23.611,51.453,2.892,18.582-9.634,18.555-22.985,12.429-27.523-12.628-55.454-29.166-83.106-41.86-9.161-4.205-9.932-5.734-18.967.255-22.417,14.863-43.404,33.84-65.553,49.131-5.596,3.863-16.462,13.152-22.735,13.796-6.238.641-11.383-5.498-9.694-11.686,5.594-11.669,9.034-24.659,14.24-36.426,4.097-9.26,10.07-19.668,14.577-29.774,2.484-5.568,8.582-13.249,7.333-19.282-.178-.861-12.248-9.778-13.807-10.886-10.477-7.447-28.081-17.063-36.728-25.599-10.887-10.747-12.518-22.665,3.995-27.604l80.988-.11,30.973-76.779,6.119-4.64c2.459,2.233,5.773,1.317,7.914,2.169ZM856.339,245.371c-1.365-2.61-1.269-5.819-5.165-7.324-1.218.833-3.178,9.071-3.952,10.747-6.171,13.362-13.257,28.656-19.422,43.155-2.869,6.747-7.057,24.8-14.11,27.16-5.424,1.815-29.495.674-36.945.571-2.738-.038-5.087-1.011-7.591-1.045-13.253-.178-26.744-.458-39.867,1.005-3.418,3.521,14.354,13.601,15.944,14.771,10.138,7.464,20.951,16.416,31.455,23.237,3.276,2.127,11.195,3.925,12.075,8.563,2.045,10.785-5.326,18.018-9.45,26.973-6.232,13.53-12.065,26.901-17.707,39.88-1.28,2.946-9.393,19.547-8.313,20.95,10.658-5.945,20.892-12.488,29.52-21.077,17.411-12.6,34.126-26.052,51.776-38.152,1.464-1.003,2.576-3.234,3.965-3.993,10.109-5.519,12.337.94,20.386,5.05,15.479,7.905,31.695,14.384,47.119,21.78l45.855,21.989c1.125-1.182-4.506-14.496-5.564-16.982-6.898-16.213-16.124-33.033-23.12-49.057-1.875-4.294-3.38-9.571-5.689-13.937,1.044-1.791,2.175-3.505,3.725-4.913,8.224-7.467,20.82-14.591,29.391-21.956,8.698-7.474,16.161-16.054,24.273-24.172.041-1.711-8.099-1.343-9.817-1.207-23.045,1.822-46.919,3.62-70.248,4.604-6.063.256-10.062-.33-13.193-6.08-9.802-18.005-15.518-41.779-25.331-60.542Z" fill="#000000"/>
<path d="M856.339,245.371c9.813,18.763,15.529,42.537,25.331,60.542,3.13,5.75,7.129,6.335,13.193,6.08,23.329-.984,47.203-2.782,70.248-4.604,1.719-.136,9.858-.504,9.817,1.207-8.112,8.118-15.575,16.698-24.273,24.172-8.571,7.365-21.167,14.49-29.391,21.956-1.551,1.408-2.681,3.122-3.725,4.913,2.31,4.366,3.815,9.643,5.689,13.937,6.996,16.024,16.222,32.843,23.12,49.057,1.057,2.486,6.689,15.799,5.564,16.982l-45.855-21.989c-15.424-7.396-31.64-13.875-47.119-21.78-8.049-4.111-10.277-10.57-20.386-5.05-1.389.758-2.501,2.989-3.965,3.993-17.651,12.1-34.365,25.552-51.776,38.152-8.628,8.589-18.862,15.132-29.52,21.077-1.08-1.403,7.032-18.005,8.313-20.95,5.642-12.979,11.476-26.35,17.707-39.88,4.125-8.955,11.496-16.188,9.45-26.973-.88-4.638-8.799-6.436-12.075-8.563-10.504-6.821-21.317-15.773-31.455-23.237-1.59-1.17-19.361-11.25-15.944-14.771,13.123-1.463,26.614-1.183,39.867-1.005,2.504.034,4.854,1.008,7.591,1.045,7.45.102,31.521,1.244,36.945-.571,7.053-2.36,11.241-20.414,14.11-27.16,6.165-14.499,13.251-29.793,19.422-43.155.774-1.675,2.734-9.914,3.952-10.747,3.895,1.504,3.8,4.714,5.165,7.324Z" fill="#fff"/>
<path d="M2268.48.96v1672.08H2.879V.96h2265.602ZM855.722,227.753c-2.141-.852-5.455.064-7.914-2.169l-6.119,4.64-30.973,76.779-80.988.11c-16.514,4.939-14.883,16.856-3.995,27.604,8.647,8.536,26.25,18.152,36.728,25.599,1.559,1.108,13.629,10.025,13.807,10.886,1.249,6.032-4.85,13.714-7.333,19.282-4.508,10.105-10.481,20.513-14.577,29.774-5.206,11.767-8.645,24.757-14.24,36.426-1.689,6.187,3.456,12.327,9.694,11.686,6.273-.645,17.14-9.933,22.735-13.796,22.149-15.291,43.136-34.269,65.553-49.131,9.034-5.99,9.806-4.46,18.967-.255,27.652,12.694,55.584,29.233,83.106,41.86,13.351,6.126,25.877,6.153,22.985-12.429-7.147-17.351-16.462-34.513-23.611-51.453-1.592-3.772-7.824-18.005-7.394-20.859,8.759-8.892,19.34-16.025,28.586-24.505,7.161-6.569,13.527-14.116,20.423-21.07,6.951-7.011,14.24-10.302,6.058-21.834-17.006.191-34.104,2.581-51.144,3.612-5.403.327-10.887-.276-16.294.019-8.942.488-18.201,3.479-27.377,1.45-2.13-1.077-12.494-28.695-14.494-33.3-3.152-7.261-6.236-16.327-10.171-23.572-1.167-2.149-10.262-14.653-12.017-15.351ZM1549.41,250.883c-11.493-5.012-53.449-2.426-67.265-.307-26.505,4.065-50.551,14.614-75.163,23.861-119.67,44.963-225.901,92.282-305.442,195.115-60.379,78.059-115.099,161.961-171.054,243.838-20.191,29.545-41.377,59.521-61.674,89.427-2.455,3.618-4.698,9.04-7.322,12.833-2.691,2.564-15.241,2.49-19.229,3.329-19.62,4.125-43.3,11.989-60.919,21.575-30.867,16.794-76.6,70.297-97.542,100.199-21.258,30.355-54.42,80.754-29.038,116.698,25.635,36.303,78.475,12.604,110.737.54,3.63-1.357,6.089-5.107,10.842-3.669,3.32,1.005,4.599,5.331,6.71,7.745,21.332,24.385,41.89,49.574,65.438,71.537,2.157,2.011,3.825,4.589,6.405,6.203-2.496,5.953-7.431,10.269-11.033,15.278-13.273,18.456-27.312,37.701-39.283,56.184-11.815,18.24-18.249,31.46-8.958,53.236,13.864,32.492,50.336,49.713,83.53,34.087,14.771-6.954,20.816-22.846,29.628-35.649,12.622-18.339,25.947-36.138,39.269-54.019,3.791-4.289,6.281,1.205,8.032,2.086,21.763,10.948,44.231,21.387,67.271,30.151l43.584,14.476c-.437,15.943.813,31.746,5.213,47.098,11.698,40.813,53.218,73.7,93.673,44.35,20.6-14.946,45.303-52.528,58.945-73.981,35.99-56.597,64.429-119.978,52.224-189.665-.727-4.15-4.399-12.318-3.085-16.011,49.983-69.373,100.024-140.407,148.631-209.877,37.63-53.782,77.75-104.722,105.265-164.689,12.698-27.676,23.937-61.128,32.421-88.887,5.602-18.328,10.404-38.773,14.212-57.592,17.349-85.73,29.475-190.939-4.08-273.751-3.761-9.282-11.825-17.769-20.942-21.745ZM1541.755,1213.625c-6.368-3.017-10.748,2.891-15.067,6.815-1.06.963-2.418,2.625-4.269,4.327-15.437,14.195-29.593,27.956-45.109,42.223-1.911,1.757-13.882,12.74-14.818,13.054-4.528,1.519-5.504-.814-8.442-1.292-28.68-4.666-61.391-10.468-90.9-9.849-10.159.213-11.427,6.49-9.688,15.438l42.737,74.361c-.049,2.389-8.023,7.421-10.176,9.492-16.167,15.555-41.964,39.921-54.522,57.284-4.456,6.161-7.37,9.625-3.312,17.361,3.516,6.702,12.725,3.524,18.609,2.722,13.896-1.895,27.486-7.66,41.704-12.04,14.652-4.514,29.548-8.634,44.375-13.204,6.137-1.892,19.608-8.593,25.033-7.371,1.42.32,15.106,16.064,16.944,18.741,23.021,21.029,41.525,47.122,66.069,66.588,6.394,5.071,13.086,12.853,21.01,5.537,6.343-5.856,3.567-15.455,2.28-22.334-2.232-11.934-6.217-30.631-7.14-41.997-1.105-13.605-4.111-27.146-4.229-40.758,1.846-2.053,5.063-1.523,6.726-2.2,15.528-6.318,32.747-13.976,49.257-20.015,12.152-4.445,25.624-6.121,36.4-13.471,1.188-2.729,1.611-10.765-.865-12.615-1.159-.866-2.864-.515-3.618-.97-14.15-8.551-31.963-17.098-46.676-23.779-13.805-6.269-28.891-10.324-41.884-18.379-.871-3.466-2.119-7.49-2.422-11.015-1.964-22.82-.331-46.881-3.808-69.14-.616-3.946.939-11.081-4.196-13.514Z" fill="#fff"/>
<path d="M1549.41,250.883c9.117,3.976,17.181,12.463,20.942,21.745,33.555,82.812,21.429,188.021,4.08,273.751-3.808,18.819-8.611,39.265-14.212,57.592-8.484,27.759-19.722,61.212-32.421,88.887-27.515,59.968-67.636,110.907-105.265,164.689-48.606,69.471-98.648,140.505-148.631,209.877-1.314,3.693,2.358,11.861,3.085,16.011,12.205,69.687-16.234,133.069-52.224,189.665-13.642,21.453-38.345,59.036-58.945,73.981-40.454,29.35-81.974-3.537-93.673-44.35-4.4-15.352-5.65-31.155-5.213-47.098l-43.584-14.476c-23.04-8.764-45.507-19.203-67.271-30.151-1.751-.881-4.241-6.375-8.032-2.086-13.322,17.881-26.647,35.679-39.269,54.019-8.812,12.804-14.857,28.695-29.628,35.649-33.195,15.627-69.667-1.594-83.53-34.087-9.291-21.776-2.857-34.996,8.958-53.236,11.972-18.483,26.011-37.728,39.283-56.184,3.602-5.009,8.538-9.325,11.033-15.278-2.58-1.614-4.248-4.192-6.405-6.203-23.548-21.963-44.106-47.152-65.438-71.537-2.112-2.414-3.391-6.74-6.71-7.745-4.754-1.438-7.213,2.312-10.842,3.669-32.262,12.064-85.102,35.763-110.737-.54-25.382-35.944,7.779-86.343,29.038-116.698,20.942-29.902,66.675-83.405,97.542-100.199,17.619-9.586,41.299-17.45,60.919-21.575,3.987-.838,16.538-.765,19.229-3.329,2.624-3.793,4.867-9.215,7.322-12.833,20.297-29.906,41.483-59.882,61.674-89.427,55.955-81.877,110.675-165.779,171.054-243.838,79.541-102.833,185.772-150.152,305.442-195.115,24.613-9.248,48.658-19.796,75.163-23.861,13.816-2.119,55.773-4.705,67.265.307ZM1549.392,266.25c-27.364-17.81-91.413.04-120.709,10.519-100.811,36.059-209.956,83.781-284.574,160.885-2.192,2.265-9.945,8.395-9.866,11.124.102,3.526,9.003,2.631,11.765,3.374,20.718,5.574,44.813,14.973,64.834,23.823,114.51,50.615,217.406,126.787,285.749,232.772.951,1.475,4.209,9.06,4.693,9.247,2.842,1.095,5.025-6.465,6.363-8.797,15.301-26.662,26.916-60.264,36.229-89.716,27.647-87.431,48.105-206.078,30.596-295.306-1.98-10.089-6.821-22.202-10.084-32.146-3.462-10.553-4.633-19.034-14.996-25.779ZM1225.997,494.719c-28.617-13.797-65.631-27.861-96.818-33.243-3.025-.522-4.048-3.001-8.072.527-6.228,5.46-14.704,19.497-20.039,26.501-22.36,29.355-44.931,60.516-65.156,89.344-39.12,55.759-75.124,111.789-113.756,167.472-7.7,11.099-21.521,26.728-27.322,37.942-.508.983-.624,1.777-.496,2.86,9.924.946,19.419,3.343,28.974,6.063,111.221,31.657,204.834,96.513,286.344,173.856,22.546,21.394,44.592,43.232,64.088,67.393,1.315,1.63,4.073,2.12,3.54,5.044,3.869,3.456,12.802-13.311,14.894-16.137,26.411-35.666,51.528-71.869,77.172-108.063,34.73-49.018,69.996-97.818,103.346-148.048,6.875-10.355,13.44-18.591,18.6-30.216.567-1.278,2.592-.913,2.636-4.061.012-.879-.643-5.838-.87-6.536-1.051-3.227-8.365-12.475-10.466-15.828-30.685-48.959-71.201-91.241-116.191-127.374-43.064-34.586-90.73-63.545-140.407-87.495ZM939.158,808.532c-12.213-3.923-28.074-9.364-40.61-10.775-4.142-.466-10.732-1.607-13.83,1.307-15.415,23.877-31.341,47.7-46.86,71.401-24.157,36.894-51.376,75.431-73.854,113.081-4.198,7.031-8.235,11.07-5.315,19.388,5.587,15.915,26.908,44.339,37.8,58.167,15.178,19.269,42.264,51.06,60.963,65.211,1.502,1.137,2.247,4.055,4.638,3.448,3.125-.793,30.829-47.661,35.118-53.992,24.303-35.872,51.231-70.855,76.757-106.057,11.028-15.208,18.422-32.197,36.596-40.936,26.034-12.519,51.172-5.267,69.666,16.005,31.885,36.673,1.128,65.04-19.235,94.97-23.385,34.372-46.071,69.968-69.111,104.973l-34.527,49.601,1.001,4.601c9.592,5.19,19.473,9.823,29.228,14.463,37.183,17.689,93.88,38.059,134.632,43.1,1.953.242,7.767.306,9.446-.208,2.562-.786,17.157-23.934,19.883-27.893,38.376-55.741,77.696-112.42,114.739-168.115,2.136-3.212,6.877-9.309,5.493-12.83-2.306-3.506-6.004-6.132-8.557-9.292-18.677-23.117-40.261-44.877-61.926-65.166-75.832-71.017-162.578-132.471-262.136-164.451ZM841.134,846.18c3.128-4.995,6.252-10.064,9.559-14.954l-.957-1.874c-17.419,3.241-36.845,8.15-52.953,15.663-34.472,16.077-74.477,61.871-97.641,92.848-18.612,24.89-57.336,77.535-41.86,108.907,4.545,9.213,17.465,19.168,27.602,20.406,1.843.225,3.622-.918,5.537-.848,2.467.09,4.051,2.061,6.482,1.832,3.599-.338,9.986-2.886,13.723-3.628,8.938-1.774,18.413-3.116,26.603-6.025,10.518-3.736,21.753-10.154,32.291-14.292.701-2.581-2.069-3.349-2.769-4.449-4.254-6.69-9.313-14.263-12.783-20.638-4.3-7.901-9.993-17.577-8.086-26.846.778-3.783,8.256-12.732,10.594-16.319,28.076-43.072,57.182-85.911,84.658-129.785ZM1055.227,937.172c-10.816-5.651-24.277-6.294-35.678-2.286-11.245,3.954-15.308,9.18-21.866,18.495-36.633,52.028-74.318,104.795-109.422,157.385-20.805,31.168-42.189,60.912-63.573,91.854-5.334,7.719-15.797,19.761-19.521,27.71-2.326,4.965-2.504,13.406-1.91,18.854,1.224,11.217,15.171,30.756,24.631,37.002,23.161,15.293,48.095,10.761,62.282-11.803,10.016-15.931,19.929-31.655,31.358-47.897,50.314-71.505,97.462-144.887,146.524-217.917,7.779-11.579,16.963-17.667,15.332-33.838-1.243-12.324-17.603-32.044-28.157-37.559ZM1225.944,1251.268c19.942-36.919,37.187-77.182,42.528-119.222,2.128-16.75,1.353-34.005-2.778-50.281-4.204,1.021-4.998,6.335-7.085,9.226-37.318,51.682-71.212,105.035-107.065,157.551-2.939,4.305-8.285,10.683-10.326,13.938-.719,1.147-.002,3.353-1.595,4.647-4.501,3.657-19.624.016-25.151-.972-3.027-.541-6.067.717-8.825-1.731l-25.555-6.076c-.697-.02-1.888,4.733-2.044,5.741-2.325,15.103,5.605,44.968,13.731,58.361,3.278,5.403,10.609,13.286,16.027,16.604,5.907,3.617,20.281,9.36,26.939,8.629,22.409-2.462,41.926-23.494,54.77-40.722,13.054-17.509,26.445-37.209,36.428-55.692Z" fill="#000000"/>
<path d="M1225.997,494.719c49.677,23.95,97.343,52.909,140.407,87.495,44.99,36.133,85.506,78.415,116.191,127.374,2.101,3.353,9.415,12.601,10.466,15.828.227.698.882,5.657.87,6.536-.044,3.148-2.069,2.783-2.636,4.061-5.16,11.625-11.725,19.861-18.6,30.216-33.35,50.23-68.616,99.03-103.346,148.048-25.645,36.194-50.762,72.397-77.172,108.063-2.092,2.826-11.025,19.593-14.894,16.137.533-2.924-2.224-3.414-3.54-5.044-19.496-24.161-41.542-45.999-64.088-67.393-81.51-77.344-175.123-142.2-286.344-173.856-9.554-2.719-19.05-5.117-28.974-6.063-.128-1.083-.012-1.877.496-2.86,5.801-11.214,19.622-26.844,27.322-37.942,38.632-55.683,74.635-111.713,113.756-167.472,20.225-28.828,42.796-59.988,65.156-89.344,5.335-7.004,13.811-21.041,20.039-26.501,4.024-3.527,5.047-1.049,8.072-.527,31.187,5.382,68.201,19.446,96.818,33.243ZM1289.346,570.528c-46.842-20.213-121.377-5.558-156.698,31.626-56.259,59.227-56.66,151.475,3.017,208.009,86.35,81.804,225.681,30.957,245.148-83.112,9.676-56.699-17.108-118.058-67.893-145.295-6.182-3.315-17.066-8.421-23.573-11.229Z" fill="#fff"/>
<path d="M939.158,808.532c99.558,31.98,186.305,93.434,262.136,164.451,21.665,20.289,43.249,42.049,61.926,65.166,2.553,3.16,6.251,5.786,8.557,9.292,1.384,3.521-3.357,9.618-5.493,12.83-37.043,55.694-76.363,112.374-114.739,168.115-2.726,3.959-17.321,27.108-19.883,27.893-1.679.515-7.494.45-9.446.208-40.752-5.041-97.448-25.412-134.632-43.1-9.755-4.641-19.636-9.273-29.228-14.463l-1.001-4.601,34.527-49.601c23.041-35.005,45.726-70.601,69.111-104.973,20.363-29.929,51.119-58.296,19.235-94.97-18.494-21.272-43.632-28.524-69.666-16.005-18.175,8.739-25.569,25.728-36.596,40.936-25.526,35.202-52.454,70.185-76.757,106.057-4.289,6.331-31.993,53.2-35.118,53.992-2.391.606-3.135-2.311-4.638-3.448-18.699-14.151-45.784-45.942-60.963-65.211-10.892-13.828-32.213-42.251-37.8-58.167-2.92-8.318,1.117-12.357,5.315-19.388,22.478-37.649,49.697-76.187,73.854-113.081,15.519-23.701,31.445-47.523,46.86-71.401,3.098-2.914,9.688-1.773,13.83-1.307,12.536,1.411,28.397,6.852,40.61,10.775Z" fill="#fff"/>
<path d="M1549.392,266.25c10.363,6.745,11.534,15.225,14.996,25.779,3.262,9.944,8.104,22.057,10.084,32.146,17.509,89.228-2.948,207.875-30.596,295.306-9.313,29.452-20.928,63.054-36.229,89.716-1.338,2.332-3.521,9.892-6.363,8.797-.484-.186-3.741-7.771-4.693-9.247-68.343-105.985-171.239-182.157-285.749-232.772-20.02-8.849-44.115-18.249-64.834-23.823-2.762-.743-11.663.152-11.765-3.374-.079-2.729,7.674-8.859,9.866-11.124,74.618-77.104,183.763-124.827,284.574-160.885,29.295-10.478,93.344-28.328,120.709-10.519Z" fill="#fff"/>
<path d="M1055.227,937.172c10.554,5.514,26.914,25.234,28.157,37.559,1.631,16.171-7.553,22.259-15.332,33.838-49.062,73.03-96.21,146.412-146.524,217.917-11.429,16.242-21.342,31.967-31.358,47.897-14.187,22.565-39.121,27.096-62.282,11.803-9.46-6.246-23.408-25.786-24.631-37.002-.594-5.448-.416-13.889,1.91-18.854,3.724-7.949,14.187-19.991,19.521-27.71,21.383-30.942,42.768-60.686,63.573-91.854,35.104-52.59,72.789-105.357,109.422-157.385,6.559-9.315,10.621-14.541,21.866-18.495,11.401-4.008,24.862-3.365,35.678,2.286Z" fill="#fff"/>
<path d="M841.134,846.18c-27.476,43.874-56.582,86.713-84.658,129.785-2.338,3.587-9.816,12.536-10.594,16.319-1.907,9.269,3.786,18.945,8.086,26.846,3.47,6.375,8.529,13.948,12.783,20.638.699,1.1,3.47,1.868,2.769,4.449-10.538,4.138-21.773,10.556-32.291,14.292-8.19,2.909-17.665,4.251-26.603,6.025-3.736.741-10.123,3.289-13.723,3.628-2.431.228-4.015-1.742-6.482-1.832-1.914-.07-3.694,1.073-5.537.848-10.136-1.238-23.057-11.193-27.602-20.406-15.477-31.373,23.248-84.017,41.86-108.907,23.164-30.977,63.169-76.771,97.641-92.848,16.109-7.513,35.534-12.421,52.953-15.663l.957,1.874c-3.307,4.89-6.432,9.959-9.559,14.954Z" fill="#fff"/>
<path d="M1225.944,1251.268c-9.984,18.483-23.374,38.182-36.428,55.692-12.844,17.228-32.36,38.26-54.77,40.722-6.659.732-21.032-5.011-26.939-8.629-5.418-3.318-12.749-11.201-16.027-16.604-8.125-13.393-16.055-43.258-13.731-58.361.155-1.008,1.347-5.761,2.044-5.741l25.555,6.076c2.758,2.448,5.798,1.19,8.825,1.731,5.527.988,20.649,4.629,25.151.972,1.592-1.294.876-3.5,1.595-4.647,2.041-3.255,7.387-9.633,10.326-13.938,35.853-52.516,69.747-105.87,107.065-157.551,2.087-2.89,2.881-8.204,7.085-9.226,4.131,16.276,4.906,33.531,2.778,50.281-5.341,42.039-22.586,82.303-42.528,119.222Z" fill="#fff"/>
<path d="M1289.346,570.528c6.507,2.808,17.392,7.913,23.573,11.229,50.785,27.237,77.569,88.596,67.893,145.295-19.466,114.069-158.797,164.916-245.148,83.112-59.677-56.535-59.276-148.783-3.017-208.009,35.321-37.184,109.856-51.839,156.698-31.626ZM1305.632,590.697c-59.972-34.797-145.467-17.523-182.552,42.193-45.852,73.833-15.155,168.863,65.353,197.416,74.151,26.299,152.058-10.435,176.18-83.912,20.429-62.227-3.433-123.466-58.981-155.696Z" fill="#000000"/>
<path d="M1305.632,590.697c55.548,32.231,79.41,93.469,58.981,155.696-24.122,73.477-102.028,110.211-176.18,83.912-80.508-28.553-111.205-123.582-65.353-197.416,37.085-59.716,122.58-76.99,182.552-42.193Z" fill="#fff"/>
<path d="M1541.755,1213.625c5.136,2.433,3.58,9.568,4.196,13.514,3.477,22.259,1.844,46.32,3.808,69.14.303,3.525,1.551,7.55,2.422,11.015,12.993,8.055,28.079,12.11,41.884,18.379,14.713,6.681,32.526,15.229,46.676,23.779.754.455,2.459.104,3.618.97,2.476,1.85,2.053,9.886.865,12.615-10.776,7.349-24.248,9.025-36.4,13.471-16.51,6.039-33.729,13.697-49.257,20.015-1.663.677-4.88.147-6.726,2.2.118,13.612,3.124,27.153,4.229,40.758.923,11.367,4.908,30.063,7.14,41.997,1.287,6.879,4.063,16.477-2.28,22.334-7.924,7.316-14.616-.466-21.01-5.537-24.544-19.465-43.048-45.559-66.069-66.588-1.838-2.677-15.524-18.421-16.944-18.741-5.425-1.222-18.896,5.479-25.033,7.371-14.827,4.57-29.724,8.69-44.375,13.204-14.217,4.38-27.808,10.145-41.704,12.04-5.884.802-15.093,3.98-18.609-2.722-4.058-7.736-1.144-11.2,3.312-17.361,12.559-17.363,38.356-41.729,54.522-57.284,2.153-2.072,10.128-7.103,10.176-9.492l-42.737-74.361c-1.739-8.948-.471-15.225,9.688-15.438,29.509-.62,62.22,5.183,90.9,9.849,2.938.478,3.914,2.811,8.442,1.292.936-.314,12.907-11.296,14.818-13.054,15.516-14.267,29.672-28.029,45.109-42.223,1.851-1.702,3.209-3.364,4.269-4.327,4.319-3.923,8.699-9.831,15.067-6.815ZM1542.324,1316.674c-4.613-2.943-2.817-19.053-3.095-24.259-.122-2.27-.92-4.37-1.039-6.64-.978-18.7-1.016-37.481-1.889-56.191-22.595,16.763-41.982,37.563-62.881,56.57-4.605,4.188-4.889,7.995-13.34,6.732-20.109-3.004-40.969-9.009-61.486-10.494-10.428-.755-21.617.52-32.126-.011l44.951,77.021c-2.103,9.293-9.924,11.187-16.067,16.662-10.418,9.284-20.153,21.341-29.898,31.517-4.05,4.229-24.063,22.081-23.918,25.979.052,1.396,1.892,1.116,2.89,1.017,14.628-1.462,34.644-10.68,49.11-15.215,14.169-4.442,28.914-7.763,42.977-12.683,5.328-1.864,17.078-9.24,22.297-7.964,6.58,1.608,27.055,27.398,32.849,33.454,16.117,16.847,40.974,45.495,58.857,58.436,1.223.885,2.398,2.192,4.021,1.978-.687-7.062-1.91-14.188-3.128-21.337-3.589-21.052-8.231-43.185-10.756-64.588-.476-4.034-.417-9.072-.461-13.201.715-3.49,24.241-11.909,28.763-13.632,13.075-4.981,28.006-11.056,41.049-15.761,6.888-2.484,14.401-3.848,21.301-6.333-4.264-3.972-10.316-5.675-15.5-8.285-21.873-11.016-44.776-21-67.017-31.073-2.02-.915-5.403-1.021-6.464-1.698Z" fill="#000000"/>
<path d="M1542.324,1316.674c1.061.677,4.444.783,6.464,1.698,22.241,10.073,45.145,20.057,67.017,31.073,5.184,2.611,11.236,4.313,15.5,8.285-6.899,2.485-14.413,3.848-21.301,6.333-13.043,4.705-27.974,10.779-41.049,15.761-4.523,1.723-28.048,10.141-28.763,13.632.044,4.129-.015,9.167.461,13.201,2.525,21.403,7.168,43.536,10.756,64.588,1.219,7.15,2.442,14.275,3.128,21.337-1.624.215-2.799-1.093-4.021-1.978-17.883-12.941-42.74-41.588-58.857-58.436-5.794-6.057-26.269-31.846-32.849-33.454-5.219-1.276-16.97,6.1-22.297,7.964-14.063,4.92-28.807,8.241-42.977,12.683-14.466,4.535-34.482,13.753-49.11,15.215-.998.1-2.838.379-2.89-1.017-.145-3.897,19.868-21.75,23.918-25.979,9.745-10.176,19.481-22.233,29.898-31.517,6.143-5.474,13.964-7.369,16.067-16.662l-44.951-77.021c10.509.531,21.697-.744,32.126.011,20.517,1.485,41.377,7.489,61.486,10.494,8.451,1.263,8.735-2.544,13.34-6.732,20.9-19.006,40.287-39.807,62.881-56.57.873,18.71.912,37.491,1.889,56.191.119,2.27.917,4.369,1.039,6.64.279,5.207-1.517,21.316,3.095,24.259Z" fill="#fff"/></svg>