<?xml version="1.0" encoding="UTF-8"?><svg id="a" xmlns="http://www.w3.org/2000/svg" width="196.244mm" height="284.271mm" viewBox="0 0 556.282 805.808">
<path d="M30.589,494.26c.309.137.598.282.915.416,1.684.383,3.362.633,5.033.766-1.67-.134-3.346-.383-5.029-.766-.319-.133-.609-.279-.919-.416Z" fill="none"/>
<path d="M523.48,86.547c-.723-3.862-1.698-8.601-3.074-13.49-3.691-13.111-10.288-27.314-22.8-28.674-.005,0-.009-.002-.014-.002-31.196-3.367-67.202,10.977-95.701,22.661-14.495,4.561-28.116,10.186-40.995,16.706-52.191,26.425-92.05,67.719-127.2,114.075-8.999,11.868-17.692,24.064-26.202,36.429-22.428,32.589-43.604,66.333-65.871,98.22-4.077,7.893-7.439,12.981-10.627,16.36-.016.017-.033.036-.049.053-.114.12-.227.233-.34.349-.091.093-.182.189-.273.279-.053.053-.106.102-.159.154-.149.146-.299.292-.447.43-.009.008-.017.015-.026.023-.787.733-1.568,1.369-2.35,1.924-.003.002-.007.005-.01.007-.191.136-.383.267-.575.393-.051.034-.103.065-.154.098-.143.093-.287.185-.431.273-.118.072-.236.139-.353.208-.076.044-.152.09-.228.133-4.506,2.538-9.285,2.877-15.892,4.17-4.577.896-10.034,2.254-16.885,5.115-.263.11-.524.218-.792.332-.396.22-.809.459-1.228.705-16.179,9.51-48.137,38.288-66.239,67.106-16.209,25.805-21.279,51.626,6.024,63.674.31.137.6.283.919.416,1.683.383,3.359.632,5.029.766,13.36,1.071,26.304-5.247,38.848-9.643,2.613-.916,5.209-1.748,7.788-2.413l40.997,45.967c-12.582,26.307-54.167,53.527-20.742,81.735.365.308.726.615,1.109.923,1.143.915,2.362,1.749,3.642,2.496.429.251.875.477,1.317.709.217.113.426.239.646.347.984.486,1.996.924,3.03,1.313,1.552.583,3.152,1.056,4.781,1.413,1.629.357,3.285.599,4.948.721.108.008.215.02.322.027,2.24.143,4.489.068,6.692-.239.734-.103,1.464-.231,2.186-.386,2.186-.468,4.307-1.176,6.311-2.138,10.167-4.878,24.092-31.047,31.808-41.178,2.237-2.938,6.033-4.864,6.342-8.958,19.972,11.088,41.3,19.343,63.124,26.121,1.957,1.628.658,10.569.987,13.808,2.436,23.97,22.578,52.005,49.202,39.371,7.641-3.626,16.769-13.82,25.564-26.133,13.807-19.33,26.79-43.884,31.902-56.455.209-.513.404-1.022.608-1.533,6.993-17.591,10.652-33.91,9.018-53.082-.019-.222-.029-.439-.049-.662-.458-5.021-3.984-15.134-2.319-19.32.055-.075.111-.15.166-.225,28.433-38.477,59.683-78.946,87.698-121.526,25.264-38.399,47.887-78.515,63.432-120.44,12.561-33.876,20.488-68.933,21.454-105.217.474-17.803-.711-35.897-3.87-54.297ZM46.84,487.898c-15.167,2.373-29.07-.345-30.096-16.993-.094-1.507-.085-3.124.041-4.865,12.555-42.035,58.866-99.721,106.503-105.044l-57.766,88.754c-1.78,7.436,9.846,20.982,13.381,27.608-7.873,3.839-20.344,8.708-32.062,10.54ZM135.816,610.719c-7.994,4.087-16.749,2.545-23.809-2.006-.789-.508-1.556-1.054-2.298-1.634-.922-.72-1.81-1.486-2.649-2.304-.987-.962-1.913-1.987-2.767-3.063-.569-.718-1.106-1.458-1.608-2.218-1.003-1.52-1.866-3.118-2.562-4.768-5.488-13.013.066-18.051,6.95-28.531,7.445-11.334,16.761-21.72,24.409-32.851,2.997-4.362,5.973-8.737,8.936-13.12,20.742-30.681,40.842-61.75,62.943-91.494,2.666-5.113,6.995-8.548,11.918-10.287,8.374-2.958,18.468-1.001,25.032,6.012,1.712,1.614,3.271,3.337,4.588,5.161.247.342.485.687.714,1.036.215.327.422.657.62.99,2.975,4.995,4.033,10.661,1.519,16.823-12.887,18.562-25.582,37.69-38.317,56.882-23.881,35.991-47.913,72.218-73.618,105.371ZM349.832,526.19c-.004.037-.007.074-.01.111-.008.072-.018.145-.026.217-.878,7.988-2.891,16.331-5.689,24.724-7.496,22.49-20.633,45.336-32.744,62.676-3.155,4.518-6.239,8.663-9.135,12.329-3.98,4.872-8.005,8.431-11.971,10.851-10.953,6.686-21.455,4.681-29.348-2.324-.049-.043-.1-.084-.148-.128-.07-.063-.138-.131-.208-.195-9.367-8.571-14.941-24.243-12.99-40.699,6.897,1.691,27.489,8.907,33.243,4.638l.223-.333.498-.745c.018-.027.036-.054.055-.082l.656-.982c.165-.246.342-.512.533-.797l.846-1.266c.046-.069.095-.142.142-.213l.873-1.306c.29-.434.596-.891.914-1.368l61.645-92.228s0,.002.001.003c0,0,.002-.003.002-.003,3.007,8.13,3.674,17.357,2.637,27.12ZM274.749,592.281c-32.209-5.218-65.381-15.324-93.208-32.539l71.676-106.798c2.407-5.383,2.915-10.813,1.987-15.902-.155-.848-.349-1.687-.581-2.514-.348-1.241-.781-2.457-1.291-3.641-.34-.79-.715-1.565-1.122-2.325-.611-1.14-1.294-2.244-2.042-3.307-.388-.551-.799-1.088-1.222-1.616-.663-.829-1.363-1.632-2.104-2.399-.303-.314-.613-.622-.928-.924-.631-.605-1.285-1.187-1.962-1.744-11.832-9.753-30.252-11.927-43.703,3.104-24.73,32.188-48.005,67.163-70.646,101.003-17.118-11.497-51.391-52.71-56.619-71.371.002-.001,39.283-59.391,59.583-90.083.369-.558.999-1.51,1.333-2.016.414-.625.818-1.236,1.212-1.833.033-.05.073-.11.117-.178.119-.18.232-.351.35-.529.17-.257.342-.517.508-.768.058-.088.12-.181.177-.268,1.811-2.737,3.378-5.107,4.642-7.019.025-.037.097-.147.189-.286.047-.07.092-.139.138-.208.126-.191.268-.404.404-.611.043-.065.083-.125.125-.189.065-.098.128-.194.193-.292.075-.113.129-.196.144-.218.415-.628.781-1.181,1.09-1.648.046-.07.082-.124.126-.19.121-.182.235-.355.336-.508.142-.214.289-.437.413-.625.122-.184.214-.323.27-.408.047-.071.078-.118.078-.118,69.728,13.23,130.267,56.823,179.668,105.867,3.73,3.703,28.326,28.675,27.905,31.459l-77.237,111.642ZM463.842,321.286c-10.563,18.627-31.16,47.649-51.525,75.516-21.304,29.163-42.346,57.046-51.374,70.386-2.307,3.414-3.836,5.888-4.393,7.205-20.117-22.965-42.007-44.811-65.684-64.304-1.929-1.588-3.866-3.166-5.818-4.721-2.623-2.09-5.264-4.153-7.93-6.182-.835-.636-1.67-1.271-2.509-1.901-10.028-7.52-20.358-14.594-30.994-21.136-3.147-1.936-6.325-3.817-9.526-5.658-2.84-1.633-5.704-3.223-8.586-4.778-2.975-1.604-5.973-3.165-8.993-4.683-.067-.034-.134-.069-.201-.103-2.584-1.297-5.185-2.558-7.802-3.789-19.277-9.066-39.448-16.317-60.537-21.297,41.769-57.52,77.707-121.184,123.977-174.915,0,0,.002,0,.003,0,0,0,0,0,0,0,.918.158,1.841.346,2.761.521,54.239,10.298,113.509,49.276,152.938,86.553,1.974,1.916,4.207,4.174,6.597,6.682.925.97,1.874,1.979,2.84,3.018.391.421.785.847,1.181,1.277.433.471.87.949,1.309,1.431.724.796,1.455,1.606,2.191,2.428.716.8,1.436,1.613,2.158,2.434,10.831,12.327,22.125,26.832,26.715,36.857.029.041.041.099.066.143,1.457,2.358-1.315,9.244-6.864,19.014ZM478.337,298.842l-2.036-.612c-17.905-29.06-40.967-54.523-67.386-76.098-14.291-11.67-29.566-22.2-45.537-31.548-27.183-15.91-56.386-28.393-86.209-37.215,53.985-53.038,136.544-95.047,211.579-102.127,6.408.492,10.891,1.552,14.374,4.274,2.742,2.141,4.866,5.312,6.819,10.052,23.39,72.383.424,166.192-31.604,233.273Z" fill="#000000"/>
<path d="M76.685,126.39c-4.348,8.976-9.108,17.784-12.341,27.21-.176.514-.339,1.017-.487,1.508.146-.482.308-.983.488-1.507,3.233-9.427,7.993-18.235,12.34-27.211Z" fill="none"/>
<path d="M64.388,163.94c1.414.983,3.93.988,7.955-.37l4.505-3.256c-5.632,3.246-10.209,4.935-12.461,3.627Z" fill="none"/>
<path d="M189.37,77.928c-.789,1.478-1.723,2.703-2.734,3.795,1.012-1.091,1.945-2.317,2.734-3.795Z" fill="none"/>
<path d="M144.41,79.908c-3.778-1.129-5.536-4.81-9.142-14.013,3.605,9.208,5.358,12.887,9.142,14.013Z" fill="none"/>
<path d="M120.972,128.423c-1.257.108-6.709,4.397-13.806,9.978l13.806-9.978Z" fill="none"/>
<path d="M118.834,121.227l2.87.469c-1.78-.622-2.83-.829-2.87-.469Z" fill="none"/>
<path d="M189.37,77.928c-12.999-.214-22.255.52-29.027,1.231,6.773-.709,16.03-1.442,29.027-1.231Z" fill="none"/><path d="M130.992,38.434c1.982,2.799,3.705,6.351,5.269,10.134-1.564-3.783-3.287-7.336-5.269-10.134Z" fill="none"/>
<path d="M167.775,143.226c-8.773-4.321-21.823-10.757-32.244-15.585l32.244,15.585Z" fill="none"/>
<path d="M57.206,83.836c.844,1.232,1.911,2.426,3.144,3.59-1.23-1.163-2.297-2.358-3.144-3.59Z" fill="none"/>
<path d="M82.899,112.033c-4.198-4.565-16.29-10.379-24.403-16.998,8.117,6.624,20.214,12.444,24.403,16.998Z" fill="none"/><path d="M511.746,720.027c.042,3.201-.359,6.025-1.585,7.712,1.226-1.687,1.627-4.511,1.585-7.712Z" fill="none"/>
<path d="M505.407,669.567c-.169.073-.294.134-.374.181.082-.048.208-.109.374-.181Z" fill="none"/><path d="M417.824,644.842c-2.022-4.059-6.298-10.261-10.542-16.833,4.244,6.582,8.52,12.791,10.542,16.833Z" fill="none"/>
<path d="M80.272,76.726c.812.029,1.62.057,2.419.085-.799-.027-1.607-.056-2.419-.085Z" fill="none"/>
<path d="M553.298,651.608c-5.635,3.097-18.26,7.653-29.198,11.439,10.941-3.782,23.565-8.33,29.198-11.439Z" fill="none"/>
<path d="M399.482,598.946c.511-.116,1.035-.152,1.564-.137-.529-.015-1.053.021-1.564.137Z" fill="none"/>
<path d="M460.279,684.911c10.043,9.667,19.052,21.803,29.108,31.922-10.057-10.12-19.061-22.251-29.108-31.922Z" fill="none"/>
<path d="M396.354,601.27c-.877,2.05-.421,4.999.861,8.448-1.271-3.433-1.724-6.378-.861-8.448Z" fill="none"/>
<path d="M503.349,598.334c.129-8.949.241-18.415-1.562-24.285,1.792,5.871,1.686,15.338,1.562,24.285Z" fill="none"/>
<path d="M73.448,149.204c3.785-11.84,17.281-32.453,17.333-38.695-.075,6.284-13.552,26.842-17.333,38.695Z" fill="none"/>
<path d="M127.05,45.326c-.494-1.176-1.002-2.376-1.54-3.629,0,0-.508-.289-1.035-.589.518.295,1.034.589,1.034.589.538,1.253,1.046,2.453,1.541,3.629Z" fill="none"/>
<path d="M253.606,291.186c.856-23.494,9.558-41.582,22.525-54.226-12.968,12.644-21.671,30.732-22.525,54.226Z" fill="none"/>
<path d="M253.526,293.186c.012.675.056,1.327.081,1.993-.024-.667-.069-1.321-.081-1.997,0,.001,0,.002,0,.003Z" fill="none"/>
<path d="M260.445,293.329c.01.558.048,1.096.067,1.647-.019-.552-.057-1.091-.067-1.65,0,.001,0,.002,0,.003Z" fill="none"/>
<path d="M497.606,44.383s-.006-.004-.01-.006c-31.2-3.363-67.207,10.98-95.71,22.66-14.494,4.564-28.114,10.19-40.991,16.711-52.191,26.425-92.05,67.719-127.2,114.075-8.999,11.867-17.692,24.063-26.202,36.429-22.428,32.589-43.604,66.333-65.871,98.22-4.077,7.893-7.439,12.981-10.627,16.36-.016.017-.033.036-.049.053-.114.12-.227.233-.34.349-.091.093-.182.189-.273.279-.053.053-.106.102-.159.154-.149.146-.299.292-.447.43-.009.008-.017.015-.026.023-.787.732-1.568,1.369-2.35,1.924-.003.002-.007.005-.01.007-.191.136-.383.267-.575.393-.051.034-.103.065-.154.098-.143.093-.287.185-.431.273-.118.072-.236.139-.353.208-.076.044-.152.09-.228.133-4.506,2.538-9.285,2.877-15.892,4.17-4.584.891-10.04,2.242-16.885,5.115-.263.11-.524.218-.792.332-.396.22-.809.459-1.228.705-16.253,9.526-48.173,38.294-66.239,67.106-16.209,25.805-21.279,51.626,6.024,63.674.309.137.598.282.915.416,1.684.383,3.362.633,5.033.766,13.36,1.071,26.304-5.247,38.848-9.643,2.613-.916,5.209-1.748,7.788-2.413l40.997,45.967c-12.581,26.301-54.17,53.533-20.742,81.735.365.308.726.615,1.109.923,1.143.915,2.362,1.749,3.642,2.496.429.251.875.477,1.317.709.217.113.426.239.646.347.984.486,1.996.924,3.03,1.313,1.552.583,3.152,1.056,4.781,1.413,1.629.357,3.285.599,4.948.721.108.008.215.02.322.027,2.24.143,4.489.068,6.692-.239.734-.103,1.464-.231,2.186-.386,2.186-.468,4.307-1.176,6.311-2.138,10.167-4.878,24.092-31.047,31.808-41.178,2.237-2.938,6.033-4.864,6.342-8.958,19.972,11.088,41.3,19.343,63.124,26.121,1.957,1.628.658,10.569.987,13.808,2.436,23.97,22.578,52.005,49.202,39.371,7.641-3.626,16.769-13.82,25.564-26.133,13.192-16.783,24.876-37.218,32.51-57.988,6.993-17.591,10.652-33.91,9.018-53.082-.016-.22-.028-.441-.046-.66-.461-5.023-3.987-15.136-2.315-19.318.053-.076.107-.152.159-.228,28.433-38.477,59.683-78.946,87.698-121.526,9.916-14.107,19.584-28.313,28.802-42.687,11.006-15.557,23.909-44.299,34.63-77.753,12.561-33.876,20.488-68.933,21.454-105.217,1.766-25.841.016-49.612-6.944-67.786-3.691-13.111-10.288-27.314-22.8-28.674ZM46.84,487.898c-15.167,2.373-29.07-.345-30.096-16.993-.093-1.507-.083-3.124.043-4.866,12.623-42.102,58.786-99.642,106.5-105.043l-57.766,88.754c-1.78,7.436,9.846,20.982,13.381,27.608-7.868,3.836-20.342,8.706-32.062,10.54ZM135.816,610.719c-7.994,4.087-16.749,2.545-23.809-2.006-.789-.508-1.556-1.054-2.298-1.634-.922-.72-1.81-1.486-2.649-2.304-.987-.962-1.913-1.987-2.767-3.063-.569-.718-1.106-1.458-1.608-2.218-1.003-1.52-1.866-3.118-2.562-4.768-5.488-13.013.066-18.051,6.95-28.531,7.445-11.334,16.761-21.72,24.409-32.851,2.997-4.362,5.973-8.737,8.936-13.12,20.742-30.681,40.842-61.75,62.943-91.494,2.666-5.113,6.995-8.548,11.918-10.287,8.373-2.957,18.467-.999,25.032,6.012,1.712,1.614,3.271,3.337,4.588,5.161.247.342.485.687.714,1.036.215.327.422.657.62.99,2.975,4.995,4.032,10.661,1.516,16.821-12.882,18.558-25.577,37.688-38.315,56.884-23.881,35.991-47.913,72.218-73.618,105.371ZM349.832,526.19c-.004.037-.007.074-.01.111-.008.072-.018.145-.026.217-.878,7.988-2.891,16.331-5.689,24.724-7.497,22.489-20.635,45.335-32.744,62.676-3.155,4.518-6.239,8.663-9.135,12.329-3.98,4.872-8.005,8.431-11.971,10.851-10.949,6.679-21.453,4.678-29.348-2.324-.049-.043-.1-.084-.148-.128-.07-.063-.138-.131-.208-.195-9.367-8.571-14.941-24.243-12.99-40.699,6.897,1.691,27.489,8.907,33.243,4.638l.223-.333.498-.745c.018-.027.036-.054.055-.082l.656-.982c.165-.246.342-.512.533-.797l.846-1.266c.046-.069.095-.142.142-.213l.873-1.306c.29-.434.596-.891.914-1.368l61.645-92.228s0,.002.001.003c3.008,8.13,3.675,17.355,2.639,27.116ZM274.749,592.281c-32.209-5.218-65.381-15.324-93.208-32.539l71.676-106.798c2.407-5.383,2.915-10.813,1.987-15.902-.155-.848-.349-1.687-.581-2.514-.348-1.241-.781-2.457-1.291-3.641-.34-.79-.715-1.565-1.122-2.325-.611-1.14-1.294-2.244-2.042-3.307-.388-.551-.799-1.088-1.222-1.616-.663-.829-1.363-1.632-2.104-2.399-.303-.314-.613-.622-.928-.924-.631-.605-1.285-1.187-1.962-1.744-11.832-9.753-30.252-11.927-43.703,3.104-24.73,32.188-48.005,67.163-70.646,101.003-17.118-11.497-51.391-52.71-56.619-71.371.002-.001,39.283-59.391,59.583-90.083.454-.687.899-1.359,1.333-2.016.414-.625.818-1.236,1.212-1.833.033-.05.073-.11.117-.178.119-.18.232-.351.35-.529.17-.257.342-.517.508-.768.058-.088.12-.181.177-.268,1.811-2.737,3.378-5.107,4.642-7.019.065-.099.125-.189.189-.286.047-.07.092-.139.138-.208.126-.191.268-.404.404-.611.043-.065.083-.125.125-.189.065-.098.128-.194.193-.292.048-.073.099-.149.144-.218.415-.628.781-1.181,1.09-1.648.046-.07.082-.124.126-.19.121-.182.235-.355.336-.508.164-.248.301-.455.413-.625.122-.184.214-.323.27-.408.047-.071.078-.118.078-.118,69.728,13.23,130.267,56.823,179.668,105.867,3.73,3.703,28.326,28.675,27.905,31.459l-77.237,111.642ZM463.842,321.286c-10.572,18.617-31.167,47.648-51.525,75.516-21.304,29.163-42.346,57.046-51.374,70.386-2.333,3.448-3.868,5.929-4.393,7.205-20.116-22.965-42.006-44.811-65.684-64.304-1.929-1.588-3.866-3.166-5.818-4.721-2.623-2.09-5.264-4.153-7.93-6.182-.835-.636-1.67-1.271-2.509-1.901-10.028-7.52-20.358-14.594-30.994-21.136-3.147-1.936-6.325-3.817-9.526-5.658-2.84-1.633-5.704-3.223-8.586-4.778-2.975-1.604-5.973-3.165-8.993-4.683-.067-.034-.134-.069-.201-.103-2.584-1.297-5.185-2.558-7.802-3.789-19.277-9.066-39.448-16.317-60.537-21.297,41.769-57.52,77.707-121.184,123.977-174.915,0,0,.002,0,.003,0,.918.158,1.841.346,2.762.521,54.239,10.298,113.509,49.276,152.938,86.553,1.974,1.916,4.207,4.174,6.597,6.682.925.97,1.874,1.979,2.84,3.018.391.421.785.847,1.181,1.277.433.471.87.949,1.309,1.431.724.796,1.455,1.606,2.191,2.428.716.8,1.436,1.613,2.158,2.434,10.831,12.327,22.124,26.831,26.71,36.854.031.041.044.101.072.146,1.457,2.358-1.315,9.244-6.864,19.014ZM478.337,298.842l-2.036-.612c-17.899-29.056-40.963-54.521-67.386-76.098-14.291-11.67-29.566-22.2-45.537-31.548-27.186-15.913-56.391-28.397-86.209-37.215,53.985-53.038,136.544-95.047,211.579-102.127,6.408.492,10.891,1.552,14.374,4.274,2.741,2.142,4.864,5.312,6.815,10.053,23.381,72.464.431,166.095-31.601,233.273Z" fill="none"/>
<path d="M288.826,351.108c41.884,29.968,115.444,10.702,116.604-57.782-1.17,68.49-74.723,87.746-116.604,57.782Z" fill="none"/>
<path d="M260.512,291.676c.745-21.52,8.696-38.079,20.559-49.647-11.864,11.567-19.816,28.127-20.559,49.647Z" fill="none"/>
<path d="M284.632,356.514c45.906,32.846,126.531,11.73,127.802-63.331-1.282,75.068-81.899,96.173-127.802,63.331Z" fill="none"/>
<path d="M52.504,78.151c2.328-2.34,15.584-1.857,27.768-1.425-12.184-.432-25.44-.915-27.768,1.424-2.908,4.033-2.068,7.941.746,11.656-2.811-3.712-3.649-7.619-.746-11.655Z" fill="none"/>
<!-- <path d="M0,0v805.808h556.274v-156.822c.114.631-1.003,1.537-2.976,2.621-5.633,3.109-18.257,7.657-29.198,11.439-8.928,3.09-16.733,5.668-18.693,6.52-.165.072-.292.133-.374.181,1.237,10.618,2.603,21.249,4.054,31.849.134.975.511,2.762.941,4.976.09.461.182.941.274,1.436.185.99.372,2.041.548,3.124.088.542.173,1.092.253,1.646.06.412.116.826.169,1.242.262,2.028.448,4.084.473,6.005.042,3.201-.359,6.025-1.585,7.712-.016.022-.036.039-.053.06-.149.198-.306.385-.479.548-1.346,1.273-3.445,1.48-6.6.014-2.973-1.987-5.812-4.245-8.555-6.691-.022-.02-.044-.038-.066-.058-.331-.296-.658-.599-.986-.9-.221-.203-.444-.401-.664-.606-.224-.209-.445-.424-.668-.635-.319-.303-.64-.603-.957-.91-.205-.198-.406-.402-.61-.602-.333-.327-.667-.652-.997-.984-.047-.047-.093-.095-.139-.142-10.056-10.118-19.065-22.255-29.108-31.922-2.656-2.556-5.384-4.94-8.225-7.069l-58.279,18.229c-12.906,3.307-16.13-5.62-7.65-14.548l32.903-33.175c-.026-.824-.466-2.023-1.204-3.505-2.022-4.042-6.298-10.252-10.542-16.833-4.052-6.275-8.064-12.88-10.067-18.29-1.282-3.45-1.738-6.398-.861-8.448.026-.062.039-.132.067-.193.912-1.264,1.958-1.881,3.061-2.131.511-.116,1.035-.152,1.564-.137.529.015,1.064.081,1.597.17.781.13,1.558.308,2.308.452.664.128,1.306.227,1.911.236,16.931.274,32.469,2.912,49.096,4.739l39.873-36.149c3.01-.098,4.847,2.158,5.956,5.793,1.803,5.87,1.691,15.336,1.562,24.285-.117,8.394-.25,16.33,1.152,20.406.124.359.259.688.408.986l51.365,24.329V0H0ZM52.504,78.15c2.328-2.339,15.583-1.856,27.768-1.424.812.029,1.62.057,2.419.085,1.827.063,3.61.12,5.307.161.905.022,1.786.04,2.636.051.567.008,1.12.013,1.657.014.537.002,1.059,0,1.563-.004,3.025-.03,5.418-.189,6.767-.576l18.92-43.696c4.671-1.216,8.37,1.322,11.451,5.674,1.982,2.798,3.705,6.351,5.269,10.134,3.545,8.568,6.265,18.332,9.25,23.3.205.341.411.66.619.954l50.609-2.766c9.367,5.252-.809,10.368-4.443,14.241-7.9,8.422-15.36,15.605-24.469,22.86-.603,3.277,15.386,32.439,17.132,38.783,1.663,6.043-2.081,10.709-8.195,9.249l-55.793-26.765-13.806,9.978c-9.194,7.23-21.145,16.625-30.318,21.912l-4.505,3.256c-4.026,1.358-6.542,1.353-7.955.37-1.435-.834-1.919-2.893-1.127-6.543.037-.173.076-.348.118-.525.038-.158.074-.314.117-.478.095-.371.202-.751.317-1.139.015-.05.028-.098.043-.149.148-.491.311-.994.487-1.508,3.234-9.426,7.993-18.234,12.341-27.21.621-1.282,1.234-2.568,1.832-3.859,1.596-3.444,3.093-6.928,4.382-10.497-4.189-4.554-16.286-10.374-24.403-16.998-2.075-1.693-3.89-3.438-5.246-5.229-2.814-3.715-3.654-7.623-.746-11.656ZM527.35,140.844c-.966,36.284-8.893,71.341-21.454,105.217-10.72,33.454-23.624,62.196-34.63,77.753-9.218,14.374-18.886,28.58-28.802,42.687-28.015,42.58-59.265,83.049-87.698,121.526-.053.076-.107.152-.159.228-1.671,4.182,1.854,14.295,2.315,19.318.018.219.03.441.046.66,1.634,19.172-2.025,35.492-9.018,53.082-7.634,20.77-19.318,41.206-32.51,57.988-8.795,12.313-17.923,22.507-25.564,26.133-26.625,12.634-46.766-15.401-49.202-39.371-.329-3.239.97-12.18-.987-13.808-21.825-6.778-43.152-15.033-63.124-26.121-.309,4.094-4.105,6.02-6.342,8.958-7.716,10.132-21.641,36.301-31.808,41.178-2.003.961-4.125,1.669-6.311,2.138-.722.155-1.452.283-2.186.386-2.203.308-4.452.383-6.692.239-.108-.007-.215-.019-.322-.027-1.662-.122-3.319-.364-4.948-.721-1.629-.357-3.23-.829-4.781-1.413-1.034-.389-2.047-.827-3.03-1.313-.22-.109-.429-.234-.646-.347-.442-.231-.888-.458-1.317-.709-1.28-.747-2.499-1.581-3.642-2.496-.383-.308-.744-.616-1.109-.923-33.428-28.202,8.161-55.434,20.742-81.735l-40.997-45.967c-2.579.665-5.174,1.497-7.788,2.413-12.544,4.396-25.488,10.714-38.848,9.643-1.671-.134-3.349-.383-5.033-.766-.317-.133-.606-.279-.915-.416-27.303-12.048-22.233-37.87-6.024-63.674,18.066-28.811,49.986-57.58,66.239-67.106.418-.246.831-.485,1.228-.705.267-.114.529-.222.792-.332,6.845-2.873,12.301-4.224,16.885-5.115,6.607-1.293,11.386-1.633,15.892-4.17.076-.043.152-.089.228-.133.118-.068.236-.136.353-.208.144-.088.287-.18.431-.273.051-.033.103-.064.154-.098.192-.126.383-.257.575-.393.003-.002.007-.005.01-.007.783-.555,1.563-1.192,2.35-1.924.009-.008.017-.015.026-.023.149-.139.298-.285.447-.43.053-.052.106-.101.159-.154.091-.09.182-.186.273-.279.113-.116.226-.229.34-.349.016-.017.033-.036.049-.053,3.188-3.38,6.55-8.468,10.627-16.36,22.267-31.887,43.443-65.631,65.871-98.22,8.51-12.366,17.203-24.562,26.202-36.429,35.15-46.356,75.009-87.65,127.2-114.075,12.877-6.521,26.497-12.147,40.991-16.711,28.503-11.68,64.509-26.023,95.71-22.66.003.002.006.004.01.006,12.512,1.361,19.109,15.564,22.8,28.674,6.96,18.174,8.709,41.945,6.944,67.786Z" fill="#fff"/> -->
<path d="M504.501,618.74c-1.403-4.076-1.269-12.012-1.152-20.406.125-8.947.231-18.414-1.562-24.285-1.109-3.634-2.946-5.891-5.956-5.793l-39.873,36.149c-16.627-1.827-32.165-4.465-49.096-4.739-.605-.01-1.247-.109-1.911-.236-.75-.144-1.527-.322-2.308-.452-.533-.089-1.067-.155-1.597-.17-.529-.015-1.053.022-1.564.137-1.104.25-2.149.868-3.061,2.131-.028.06-.041.131-.067.193-.863,2.07-.41,5.015.861,8.448,2.003,5.41,6.015,12.016,10.067,18.29,4.244,6.573,8.52,12.775,10.542,16.833.739,1.483,1.178,2.681,1.204,3.505l-32.903,33.175c-8.48,8.928-5.256,17.855,7.65,14.548l58.279-18.229c2.84,2.129,5.569,4.513,8.225,7.069,10.047,9.67,19.051,21.802,29.108,31.922.047.047.093.095.139.142.331.332.665.657.997.984.204.2.406.404.61.602.317.307.638.608.957.91.223.211.444.426.668.635.22.205.443.404.664.606.328.301.655.605.986.9.022.02.044.038.066.058,2.743,2.446,5.582,4.704,8.555,6.691,3.155,1.466,5.254,1.259,6.6-.014.173-.164.33-.351.479-.548.016-.022.036-.038.053-.06,1.226-1.687,1.627-4.511,1.585-7.712-.025-1.921-.21-3.977-.473-6.005-.054-.415-.11-.83-.169-1.242-.08-.555-.165-1.105-.253-1.646-.176-1.083-.363-2.134-.548-3.124-.093-.495-.185-.975-.274-1.436-.43-2.214-.808-4.001-.941-4.976-1.451-10.6-2.817-21.231-4.054-31.849.079-.047.205-.108.374-.181,1.959-.852,9.764-3.43,18.693-6.52,10.938-3.786,23.563-8.342,29.198-11.439,1.973-1.085,3.09-1.99,2.976-2.621v-4.932l-51.365-24.329c-.148-.297-.284-.627-.408-.986ZM497.567,666.739l7.41,53.261-51.017-50.134-62.393,18.567,36.473-39.047-23.651-42.806c17.671.128,35.282,3.204,52.521,6.75l38.204-34.371,3.195,46.13,48.097,22.422c-16.121,6.112-34.163,10.304-48.84,19.227Z" fill="#000000"/>
<path d="M52.504,78.151c-2.903,4.035-2.064,7.942.746,11.655,1.356,1.791,3.171,3.536,5.246,5.229,8.113,6.62,20.205,12.434,24.403,16.998-1.289,3.569-2.786,7.053-4.382,10.497-.599,1.291-1.211,2.577-1.832,3.859-4.348,8.976-9.107,17.784-12.34,27.211-.181.524-.342,1.025-.488,1.507-.015.051-.028.099-.043.149-.115.387-.222.768-.317,1.139-.042.164-.079.32-.117.478-.042.177-.081.352-.118.525-.791,3.65-.308,5.709,1.127,6.543,2.251,1.308,6.829-.381,12.461-3.627,9.173-5.287,21.124-14.682,30.318-21.912,7.096-5.581,12.549-9.87,13.806-9.978l55.793,26.765c6.114,1.46,9.858-3.206,8.195-9.249-1.746-6.343-17.735-35.506-17.132-38.783,9.109-7.256,16.568-14.438,24.469-22.86,3.633-3.873,13.809-8.989,4.443-14.241l-50.609,2.766c-.208-.294-.414-.613-.619-.954-2.985-4.968-5.705-14.732-9.25-23.3-1.565-3.782-3.288-7.335-5.269-10.134-3.081-4.352-6.78-6.89-11.451-5.674l-18.92,43.696c-1.349.388-3.742.547-6.767.576-.504.005-1.026.006-1.563.004-.537-.002-1.09-.007-1.657-.014-.85-.011-1.731-.029-2.636-.051-1.697-.041-3.481-.098-5.307-.161-.799-.027-1.607-.056-2.419-.085-12.184-.431-25.44-.915-27.768,1.425ZM104.055,83.836c2.995-.862,16.897-37.846,19.247-43.395,0,0,.324.185.499.284.19.108.432.246.674.384.528.3,1.035.589,1.035.589.538,1.253,1.046,2.453,1.54,3.629,3.717,8.837,6.247,15.533,8.218,20.568,3.605,9.203,5.363,12.884,9.142,14.013.018.005.038.009.056.015.165.048.334.093.507.131,3.13.696,7.627-.084,15.37-.895,6.772-.711,16.028-1.445,29.027-1.231-.789,1.478-1.723,2.703-2.734,3.795-.595.642-1.217,1.239-1.858,1.802-.506.445-1.021.875-1.543,1.295-.728.585-1.462,1.158-2.192,1.74-.491.391-.977.789-1.457,1.2-1.471,1.258-2.87,2.643-4.056,4.402-1.418,1.188-4.518,3.112-7.599,5.207-3.961,2.694-7.892,5.672-8.178,7.731l17.776,42.841c-.417-.119-4.241-1.999-9.754-4.715l-32.244-15.585c-5.847-2.709-10.859-4.908-13.826-5.944l-2.87-.469-46.331,33.632c-.146-1.458.223-3.397.945-5.655,3.78-11.853,17.258-32.411,17.333-38.695.001-.165.006-.333-.012-.477-5.186-7.818-21.805-14.46-30.419-22.607-1.233-1.164-2.3-2.359-3.144-3.59h46.849Z" fill="#000000"/>
<path d="M495.114,578.959l-38.204,34.371c-17.239-3.545-34.849-6.622-52.521-6.75l23.651,42.806-36.473,39.047,62.393-18.567,51.017,50.134-7.41-53.261c14.677-8.924,32.719-13.116,48.84-19.227l-48.097-22.422-3.195-46.13Z" fill="#fff"/>
<path d="M60.35,87.426c8.614,8.147,25.234,14.789,30.419,22.607.018.144.013.312.012.477-.052,6.242-13.548,26.855-17.333,38.695-.722,2.258-1.091,4.197-.945,5.655l46.331-33.632c.041-.359,1.09-.152,2.87.469,2.967,1.036,7.98,3.235,13.826,5.944,10.42,4.828,23.47,11.264,32.244,15.585,5.513,2.716,9.338,4.596,9.754,4.715l-17.776-42.841c.286-2.06,4.217-5.037,8.178-7.731,3.081-2.095,6.181-4.019,7.599-5.207,1.186-1.759,2.585-3.144,4.056-4.402.48-.41.966-.809,1.457-1.2.73-.582,1.465-1.155,2.192-1.74.521-.419,1.036-.849,1.543-1.295.641-.564,1.262-1.16,1.858-1.802,1.011-1.091,1.945-2.317,2.734-3.795-12.997-.211-22.254.522-29.027,1.231-7.743.811-12.24,1.591-15.37.895-.173-.039-.342-.083-.507-.131-.018-.005-.038-.009-.056-.015-3.784-1.126-5.537-4.805-9.142-14.013-1.971-5.035-4.501-11.731-8.218-20.568-.494-1.176-1.003-2.376-1.541-3.629,0,0-.516-.294-1.034-.589-.242-.138-.484-.276-.674-.384-.175-.099-.499-.284-.499-.284-2.35,5.549-16.251,42.533-19.247,43.395h-46.849c.847,1.233,1.914,2.427,3.144,3.59Z" fill="#fff"/>
<path d="M470.634,302.126c-4.586-10.023-15.879-24.528-26.71-36.854-.722-.822-1.442-1.634-2.158-2.434-.735-.822-1.466-1.633-2.191-2.428-.439-.482-.876-.96-1.309-1.431-.396-.431-.79-.857-1.181-1.277-.966-1.039-1.915-2.048-2.84-3.018-2.39-2.508-4.623-4.766-6.597-6.682-39.428-37.276-98.698-76.255-152.938-86.553-.921-.175-1.844-.363-2.762-.521,0,0-.002,0-.003,0-46.269,53.731-82.208,117.394-123.977,174.915,21.089,4.98,41.26,12.231,60.537,21.297,2.617,1.231,5.218,2.493,7.802,3.789.067.034.134.069.201.103,3.02,1.518,6.018,3.078,8.993,4.683,2.883,1.555,5.746,3.145,8.586,4.778,3.201,1.84,6.378,3.722,9.526,5.658,10.636,6.542,20.966,13.617,30.994,21.136.839.629,1.674,1.265,2.509,1.901,2.666,2.029,5.307,4.092,7.93,6.182,1.953,1.556,3.889,3.134,5.818,4.721,23.677,19.492,45.568,41.339,65.684,64.304.525-1.275,2.06-3.757,4.393-7.205,9.028-13.34,30.07-41.224,51.374-70.386,20.359-27.868,40.953-56.899,51.525-75.516,5.549-9.771,8.32-16.656,6.864-19.014-.028-.045-.041-.104-.072-.146ZM284.632,356.514c-.117-.084-.229-.176-.346-.261-.876-.635-1.745-1.281-2.595-1.956-.393-.312-.77-.646-1.156-.966-.562-.465-1.131-.921-1.68-1.404-.652-.573-1.282-1.175-1.914-1.773-.267-.253-.545-.492-.809-.749-12.968-12.644-21.671-30.732-22.525-54.226-.024-.666-.069-1.318-.081-1.993,0-.001,0-.002,0-.003s0-.002,0-.003c.012-.675.056-1.327.081-1.993.854-23.494,9.557-41.581,22.525-54.226.239-.233.49-.449.732-.678.658-.624,1.314-1.248,1.992-1.845.508-.447,1.035-.867,1.554-1.298.428-.356.847-.725,1.282-1.071.85-.674,1.719-1.321,2.595-1.956.117-.085.229-.177.346-.261,45.906-32.846,126.531-11.73,127.802,63.331-1.271,75.061-81.896,96.177-127.802,63.331Z" fill="#fff"/>
<path d="M324.081,449.18c-49.401-49.044-109.939-92.637-179.668-105.867,0,0-.031.047-.078.118-.056.085-.148.224-.27.408-.112.17-.25.377-.413.625-.101.153-.215.325-.336.508-.044.066-.08.12-.126.19-.309.467-.675,1.02-1.09,1.648-.045.069-.096.145-.144.218-.065.098-.128.194-.193.292-.042.064-.082.124-.125.189-.136.206-.278.42-.404.611-.046.069-.091.138-.138.208-.064.097-.123.187-.189.286-1.264,1.912-2.832,4.281-4.642,7.019-.058.087-.119.181-.177.268-.166.252-.338.511-.508.768-.117.177-.231.349-.35.529-.044.067-.084.127-.117.178-.395.597-.799,1.207-1.212,1.833-.435.657-.879,1.329-1.333,2.016-20.3,30.692-59.581,90.081-59.583,90.083,5.228,18.661,39.501,59.874,56.619,71.371,22.641-33.84,45.916-68.815,70.646-101.003,13.451-15.031,31.872-12.856,43.703-3.104.676.557,1.331,1.139,1.962,1.744.315.302.625.611.928.924.741.767,1.44,1.57,2.104,2.399.423.528.834,1.065,1.222,1.616.749,1.063,1.432,2.167,2.042,3.307.407.76.782,1.535,1.122,2.325.51,1.184.943,2.4,1.291,3.641.232.827.426,1.666.581,2.514.927,5.089.42,10.519-1.987,15.902l-71.676,106.798c27.827,17.216,60.999,27.321,93.208,32.539l77.237-111.642c.421-2.784-24.175-27.757-27.905-31.459Z" fill="#fff"/>
<path d="M503.123,55.516c-3.484-2.722-7.966-3.782-14.374-4.274-75.035,7.08-157.594,49.089-211.579,102.127,29.818,8.819,59.023,21.303,86.209,37.215,15.971,9.348,31.246,19.878,45.537,31.548,26.424,21.577,49.488,47.042,67.386,76.098l2.036.612c32.032-67.178,54.981-160.81,31.601-233.273-1.951-4.74-4.074-7.911-6.815-10.053Z" fill="#fff"/>
<path d="M247.749,448.465c2.516-6.161,1.458-11.826-1.516-16.821-.198-.333-.405-.663-.62-.99-.229-.349-.467-.694-.714-1.036-1.317-1.823-2.876-3.547-4.588-5.161-6.565-7.012-16.659-8.97-25.032-6.012-4.923,1.739-9.252,5.173-11.918,10.287-22.101,29.743-42.201,60.813-62.943,91.494-2.963,4.383-5.939,8.758-8.936,13.12-7.648,11.132-16.964,21.517-24.409,32.851-6.884,10.48-12.438,15.518-6.95,28.531.696,1.65,1.558,3.248,2.562,4.768.502.76,1.039,1.501,1.608,2.218.854,1.076,1.78,2.101,2.767,3.063.839.818,1.728,1.584,2.649,2.304.743.58,1.51,1.126,2.298,1.634,7.06,4.551,15.815,6.093,23.809,2.006,25.706-33.153,49.737-69.38,73.618-105.371,12.737-19.196,25.433-38.326,38.315-56.884Z" fill="#fff"/>
<path d="M65.521,449.749l57.766-88.754c-47.715,5.401-93.877,62.941-106.5,105.043-.127,1.742-.136,3.359-.043,4.866,1.026,16.648,14.929,19.366,30.096,16.993,11.72-1.834,24.194-6.705,32.062-10.54-3.535-6.626-15.161-20.173-13.381-27.608Z" fill="#fff"/>
<path d="M347.191,499.07l-61.645,92.228c-.319.477-.624.934-.914,1.368l-.873,1.306c-.047.071-.096.144-.142.213l-.846,1.266c-.191.285-.368.551-.533.797l-.656.982c-.019.028-.037.055-.055.082l-.498.745-.223.333c-5.755,4.27-26.347-2.947-33.243-4.638-1.95,16.456,3.624,32.127,12.99,40.699.07.064.138.132.208.195.049.044.099.085.148.128,7.896,7.002,18.399,9.003,29.348,2.324,3.966-2.42,7.991-5.978,11.971-10.851,2.896-3.667,5.981-7.812,9.135-12.329,12.109-17.341,25.247-40.187,32.744-62.676,2.798-8.393,4.811-16.735,5.689-24.724.008-.072.018-.145.026-.217.004-.037.007-.074.01-.111,1.036-9.762.369-18.987-2.639-27.116,0-.001,0-.002-.001-.003Z" fill="#fff"/>
<path d="M284.632,229.851c-.117.084-.229.176-.346.261-.876.635-1.745,1.281-2.595,1.956-.435.346-.854.715-1.282,1.071-.519.431-1.046.852-1.554,1.298-.678.596-1.335,1.221-1.992,1.845-.242.229-.493.445-.732.678-12.967,12.644-21.669,30.732-22.525,54.226-.024.666-.069,1.318-.081,1.993,0,.001,0,.002,0,.003.011.676.056,1.329.081,1.997.854,23.494,9.557,41.581,22.525,54.226.264.257.542.497.809.749.633.598,1.263,1.2,1.914,1.773.549.483,1.118.939,1.68,1.404.387.32.764.654,1.156.966.85.674,1.719,1.321,2.595,1.956.117.085.229.177.346.261,45.903,32.841,126.52,11.737,127.802-63.331-1.271-75.061-81.896-96.177-127.802-63.331ZM288.826,351.108c-.14-.1-.274-.21-.414-.312-.766-.557-1.526-1.121-2.27-1.711-.402-.319-.788-.66-1.184-.989-.469-.39-.945-.77-1.404-1.173-.65-.571-1.28-1.169-1.908-1.767-.19-.181-.388-.35-.576-.534-.75-.731-1.48-1.487-2.197-2.257-.059-.063-.121-.121-.18-.185-10.543-11.411-17.49-27.156-18.182-47.205-.019-.551-.057-1.089-.067-1.647,0-.001,0-.002,0-.003s0-.002,0-.003c.01-.558.048-1.096.067-1.647.743-21.519,8.695-38.079,20.559-49.647.188-.183.386-.353.576-.534.629-.599,1.259-1.196,1.908-1.767.413-.363.843-.704,1.264-1.056.441-.369.875-.749,1.324-1.106.724-.574,1.464-1.122,2.209-1.665.16-.116.313-.242.474-.357,41.884-29.968,115.444-10.702,116.604,57.782-1.16,68.484-74.72,87.75-116.604,57.782Z" fill="#000000"/>
<path d="M288.826,235.544c-.161.115-.314.24-.474.357-.745.543-1.486,1.091-2.209,1.665-.45.357-.883.737-1.324,1.106-.421.352-.851.693-1.264,1.056-.65.571-1.28,1.169-1.908,1.767-.19.181-.388.35-.576.534-11.863,11.567-19.814,28.127-20.559,49.647-.019.551-.057,1.089-.067,1.647,0,.001,0,.002,0,.003.01.559.047,1.098.067,1.65.692,20.048,7.639,35.794,18.182,47.205.058.063.121.122.18.185.718.771,1.448,1.526,2.197,2.257.188.183.386.353.576.534.629.599,1.259,1.196,1.908,1.767.459.404.935.783,1.404,1.173.395.329.782.67,1.184.989.743.59,1.504,1.154,2.27,1.711.139.101.273.211.414.312,41.881,29.964,115.435,10.708,116.604-57.782-1.16-68.484-74.72-87.75-116.604-57.782Z" fill="#fff"/>
</svg>