<?xml version="1.0" encoding="utf-8"?>
<!-- Generator: Adobe Illustrator 27.5.0, SVG Export Plug-In . SVG Version: 6.00 Build 0)  -->
<svg version="1.1" xmlns="http://www.w3.org/2000/svg" xmlns:xlink="http://www.w3.org/1999/xlink" x="0px" y="0px"
	 viewBox="0 0 500 500" style="enable-background:new 0 0 500 500;" xml:space="preserve">
<g id="BACKGROUND">
	<rect style="fill:#FFFFFF;" width="500" height="500"/>
</g>
<g id="OBJECTS">
	<g>
		<path style="fill:#232343;" d="M460.255,281.457c1.572-4.334,1.002-8.984-1.565-12.757c-2.514-3.694-6.526-5.885-11.009-6.01
			c-12.754-0.319-25.779,11.63-33.888,20.879c3.128-8.381,4.732-15.897,4.781-22.443c0.039-5.279-3.098-9.877-7.992-11.712
			c-4.938-1.853-10.171-0.497-13.643,3.541c-11.731,13.612-13.626,47.183-13.922,55.809c-3.396-0.715-6.716-1.569-9.932-2.519
			c-0.971-3.879-3.79-8.325-11.007-11.203c-5.6-2.233-11.152-5.432-16.503-9.51c-3.698-2.818-9.871-7.057-17.351-10.449
			c-7.903-12.549-10.638-27.699-7.685-42.73c5.201-26.447,6.103-63.836-19.133-91.771c-11.186-12.383-23.471-18.49-29.401-20.918
			c6.212-3.458,10.906-7.076,13.982-10.783c3.397-4.089,4.196-9.599,2.083-14.38c-2.119-4.795-6.744-7.922-12.07-8.163
			c-5.829-0.255-11.333,2.04-15.647,4.678c6.298-11.232,6.158-20.449,4.593-26.683c-1.094-4.345-4.072-7.872-8.172-9.677
			c-3.929-1.729-8.318-1.568-12.044,0.442c-1.131,0.613-2.209,1.38-3.205,2.282c-1.708,1.554-3.003,3.591-3.747,5.894
			c-1.939,6.05-5.418,12.268-10.338,18.479c-9.604,12.098-23.184,20.638-39.272,24.698c-48.4,12.204-66.958,58.325-69.547,65.422
			c-2.466,0.548-4.882,1.4-7.184,2.577c-20.619,10.545-34.34,24.097-43.322,38.541c-0.048,0.067-0.094,0.135-0.131,0.21
			c-7.398,11.965-11.558,24.535-13.674,36.514c-0.048,0.15-0.075,0.307-0.078,0.47c-4.001,23.208-0.41,44.129,1.924,54.019
			c0.365,1.545,1.614,2.7,3.183,2.943c1.58,0.242,3.137-0.484,3.961-1.862l0.085-0.142c2.46-4.051,6.386-6.84,11.058-7.854
			c6.388-1.387,13.544-0.739,18.423,0.051c2.989,0.482,6.071,1.282,9.335,2.42c0.001,0.001,0.003,0.001,0.004,0.001
			c1.21,0.422,2.443,0.886,3.709,1.403c11.254,4.595,23.56,5.967,31.902,6.309c1.271,0.052,2.536,0.078,3.793,0.078
			c2.212,0,4.399-0.088,6.561-0.248c-0.521,1.458-0.996,2.898-1.422,4.318c-2.861,9.538-3.579,18.192-2.132,25.798
			c0.001,0.004,0.002,0.008,0.003,0.011c0.103,0.545,0.24,1.076,0.394,1.6c0.023,0.08,0.045,0.16,0.069,0.239
			c0.162,0.521,0.349,1.03,0.559,1.527c0.021,0.05,0.043,0.1,0.065,0.15c1.418,3.266,3.854,5.961,6.99,7.701
			c0.008,0.004,0.014,0.01,0.022,0.014c0.006,0.003,0.011,0.005,0.017,0.008c0.449,0.247,0.911,0.477,1.387,0.684
			c0.044,0.019,0.089,0.036,0.134,0.055c0.225,0.095,0.448,0.193,0.678,0.279c0.141,0.053,0.284,0.089,0.425,0.138
			c0.189,0.065,0.379,0.127,0.57,0.185c0.298,0.09,0.596,0.17,0.896,0.242c0.192,0.046,0.383,0.092,0.575,0.131
			c0.309,0.063,0.618,0.112,0.927,0.156c0.186,0.027,0.371,0.056,0.557,0.076c0.323,0.034,0.645,0.052,0.968,0.066
			c0.176,0.008,0.351,0.022,0.527,0.024c0.056,0.001,0.111,0.007,0.167,0.007c0.368,0,0.735-0.02,1.101-0.046
			c0.06-0.004,0.119-0.003,0.179-0.008c0.474-0.039,0.945-0.103,1.413-0.185c0.161-0.028,0.32-0.068,0.481-0.102
			c0.311-0.065,0.62-0.134,0.927-0.217c0.072-0.02,0.146-0.03,0.219-0.051c9.473,15.477,22.694,28.35,39.345,38.322
			c-5.371,2.357-9.463,6.798-11.921,10.054c-4.405-0.179-8.727-0.315-12.853-0.402c-10.326-0.218-20.747-1.453-30.974-3.672
			c-2.98-0.645-6.917-1.502-11.255-2.465c3.712-0.68,7.006-2.048,9.838-4.136c8.402-6.197,10.568-16.878,11.111-22.694
			c0.126-1.338-0.323-2.67-1.231-3.656c-0.898-0.976-2.14-1.539-3.501-1.51c-9.029,0.133-16.314,2.051-21.729,5.695
			c-0.796-10.634-6.376-18.578-16.313-23.072c-1.625-0.736-3.496-0.742-5.135-0.015c-1.652,0.735-2.914,2.146-3.461,3.868
			c-1.807,5.683-3.711,14.203-2.524,22.523c1.122,7.864,4.724,13.845,10.728,17.869c-1.119-0.272-2.233-0.544-3.33-0.814
			c-0.028-0.007-0.056-0.013-0.084-0.018c-6.898-1.704-12.582-3.208-16.893-4.469c-4.186-1.228-8.673,1.156-10.003,5.317
			c-0.263,0.829-0.396,1.67-0.396,2.498c0,3.832,2.621,7.092,6.38,7.93c9.482,2.079,31.367,7.409,41.59,14.279
			c-4.533,1.636-13.886,5.006-23.755,8.521c-2.091,0.747-3.763,2.264-4.708,4.273c-0.942,2.004-1.044,4.254-0.289,6.329
			c1.179,3.267,4.298,5.461,7.763,5.461c1.199,0,2.41-0.271,3.499-0.785c10.08-4.736,30.699-12.872,55.585-14.168
			c0.832,0.009,11.959,0.148,29.624,1.155c0.257,2.276,1.155,4.058,2.709,5.237c1.184,0.898,2.548,1.287,3.921,1.287
			c2.283,0,4.587-1.077,6.124-2.678c0.839-0.874,1.442-1.855,1.92-2.886c21.774,1.586,43.408,3.857,64.361,6.753
			c-0.707,4.381,0.17,7.658,2.6,9.501c1.206,0.914,2.594,1.311,3.991,1.311c2.326,0,4.676-1.099,6.241-2.73
			c1.596-1.661,2.382-3.693,2.989-5.759c1.551,0.244,3.101,0.489,4.664,0.742l0.905,0.146c1.06,0.874,2.227,1.53,3.463,1.89
			c1.866,0.545,3.847,0.364,5.525-0.367c18.951,3.301,37.049,7.13,53.797,11.387c0.991,0.251,1.998,0.374,3.001,0.374
			c2.458,0,4.887-0.741,6.95-2.163c2.864-1.974,4.737-5.075,5.141-8.532l0.032-0.316c0.646-6.121-3.479-11.759-9.602-13.116
			c-10.764-2.366-32.885-6.989-60.702-11.522c-0.874-1.614-1.866-3.216-2.997-4.712c-0.006-0.008-0.012-0.015-0.018-0.023
			c13.199-2.465,26.012-6.707,38.119-12.675c41.257-20.339,57.955-52.77,61.151-59.718c22.146,5.45,38.45,5.313,48.48-0.41
			c4.616-2.627,7.365-7.551,7.175-12.848c-0.19-5.302-3.158-9.831-7.938-12.114c-5.191-2.483-11.523-3.067-16.975-2.93
			C451.265,297.655,457.748,288.393,460.255,281.457z M360.853,298.117c5.405,2.154,8.496,5.467,9.212,9.854
			c0.011,0.062,0.02,0.126,0.031,0.188c0.04,0.273,0.073,0.549,0.095,0.831c0.197,2.547-0.423,4.982-1.643,7.07
			c-0.017,0.029-0.029,0.059-0.046,0.087c-0.082,0.138-0.179,0.267-0.267,0.403c-2.136,3.297-5.802,5.634-10.119,5.981
			c-0.434,0.035-0.866,0.059-1.296,0.077c-10.162,0.418-19.341-3.815-19.436-3.859c-0.761-0.359-1.677-0.085-2.116,0.637
			c-0.439,0.722-0.265,1.657,0.405,2.172c0.251,0.193,0.492,0.386,0.736,0.579c0.165,0.131,0.335,0.261,0.497,0.392
			c0.083,0.067,0.162,0.135,0.244,0.202c1.888,1.54,3.567,3.09,5.025,4.647c3.044,3.25,5.145,6.529,6.272,9.8
			c0.338,0.98,0.491,1.984,0.482,2.978c-0.016,1.455-0.389,2.889-1.121,4.194c-0.044,0.078-0.1,0.151-0.146,0.228
			c-0.139,0.232-0.278,0.463-0.44,0.686c-0.114,0.156-0.243,0.296-0.365,0.444c-0.116,0.141-0.225,0.29-0.349,0.423
			c-0.045,0.048-0.096,0.088-0.141,0.135c-0.99,1.018-2.192,1.798-3.515,2.271c-1.031,0.366-2.138,0.552-3.281,0.533
			c-13.612-0.233-25.196-10.594-25.312-10.698c-0.621-0.563-1.563-0.573-2.193-0.026c-0.159,0.138-0.286,0.3-0.38,0.477
			c-0.091,0.171-0.149,0.357-0.176,0.546c0,0.003-0.002,0.005-0.003,0.008c-0.054,0.391,0.031,0.801,0.267,1.15
			c0.401,0.595,0.77,1.191,1.121,1.788c0.974,1.658,1.739,3.311,2.317,4.946c0.144,0.408,0.298,0.818,0.417,1.224
			c0.135,0.458,0.217,0.921,0.276,1.385c0.317,2.53-0.471,5.086-2.247,7.05c-0.27,0.298-0.555,0.576-0.853,0.833
			c-2.096,1.8-4.862,2.562-7.605,2.052c-8.966-1.668-15.734-5.345-20.837-10.142c-9.508-8.942-13.215-21.785-14.475-32.827
			c-0.011-0.095-0.016-0.191-0.026-0.286c-0.074-0.697-0.123-1.393-0.161-2.089c-0.016-0.303-0.036-0.606-0.044-0.91
			c-0.019-0.606-0.017-1.211-0.009-1.814c0.126-7.168,2.185-14.228,5.676-20.31c3.289-5.606,7.894-10.463,13.579-14.015
			c0.216-0.137,0.395-0.246,0.547-0.337c0.173-0.098,0.346-0.196,0.522-0.29c10.944-5.017,23.211-4.633,36.467,1.149
			c0.07,0.03,0.144,0.035,0.215,0.055c7.279,3.277,13.32,7.436,16.915,10.177C349.16,292.425,354.975,295.773,360.853,298.117z
			 M112.945,177.398c2.309-1.181,4.748-1.999,7.233-2.469c0.001,0,0.001,0,0.002,0c1.446-0.273,2.907-0.422,4.366-0.454
			c0.023-0.001,0.046-0.001,0.069-0.002c1.448-0.028,2.894,0.063,4.321,0.269c0.034,0.005,0.067,0.01,0.101,0.015
			c1.401,0.207,2.782,0.527,4.129,0.954c0.106,0.034,0.21,0.073,0.316,0.108c0.506,0.168,1.005,0.354,1.5,0.552
			c0.196,0.079,0.393,0.157,0.588,0.241c0.458,0.197,0.909,0.41,1.355,0.633c0.127,0.064,0.257,0.12,0.384,0.186
			c0.104,0.054,0.209,0.115,0.313,0.171c0.523,0.28,1.038,0.572,1.546,0.875c0.145,0.086,0.289,0.169,0.435,0.258
			c0.591,0.364,1.171,0.746,1.742,1.142c0.122,0.084,0.244,0.17,0.366,0.256c0.61,0.434,1.21,0.882,1.796,1.352
			c0.021,0.017,0.042,0.035,0.063,0.052c3.216,2.597,6.065,5.747,8.513,9.423c0.108,0.162,0.208,0.325,0.315,0.489
			c0.293,0.453,0.588,0.904,0.869,1.372c0.157,0.261,0.31,0.538,0.465,0.804c0.336,0.583,0.67,1.168,0.987,1.772
			c0.043,0.082,0.085,0.163,0.128,0.247c0.325,0.627,0.634,1.274,0.939,1.924c0.211,0.44,0.415,0.903,0.619,1.374
			c0.171,0.391,0.339,0.785,0.504,1.183c0.202,0.489,0.4,0.99,0.609,1.539c0.214,0.562,0.427,1.126,0.628,1.703
			c0.099,0.287,0.193,0.567,0.286,0.847c0.248,0.744,0.49,1.495,0.717,2.264c0.003,0.012,0.007,0.024,0.01,0.036
			c0.056,0.189,0.11,0.388,0.166,0.581c0.125,0.437,0.24,0.887,0.359,1.332c0.176,0.66,0.344,1.323,0.507,1.982
			c0.104,0.436,0.2,0.881,0.298,1.324c0.148,0.682,0.296,1.372,0.43,2.049l0.013,0.068c0.087,0.449,0.17,0.905,0.251,1.361
			c0.113,0.641,0.227,1.288,0.324,1.952l0.058,0.353c0.051,0.333,0.1,0.669,0.147,1.006c0.102,0.716,0.197,1.433,0.286,2.142
			c0.094,0.776,0.183,1.557,0.262,2.351c0.032,0.327,0.062,0.658,0.092,0.99c0,0.001,0,0.003,0,0.004
			c0.057,0.636,0.104,1.282,0.151,1.929l0.02,0.304c0.056,0.711,0.094,1.437,0.135,2.162c0.032,0.613,0.064,1.227,0.088,1.849
			c0.003,0.091,0.007,0.182,0.01,0.274c0.021,0.621,0.036,1.236,0.051,1.851c0.013,0.587,0.026,1.176,0.032,1.771
			c0.002,0.22,0.007,0.436,0.008,0.658c0,0.509-0.003,1.025-0.005,1.541c-0.003,0.683-0.007,1.366-0.019,2.06
			c0,0.024,0,0.047-0.001,0.071l-0.006,0.374c-0.03,1.374-0.073,2.781-0.14,4.212c-0.003,0.071-0.004,0.138-0.007,0.209
			c-0.009,0.18,0.013,0.357,0.06,0.524c0.139,0.5,0.51,0.918,1.016,1.107c0.872,0.326,20.192,7.337,41.124-0.416
			c1.578-0.584,3.164-1.243,4.753-2.004c0.255-0.122,0.507-0.216,0.753-0.285c0.738-0.206,1.434-0.185,2.059-0.019
			c0.836,0.223,1.544,0.707,2.052,1.26c0.125,0.136,0.245,0.284,0.357,0.443c0.781,1.111,1.165,2.737,0.172,4.425
			c-1.746,2.983-5.047,6.036-9.81,9.075c-22.107,11.415-55.193,8.995-68.406,7.423c-3.631-0.433-7.052-0.662-10.361-0.735
			c-4.928-14.233-12.969-27.89-25.855-38.092c-11.781-9.328-23.236-12.35-28.294-13.283
			C81.001,199.464,93.955,187.11,112.945,177.398z M70.36,215.736c3.565,0.539,15.76,3.017,28.167,12.84
			c11.988,9.492,19.61,22.171,24.388,35.483c-1.028,0.017-2.055,0.036-3.065,0.089c-9.952,0.525-18.248,2.374-25.139,4.94
			c-5.364-8.619-11.862-13.535-17.502-16.33c-8.108-4.018-15.627-4.421-19.265-4.325C60.046,237.658,63.878,226.456,70.36,215.736z
			 M59.847,303.88c-0.173-0.027-0.396-0.124-0.469-0.434c-2.241-9.496-5.675-29.455-2.029-51.674
			c2.895-0.134,10.48-0.012,18.54,4.025c6.402,3.208,11.653,8.074,15.76,14.515c-9.68,4.149-16.293,9.699-20.663,14.621
			c-7.718,8.696-10.133,17.039-10.554,18.69C60.248,303.889,59.988,303.902,59.847,303.88z M82.78,293.161
			c-3.264,0-6.285,0.299-9.039,0.896c-2.583,0.561-5.005,1.63-7.157,3.086c1.538-2.98,3.775-6.543,6.997-10.147
			c5.261-5.886,11.924-10.518,19.768-13.807c3.415,6.245,5.879,13.791,7.37,22.612c-2.514-0.765-4.944-1.341-7.324-1.725
			C89.623,293.466,86.078,293.161,82.78,293.161z M104.27,296.99c-1.593-10.437-4.421-18.603-7.87-24.989
			c7.057-2.554,14.978-4.092,23.626-4.548c1.319-0.07,2.655-0.105,4.011-0.111c3.995,12.392,5.658,25.145,6.172,36.249
			c-7.045-0.763-15.318-2.333-23.043-5.487C106.183,297.702,105.221,297.336,104.27,296.99z M137.952,304.169
			c-1.369-0.056-2.854-0.144-4.419-0.267c-0.486-11.147-2.103-23.956-6.01-36.501c2.842,0.099,5.784,0.325,8.881,0.693
			c12.979,1.545,44.722,3.865,67.522-6.428c-0.662,3.126-2.168,8.362-5.501,14.09c-3.531,6.067-8.172,11.226-13.879,15.451
			c-0.049,0.036-0.096,0.073-0.145,0.109c-0.533,0.392-1.084,0.769-1.636,1.144c-0.251,0.171-0.496,0.343-0.753,0.512
			c-0.412,0.271-0.836,0.531-1.258,0.793c-0.409,0.254-0.817,0.508-1.24,0.756c-0.345,0.203-0.698,0.398-1.05,0.595
			c-0.514,0.288-1.033,0.573-1.568,0.853c-0.322,0.169-0.65,0.333-0.977,0.497c-0.579,0.29-1.17,0.576-1.773,0.856
			c-0.324,0.15-0.65,0.299-0.979,0.445c-0.632,0.281-1.279,0.554-1.937,0.823c-0.326,0.133-0.65,0.268-0.98,0.397
			c-0.716,0.28-1.452,0.549-2.198,0.814c-0.289,0.102-0.573,0.21-0.865,0.31c-1.045,0.356-2.113,0.7-3.217,1.025
			c-0.16,0.047-0.324,0.085-0.485,0.131c-0.894,0.256-1.795,0.503-2.709,0.727c-0.227,0.056-0.46,0.101-0.688,0.154
			c-0.876,0.205-1.754,0.405-2.645,0.58c-0.174,0.034-0.35,0.061-0.524,0.095c-0.958,0.181-1.921,0.352-2.894,0.498
			c-0.127,0.019-0.256,0.034-0.384,0.053c-1.029,0.15-2.063,0.284-3.105,0.394C146.442,304.203,142.241,304.347,137.952,304.169z
			 M151.821,306.955c0.092-0.011,0.183-0.027,0.275-0.038c0.91-0.11,1.815-0.235,2.715-0.375c0.229-0.035,0.458-0.071,0.687-0.108
			c0.821-0.135,1.637-0.283,2.449-0.442c0.27-0.053,0.541-0.103,0.81-0.158c0.771-0.159,1.536-0.334,2.298-0.516
			c0.282-0.067,0.568-0.128,0.848-0.198c0.909-0.228,1.811-0.472,2.707-0.732c0.097-0.028,0.197-0.051,0.293-0.079
			c1.052-0.309,2.07-0.637,3.07-0.975c0.124-0.042,0.249-0.082,0.372-0.124c0.943-0.324,1.861-0.662,2.759-1.01
			c0.163-0.063,0.324-0.126,0.486-0.19c0.882-0.349,1.744-0.707,2.582-1.078c0.131-0.058,0.258-0.117,0.387-0.175
			c1.789-0.803,3.48-1.651,5.076-2.536c0.058-0.032,0.118-0.064,0.176-0.097c0.827-0.462,1.626-0.934,2.403-1.414
			c0.014-0.009,0.028-0.017,0.042-0.026c9.755-6.038,15.642-13.4,19.115-19.414c4.668-8.08,5.938-15.124,6.252-17.502
			c4.86-3.191,8.306-6.478,10.248-9.778c1.478-2.512,1.376-5.467-0.191-7.82c-0.224-0.336-0.478-0.66-0.761-0.969
			c-1.283-1.397-2.932-2.195-4.666-2.388c-1.347-0.151-2.743,0.055-4.066,0.689c-1.272,0.61-2.545,1.15-3.816,1.637
			c-2.788,1.068-5.559,1.859-8.265,2.419c-2.251,0.466-4.458,0.777-6.591,0.965c-1.6,0.141-3.158,0.213-4.664,0.231
			c-9.033,0.105-16.159-1.765-18.823-2.58c0.027-0.676,0.038-1.327,0.057-1.99c0.011-0.417,0.028-0.843,0.037-1.255l0.001-0.075
			c0.005-0.266,0.015-0.539,0.019-0.804c0.003-0.174,0-0.342,0.002-0.515c0.014-1.168,0.019-2.321,0.007-3.45
			c-0.003-0.257-0.012-0.507-0.016-0.762c-0.001-0.09-0.004-0.172-0.004-0.264c-0.003-0.126-0.007-0.249-0.01-0.374
			c-0.016-0.822-0.033-1.644-0.063-2.444c-0.009-0.243-0.022-0.481-0.033-0.723l-0.024-0.603c-0.014-0.26-0.029-0.517-0.044-0.775
			c-0.029-0.548-0.059-1.094-0.095-1.632c-0.023-0.344-0.051-0.681-0.077-1.022c-0.001-0.011-0.002-0.023-0.003-0.034l-0.029-0.43
			c-0.01-0.133-0.023-0.263-0.033-0.396c-0.037-0.446-0.072-0.894-0.113-1.333c-0.018-0.197-0.038-0.387-0.057-0.581
			c-0.019-0.195-0.041-0.387-0.061-0.581c-0.029-0.281-0.057-0.571-0.088-0.843c-0.007-0.086-0.017-0.171-0.028-0.256l-0.02-0.184
			c0-0.001,0-0.001,0-0.002c-0.057-0.49-0.121-0.967-0.183-1.448c-0.005-0.037-0.009-0.075-0.014-0.111
			c-0.036-0.275-0.073-0.548-0.111-0.821c-0.123-0.893-0.257-1.769-0.399-2.629c-0.037-0.224-0.073-0.45-0.111-0.673
			c-0.173-1.006-0.359-1.99-0.557-2.951c-0.015-0.072-0.028-0.147-0.043-0.219c-0.132-0.63-0.272-1.245-0.413-1.857l-0.042-0.197
			c-0.012-0.05-0.025-0.096-0.037-0.146c-0.21-0.889-0.43-1.758-0.661-2.607c-0.023-0.098-0.047-0.19-0.067-0.255
			c-0.004-0.014-0.009-0.028-0.013-0.042c-0.397-1.441-0.824-2.826-1.277-4.157c-0.02-0.057-0.039-0.113-0.059-0.17
			c-0.326-0.95-0.665-1.874-1.017-2.77c-0.005-0.013-0.01-0.026-0.015-0.039c-0.922-2.341-1.927-4.503-3.001-6.492
			c-0.009-0.018-0.018-0.037-0.027-0.055c-0.005-0.008-0.009-0.015-0.014-0.023c-0.724-1.335-1.477-2.598-2.256-3.785
			c1.513-7.823,16.071-73.761,74.6-63.661c0.124,0.015,12.505,1.653,25.814,10.925c12.259,8.54,27.861,25.521,32.58,57.935
			c0.063,0.417,6.227,41.974-4.555,66.487c-3.82,8.665-13.351,13.13-22.175,10.385c-4.245-1.316-7.282-3.569-9.025-6.697
			c-0.44-0.792-1.436-1.082-2.232-0.649c-0.796,0.431-1.099,1.422-0.678,2.224c1.052,2.005,10.033,19.965,1.573,33.067
			c-4.291,6.648-12.583,9.45-20.16,6.817c-6.382-2.232-10.374-6.759-11.859-13.425l-0.031-0.153
			c-0.01-0.049-0.022-0.098-0.036-0.145c0-0.001,0-0.001,0-0.001c-0.081-0.274-0.228-0.514-0.421-0.704
			c-0.378-0.376-0.928-0.563-1.491-0.448c-0.896,0.179-1.477,1.051-1.298,1.946l0.028,0.139c0.261,1.4,1.544,8.808,1.115,17.138
			c-0.379,7.382-2.255,17.227-9.032,22.205c-4.966,3.633-11.914,2.97-16.162-1.54c-4.373-4.653-6.542-11.472-6.449-20.265
			c0.01-0.902-0.705-1.646-1.607-1.671c-0.891-0.063-1.658,0.676-1.7,1.577c-0.011,0.239-1.264,24.104-13.613,33.839
			c-1.213,0.956-2.563,1.647-3.979,2.094c-0.126,0.04-0.249,0.087-0.376,0.122c-0.474,0.133-0.954,0.242-1.44,0.318
			c-0.004,0.001-0.008,0.002-0.012,0.003c-0.507,0.078-1.019,0.122-1.533,0.136c-0.093,0.002-0.187-0.006-0.281-0.006
			c-0.397,0.002-0.795-0.011-1.194-0.047c-0.179-0.016-0.357-0.046-0.535-0.07c-0.314-0.042-0.627-0.092-0.939-0.159
			c-0.203-0.043-0.405-0.094-0.607-0.147c-0.288-0.076-0.575-0.164-0.861-0.261c-0.207-0.07-0.413-0.141-0.617-0.222
			c-0.29-0.115-0.57-0.247-0.848-0.381c-0.201-0.097-0.404-0.185-0.602-0.293c-0.258-0.141-0.5-0.302-0.746-0.458
			c-0.385-0.245-0.753-0.507-1.106-0.788c-0.2-0.159-0.406-0.311-0.595-0.48c-0.207-0.185-0.395-0.388-0.589-0.585
			c-0.163-0.166-0.329-0.33-0.483-0.505c-0.18-0.204-0.346-0.42-0.512-0.635c-0.148-0.192-0.294-0.385-0.431-0.586
			c-0.147-0.214-0.286-0.433-0.42-0.656c-0.137-0.229-0.266-0.464-0.389-0.702c-0.11-0.211-0.219-0.422-0.317-0.64
			c-0.131-0.292-0.246-0.592-0.356-0.895c-0.066-0.181-0.14-0.358-0.199-0.543c-0.157-0.498-0.292-1.007-0.391-1.531
			C146.245,328.28,147.575,318.241,151.821,306.955z M153.467,363.257c0.398,0.018,0.756,0.153,1.023,0.443
			c0.278,0.301,0.409,0.693,0.371,1.105c-0.001,0-0.001,0.001-0.001,0.002c-0.491,5.264-2.415,14.906-9.78,20.338
			c-4.906,3.617-11.518,4.779-19.674,3.474c4.018-2.433,12.702-7.993,17.607-13.388c0.494-0.543,0.454-1.383-0.089-1.877
			c-0.544-0.494-1.384-0.452-1.876,0.09c-4.545,4.999-12.834,10.345-16.824,12.779c0.004-0.12,0.009-0.246,0.015-0.371
			c0.007-0.157,0.013-0.313,0.024-0.478c0.011-0.175,0.027-0.36,0.043-0.543c0.014-0.171,0.027-0.34,0.046-0.517
			c0.02-0.19,0.046-0.39,0.071-0.587c0.023-0.185,0.045-0.368,0.073-0.559c0.03-0.202,0.068-0.412,0.104-0.62
			c0.034-0.197,0.066-0.391,0.106-0.592c0.043-0.214,0.095-0.435,0.144-0.654c0.046-0.204,0.089-0.406,0.142-0.614
			c0.057-0.224,0.125-0.453,0.19-0.68c0.06-0.21,0.116-0.418,0.183-0.63c0.074-0.233,0.161-0.469,0.244-0.704
			c0.074-0.211,0.143-0.421,0.225-0.633c0.093-0.241,0.202-0.483,0.305-0.725c0.09-0.21,0.173-0.42,0.271-0.63
			c0.115-0.246,0.247-0.491,0.373-0.736c0.106-0.207,0.205-0.414,0.32-0.621c0.141-0.252,0.302-0.501,0.456-0.752
			c0.122-0.198,0.234-0.397,0.364-0.593c0.174-0.262,0.371-0.518,0.562-0.777c0.133-0.181,0.255-0.365,0.396-0.544
			c0.228-0.288,0.482-0.568,0.731-0.85c0.127-0.143,0.241-0.291,0.374-0.432c0.395-0.42,0.815-0.831,1.264-1.232
			C136.225,365.721,143.701,363.401,153.467,363.257z M109.94,347.425c0.261-0.821,0.863-1.494,1.652-1.846
			c0.391-0.174,0.8-0.261,1.209-0.261c0.413,0,0.824,0.089,1.215,0.267c9.578,4.332,14.448,11.933,14.485,22.6
			c-0.237,0.225-0.453,0.457-0.675,0.687c-0.109,0.112-0.224,0.222-0.329,0.335c-0.414,0.445-0.805,0.897-1.17,1.356
			c-0.074,0.093-0.139,0.188-0.211,0.281c-0.286,0.371-0.559,0.745-0.815,1.123c-0.107,0.158-0.209,0.317-0.311,0.476
			c-0.21,0.326-0.41,0.654-0.599,0.982c-0.092,0.159-0.185,0.318-0.272,0.477c-0.21,0.384-0.405,0.768-0.589,1.153
			c-0.045,0.093-0.095,0.185-0.138,0.278c-0.104,0.224-0.195,0.448-0.291,0.672c-1.485-7.933-3.87-14.504-4-14.859
			c-0.253-0.689-1.016-1.044-1.705-0.79c-0.689,0.252-1.043,1.016-0.79,1.704c0.038,0.104,3.655,10.067,4.716,20.049
			c-0.028,0.167-0.057,0.334-0.082,0.497c-0.025,0.163-0.045,0.32-0.067,0.479c-0.034,0.249-0.064,0.494-0.091,0.734
			c-0.017,0.158-0.034,0.314-0.049,0.467c-0.023,0.245-0.041,0.481-0.057,0.714c-0.009,0.124-0.02,0.252-0.027,0.372
			c-0.018,0.316-0.031,0.621-0.038,0.909C102.497,378.177,107.026,356.589,109.94,347.425z M170.33,417.861
			c-0.035,0.003-0.067,0.001-0.101,0.002c-25.473,1.317-46.567,9.638-56.875,14.481c-0.662,0.313-1.365,0.471-2.089,0.471
			c-2.075,0-3.944-1.316-4.652-3.28c-0.454-1.245-0.393-2.593,0.172-3.794c0.566-1.204,1.57-2.115,2.824-2.563
			c13.747-4.897,26.494-9.512,26.621-9.558c0.55-0.199,0.954-0.674,1.063-1.248c0.109-0.574-0.094-1.163-0.532-1.55
			c-9.013-7.931-32.305-13.927-45.382-16.794c-2.229-0.496-3.786-2.429-3.786-4.698c0-0.488,0.082-0.992,0.241-1.494
			c0.646-2.023,2.555-3.337,4.59-3.337c0.441,0,0.888,0.063,1.33,0.191c4.435,1.297,10.029,2.776,17.105,4.524
			c0.028,0.007,0.057,0.013,0.087,0.019c2.489,0.612,5.041,1.234,7.635,1.846l0.672,0.159c3.085,0.724,6.203,1.447,9.289,2.15
			c0.027,0.006,0.055,0.012,0.083,0.017c7.315,1.668,14.424,3.217,19.14,4.238c10.434,2.263,21.067,3.523,31.605,3.746
			c3.463,0.072,7.063,0.179,10.736,0.317c-0.058,0.097-0.107,0.198-0.164,0.296c-0.257,0.44-0.502,0.884-0.738,1.334
			c-0.09,0.171-0.182,0.34-0.269,0.512c-0.274,0.547-0.534,1.099-0.776,1.658c-0.028,0.063-0.061,0.125-0.088,0.188
			c-0.082,0.196-0.188,0.418-0.286,0.632c-0.054,0.116-0.099,0.221-0.156,0.342c-0.137,0.292-0.282,0.605-0.427,0.93
			c-0.089,0.199-0.173,0.406-0.258,0.612c-0.043,0.103-0.088,0.201-0.129,0.306c-0.26,0.661-0.484,1.354-0.613,2.071
			c-0.179,1.058-0.109,1.979,0.185,2.812c0.032,0.092,0.054,0.189,0.092,0.279c0.544,1.292,1.613,2.195,3.177,2.687
			c0.29,0.091,0.587,0.141,0.882,0.2c3.212,0.636,6.714-0.625,10.434-3.807c0.243-0.208,0.48-0.42,0.713-0.636
			c-0.511,1.578-0.95,3.181-1.313,4.802c-0.011,0.048-0.015,0.092-0.025,0.14c-0.116,0.522-0.207,1.031-0.279,1.53
			c-0.01,0.067-0.021,0.136-0.03,0.203c-0.009,0.071-0.024,0.145-0.032,0.215C181.725,417.975,170.444,417.862,170.33,417.861z
			 M204.682,424.926c-1.2-0.91-1.517-2.579-1.483-4.216c0.006-0.424,0.04-0.87,0.097-1.333c0.009-0.073,0.019-0.144,0.029-0.216
			c0.067-0.487,0.155-0.99,0.276-1.516c0.967-4.322,2.504-8.509,4.569-12.441c0-0.001,0-0.002,0.001-0.002
			c0-0.001,0.001-0.002,0.001-0.003c0.375-0.714,0.181-1.594-0.459-2.083c-0.16-0.122-0.336-0.206-0.519-0.262
			c-0.003-0.001-0.006-0.001-0.009-0.001c-0.156-0.047-0.316-0.077-0.477-0.077c-0.018,0-0.035,0.009-0.053,0.01
			c-0.083,0.003-0.162,0.03-0.244,0.045c-0.11,0.02-0.221,0.03-0.326,0.072c-0.094,0.038-0.174,0.107-0.261,0.163
			c-0.08,0.052-0.169,0.084-0.241,0.151c-1.154,1.07-2.191,2.233-3.194,3.359c-1.183,1.326-2.3,2.579-3.573,3.669
			c-2.776,2.375-5.252,3.422-7.367,3.137c-0.273-0.037-0.543-0.091-0.804-0.173c-0.781-0.246-1.005-0.553-1.121-0.823
			c-0.13-0.316-0.15-0.719-0.058-1.234c0-0.001,0-0.001,0.001-0.002c0.085-0.479,0.256-0.994,0.463-1.512
			c0.207-0.514,0.448-1.03,0.674-1.514c0.159-0.341,0.306-0.661,0.437-0.962c0.025-0.057,0.057-0.123,0.081-0.178
			c0.204-0.478,0.421-0.952,0.651-1.421c0.386-0.784,0.816-1.552,1.272-2.305c0.088-0.146,0.17-0.295,0.261-0.439
			c0.024-0.038,0.051-0.075,0.075-0.113c0.26-0.409,0.527-0.813,0.808-1.21c2.512-3.561,7.747-9.71,14.671-11.093l0.133-0.027
			c0.689-0.131,1.368-0.207,2.038-0.228c0.005,0,0.011,0,0.016,0c0.319-0.009,0.635-0.005,0.95,0.01
			c0.065,0.003,0.13,0.011,0.195,0.016c0.253,0.017,0.506,0.039,0.756,0.072c0.097,0.013,0.193,0.032,0.289,0.047
			c0.217,0.034,0.433,0.071,0.648,0.118c0.116,0.025,0.23,0.057,0.345,0.085c0.194,0.048,0.387,0.099,0.579,0.158
			c0.125,0.038,0.249,0.082,0.374,0.125c0.181,0.062,0.361,0.126,0.54,0.197c0.129,0.051,0.257,0.107,0.386,0.163
			c0.172,0.075,0.344,0.153,0.515,0.237c0.129,0.063,0.258,0.131,0.386,0.199c0.169,0.09,0.337,0.184,0.505,0.282
			c0.125,0.074,0.25,0.15,0.375,0.229c0.17,0.108,0.34,0.22,0.509,0.336c0.117,0.081,0.234,0.163,0.35,0.248
			c0.177,0.13,0.353,0.265,0.528,0.405c0.104,0.083,0.208,0.167,0.312,0.253c0.188,0.158,0.375,0.323,0.561,0.493
			c0.087,0.08,0.175,0.158,0.262,0.24c0.206,0.195,0.41,0.398,0.612,0.608c0.065,0.067,0.13,0.131,0.194,0.199
			c0.232,0.246,0.462,0.502,0.69,0.768c0.033,0.038,0.067,0.075,0.1,0.114c0.535,0.629,1.059,1.31,1.571,2.045
			c0.002,0.003,0.005,0.004,0.006,0.007c1.226,1.757,2.263,3.642,3.132,5.493c0.16,0.338,0.311,0.674,0.46,1.009
			c0.067,0.153,0.137,0.307,0.202,0.459c0.092,0.214,0.178,0.425,0.266,0.637c1.328,3.216,2.142,6.106,2.537,7.69
			c0.423,1.698,0.805,3.612,0.188,5.054c-0.027,0.063-0.046,0.131-0.077,0.193c-0.476,0.942-1.494,1.598-2.656,1.838
			c-0.023,0.005-0.045,0.014-0.068,0.018c-0.013,0.003-0.027,0.002-0.04,0.005c-0.704,0.128-1.456,0.106-2.173-0.102
			c-0.115-0.034-0.228-0.083-0.342-0.125c-1.726-0.632-3.286-2.162-4.318-4.273c-0.543-1.109-0.928-2.297-1.232-3.514
			c-0.216-0.865-0.391-1.748-0.555-2.628c-0.067-0.363-0.133-0.725-0.197-1.085c-0.138-0.771-0.796-1.339-1.578-1.362
			c-0.59-0.045-1.125,0.261-1.433,0.739c-0.001,0.002-0.002,0.004-0.003,0.005c-0.1,0.156-0.176,0.331-0.222,0.517
			c0,0.001-0.001,0.002-0.001,0.003c-0.161,0.666-0.312,1.277-0.458,1.865c-0.602,2.417-1.106,4.3-1.721,6.435
			c-0.14,0.48-0.272,0.968-0.405,1.458c-0.265,0.978-0.518,1.901-0.835,2.78c-0.415,1.136-0.933,2.161-1.711,2.972
			C208.907,425.372,206.292,426.147,204.682,424.926z M228.813,400.083c0.958,0.347,1.919,0.684,2.883,1.009
			c-0.828-0.075-1.658-0.15-2.48-0.222C229.086,400.609,228.951,400.346,228.813,400.083z M215.794,420.048
			c0.106-0.376,0.209-0.752,0.309-1.126c0.12-0.444,0.239-0.888,0.366-1.326c0.199-0.689,0.387-1.354,0.57-2.021
			c0.198,0.53,0.422,1.056,0.676,1.574c0.038,0.078,0.084,0.149,0.123,0.226c0.133,0.26,0.27,0.516,0.416,0.763
			c0.076,0.128,0.156,0.25,0.235,0.374c0.128,0.201,0.258,0.397,0.394,0.588c0.084,0.118,0.168,0.234,0.255,0.348
			c0.154,0.202,0.314,0.397,0.478,0.586c0.073,0.085,0.143,0.173,0.218,0.255c0.02,0.022,0.039,0.047,0.059,0.069
			C218.528,420.252,217.159,420.149,215.794,420.048z M232.119,421.381c0.008-0.008,0.015-0.019,0.023-0.027
			c0.195-0.199,0.372-0.412,0.538-0.634c0.039-0.052,0.076-0.105,0.114-0.159c0.164-0.234,0.318-0.475,0.447-0.731
			c0.151-0.298,0.275-0.601,0.378-0.908c0.092-0.274,0.159-0.55,0.216-0.828c0.006-0.028,0.016-0.056,0.022-0.085
			c0.375-1.931-0.024-3.927-0.465-5.718c-0.503-2.015-1.334-4.859-2.605-7.962c7.596,0.679,15.438,1.484,23.456,2.401
			c4.18,0.691,8.396,1.199,12.643,1.522c1.603,0.203,3.21,0.409,4.823,0.62c-0.019,0.023-0.035,0.049-0.054,0.072
			c-0.568,0.714-1.077,1.394-1.506,2.003c-0.339,0.48-0.663,0.969-0.976,1.463c-0.007,0.012-0.015,0.023-0.023,0.034
			c-0.014,0.022-0.026,0.045-0.04,0.067c-0.736,1.169-1.387,2.382-1.963,3.62c-0.164,0.35-0.332,0.7-0.483,1.054
			c-0.133,0.314-0.292,0.651-0.46,1.008c-0.562,1.198-1.198,2.557-1.451,3.987c-0.003,0.019-0.003,0.038-0.007,0.057
			c-0.042,0.245-0.069,0.486-0.084,0.722c-0.007,0.102-0.004,0.2-0.006,0.3c-0.002,0.15-0.002,0.299,0.007,0.445
			c0.007,0.113,0.019,0.224,0.032,0.334c0.016,0.129,0.037,0.256,0.062,0.381c0.022,0.108,0.044,0.216,0.072,0.322
			c0.009,0.035,0.014,0.072,0.024,0.107C254.061,423.526,243.126,422.367,232.119,421.381z M277.808,425.903
			c0.176-0.121,0.351-0.23,0.528-0.36c0.483-0.354,0.97-0.737,1.461-1.156c0.288-0.247,0.569-0.5,0.844-0.758
			c-0.05,0.154-0.088,0.312-0.137,0.466c-0.25,0.79-0.485,1.585-0.699,2.386c-0.028,0.104-0.064,0.205-0.091,0.309
			c-0.89-0.123-1.778-0.245-2.67-0.366C277.297,426.266,277.553,426.078,277.808,425.903z M295.721,429.148
			c0.111-0.388,0.216-0.764,0.322-1.141c0.078-0.278,0.161-0.56,0.237-0.837c0.214,0.581,0.455,1.155,0.732,1.722
			c0.007,0.015,0.016,0.028,0.023,0.043c0.077,0.155,0.155,0.309,0.236,0.46C296.753,429.312,296.237,429.23,295.721,429.148z
			 M309.79,414.528c26.647,4.398,47.773,8.816,58.2,11.108c4.477,0.992,7.496,5.094,7.024,9.54c0,0.003,0,0.006-0.001,0.009
			l-0.029,0.293c-0.29,2.486-1.649,4.734-3.73,6.167c-2.12,1.462-4.766,1.939-7.26,1.307c-16.032-4.075-33.292-7.762-51.349-10.968
			c0.031-0.053,0.058-0.108,0.087-0.161c0.035-0.063,0.074-0.122,0.107-0.187c0.556-1.1,0.758-2.266,0.763-3.453
			c0.007-1.251-0.211-2.525-0.507-3.774c-0.037-0.155-0.071-0.312-0.109-0.466c-0.062-0.25-0.137-0.539-0.219-0.845
			c-0.028-0.105-0.057-0.213-0.087-0.32c-0.04-0.146-0.081-0.294-0.125-0.45C311.938,420.106,311.046,417.382,309.79,414.528z
			 M305.482,413.19c0.231,0.444,0.447,0.888,0.659,1.331c0.073,0.155,0.148,0.31,0.219,0.464c0.129,0.279,0.251,0.555,0.373,0.832
			c0.918,2.093,1.629,4.093,2.151,5.762c0.027,0.086,0.054,0.172,0.079,0.256c0.074,0.239,0.145,0.474,0.211,0.697
			c0.1,0.342,0.197,0.679,0.284,0.999c0.014,0.05,0.025,0.095,0.039,0.143c0.101,0.372,0.195,0.732,0.279,1.068
			c0.455,1.819,0.876,3.887,0.107,5.399c-0.019,0.038-0.046,0.072-0.067,0.108c-0.076,0.134-0.158,0.264-0.254,0.386
			c-0.043,0.055-0.092,0.107-0.139,0.16c-0.097,0.108-0.201,0.212-0.313,0.308c-0.046,0.04-0.091,0.08-0.14,0.118
			c-0.138,0.107-0.286,0.205-0.44,0.295c-0.036,0.021-0.068,0.045-0.105,0.065c-1.041,0.566-2.395,0.744-3.641,0.38
			c-0.925-0.27-1.809-0.798-2.605-1.528c-0.164-0.149-0.322-0.314-0.478-0.48c-0.051-0.055-0.104-0.104-0.154-0.16
			c-0.146-0.164-0.284-0.342-0.422-0.52c-0.051-0.066-0.105-0.126-0.154-0.194c-0.144-0.198-0.28-0.408-0.413-0.62
			c-0.035-0.056-0.074-0.108-0.108-0.165c-0.165-0.274-0.32-0.558-0.463-0.852c-0.001-0.001-0.002-0.003-0.002-0.004
			c-0.08-0.164-0.151-0.332-0.224-0.498c-0.053-0.121-0.111-0.238-0.161-0.361c-0.009-0.022-0.016-0.045-0.025-0.067
			c-0.345-0.854-0.618-1.748-0.846-2.662c-0.022-0.088-0.042-0.179-0.063-0.268c-0.052-0.215-0.103-0.429-0.151-0.645
			c-0.06-0.274-0.117-0.551-0.173-0.83c-0.007-0.034-0.014-0.067-0.021-0.101c-0.047-0.239-0.093-0.481-0.139-0.724
			c-0.079-0.419-0.155-0.838-0.231-1.255c-0.138-0.77-0.797-1.338-1.578-1.36c-0.817-0.06-1.474,0.503-1.658,1.264
			c0,0.001,0,0.002-0.001,0.003c0,0.001-0.001,0.002-0.001,0.003c-0.037,0.154-0.072,0.294-0.108,0.443
			c-0.63,2.588-1.134,4.538-1.689,6.527c-0.143,0.51-0.289,1.022-0.443,1.549l-0.145,0.525c-0.094,0.346-0.188,0.69-0.292,1.036
			c-0.013,0.042-0.014,0.084-0.024,0.126c-0.593,2.197-1.19,4.258-2.561,5.686c-1.478,1.538-4.18,2.34-5.846,1.074
			c-2.085-1.581-1.6-5.372-1.125-7.491c0.171-0.76,0.381-1.509,0.586-2.26c0.103-0.379,0.19-0.761,0.302-1.137
			c0.268-0.904,0.571-1.798,0.888-2.685c0.057-0.16,0.103-0.324,0.162-0.484c0.781-2.12,1.699-4.189,2.751-6.192
			c0.282-0.536,0.242-1.165-0.066-1.653c-0.103-0.163-0.235-0.31-0.395-0.433c-0.04-0.03-0.087-0.04-0.129-0.067
			c-0.118-0.075-0.237-0.147-0.366-0.189c-0.087-0.028-0.177-0.03-0.266-0.043c-0.081-0.012-0.161-0.039-0.243-0.039
			c-0.01,0-0.018,0.005-0.028,0.005c-0.166,0.003-0.328,0.038-0.487,0.091c-0.029,0.01-0.06,0.008-0.089,0.02
			c-0.189,0.074-0.367,0.178-0.523,0.322c-1.184,1.098-2.246,2.291-3.273,3.445c-1.097,1.232-2.145,2.395-3.304,3.436
			c-0.118,0.106-0.231,0.217-0.352,0.32c-0.164,0.141-0.323,0.257-0.486,0.389c-1.43,1.158-2.783,1.987-4.044,2.443
			c-0.127,0.046-0.249,0.07-0.375,0.109c-0.221,0.068-0.444,0.145-0.659,0.191c-0.02,0.004-0.04,0.004-0.06,0.008
			c-0.99,0.202-1.921,0.172-2.789-0.103c-0.187-0.057-0.335-0.12-0.466-0.183c-0.438-0.217-0.604-0.456-0.69-0.656
			c-0.14-0.338-0.164-0.777-0.068-1.309c0.175-0.993,0.712-2.139,1.188-3.149c0.185-0.396,0.362-0.774,0.514-1.129
			c0.151-0.358,0.318-0.712,0.485-1.065c0.496-1.048,1.051-2.074,1.671-3.07c0.315-0.504,0.643-1.001,0.99-1.488
			c0.504-0.719,1.034-1.422,1.586-2.104c0.003-0.003,0.005-0.007,0.008-0.01c0.552-0.683,1.126-1.345,1.717-1.98
			c0.002-0.002,0.003-0.004,0.004-0.006c0.193-0.207,0.392-0.415,0.594-0.622c0.404-0.414,0.812-0.808,1.224-1.187
			c0.083-0.077,0.169-0.152,0.254-0.228c0.367-0.33,0.736-0.648,1.109-0.95c0.054-0.044,0.106-0.089,0.161-0.132
			c0.905-0.723,1.825-1.364,2.754-1.917c0.013-0.008,0.027-0.016,0.04-0.023c0.453-0.268,0.909-0.515,1.365-0.742
			c0.025-0.012,0.049-0.025,0.074-0.037c0.45-0.221,0.901-0.42,1.353-0.6c0.026-0.01,0.051-0.022,0.077-0.032
			c0.448-0.176,0.897-0.328,1.345-0.462c0.031-0.009,0.06-0.021,0.091-0.03c0.461-0.135,0.922-0.246,1.382-0.335
			c0.014-0.003,0.027-0.007,0.041-0.01c0.32-0.06,0.637-0.108,0.953-0.145c0.078-0.009,0.155-0.013,0.233-0.021
			c0.235-0.023,0.47-0.043,0.703-0.054c0.098-0.005,0.196-0.005,0.294-0.007c0.213-0.005,0.425-0.006,0.637,0.001
			c0.101,0.003,0.202,0.008,0.303,0.013c0.209,0.011,0.417,0.028,0.625,0.05c0.097,0.01,0.195,0.021,0.292,0.033
			c0.214,0.028,0.427,0.064,0.64,0.104c0.087,0.016,0.174,0.03,0.26,0.048c0.244,0.051,0.487,0.113,0.728,0.18
			c0.052,0.014,0.104,0.025,0.155,0.04c0.294,0.086,0.587,0.183,0.877,0.292c0.057,0.021,0.113,0.048,0.17,0.07
			c0.225,0.088,0.449,0.181,0.671,0.284c0.114,0.052,0.226,0.111,0.34,0.167c0.161,0.08,0.322,0.161,0.482,0.248
			c0.135,0.074,0.27,0.153,0.404,0.232c0.132,0.078,0.263,0.157,0.394,0.24c0.152,0.096,0.303,0.195,0.454,0.299
			c0.103,0.071,0.206,0.145,0.309,0.219c0.173,0.125,0.346,0.252,0.518,0.387c0.056,0.044,0.111,0.09,0.167,0.135
			c0.693,0.559,1.372,1.19,2.033,1.902c0.015,0.016,0.035,0.027,0.051,0.043c0.556,0.599,1.102,1.25,1.636,1.956
			C303.561,409.749,304.592,411.466,305.482,413.19z M422.544,306.932l-16.9,4.551c-0.882,0.237-1.404,1.146-1.167,2.028
			c0.199,0.738,0.867,1.225,1.597,1.225c0.143,0,0.287-0.019,0.432-0.058l16.925-4.557c0.628-0.139,16.823-3.678,27.115,1.248
			c3.647,1.742,5.912,5.2,6.058,9.248c0.149,4.123-1.909,7.807-5.506,9.853c-6.508,3.713-20.015,6.682-47.386-0.262
			c-0.808-0.205-1.64,0.221-1.945,0.994c-0.147,0.369-15.148,37.13-60.124,59.302c-12.419,6.123-25.592,10.413-39.168,12.759
			c-0.034-0.034-0.07-0.065-0.104-0.099c-0.172-0.169-0.345-0.333-0.52-0.494c-0.151-0.14-0.303-0.276-0.456-0.41
			c-0.148-0.129-0.295-0.257-0.444-0.381c-0.184-0.152-0.371-0.298-0.557-0.441c-0.131-0.101-0.262-0.206-0.394-0.303
			c-0.248-0.181-0.5-0.352-0.752-0.519c-0.185-0.122-0.371-0.237-0.558-0.351c-0.198-0.121-0.396-0.242-0.597-0.354
			c-0.178-0.099-0.358-0.189-0.538-0.281c-0.15-0.076-0.299-0.153-0.449-0.224c-0.197-0.093-0.395-0.18-0.594-0.265
			c-0.132-0.056-0.265-0.11-0.398-0.163c-0.213-0.084-0.426-0.165-0.641-0.239c-0.113-0.039-0.227-0.073-0.341-0.11
			c-0.234-0.075-0.468-0.149-0.704-0.212c-0.038-0.01-0.076-0.017-0.115-0.027c-0.537-0.139-1.08-0.246-1.628-0.325
			c-0.081-0.012-0.161-0.027-0.242-0.038c-0.217-0.028-0.436-0.045-0.654-0.063c-0.151-0.013-0.301-0.026-0.452-0.035
			c-0.196-0.01-0.394-0.016-0.591-0.019c-0.184-0.003-0.368-0.003-0.553,0.001c-0.175,0.004-0.35,0.008-0.526,0.017
			c-0.231,0.012-0.463,0.032-0.696,0.055c-0.136,0.013-0.272,0.023-0.408,0.039c-0.377,0.046-0.755,0.101-1.135,0.173
			c-0.056,0.011-0.111,0.029-0.167,0.04c-0.488,0.097-0.969,0.21-1.441,0.344c-0.032,0.009-0.063,0.021-0.094,0.03
			c-0.512,0.148-1.014,0.316-1.507,0.501c-0.039,0.015-0.079,0.033-0.118,0.048c-0.492,0.189-0.974,0.395-1.446,0.617
			c-0.068,0.032-0.135,0.067-0.203,0.1c-0.447,0.216-0.885,0.444-1.314,0.685c-0.099,0.056-0.198,0.113-0.298,0.171
			c-0.403,0.235-0.798,0.478-1.184,0.732c-0.118,0.077-0.237,0.152-0.355,0.232c-0.417,0.283-0.824,0.575-1.22,0.876
			c-0.151,0.114-0.3,0.231-0.45,0.349c-0.348,0.275-0.69,0.554-1.021,0.839c-0.206,0.177-0.41,0.36-0.614,0.544
			c-0.249,0.225-0.491,0.451-0.729,0.678c-0.127,0.121-0.257,0.232-0.383,0.356c-2.581-0.056-5.15-0.189-7.71-0.383
			c-4.195-0.53-8.348-1.03-12.456-1.5c-9.81-1.628-19.413-4.284-28.714-7.965c-0.016-0.023-0.034-0.043-0.05-0.066
			c-0.122-0.168-0.238-0.339-0.363-0.504c-0.141-0.187-0.286-0.36-0.429-0.54c-0.047-0.059-0.094-0.118-0.141-0.177
			c-0.26-0.323-0.524-0.634-0.79-0.936c-0.054-0.062-0.109-0.124-0.163-0.185c-0.259-0.288-0.522-0.566-0.787-0.834
			c-0.065-0.066-0.13-0.133-0.196-0.198c-0.256-0.254-0.515-0.496-0.777-0.732c-0.077-0.07-0.154-0.14-0.232-0.208
			c-0.252-0.221-0.507-0.431-0.764-0.635c-0.089-0.071-0.177-0.143-0.267-0.211c-0.25-0.192-0.503-0.373-0.757-0.548
			c-0.098-0.068-0.195-0.137-0.293-0.202c-0.252-0.167-0.506-0.323-0.762-0.475c-0.102-0.06-0.203-0.123-0.305-0.181
			c-0.259-0.146-0.52-0.282-0.783-0.412c-0.1-0.05-0.2-0.102-0.3-0.15c-0.273-0.129-0.548-0.245-0.825-0.357
			c-0.092-0.037-0.183-0.077-0.275-0.112c-0.293-0.112-0.59-0.211-0.887-0.305c-0.076-0.024-0.152-0.051-0.229-0.074
			c-0.321-0.095-0.645-0.176-0.97-0.249c-0.055-0.012-0.109-0.027-0.164-0.039c-0.354-0.075-0.711-0.136-1.07-0.185
			c-0.028-0.004-0.055-0.009-0.083-0.013c-1.549-0.202-3.142-0.161-4.768,0.129c-0.025,0.004-0.05,0.006-0.075,0.011
			c-17.242-9.798-30.852-22.671-40.511-38.272c0.797-0.431,1.565-0.932,2.294-1.507c7.511-5.921,11.25-16.116,13.099-24.2
			c1.219,4.093,3.16,7.565,5.813,10.389c5.39,5.723,14.214,6.56,20.528,1.941c9.822-7.215,10.893-22.422,10.345-32.664
			c2.415,2.956,5.652,5.176,9.633,6.567c9.026,3.14,18.908-0.213,24.029-8.146c6.163-9.546,4.192-21.147,1.746-28.693
			c1.44,0.852,3.059,1.558,4.855,2.114c10.423,3.243,21.685-2.004,26.184-12.211c0,0,0.001,0,0.001-0.001
			c11.172-25.4,5.063-66.579,4.8-68.308c-4.901-33.667-21.251-51.352-34.103-60.26c-13.966-9.68-26.626-11.33-27.079-11.384
			c-26.518-4.576-48.472,5.435-63.484,28.953c-8.548,13.391-12.644,27.783-14.201,34.389c-2.174-2.728-4.48-4.989-6.819-6.867
			c-0.021-0.017-0.041-0.034-0.062-0.05c-0.666-0.532-1.333-1.034-2.002-1.506c-0.101-0.072-0.204-0.141-0.305-0.212
			c-0.653-0.452-1.305-0.883-1.956-1.281c-0.128-0.079-0.259-0.152-0.388-0.23c-0.586-0.35-1.17-0.681-1.751-0.991
			c-0.106-0.057-0.206-0.121-0.312-0.177c-0.228-0.119-0.465-0.218-0.697-0.331c-0.347-0.17-0.694-0.342-1.046-0.497
			c-0.23-0.101-0.464-0.191-0.697-0.286c-0.402-0.165-0.805-0.325-1.212-0.471c-0.196-0.07-0.394-0.136-0.592-0.202
			c-0.474-0.159-0.951-0.306-1.431-0.441c-0.143-0.04-0.287-0.081-0.431-0.119c-0.598-0.158-1.199-0.298-1.804-0.418
			c-0.035-0.007-0.07-0.015-0.105-0.022c-2.053-0.399-4.141-0.578-6.229-0.541c-0.07,0.001-0.14,0.004-0.21,0.006
			c-0.614,0.015-1.227,0.049-1.84,0.102c-0.055,0.005-0.109,0.004-0.164,0.009c4.162-10.496,22.695-50.554,66.591-61.622
			c16.799-4.239,30.996-13.178,41.056-25.851c5.169-6.526,8.835-13.095,10.895-19.522c0.565-1.752,1.541-3.294,2.82-4.457
			c0.798-0.722,1.659-1.335,2.556-1.822c2.82-1.522,6.149-1.639,9.137-0.325c3.158,1.391,5.453,4.108,6.296,7.455
			c1.789,7.125,1.457,18.63-10.283,32.974c-0.563,0.688-0.482,1.697,0.184,2.286c0.662,0.59,1.676,0.548,2.291-0.094
			c1.096-1.143,11.039-11.153,21.923-10.662c4.124,0.187,7.56,2.502,9.191,6.194c1.627,3.68,1.028,7.765-1.602,10.929
			c-3.31,3.988-8.771,7.923-16.233,11.696c-0.605,0.305-0.961,0.948-0.901,1.622c0.06,0.674,0.523,1.245,1.172,1.439
			c0.169,0.051,17.082,5.28,31.582,21.398c19.161,21.3,25.466,52.004,18.232,88.794c-2.823,14.368-0.721,28.852,5.906,41.312
			c-9.272-3.383-19.971-4.965-30.303-1.183c-13.507,4.943-23.371,18.005-25.923,32.845c-0.092,0.528-0.174,1.058-0.247,1.59
			c-0.007,0.053-0.012,0.107-0.019,0.16c-0.071,0.53-0.131,1.062-0.183,1.595c-0.008,0.079-0.013,0.159-0.02,0.238
			c-0.046,0.506-0.084,1.014-0.112,1.523c-0.005,0.093-0.009,0.187-0.014,0.28c-0.025,0.499-0.041,0.998-0.049,1.499
			c-0.001,0.095-0.003,0.189-0.004,0.284c-0.005,0.514,0,1.028,0.013,1.543c0.002,0.074,0.003,0.148,0.005,0.222
			c0.037,1.195,0.118,2.392,0.254,3.591c0.109,0.954,0.24,1.923,0.385,2.9c0.008,0.055,0.016,0.11,0.024,0.164
			c0.124,0.818,0.261,1.641,0.413,2.47c0.055,0.305,0.114,0.604,0.172,0.904c0.078,0.399,0.16,0.798,0.245,1.199
			c1.918,9.124,5.173,16.168,9.191,21.589c0.046,0.062,0.09,0.125,0.136,0.187c0.267,0.356,0.538,0.702,0.812,1.044
			c0.177,0.224,0.354,0.447,0.536,0.668c0.158,0.189,0.317,0.373,0.477,0.558c0.308,0.36,0.622,0.717,0.944,1.069
			c0.023,0.025,0.046,0.048,0.069,0.073c4.55,4.933,10.529,8.981,18.35,11.454c0.218,0.07,0.436,0.139,0.654,0.205
			c0.335,0.101,0.67,0.201,1.012,0.296c0.63,0.177,1.256,0.34,1.879,0.489c0.14,0.033,0.282,0.065,0.423,0.097
			c0.764,0.177,1.524,0.34,2.273,0.479c0.483,0.09,0.965,0.14,1.446,0.173c0.127,0.009,0.253,0.013,0.379,0.017
			c0.157,0.006,0.315,0.022,0.471,0.022c0.195,0,0.387-0.021,0.581-0.031c0.161-0.008,0.322-0.012,0.482-0.025
			c0.393-0.034,0.781-0.09,1.167-0.161c0.09-0.017,0.182-0.025,0.271-0.043c0.476-0.099,0.945-0.227,1.406-0.381
			c0.108-0.036,0.211-0.083,0.317-0.122c0.348-0.127,0.691-0.266,1.027-0.425c0.148-0.07,0.292-0.147,0.437-0.223
			c0.29-0.152,0.575-0.314,0.855-0.489c0.146-0.092,0.292-0.184,0.435-0.282c0.281-0.193,0.552-0.401,0.818-0.617
			c0.12-0.098,0.244-0.19,0.361-0.292c0.371-0.325,0.731-0.669,1.068-1.042c0,0,0,0,0.001-0.001
			c0.002-0.002,0.004-0.004,0.006-0.006c2.355-2.609,3.429-5.985,3.093-9.353c-0.074-0.746-0.193-1.493-0.409-2.23
			c-0.147-0.502-0.318-1.005-0.499-1.509c-0.093-0.259-0.183-0.518-0.285-0.778c5.035,3.196,12.787,6.968,21.496,7.122
			c0.072,0.001,0.143,0.002,0.215,0.002c4.015,0,7.801-1.922,10.162-5.17c0.001-0.002,0.002-0.004,0.004-0.006
			c0.001-0.002,0.003-0.003,0.004-0.005c1.665-2.292,2.441-4.971,2.315-7.676c-0.052-1.149-0.25-2.301-0.639-3.433
			c-1.354-3.926-3.901-7.814-7.602-11.62c3.253,0.817,7.26,1.482,11.541,1.462c0.947-0.004,1.903-0.03,2.872-0.108
			c0.233-0.019,0.459-0.062,0.689-0.09c0.308-0.037,0.618-0.066,0.92-0.12c0.247-0.044,0.485-0.109,0.727-0.163
			c0.282-0.063,0.567-0.118,0.843-0.195c0.241-0.067,0.474-0.153,0.71-0.231c0.267-0.087,0.536-0.168,0.796-0.268
			c0.231-0.089,0.453-0.194,0.679-0.292c0.253-0.11,0.509-0.216,0.755-0.338c0.22-0.109,0.431-0.232,0.645-0.35
			c0.239-0.132,0.479-0.26,0.71-0.403c0.207-0.128,0.404-0.267,0.604-0.403c0.225-0.153,0.45-0.304,0.666-0.467
			c0.191-0.144,0.373-0.298,0.558-0.45c0.21-0.173,0.419-0.345,0.619-0.528c0.175-0.159,0.34-0.326,0.507-0.491
			c0.194-0.192,0.386-0.385,0.57-0.587c0.156-0.171,0.304-0.348,0.453-0.526c0.177-0.212,0.351-0.425,0.517-0.645
			c0.137-0.181,0.266-0.367,0.395-0.554c0.159-0.231,0.314-0.464,0.461-0.703c0.116-0.189,0.226-0.38,0.334-0.573
			c0.14-0.25,0.274-0.503,0.4-0.761c0.095-0.194,0.185-0.389,0.272-0.587c0.118-0.269,0.228-0.541,0.331-0.817
			c0.073-0.197,0.144-0.394,0.21-0.594c0.094-0.288,0.178-0.579,0.256-0.872c0.052-0.197,0.103-0.394,0.147-0.594
			c0.068-0.306,0.123-0.616,0.172-0.927c0.031-0.195,0.062-0.39,0.085-0.587c0.038-0.324,0.061-0.652,0.078-0.981
			c0.01-0.191,0.023-0.38,0.026-0.572c0.002-0.107,0.015-0.212,0.014-0.319c3.487,0.985,7.098,1.845,10.763,2.562
			c0.481,0.093,0.979-0.031,1.36-0.34c0.38-0.309,0.604-0.771,0.611-1.261c0.006-0.411,0.727-41.246,13.173-55.687
			c3.041-3.536,7.148-3.662,9.973-2.603c2.849,1.068,5.881,3.887,5.846,8.589c-0.064,8.538-3.151,19.392-8.924,31.456l-7.863,14.048
			c-0.446,0.798-0.162,1.806,0.635,2.252c0.256,0.144,0.533,0.212,0.807,0.212c0.58,0,1.143-0.306,1.445-0.847l6.9-12.327
			c0.095-0.085,0.185-0.179,0.26-0.288c0.841-1.22,20.628-29.614,38.596-29.614c0.155,0,0.313,0.002,0.468,0.007
			c3.407,0.094,6.456,1.758,8.365,4.563c1.962,2.884,2.395,6.443,1.189,9.769C454.364,288.019,446.104,298.873,422.544,306.932z"/>
		<path style="fill:#ffffff;" d="M226.859,221.88c2.624,0,4.987-0.259,7.212-0.79c4.13-0.987,7.727-2.716,10.777-5.157
			c-0.004,0.103-0.022,0.204-0.022,0.308c0,6.791,7.737,12.109,17.613,12.109c9.876,0,17.612-5.319,17.612-12.109
			c0-6.79-7.736-12.109-17.612-12.109c-3.753,0-7.193,0.771-10.021,2.096c2.881-5.954,3.835-13.001,2.641-19.982
			c-4.291-25.093-14.74-36.493-22.751-41.637c-7.912-5.083-17.729-5.871-26.257-2.111c-9.785,4.314-20.766,16.176-17.51,48.196
			c1.52,14.954,12.744,27.344,27.294,30.13c4.337,0.831,8.181,1.033,10.641,1.056C226.604,221.879,226.732,221.88,226.859,221.88z
			 M276.743,216.24c0,4.77-6.551,8.801-14.304,8.801c-7.754,0-14.304-4.03-14.304-8.801c0-4.771,6.55-8.801,14.304-8.801
			C270.192,207.439,276.743,211.47,276.743,216.24z M191.833,190.357c-3.054-30.042,6.772-40.962,15.553-44.833
			c3.079-1.357,6.411-2.026,9.749-2.026c4.682,0,9.374,1.316,13.386,3.893c7.45,4.785,17.189,15.506,21.277,39.411
			c1.13,6.609,0.164,13.273-2.72,18.762c-3.402,6.478-8.71,10.618-15.775,12.307c-2.067,0.494-4.292,0.724-6.795,0.699
			c-2.324-0.022-5.955-0.213-10.05-0.997C203.332,215.059,193.207,203.868,191.833,190.357z"/>
		<path style="fill:#232343;" d="M239.706,181.413c-2.306-16.027-14.199-27.569-26.549-25.784
			c-10.756,1.552-18.323,12.69-18.567,26.135l14.837,4.443l-13.264,7.089c3.922,13.115,14.454,21.926,25.359,20.353
			C233.882,211.873,242.023,197.44,239.706,181.413z"/>
		<path style="fill:#232343;" d="M210.671,133.564c0.53-0.225,13.154-5.394,27.092,4.388c0.289,0.203,0.621,0.3,0.949,0.3
			c0.521,0,1.034-0.246,1.356-0.704c0.525-0.748,0.344-1.78-0.404-2.305c-15.498-10.875-29.699-4.977-30.295-4.721
			c-0.838,0.36-1.225,1.33-0.867,2.168C208.859,133.529,209.829,133.92,210.671,133.564z"/>
		<path style="fill:#232343;" d="M200.75,355.523c-0.626-0.654-1.821-0.677-2.442,0c-0.644,0.702-0.668,1.745,0,2.443
			c2.213,2.313,4.364,4.683,6.452,7.108c0.592,0.687,1.844,0.652,2.442,0c0.672-0.732,0.631-1.71,0-2.443
			C205.114,360.205,202.962,357.835,200.75,355.523z"/>
		<path style="fill:#232343;" d="M234.521,355.876c0.45-0.852,0.197-1.846-0.62-2.363c-1.389-0.88-2.749-1.806-4.074-2.781
			c-0.321-0.236-0.64-0.475-0.957-0.717c-0.06-0.046-0.12-0.092-0.18-0.138c-0.016-0.012-0.023-0.018-0.062-0.049
			c-0.157-0.123-0.314-0.246-0.47-0.37c-0.664-0.527-1.317-1.066-1.961-1.616c-0.687-0.586-1.777-0.724-2.442,0
			c-0.592,0.645-0.734,1.816,0,2.443c2.651,2.263,5.459,4.345,8.404,6.211C232.923,356.98,234.096,356.681,234.521,355.876z"/>
		<path style="fill:#232343;" d="M239.617,328.916c-0.648-0.631-1.806-0.694-2.443,0c-0.626,0.682-0.692,1.769,0,2.443
			c2.159,2.102,4.318,4.204,6.477,6.307c0.648,0.631,1.806,0.694,2.443,0c0.626-0.682,0.692-1.769,0-2.442
			C243.935,333.121,241.776,331.018,239.617,328.916z"/>
		<path style="fill:#232343;" d="M228.146,379.717c-0.336-0.251-0.946-0.28-1.331-0.174c-0.4,0.11-0.835,0.42-1.032,0.794
			c-0.212,0.401-0.318,0.886-0.174,1.331c0.147,0.454,0.413,0.749,0.794,1.032c0.293,0.219,0.586,0.439,0.877,0.661
			c0.125,0.096,0.25,0.192,0.376,0.288c0.065,0.051,0.13,0.101,0.196,0.152c0.577,0.45,1.149,0.907,1.716,1.37
			c1.117,0.912,2.214,1.849,3.292,2.808c0.675,0.6,1.786,0.715,2.442,0c0.603-0.656,0.721-1.801,0-2.443
			C233.004,383.491,230.612,381.556,228.146,379.717z"/>
		<path style="fill:#232343;" d="M256.138,372.846c-2.257-0.953-4.388-2.181-6.344-3.657c-0.334-0.252-0.948-0.28-1.331-0.174
			c-0.401,0.11-0.835,0.42-1.032,0.794c-0.212,0.401-0.318,0.886-0.174,1.331c0.147,0.456,0.414,0.746,0.794,1.032
			c1.956,1.476,4.086,2.704,6.344,3.657c0.447,0.189,0.841,0.309,1.331,0.174c0.401-0.11,0.835-0.42,1.032-0.794
			c0.212-0.401,0.318-0.887,0.174-1.331C256.803,373.483,256.54,373.016,256.138,372.846z"/>
		<path style="fill:#232343;" d="M274.319,365.327c-1.879-1.115-3.829-2.105-5.837-2.966c-0.444-0.19-0.843-0.308-1.331-0.174
			c-0.401,0.11-0.835,0.42-1.032,0.794c-0.212,0.401-0.318,0.886-0.174,1.331c0.129,0.397,0.392,0.86,0.794,1.032
			c2.008,0.861,3.958,1.852,5.837,2.966c0.778,0.461,1.929,0.201,2.363-0.62C275.378,366.858,275.149,365.819,274.319,365.327z"/>
		<path style="fill:#232343;" d="M270.987,389.717c-1.83-0.318-3.681-0.521-5.537-0.58c-0.904-0.028-1.768,0.815-1.727,1.727
			c0.043,0.96,0.759,1.697,1.727,1.727c1.176,0.037,2.349,0.135,3.516,0.285c0.368,0.053,0.736,0.107,1.103,0.171
			c0.469,0.081,0.906,0.074,1.331-0.174c0.358-0.21,0.7-0.621,0.794-1.032c0.101-0.442,0.079-0.938-0.174-1.331
			C271.789,390.153,271.423,389.792,270.987,389.717z"/>
		<path style="fill:#232343;" d="M299.988,382.267c-2.8-0.466-5.629-0.716-8.468-0.698c-0.903,0.006-1.769,0.791-1.727,1.727
			c0.042,0.931,0.759,1.733,1.727,1.727c1.315-0.008,2.629,0.035,3.94,0.138c0.629,0.049,1.257,0.111,1.884,0.185
			c0.111,0.013,0.221,0.027,0.332,0.041c0.026,0.004,0.25,0.033,0.304,0.041c0.364,0.052,0.728,0.11,1.091,0.17
			c0.888,0.148,1.903-0.232,2.125-1.206C301.384,383.558,300.941,382.426,299.988,382.267z"/>
		<path style="fill:#232343;" d="M325.977,286.777c-1.578,1.073-3.684,1.371-5.497,0.77c-0.602-0.196-1.259,0.055-1.571,0.604
			c-0.314,0.55-0.195,1.244,0.282,1.659c2.281,1.985,4.349,3.972,4.581,6.441c0.205,2.202-1.329,4.587-3.65,5.67
			c-2.105,0.984-4.824,1.045-7.659,0.17c-2.67-0.824-5.16-2.335-7.567-3.796c-0.551-0.333-1.259-0.225-1.685,0.256
			c-0.426,0.481-0.446,1.198-0.048,1.703c0.99,1.256,2.015,2.554,2.634,3.973c0.365,0.836,0.893,2.465,0.324,3.986
			c-0.888,2.381-4.074,3.242-6.521,2.673c-2.871-0.668-5.355-2.8-7.548-4.681c-0.47-0.403-1.157-0.429-1.657-0.06
			c-0.498,0.37-0.674,1.035-0.424,1.603c1.45,3.29,1.822,7.037,1.047,10.55c-0.249,1.126-0.76,2.56-1.779,3.004
			c-1.462,0.635-3.332-0.928-3.869-1.422c-2.344-2.161-3.996-5.069-4.651-8.188c-0.149-0.718-0.844-1.179-1.573-1.026
			c-0.718,0.15-1.178,0.855-1.026,1.573c0.767,3.655,2.703,7.063,5.45,9.596c1.623,1.494,3.343,2.274,4.927,2.274
			c0.627,0,1.233-0.122,1.804-0.371c1.643-0.714,2.757-2.352,3.313-4.866c0.574-2.6,0.604-5.311,0.112-7.922
			c1.569,1.105,3.322,2.069,5.274,2.523c3.614,0.839,8.201-0.55,9.612-4.332c0.652-1.75,0.532-3.837-0.339-5.885
			c1.091,0.534,2.222,1.007,3.407,1.373c3.461,1.069,6.86,0.962,9.566-0.301c3.357-1.567,5.483-4.99,5.171-8.326
			c-0.205-2.183-1.309-3.983-2.751-5.585c1.36-0.188,2.679-0.677,3.808-1.445c0.606-0.413,0.763-1.239,0.35-1.846
			C327.409,286.521,326.584,286.363,325.977,286.777z"/>
		<path style="fill:#232343;" d="M382.18,229.224c0.236,0.12,0.493,0.18,0.751,0.18c0.258,0,0.515-0.06,0.751-0.18
			c20.611-10.496,31.451-21.851,32.219-33.747c0.314-4.869-1.544-9.64-5.1-13.088c-3.499-3.394-8.232-5.082-12.983-4.628
			c-7.423,0.707-12.55,6.059-14.887,9.083c-2.336-3.023-7.463-8.376-14.886-9.083c-4.763-0.452-9.485,1.235-12.984,4.629
			c-3.556,3.449-5.414,8.219-5.1,13.088C350.73,207.374,361.57,218.728,382.18,229.224z M357.364,184.764
			c2.504-2.429,5.788-3.768,9.16-3.768c0.401,0,0.804,0.019,1.206,0.057c8.503,0.81,13.725,9.436,13.775,9.52
			c0.297,0.504,0.838,0.812,1.423,0.813c0.001,0,0.002,0,0.003,0c0.583,0,1.124-0.309,1.423-0.81
			c0.052-0.087,5.274-8.712,13.776-9.522c3.792-0.359,7.564,0.992,10.366,3.71c2.858,2.772,4.352,6.6,4.101,10.5
			c-0.467,7.245-6.015,18.41-29.667,30.627c-23.65-12.217-29.199-23.381-29.667-30.627
			C353.012,191.363,354.506,187.536,357.364,184.764z"/>
		<path style="fill:#232343;" d="M81.394,330.21c-2.502-2.428-5.889-3.628-9.292-3.312c-4.861,0.463-8.326,3.72-10.13,5.897
			c-1.804-2.178-5.27-5.435-10.13-5.897c-3.399-0.316-6.79,0.884-9.292,3.312c-2.541,2.465-3.869,5.875-3.644,9.357
			c0.538,8.333,8.046,16.243,22.315,23.51c0.236,0.12,0.494,0.18,0.751,0.18c0.257,0,0.515-0.06,0.751-0.18
			c14.269-7.267,21.777-15.177,22.315-23.51C85.263,336.085,83.935,332.675,81.394,330.21z M81.736,339.354
			c-0.31,4.796-4.011,12.196-19.764,20.388c-15.753-8.191-19.455-15.592-19.765-20.388c-0.162-2.514,0.802-4.982,2.646-6.77
			c1.614-1.566,3.729-2.429,5.899-2.429c0.258,0,0.516,0.012,0.775,0.037c5.541,0.527,8.987,6.2,9.019,6.254
			c0.298,0.505,0.839,0.813,1.425,0.813c0.585,0,1.127-0.309,1.425-0.813c0.034-0.057,3.44-5.724,9.018-6.254
			c2.438-0.238,4.869,0.64,6.674,2.392C80.934,334.373,81.898,336.841,81.736,339.354z"/>
		<path style="fill:#232343;" d="M417.04,378.721L417.04,378.721c-4.344,0.414-7.468,3.261-9.15,5.249
			c-1.682-1.988-4.806-4.835-9.149-5.249c-3.121-0.292-6.233,0.811-8.531,3.04c-2.331,2.262-3.55,5.393-3.344,8.589
			c0.49,7.598,7.312,14.798,20.273,21.399c0.236,0.12,0.493,0.18,0.751,0.18c0.258,0,0.515-0.06,0.751-0.18
			c12.963-6.602,19.784-13.802,20.274-21.399c0.206-3.196-1.013-6.327-3.344-8.589C423.273,379.532,420.161,378.428,417.04,378.721z
			 M425.612,390.137c-0.276,4.291-3.599,10.915-17.723,18.276c-14.123-7.361-17.445-13.985-17.722-18.276
			c-0.145-2.227,0.711-4.415,2.346-6.001c1.431-1.389,3.305-2.153,5.227-2.153c0.229,0,0.457,0.011,0.686,0.033
			c4.93,0.469,8.01,5.535,8.038,5.582c0.297,0.503,0.838,0.811,1.422,0.812c0.001,0,0.003,0,0.004,0
			c0.582,0,1.123-0.308,1.422-0.808c0.03-0.051,3.111-5.117,8.04-5.586c2.169-0.213,4.315,0.568,5.914,2.12
			C424.901,385.722,425.757,387.909,425.612,390.137z"/>
	</g>
</g>
</svg>
