<?xml version="1.0" encoding="UTF-8"?><svg id="a" xmlns="http://www.w3.org/2000/svg" width="800.523mm" height="590.55mm" viewBox="0 0 2269.2 1674">
<path d="M2269.2,0v1674H0V0h2269.2ZM2268.24.96H1.92v1672.08h2266.32V.96Z" fill="#fff"/>
<path d="M2268.24.96v1672.08H1.92V.96h2266.32ZM968.898,369.177c-132.052-118.593-383.253-88.676-467.045,73.625-80.399,155.729,9.498,338.747,151.116,420.146l24.74,14.848-.659,2.464c-72.01,54.552-126.314,137.219-129.948,229.78-2.281,58.107,17.355,127.669,47.636,177.053,97.178,158.484,309.95,143.891,435.246,28.411,14.138-13.031,26.935-27.649,38.861-42.71,7.66,8.498,16.374,16.915,26.502,22.435,35.606,19.405,76.002,8.879,101.165-21.475,27.925,34.486,61.209,64.234,99.818,86.382,138.083,79.212,316.465,54.259,388.974-97.714,60.805-127.441,39.509-256.881-61.592-354.427-10.151-9.794-23.507-18.739-33.095-28.349-.787-.789-1.379-.835-1.027-2.324,3.373-.968,7.877-3.203,10.893-4.956,64.699-37.583,123.107-90.587,158.574-157.226,90.901-170.796,14.761-368.342-178.843-408.688-147.979-30.838-271.713,16.265-347.871,146.916-11.04,18.939-20.639,38.777-28.643,59.195-1.484,1.107-5.24-12.866-5.72-13.943-3.177-7.124-8.748-12.198-14.305-17.444,4.963-26.244,14.037-56.48,29.803-78.348,6.259-8.682,4.565-5.549,13.332-7.785,8.967-2.288,15.346-9.039,16.164-18.41,1.823-20.89-23.878-31.55-37.196-15.099-6.356,7.852-2.202,12.903-4.192,19.804-.514,1.782-11.073,14.961-13.243,18.433-13.411,21.464-23.299,47.205-25.908,72.486-17.461-2.469-35.099-2.215-52.693-1.07-4.138-27.726-14.836-53.635-30.041-76.982-1.691-2.597-9.843-12.193-10.218-13.818-.323-1.397.954-4.878.821-7.445-.586-11.351-12.252-21.211-23.303-19.487-23.104,3.604-24.965,35.583-1.733,41.587,2.476.64,6.03-.112,7.736.903.62.369,7.471,10.138,8.46,11.697,9.023,14.226,16.624,33.593,21.243,49.788,1.284,4.503,4.803,15.325,4.816,19.284.011,3.378-6.866,7.432-9.584,10.389-6.272,6.824-9.566,14.163-11.269,23.289l-2.132,1.212c-21.18-54.306-52.162-103.38-95.642-142.429Z" fill="#fff"/>
<path d="M1174.359,1276.061c-32.912,27.374-73.243,16.44-97.77-15.825-27.873-36.665-37.434-97.255-38.978-142.437-3.916-114.595,31.14-241.246,79.005-344.377,5.083-10.953,10.41-22.043,16.545-32.39,45.797,84.003,80.518,178.763,93.46,274.152,10.288,75.829,12.28,207.197-52.261,260.877Z" fill="#fff"/>
<path d="M1027.091,641.188c22.674,8.247,46.418,6.521,65.285-9.107,34.887-28.896,26.105-84.986-15.208-102.389,1.214-15.614,4.452-32.123,19.629-40.049,15.002-7.834,58.513-7.615,73.68.005,13.358,6.712,19.881,22.839,21.497,37.101.159,1.398.644,2.739-.235,4.065-59.141,30.099-35.924,119.587,31.688,115.21,6.733-.436,13.01-3.041,19.637-3.879-.144,7.237-.71,15.014-2.386,22.088-4.5,18.988-25.177,38.251-42.924,45.385-30.785,12.375-97.059,12.383-127.687-.54-16.916-7.137-42.975-30.286-42.975-50.133v-17.757Z" fill="#fff"/>
<path d="M1252.33,552.258c42.882,44.135-23.111,110.348-67.237,66.754-44.787-44.246,24.069-111.183,67.237-66.754ZM1216.945,569.472c-32.305,4.313-30.063,58.919,6.404,57.331,36.87-1.605,34.911-62.847-6.404-57.331Z" fill="#fff"/>
<path d="M1022.685,621.596c-47.16-38.899,12.49-112.323,60.533-72.527,48.041,39.795-12.098,112.477-60.533,72.527ZM1046.056,573.292c-34.469,4.942-30.209,61.846,8.287,57.23,34.948-4.191,30.014-62.722-8.287-57.23Z" fill="#fff"/>
<path d="M1210.427,718.942l-9.589,66.711-2.4,62.861-53.275-117.094c22.371.532,44.781-3.587,65.264-12.478Z" fill="#fff"/>
<path d="M1121.158,731.42l-47.986,108.455c.037-39.972-4.881-79.66-11.519-119.013,19.275,6.235,38.98,11.567,59.505,10.559Z" fill="#fff"/>
<path d="M1230.32,384.623c-.544.426-6.55,2.903-7.142,2.974-2.414.289-3.577-1.297-6.948-.246-4.442,1.384-17.056,23.069-19.737,28.249-9.567,18.483-15.923,39.169-20.105,59.561l-6.128-.17c3.026-34.255,19.475-65.726,40.419-92.291.99-3.353-2.939-6.858-.094-13.48,6.686-15.563,30.594-4.248,23.29,10.812-.133.274-3.326,4.414-3.555,4.593Z" fill="#fff"/>
<path d="M1095.25,475.134c-4.867-22.68-12.27-47.517-24.17-67.505-2.338-3.927-11.138-17.034-14.248-19.341-4.11-3.048-10.517,1.352-16.828-5.257-12.184-12.758,9.847-31.123,20.157-15.358,4.768,7.291-.741,11.339,1.22,15.996,16.009,19.635,28.985,42.459,35.73,67.04,1.177,4.291,5.293,19.329,3.416,22.514l-5.277,1.911Z" fill="#fff"/>
<path d="M1216.945,569.472c41.315-5.516,43.274,55.726,6.404,57.331-36.467,1.588-38.709-53.018-6.404-57.331Z" fill="#000000"/>
<path d="M1046.056,573.292c38.301-5.492,43.235,53.039,8.287,57.23-38.495,4.616-42.756-52.287-8.287-57.23Z" fill="#000000"/>
<path d="M968.898,369.177c43.48,39.049,74.462,88.123,95.642,142.429l2.132-1.212c1.703-9.126,4.998-16.465,11.269-23.289,2.718-2.957,9.595-7.011,9.584-10.389-.013-3.959-3.532-14.782-4.816-19.284-4.619-16.194-12.22-35.562-21.243-49.788-.989-1.559-7.84-11.328-8.46-11.697-1.706-1.014-5.26-.263-7.736-.903-23.232-6.003-21.37-37.982,1.733-41.587,11.05-1.724,22.717,8.136,23.303,19.487.133,2.567-1.144,6.049-.821,7.445.376,1.625,8.527,11.22,10.218,13.818,15.204,23.347,25.903,49.256,30.041,76.982,17.594-1.146,35.232-1.399,52.693,1.07,2.609-25.281,12.497-51.021,25.908-72.486,2.17-3.472,12.729-16.651,13.243-18.433,1.99-6.901-2.164-11.953,4.192-19.804,13.318-16.452,39.019-5.791,37.196,15.099-.818,9.371-7.197,16.123-16.164,18.41-8.767,2.237-7.073-.897-13.332,7.785-15.766,21.868-24.84,52.104-29.803,78.348,5.557,5.245,11.128,10.32,14.305,17.444.48,1.077,4.236,15.05,5.72,13.943,8.004-20.417,17.603-40.255,28.643-59.195,76.158-130.651,199.892-177.754,347.871-146.916,193.605,40.346,269.744,237.892,178.843,408.688-35.467,66.64-93.875,119.643-158.574,157.226-3.016,1.752-7.52,3.987-10.893,4.956-.352,1.489.24,1.535,1.027,2.324,9.587,9.61,22.943,18.554,33.095,28.349,101.101,97.546,122.398,226.986,61.592,354.427-72.509,151.972-250.892,176.925-388.974,97.714-38.609-22.148-71.893-51.895-99.818-86.382-25.164,30.355-65.56,40.881-101.165,21.475-10.128-5.52-18.843-13.937-26.502-22.435-11.926,15.061-24.723,29.679-38.861,42.71-125.296,115.481-338.068,130.073-435.246-28.411-30.281-49.384-49.917-118.946-47.636-177.053,3.634-92.561,57.938-175.228,129.948-229.78l.659-2.464-24.74-14.848c-141.618-81.4-231.515-264.417-151.116-420.146,83.792-162.301,334.993-192.219,467.045-73.625ZM951.829,371.86c-70.53-57.786-155.067-69.703-243.602-54.803-235.589,39.648-288.507,294.041-137.423,461.284,111.285,123.187,297.315,164.555,457.687,161.325,5.089-.102,10.204.118,15.292.098l15.803-55.446c.266-3.974-6.631-1.279-8.938-1.204-146.558,4.779-327.888-27.697-432.138-138.597-127.638-135.78-90.964-345.2,108.726-372.937,72.847-10.118,141.985.349,197.651,50.734,37.26,33.725,60.275,78.843,81.102,123.847,12.796-13.16,29.912-22.45,48.935-21.123-20.94-56.755-55.93-114.535-103.095-153.179ZM1691.911,371.86c-102.68-81.107-276.175-82.349-377.044,2.543-46.663,39.271-78.292,93.428-101.532,149.209.137,2.327,9.703,1.208,11.96,1.449,10.714,1.144,20.916,5.377,29.61,11.665l10.708,9.429c28.85-63.823,64.972-126.098,130.68-157.289,55.037-26.125,121.371-25.133,179.686-10.985,152.541,37.007,190.743,199.57,110.385,324.082-93.923,145.531-302.99,186.471-464.933,181.151-3.434-.113-6.804-1.834-10.373-.849l-1.444,2.052,16.121,54.964,26.413.385c176.914.805,385.618-53.852,484.124-212.755,70.655-113.976,65.64-268.162-44.361-355.052ZM1095.25,475.134l5.277-1.911c1.877-3.186-2.239-18.223-3.416-22.514-6.745-24.581-19.721-47.405-35.73-67.04-1.961-4.657,3.549-8.705-1.22-15.996-10.311-15.764-32.341,2.6-20.157,15.358,6.311,6.608,12.718,2.209,16.828,5.257,3.11,2.306,11.91,15.414,14.248,19.341,11.901,19.989,19.304,44.825,24.17,67.505ZM1230.32,384.623c.229-.179,3.422-4.32,3.555-4.593,7.304-15.06-16.605-26.375-23.29-10.812-2.845,6.622,1.084,10.127.094,13.48-20.944,26.565-37.393,58.036-40.419,92.291l6.128.17c4.181-20.392,10.537-41.078,20.105-59.561,2.681-5.179,15.295-26.865,19.737-28.249,3.371-1.05,4.534.535,6.948.246.592-.071,6.598-2.548,7.142-2.974ZM912.504,429.428c-94.306-81.879-285.307-58.779-338.654,61.373-56.575,127.422,35.87,253.325,144.808,312.43,91.673,49.738,224.383,71.899,328.157,66.451,4.002-.21,7.832-1.479,11.911-1.051,1.612-1.549,1.226-39.173,1.041-44.628-.821-24.265-3.308-49.682-6.873-73.756-1.071-7.232-5.504-36.071-8.519-40.434-3.702-5.354-13.043-11.915-17.683-17.832-12.757-16.269-16.043-38.718-12.229-58.761-19.822-18.338-28.042-45.818-17.326-71.45-19.761-47.495-45.062-97.985-84.633-132.342ZM1651.582,429.462c-58.051-48.812-168.177-60.754-237.636-33.503-71.546,28.07-108.297,94.51-138.45,161.025-2.395,5.779,1.734,10.97,2.846,16.777,2.795,14.606-.5,32.132-8.564,44.703-2.503,3.902-13.515,13.999-14.029,15.719-1.186,3.965.859,9.014.833,13.26-.092,15.033-4.608,31.023-13.535,43.157-4.055,5.512-14.587,13.856-16.589,18.927-2.258,5.717-4.208,19.509-5.378,26.297-3.498,20.285-4.85,40.978-7.759,61.352l-.974,71.505c83.799,3.298,170.954-3.77,251.274-28.545,97.009-29.924,194.516-90.673,233.946-188.402,30.97-76.761,19.162-167.493-45.985-222.272ZM1027.091,641.188v17.757c0,19.847,26.059,42.996,42.975,50.133,30.628,12.923,96.903,12.916,127.687.54,17.747-7.134,38.424-26.397,42.924-45.385,1.677-7.074,2.242-14.852,2.386-22.088-6.627.838-12.904,3.443-19.637,3.879-67.612,4.377-90.829-85.111-31.688-115.21.88-1.326.394-2.667.235-4.065-1.617-14.262-8.139-30.389-21.497-37.101-15.166-7.62-58.678-7.84-73.68-.005-15.177,7.926-18.416,24.435-19.629,40.049,41.313,17.403,50.095,73.493,15.208,102.389-18.867,15.628-42.611,17.354-65.285,9.107ZM1022.685,621.596c48.434,39.951,108.574-32.732,60.533-72.527-48.043-39.796-107.692,33.627-60.533,72.527ZM1252.33,552.258c-43.168-44.429-112.023,22.508-67.237,66.754,44.126,43.594,110.119-22.619,67.237-66.754ZM1210.427,718.942c-20.483,8.891-42.894,13.01-65.264,12.478l53.275,117.094,2.4-62.861,9.589-66.711ZM1121.158,731.42c-20.525,1.008-40.23-4.324-59.505-10.559,6.637,39.354,11.556,79.041,11.519,119.013l47.986-108.455ZM1174.359,1276.061c64.541-53.679,62.549-185.047,52.261-260.877-12.941-95.388-47.663-190.149-93.46-274.152-6.135,10.346-11.462,21.437-16.545,32.39-47.864,103.13-82.921,229.782-79.005,344.377,1.544,45.182,11.105,105.772,38.978,142.437,24.527,32.264,64.858,43.198,97.77,15.825ZM737.2,906.097l-44.657-20.046-2.719.978c-57.51,44.372-106.527,105.324-122.853,177.61-21.724,96.187,18.761,222.563,99.47,281.3,118.412,86.176,292.065,38.466,380.751-68.169,2.191-2.635,12.477-14.87,12.467-16.989l-17.222-37.914c-30.71,35.756-66.321,65.527-108.763,86.559-64.145,31.787-121.353,38.167-188.78,10.851-70.528-28.572-121.944-86.683-126.71-165.093-5.62-92.466,29.066-167.988,95.483-229.919,7.184-6.699,15.36-13.765,23.533-19.168ZM1613.253,917.005c-11.563-11.252-24.406-21.845-37.638-31.059l-41.679,18.724c43.048,34.361,80.74,77.3,101.235,129.117,22.043,55.731,27.427,136.53.243,191.224-32.825,66.042-113.242,109.192-185.497,113.028-57.564,3.055-131.672-33.488-175.184-69.569-17.6-14.594-32.598-31.664-47.969-48.484-5.531,14.669-12.027,28.979-20.999,41.921,43.23,58.554,110.089,103.008,181.087,120.015,120.413,28.843,233.148-14.843,287.073-127.999,58.29-122.316,35.474-243.358-60.673-336.919ZM1575.595,963.3c-17.16-19.958-36.525-37.51-57.661-53.194l-53.11,17.601c56.611,41.444,105.73,101.151,116.015,172.889,9.648,67.296-7.223,116.216-69.305,147.399-48.647,24.435-85.546,22.878-134.306.533-60.652-27.795-110.009-80.81-130.33-144.68l-1.918,26.381c-2.39,18.503-4.13,37.148-7.93,55.421-.899,4.322-5.422,15.517-4.031,18.937,41.481,55.652,106.738,100.801,175.143,115.715,90.051,19.633,206.876-42.458,227.222-135.636,17.351-79.464-7.764-160.859-59.787-221.365ZM805.35,927.233c-5.281-1.349-11.364-2.563-16.52-4.119-9.859-2.976-22.925-8.838-32.371-10.82-5.663-1.188-8.596,2.012-12.998,5.354-80.153,60.862-129.478,163.552-107.747,265.121,20.112,94.002,136.432,157.488,227.43,137.717,67.334-14.63,130.432-58.169,172.582-111.741l.877-3.513c-7.012-26.004-10.611-52.907-12.382-79.803-.319-4.84,1.621-12.561-1.919-15.827-20.985,64.417-73.44,115.465-135.153,141.782-36.456,15.546-61.889,18.698-100.236,6.72-48.903-15.276-94.326-52.315-97.697-106.758-4.891-78.991,26.995-143.856,83.956-196.308,9.286-8.551,22.26-16.677,30.565-25.108.83-.842,2.105-.811,1.612-2.697ZM1466.321,945.868c-3.758-2.875-17.582-13.829-21.159-13.865-51.747,12.071-104.357,18.276-157.498,20.141-2.272.08-4.37.976-6.64,1.039l-51.399-.043c1.737,15.66,6.059,31.081,8.507,46.693,2.18,13.906,2.647,29.288,5.179,42.815,17.964,95.991,74.942,178.942,172.541,205.652,59.66,16.327,144.434-27.101,152.612-92.156,10.631-84.572-37.591-160.891-102.143-210.276ZM1040.534,953.14c-30.895-.034-61.831.307-92.625-1.926-30.152-2.186-60.063-7.051-89.511-12.237-8.404-1.48-25.282-6.088-32.415-6.069-1.952.005-2.959.316-4.66,1.172-4.807,2.421-14.576,10.568-19.302,14.29-62.958,49.592-112.329,128.623-98.175,212.342,9.328,55.174,87.032,99.552,139.202,90.726,57.692-9.761,120.054-58.172,149.3-107.949,30.331-51.625,32.931-103.421,43.151-160.342,1.79-9.972,3.834-19.948,5.035-30.007Z" fill="#000000"/>
<path d="M1466.321,945.868c64.552,49.385,112.775,125.704,102.143,210.276-8.178,65.054-92.952,108.483-152.612,92.156-97.599-26.709-154.577-109.661-172.541-205.652-2.532-13.527-2.998-28.909-5.179-42.815-2.448-15.612-6.77-31.033-8.507-46.693l51.399.043c2.27-.063,4.368-.959,6.64-1.039,53.141-1.865,105.75-8.07,157.498-20.141,3.577.036,17.401,10.991,21.159,13.865ZM1469.253,1044.695c-46.437-30.698-109.596-1.332-111.996,54.787-3.074,71.875,89.419,102.371,130.019,43.627,21.252-30.749,13.364-77.665-18.022-98.414Z" fill="#fff"/>
<path d="M1040.534,953.14c-1.201,10.059-3.245,20.035-5.035,30.007-10.22,56.921-12.82,108.717-43.151,160.342-29.246,49.777-91.608,98.188-149.3,107.949-52.17,8.826-129.874-35.552-139.202-90.726-14.154-83.719,35.217-162.75,98.175-212.342,4.725-3.722,14.494-11.869,19.302-14.29,1.701-.857,2.707-1.167,4.66-1.172,7.133-.02,24.011,4.589,32.415,6.069,29.449,5.186,59.359,10.051,89.511,12.237,30.795,2.233,61.731,1.891,92.625,1.926ZM893.122,1052.563c-53.617-50.765-137.719.338-118.014,70.486,13.097,46.623,70.443,66.269,109.856,37.842,35.143-25.347,39.701-78.463,8.158-108.329Z" fill="#fff"/>
<path d="M737.2,906.097c-8.173,5.403-16.349,12.469-23.533,19.168-66.417,61.931-101.103,137.453-95.483,229.919,4.766,78.41,56.182,136.521,126.71,165.093,67.427,27.316,124.636,20.935,188.78-10.851,42.442-21.032,78.053-50.803,108.763-86.559l17.222,37.914c.01,2.119-10.275,14.354-12.467,16.989-88.685,106.634-262.338,154.345-380.751,68.169-80.71-58.737-121.194-185.113-99.47-281.3,16.326-72.286,65.343-133.238,122.853-177.61l2.719-.978,44.657,20.046Z" fill="#fff"/>
<path d="M1613.253,917.005c96.147,93.561,118.963,214.603,60.673,336.919-53.925,113.155-166.66,156.842-287.073,127.999-70.998-17.007-137.857-61.461-181.087-120.015,8.972-12.942,15.469-27.252,20.999-41.921,15.37,16.82,30.368,33.889,47.969,48.484,43.512,36.081,117.62,72.625,175.184,69.569,72.255-3.835,152.672-46.986,185.497-113.028,27.185-54.694,21.8-135.493-.243-191.224-20.495-51.817-58.187-94.756-101.235-129.117l41.679-18.724c13.232,9.214,26.075,19.807,37.638,31.059Z" fill="#fff"/>
<path d="M1575.595,963.3c52.023,60.506,77.138,141.902,59.787,221.365-20.346,93.178-137.171,155.269-227.222,135.636-68.405-14.914-133.662-60.063-175.143-115.715-1.391-3.421,3.133-14.615,4.031-18.937,3.8-18.273,5.54-36.917,7.93-55.421l1.918-26.381c20.321,63.87,69.678,116.886,130.33,144.68,48.76,22.345,85.659,23.902,134.306-.533,62.083-31.183,78.953-80.103,69.305-147.399-10.285-71.738-59.404-131.445-116.015-172.889l53.11-17.601c21.135,15.685,40.501,33.236,57.661,53.194Z" fill="#fff"/>
<path d="M805.35,927.233c.493,1.885-.783,1.854-1.612,2.697-8.305,8.431-21.279,16.557-30.565,25.108-56.961,52.452-88.847,117.317-83.956,196.308,3.371,54.442,48.794,91.482,97.697,106.758,38.346,11.978,63.78,8.826,100.236-6.72,61.713-26.316,114.169-77.365,135.153-141.782,3.54,3.266,1.601,10.987,1.919,15.827,1.771,26.896,5.37,53.8,12.382,79.803l-.877,3.513c-42.151,53.572-105.248,97.111-172.582,111.741-90.997,19.771-207.318-43.715-227.43-137.717-21.731-101.569,27.594-204.259,107.747-265.121,4.402-3.343,7.335-6.543,12.998-5.354,9.446,1.982,22.512,7.845,32.371,10.82,5.156,1.556,11.239,2.77,16.52,4.119Z" fill="#fff"/>
<path d="M1469.253,1044.695c31.387,20.749,39.274,67.665,18.022,98.414-40.6,58.744-133.092,28.248-130.019-43.627,2.4-56.119,65.56-85.485,111.996-54.787ZM1418.522,1046.522c-22.14,2.812-42.278,23.053-46.565,44.624-10.036,50.502,45.133,88.124,88.351,59.552,50.184-33.178,21.689-112.237-41.786-104.176Z" fill="#000000"/>
<path d="M893.122,1052.563c31.544,29.866,26.986,82.981-8.158,108.329-39.414,28.427-96.76,8.781-109.856-37.842-19.705-70.148,64.397-121.251,118.014-70.486ZM885.397,1141.637c53.443-58.504-38.434-134.543-86.74-74.729-45.928,56.87,36.677,129.533,86.74,74.729Z" />
<path d="M1418.522,1046.522c63.475-8.061,91.97,70.998,41.786,104.176-43.218,28.573-98.386-9.049-88.351-59.552,4.286-21.571,24.425-41.812,46.565-44.624Z" fill="#fff"/>
<path d="M885.397,1141.637c-50.063,54.804-132.668-17.859-86.74-74.729,48.306-59.814,140.183,16.225,86.74,74.729Z" fill="#fff"/>
<path d="M1691.911,371.86c110.001,86.89,115.016,241.076,44.361,355.052-98.506,158.903-307.21,213.559-484.124,212.755l-26.413-.385-16.121-54.964,1.444-2.052c3.569-.985,6.939.736,10.373.849,161.943,5.32,371.01-35.62,464.933-181.151,80.358-124.512,42.156-287.074-110.385-324.082-58.314-14.147-124.648-15.14-179.686,10.985-65.708,31.19-101.83,93.465-130.68,157.289l-10.708-9.429c-8.694-6.288-18.896-10.521-29.61-11.665-2.258-.241-11.823.879-11.96-1.449,23.241-55.781,54.87-109.937,101.532-149.209,100.869-84.892,274.364-83.65,377.044-2.543Z" fill="#fff"/>
<path d="M1651.582,429.462c65.147,54.779,76.956,145.511,45.985,222.272-39.43,97.729-136.937,158.478-233.946,188.402-80.32,24.775-167.475,31.843-251.274,28.545l.974-71.505c2.909-20.373,4.261-41.067,7.759-61.352,1.17-6.788,3.121-20.58,5.378-26.297,2.002-5.07,12.534-13.414,16.589-18.927,8.927-12.134,13.443-28.124,13.535-43.157.026-4.247-2.019-9.296-.833-13.26.514-1.72,11.526-11.817,14.029-15.719,8.064-12.57,11.359-30.096,8.564-44.703-1.111-5.807-5.24-10.998-2.846-16.777,30.153-66.514,66.904-132.955,138.45-161.025,69.459-27.251,179.585-15.309,237.636,33.503ZM1640.884,508.325c-33.24-59.801-111.466-79.778-174.577-60.966-121.158,36.114-175.081,177.211-191.425,291.393-2.469,17.252-6.545,47.557-4.974,64.21.353,3.741,1.141,7.94,5.342,9.056,24.749.429,49.176-5.618,73.182-10.277,58.589-11.372,127.091-26.853,181.051-52.202,83.793-39.364,162.62-149.066,111.401-241.214Z" fill="#fff"/>
<path d="M1640.884,508.325c51.22,92.148-27.607,201.849-111.401,241.214-53.96,25.349-122.463,40.83-181.051,52.202-24.006,4.659-48.433,10.707-73.182,10.277-4.201-1.117-4.989-5.315-5.342-9.056-1.571-16.653,2.504-46.958,4.974-64.21,16.344-114.182,70.267-255.279,191.425-291.393,63.111-18.812,141.337,1.166,174.577,60.966ZM1620.874,648.493c81.788-143.083-71.446-246.548-198.606-165.504-57.695,36.771-88.29,94.796-109.762,158.043-16.984,50.025-28.324,104.584-28.16,157.577,47.819-6.273,95.666-15.662,142.265-28.118,77.608-20.745,152.281-48.554,194.263-121.998Z" fill="#000000"/>
<path d="M1620.874,648.493c-41.982,73.444-116.655,101.253-194.263,121.998-46.6,12.456-94.446,21.845-142.265,28.118-.164-52.993,11.176-107.552,28.16-157.577,21.473-63.247,52.067-121.272,109.762-158.043,127.16-81.044,280.394,22.421,198.606,165.504ZM1559.467,535.034c-42.186-41.193-114.761-23.931-132.368,32.454-23.233,74.404,61.592,134.913,123.997,88.477,38.753-28.836,43.061-87.059,8.371-120.932Z" fill="#fff"/>
<path d="M1559.467,535.034c34.689,33.873,30.381,92.096-8.371,120.932-62.405,46.436-147.23-14.074-123.997-88.477,17.607-56.386,90.182-73.647,132.368-32.454ZM1493.349,526.231c-28.923,3.783-53.935,30.802-56.366,59.779-4.752,56.646,59.211,93.05,105.496,59.419,55.203-40.11,19.536-128.179-49.13-119.199Z" fill="#000000"/>
<path d="M1493.349,526.231c68.666-8.981,104.333,79.089,49.13,119.199-46.286,33.631-110.248-2.773-105.496-59.419,2.431-28.977,27.443-55.997,56.366-59.779Z" fill="#fff"/>
<path d="M951.829,371.86c47.166,38.644,82.155,96.424,103.095,153.179-19.023-1.327-36.139,7.963-48.935,21.123-20.827-45.004-43.842-90.122-81.102-123.847-55.666-50.384-124.804-60.852-197.651-50.734-199.69,27.736-236.365,237.157-108.726,372.937,104.25,110.9,285.581,143.377,432.138,138.597,2.306-.075,9.204-2.77,8.938,1.204l-15.803,55.446c-5.088.02-10.203-.2-15.292-.098-160.371,3.23-346.402-38.137-457.687-161.325-151.084-167.244-98.167-421.637,137.423-461.284,88.535-14.9,173.072-2.983,243.602,54.803Z" fill="#fff"/>
<path d="M912.504,429.428c39.571,34.356,64.871,84.847,84.633,132.342-10.715,25.631-2.496,53.112,17.326,71.45-3.814,20.043-.529,42.493,12.229,58.761,4.64,5.918,13.982,12.478,17.683,17.832,3.016,4.363,7.449,33.202,8.519,40.434,3.565,24.074,6.052,49.491,6.873,73.756.185,5.455.57,43.079-1.041,44.628-4.079-.428-7.909.841-11.911,1.051-103.774,5.448-236.483-16.713-328.157-66.451-108.939-59.105-201.383-185.008-144.808-312.43,53.347-120.152,244.348-143.251,338.654-61.373ZM887.544,494.7c-59.652-53.067-140.914-74.541-212.503-31.13-74.43,45.134-74.421,133.496-30.017,201.161,50.905,77.572,130.701,102.618,216.766,123.993,35.365,8.783,85.949,21.328,121.634,23.31,7.876.437,16.918,2.401,17.793-7.146,1.506-16.426-.989-39.907-3.054-56.546-10.325-83.169-46.672-196.753-110.62-253.643Z" fill="#fff"/>
<path d="M887.544,494.7c63.948,56.889,100.295,170.474,110.62,253.643,2.066,16.639,4.56,40.12,3.054,56.546-.875,9.547-9.917,7.583-17.793,7.146-35.686-1.982-86.269-14.526-121.634-23.31-86.065-21.375-165.861-46.421-216.766-123.993-44.404-67.666-44.413-156.027,30.017-201.161,71.589-43.411,152.851-21.938,212.503,31.13ZM897.145,523.47c-41.513-47.296-109.367-81.331-173.212-65.927-106.453,25.685-119.861,131.678-59.121,211.399,46.737,61.341,109.28,82.531,181.389,101.777,46.148,12.318,94.136,21.96,141.538,27.89-.515-49.259-9.875-98.891-24.686-145.698-13.701-43.298-35.864-95.214-65.908-129.443Z" fill="#000000"/>
<path d="M897.145,523.47c30.043,34.228,52.206,86.145,65.908,129.443,14.811,46.806,24.171,96.438,24.686,145.698-47.403-5.93-95.39-15.573-141.538-27.89-72.109-19.247-134.652-40.436-181.389-101.777-60.74-79.721-47.333-185.714,59.121-211.399,63.845-15.404,131.699,18.631,173.212,65.927ZM819.363,530.237c-39.385-31.859-99.366-20.012-122.025,25.496-31.466,63.197,26.041,131.772,93.828,113.021,60.745-16.803,77.393-98.722,28.197-138.517Z" fill="#fff"/>
<path d="M819.363,530.237c49.196,39.795,32.548,121.715-28.197,138.517-67.787,18.751-125.293-49.824-93.828-113.021,22.658-45.508,82.64-57.355,122.025-25.496ZM806.924,537.886c-35.46-24.279-84-10.25-99.942,29.409-21.468,53.406,31.124,106.881,84.917,86.834,49.033-18.273,58.323-86.596,15.025-116.243Z" fill="#000000"/>
<path d="M806.924,537.886c43.299,29.647,34.009,97.97-15.025,116.243-53.794,20.047-106.386-33.428-84.917-86.834,15.942-39.658,64.482-53.688,99.942-29.409Z" fill="#fff"/>
</svg>