<?xml version="1.0" encoding="UTF-8"?>
<svg id="a" xmlns="http://www.w3.org/2000/svg" width="214.207mm" height="165.947mm" viewBox="0 0 607.2 470.4">
<path d="M308.808,210.333c-.462-.936-5.661-11.233-6.161-10.856-18.064,36.963-31.856,77.223-34.534,118.683-1.443,22.349.982,73.074,26.722,82.123,24.584,8.643,37.813-21.106,41.718-40.072,9.868-47.931-6.487-106.84-27.745-149.878Z" fill="#fff"/>
<path d="M288.505,159.21c-7.156,6.31-15.914,6.871-24.711,3.825-1.54,14.612,10.143,24.503,23.401,27.189,10.608,2.149,29.68,1.933,39.754-2.17,9.419-3.836,17.645-13.937,16.236-24.559-.535-.72-.604-.237-1.088-.115-5.648,1.425-7.417,2.241-13.452.748-19.962-4.939-22.508-32.972-3.997-41.433-.986-7.034-2.358-13.679-9.909-16.111-5.412-1.743-19.013-1.765-24.263.411-6.434,2.666-7.195,8.928-8.495,14.984,15.043,6.117,18.926,26.296,6.525,37.231Z" fill="#fff"/>
<path d="M271.837,125.289c-25.279,2.664-16.825,42.33,7.774,33.661,19.041-6.71,12.309-35.778-7.774-33.661ZM270.479,158.982c-10.911-1.879-10.86-19.36.875-20.764,15.195-1.818,15.149,23.523-.875,20.764Z" fill="#fff"/>
<path d="M338.628,159.453c20.1-5.008,15.405-35.868-5.87-34.159-24.242,1.948-18.514,40.233,5.87,34.159ZM333.69,136.779c14.751-2.251,16.182,20.37,2.261,20.996-12.933.582-14.291-19.16-2.261-20.996Z" fill="#fff"/>
<path d="M306.957,196.125l20.139,43.628c-.535-16.279,1.601-32.439,4.317-48.428-7.5,3.738-16.121,4.949-24.456,4.8Z" fill="#fff"/>
<path d="M281.063,236.876l17.739-40.753c-7.562.362-14.957-1.469-22.058-3.836,2.276,14.756,4.31,29.617,4.319,44.59Z" fill="#fff"/>
<path d="M318.944,102.617c2.144-11.628,6.355-23.17,13.955-32.353,2.703-.872,5.295.538,7.039-3.003,2.528-5.134-4.828-9.304-8.053-5.048-1.907,2.517-.05,4.435-.706,6.326-.46,1.326-4.122,5.457-5.236,7.264-3.458,5.61-6.622,12.238-8.196,18.658-.342,1.395-1.846,7.183-.746,7.945l1.943.211Z" fill="#fff"/>
<path d="M291.613,101.653c-1.368-8.293-4.033-16.37-8.251-23.639-1.195-2.06-6.574-8.708-6.899-9.901-.504-1.849,1.623-4.597-1.392-6.744-4.984-3.55-10.338,3.629-5.965,7.403,2.236,1.93,3.969.535,5.392,1.279,1.035.541,2.361,2.619,3.113,3.644,5.966,8.121,9.091,18.269,11.359,27.974l2.642-.014Z" fill="#fff"/>
<path d="M271.354,138.219c-11.735,1.404-11.786,18.885-.875,20.764,16.024,2.759,16.07-22.581.875-20.764Z" fill="#000000"/>
<path d="M335.952,157.775c13.921-.626,12.49-23.247-2.261-20.996-12.03,1.836-10.672,21.578,2.261,20.996Z" fill="#000000"/>
<path d="M463.892,44.735c-23.369-4.556-48.763-4.044-70.775,5.682-29.668,13.108-49.363,40.365-60.74,69.935,7.029-.291,14.787,2.299,18.943,8.154,5.971-11.84,11.527-23.956,19.716-34.473,22.992-29.526,56.21-35.976,91.803-28.106,61.036,13.495,74.118,78.563,39.043,125.356-30.376,40.525-86.552,56.893-135.217,59.975l-35.725.487,6.539,21.03c62.66.983,134.111-13.417,176.183-63.482,50.407-59.983,31.763-148.664-49.769-164.559Z" fill="#fff"/>
<path d="M347.794,160.505c1.123,7.071-.185,14.655-4.396,20.5-1.473,2.045-4.624,4.488-5.749,6.24-1.671,2.601-3.772,18.996-4.251,23.082-1.408,11.995-1.699,24.057-1.496,36.137,18.661,1.048,38.228.161,56.762-2.462,39.186-5.545,81.11-21.158,106.771-52.451,35.528-43.327,25.937-107.21-33.168-120.736-38.281-8.76-71.036.213-92.678,33.758-2.731,4.233-14.997,26.313-14.648,29.874.17,1.732,1.252,3.637,1.436,5.792.696,8.163-2.427,15.038-8.582,20.265ZM353.485,212.668c2.885-48.8,29.131-120.144,86.708-123.338,17.921-.994,39.456,8.099,48.623,23.992,17.873,30.99-4.643,67.382-31.298,84.436-20.973,13.418-68.734,24.6-93.794,27.544-2.96.348-10.282,2.104-10.564-2.154-.169-2.55.162-7.713.326-10.479Z" fill="#fff"/>
<path d="M338.135,277.639c.977,5.716,2.362,11.366,3.276,17.1,3.095,19.424,5.592,37.149,16.188,54.304,12.907,20.899,43.112,42.929,68.701,37.119,20.976-4.763,36.895-19.104,37.038-41.611.201-31.747-20.147-58.53-45.805-75.021-25.898,6.342-52.734,8.416-79.397,8.109ZM418.706,357.472c-37.087,10.692-46.829-48.394-9.208-50.918,30.914-2.074,38.578,42.451,9.208,50.918Z" fill="#fff"/>
<path d="M464.756,252.911l-14.862,6.744c18.304,14.493,33.225,32.786,39.927,55.495,5.464,18.515,6.339,42.123-1.635,59.998-13.031,29.214-52.385,48.299-83.484,42.363-26.056-4.973-51.166-22.059-67.523-42.534-1.378,5.742-4.497,10.79-7.466,15.798,36.834,52.146,125.233,68.775,164.494,10.053,26.187-39.167,25.444-87.421-4.054-124.37-5.521-6.915-16.197-18.286-23.512-23.012-.592-.383-1.102-.863-1.885-.535Z" fill="#fff"/>
<path d="M428.027,390.767c-28.111,6.881-60.83-16.546-74.934-39.617l-8.72-18.846c-.426,12.213-1.66,24.405-4.827,36.231-.181,1.564,1.127,2.629,1.965,3.786,17.757,24.529,55.749,45.411,86.412,40.4,54.053-8.834,74.582-58.713,53.222-107.116-7.752-17.566-21.529-32.49-36.891-43.7-6.332,1.997-12.715,3.786-19.091,5.65-.696.203-.837-.272-.693.964,23.766,16.135,42.253,42.132,43.662,71.676,1.289,27.03-14.574,44.324-40.103,50.574Z" fill="#fff"/>
<path d="M363.724,225.302c25.06-2.944,72.821-14.126,93.794-27.544,26.655-17.053,49.171-53.446,31.298-84.436-9.167-15.893-30.702-24.986-48.623-23.992-57.577,3.194-83.823,74.538-86.708,123.338-.164,2.767-.494,7.93-.326,10.479.282,4.258,7.604,2.502,10.564,2.154ZM370.867,157.16c9.332-24.684,22.726-46.136,47.671-57.353,38.838-17.465,83.76,9.477,68.765,54.364-7.181,21.497-27.009,38.615-47.496,46.978-25.461,10.393-54.444,15.507-81.526,19.904.24-21.67,4.951-43.693,12.588-63.892Z" fill="#000000"/>
<path d="M409.498,306.554c-37.621,2.524-27.879,61.61,9.208,50.918,29.37-8.467,21.706-52.992-9.208-50.918ZM420.16,351.734c-17.432,8.093-35.395-9.246-28.543-27.098,2.285-5.953,9.049-11.961,15.465-12.829,26.129-3.534,34.696,29.891,13.078,39.928Z"/>
<path d="M487.302,154.17c14.995-44.887-29.927-71.828-68.765-54.364-24.945,11.218-38.339,32.669-47.671,57.353-7.636,20.2-12.347,42.223-12.588,63.892,27.082-4.397,56.066-9.511,81.526-19.904,20.487-8.363,40.315-25.481,47.496-46.978ZM438.289,115.674c35.887-.737,40.406,52.771,5.479,58.268-41.498,6.53-46.437-57.427-5.479-58.268Z" fill="#fff"/>
<path d="M391.617,324.635c-6.852,17.852,11.112,35.191,28.543,27.098,21.618-10.036,13.051-43.462-13.078-39.928-6.416.868-13.181,6.877-15.465,12.829Z" fill="#fff"/>
<path d="M438.289,115.674c-40.958.841-36.019,64.798,5.479,58.268,34.927-5.496,30.408-59.005-5.479-58.268ZM415.217,138.684c2.346-8.779,10.557-16.616,19.693-17.714,27.194-3.266,38.821,31.414,16.558,44.845-18.868,11.383-41.918-5.919-36.25-27.131Z" fill="#000000"/>
<path d="M434.91,120.971c-9.136,1.097-17.347,8.934-19.693,17.714-5.667,21.213,17.382,38.514,36.25,27.131,22.263-13.431,10.636-48.111-16.558-44.845Z" fill="#fff"/>
<path d="M544.22,114.033c-11.907-55.853-66.343-81.508-119.991-76.626-46.226,4.206-79.458,36.646-95.215,78.634-1.804-1.947-1.866-4.995-3.432-7.352-1.033-1.554-2.81-2.741-4.014-4.176l-.131-1.035c1.986-8.433,4.624-17.519,9.115-24.986.494-.822,3.321-5.124,3.749-5.362,1.775-.985,4.6-.112,6.971-2.621,7.495-7.93-6.108-18.634-11.99-9.589-1.949,2.997-.51,5.255-1.016,6.708-.305.876-4.245,5.648-5.202,7.215-4.872,7.984-8.38,16.958-9.395,26.336-6.55-1.067-13.068-.799-19.665-.48-.636-7.658-3.458-15.664-7.11-22.382-1.713-3.152-5.903-7.782-7.028-10.237-1.159-2.529,1.058-5.241-2.215-8.335-6.88-6.505-16.994,2.567-11.46,10.019,2.717,3.658,5.076,2.126,7.466,3.565.681.409,3.35,4.63,3.948,5.643,4.184,7.092,6.783,15.558,8.635,23.547.136,1.866-2.169,2.439-3.288,3.67-2.763,3.038-3.151,4.902-4.286,8.669-.205.681.3.848-.961.703-15.297-40.097-46.391-72.024-90.483-77.611-56.256-7.128-114.716,20.389-125.202,79.921-9.847,55.907,25.971,107.468,74.189,131.96-19.934,16.306-37.141,36.637-44.362,61.853-7.394,25.82-3.521,52.692,7.5,76.892,19.629,43.101,61.899,61.59,107.936,51.944,28.365-5.943,54.626-22.942,72.093-45.873,12,15.764,34.492,15.633,47.003.479,33.706,44.623,104.245,65.41,151.759,29.92,28.11-20.996,43.15-63.404,39.365-97.773-3.431-31.154-23.141-58.17-46.988-77.207,49.09-25.843,85.957-78.556,73.703-136.032ZM332.758,125.294c21.274-1.709,25.97,29.151,5.87,34.159-24.383,6.075-30.112-32.211-5.87-34.159ZM356.376,140.24c-.184-2.155-1.266-4.06-1.436-5.792-.349-3.56,11.918-25.641,14.648-29.874,21.643-33.545,54.397-42.519,92.678-33.758,59.105,13.526,68.697,77.409,33.168,120.736-25.661,31.293-67.585,46.907-106.771,52.451-18.534,2.622-38.101,3.51-56.762,2.462-.203-12.081.088-24.143,1.496-36.137.479-4.085,2.581-20.481,4.251-23.082,1.125-1.752,4.276-4.195,5.749-6.24,4.211-5.845,5.519-13.429,4.396-20.5,6.155-5.228,9.278-12.102,8.582-20.265ZM317.747,94.461c1.574-6.42,4.738-13.048,8.196-18.658,1.114-1.807,4.776-5.939,5.236-7.264.656-1.891-1.201-3.809.706-6.326,3.225-4.256,10.581-.086,8.053,5.048-1.744,3.541-4.336,2.131-7.039,3.003-7.6,9.183-11.811,20.725-13.955,32.353l-1.943-.211c-1.101-.761.404-6.55.746-7.945ZM277.612,73.693c-.753-1.024-2.078-3.103-3.113-3.644-1.423-.743-3.156.651-5.392-1.279-4.373-3.774.981-10.953,5.965-7.403,3.014,2.147.887,4.895,1.392,6.744.326,1.194,5.705,7.842,6.899,9.901,4.217,7.27,6.883,15.346,8.251,23.639l-2.642.014c-2.268-9.705-5.393-19.853-11.359-27.974ZM290.475,106.995c5.25-2.176,18.852-2.154,24.263-.411,7.551,2.432,8.923,9.077,9.909,16.111-18.511,8.461-15.965,36.494,3.997,41.433,6.035,1.493,7.804.677,13.452-.748.484-.122.553-.606,1.088.115,1.409,10.622-6.817,20.723-16.236,24.559-10.074,4.103-29.146,4.319-39.754,2.17-13.257-2.686-24.941-12.577-23.401-27.189,8.797,3.046,17.555,2.485,24.711-3.825,12.401-10.935,8.518-31.114-6.525-37.231,1.299-6.057,2.061-12.318,8.495-14.984ZM327.097,239.753l-20.139-43.628c8.335.149,16.956-1.062,24.456-4.8-2.716,15.989-4.852,32.149-4.317,48.428ZM298.801,196.122l-17.739,40.753c-.009-14.973-2.043-29.834-4.319-44.59,7.101,2.367,14.495,4.198,22.058,3.836ZM259.4,160.012c-1.731,10.103.729,17.73,7.49,25.099,1.011,1.102,3.074,1.936,3.82,3.373,1.252,2.412,2.622,13.221,3.085,16.576,1.886,13.661,2.801,27.653,1.984,41.405-.775.737-18.728.575-21.359.503-58.872-1.6-136.463-21.991-158.145-84.044-21.635-61.917,29.916-101.976,88.552-94.285,36.479,4.785,54.938,33.433,68.326,64.535-3.714,9.841-1.499,19.779,6.249,26.838ZM279.611,158.95c-24.599,8.669-33.053-30.997-7.774-33.661,20.082-2.116,26.815,26.951,7.774,33.661ZM67.861,159.203c-16.245-74.334,43.145-122.507,113.671-117.001,45.86,3.58,77.733,36.801,92.809,78.153-7.131-.252-13.432,3.125-18.217,8.153-11.103-26.841-28.027-52.463-57.083-61.613-26.761-8.427-66.654-3.467-88.254,15.335-35.517,30.917-28.373,83.201.719,115.815,39.981,44.821,107.431,55.226,164.756,53.703l-6.048,21.123c-5.257-.18-10.539.135-15.794-.01-74.334-2.049-168.497-31.014-186.558-113.659ZM140.055,350.756c2.211,28.872,38.311,46.743,64.15,39.213,26.646-7.765,49.205-29.148,58.387-55.275.769,8.841,1.33,17.635,2.867,26.388.368,2.095,2.495,8.749,1.929,10.033-.396.899-3.205,3.981-4.09,5.049-19.439,23.436-55.056,42.14-85.938,36.074-73.07-14.352-73.349-96.142-26.054-140.368,1.545-1.445,10.436-9.181,11.65-9.479.65-.16,1.028-.13,1.669-.007,2.985.575,8.218,2.872,11.506,3.872,2.318.705,4.686,1.404,7.082,1.796-26.986,19.814-45.83,47.829-43.159,82.704ZM265.79,295.698c-3.492,22.851-5.647,41.621-20.513,60.529-12.221,15.544-38.756,33.729-59.293,30.608-19.407-2.949-39.64-16.46-41.133-37.516-2.381-33.581,17.984-62.394,45.294-79.375,25.811,5.977,52.419,8.067,78.923,7.696-.92,6.048-2.353,12.005-3.278,18.059ZM266.202,402.562c-55.004,56.397-146.226,47.167-169.183-34.674-13.063-46.572,6.698-86.885,43.537-114.954l17.235,6.967-7.443,6.215c-26.908,23.387-41.64,59.216-35.01,94.966,7.3,39.363,54.339,64.729,91.961,55.476,23.914-5.881,46.754-20.99,62.007-40.133l6.857,13.741c.195,1.086-8.534,10.932-9.961,12.395ZM294.835,400.284c-25.74-9.049-28.165-59.774-26.722-82.123,2.678-41.46,16.47-81.72,34.534-118.683.5-.378,5.699,9.92,6.161,10.856,21.258,43.038,37.613,101.947,27.745,149.878-3.905,18.966-17.134,48.715-41.718,40.072ZM468.13,340.193c-1.409-29.545-19.896-55.541-43.662-71.676-.143-1.236-.002-.76.693-.964,6.377-1.864,12.76-3.653,19.091-5.65,15.363,11.211,29.14,26.134,36.891,43.7,21.36,48.403.831,98.282-53.222,107.116-30.664,5.011-68.655-15.871-86.412-40.4-.838-1.157-2.145-2.222-1.965-3.786,3.167-11.826,4.401-24.018,4.827-36.231l8.72,18.846c14.104,23.071,46.823,46.499,74.934,39.617,25.529-6.249,41.391-23.544,40.103-50.574ZM463.337,344.551c-.143,22.507-16.061,36.848-37.038,41.611-25.589,5.811-55.794-16.22-68.701-37.119-10.595-17.155-13.092-34.88-16.188-54.304-.914-5.734-2.299-11.384-3.276-17.1,26.664.307,53.499-1.767,79.397-8.109,25.658,16.491,46.006,43.274,45.805,75.021ZM490.152,276.458c29.498,36.949,30.241,85.204,4.054,124.37-39.261,58.722-127.66,42.094-164.494-10.053,2.969-5.007,6.087-10.056,7.466-15.798,16.358,20.475,41.467,37.561,67.523,42.534,31.099,5.936,70.453-13.15,83.484-42.363,7.974-17.876,7.099-41.484,1.635-59.998-6.701-22.71-21.623-41.002-39.927-55.495l14.862-6.744c.782-.328,1.292.153,1.885.535,7.315,4.726,17.991,16.097,23.512,23.012ZM337.479,272.776l-6.539-21.03,35.725-.487c48.665-3.081,104.841-19.45,135.217-59.975,35.075-46.793,21.993-111.862-39.043-125.356-35.593-7.869-68.811-1.42-91.803,28.106-8.189,10.517-13.746,22.633-19.716,34.473-4.156-5.855-11.913-8.445-18.943-8.154,11.377-29.57,31.072-56.827,60.74-69.935,22.012-9.726,47.406-10.238,70.775-5.682,81.532,15.895,100.177,104.576,49.769,164.559-42.072,50.065-113.522,64.465-176.183,63.482Z" fill="#000000"/>
<path d="M190.145,269.943c-27.31,16.981-47.675,45.794-45.294,79.375,1.493,21.056,21.726,34.568,41.133,37.516,20.537,3.121,47.072-15.064,59.293-30.608,14.866-18.908,17.021-37.678,20.513-60.529.925-6.054,2.358-12.011,3.278-18.059-26.504.372-53.112-1.718-78.923-7.696ZM198.318,358.664c-33.836,2.089-37.813-49.172-3.692-52.114,34.156-2.945,38.112,49.989,3.692,52.114Z" fill="#fff"/>
<path d="M207.299,416.558c-37.622,9.252-84.662-16.113-91.961-55.476-6.63-35.751,8.102-71.58,35.01-94.966l7.443-6.215-17.235-6.967c-36.839,28.069-56.6,68.383-43.537,114.954,22.956,81.841,114.179,91.07,169.183,34.674,1.427-1.463,10.156-11.31,9.961-12.395l-6.857-13.741c-15.254,19.143-38.093,34.252-62.007,40.133Z" fill="#fff"/>
<path d="M183.215,268.052c-2.396-.392-4.764-1.09-7.082-1.796-3.288-1-8.521-3.297-11.506-3.872-.641-.123-1.019-.153-1.669.007-1.214.298-10.104,8.034-11.65,9.479-47.295,44.226-47.016,126.015,26.054,140.368,30.881,6.066,66.499-12.638,85.938-36.074.885-1.067,3.693-4.15,4.09-5.049.566-1.285-1.561-7.938-1.929-10.033-1.537-8.753-2.098-17.548-2.867-26.388-9.182,26.128-31.741,47.51-58.387,55.275-25.839,7.53-61.939-10.341-64.15-39.213-2.671-34.875,16.173-62.89,43.159-82.704Z" fill="#fff"/>
<path d="M194.625,306.55c-34.121,2.942-30.144,54.203,3.692,52.114,34.42-2.125,30.464-55.06-3.692-52.114ZM191.822,353.186c-22.508-4.987-20.7-38.462.87-41.38,34.693-4.694,31.268,48.501-.87,41.38Z" fill="#000000"/>
<path d="M192.692,311.806c-21.57,2.918-23.377,36.393-.87,41.38,32.138,7.121,35.563-46.074.87-41.38Z" fill="#fff"/>
<path d="M270.213,272.871l6.048-21.123c-57.325,1.523-124.776-8.882-164.756-53.703-29.092-32.614-36.237-84.899-.719-115.815,21.6-18.802,61.494-23.762,88.254-15.335,29.057,9.15,45.981,34.772,57.083,61.613,4.785-5.028,11.086-8.405,18.217-8.153-15.076-41.352-46.949-74.573-92.809-78.153-70.526-5.506-129.916,42.667-113.671,117.001,18.061,82.645,112.224,111.61,186.558,113.659,5.255.145,10.537-.171,15.794.01Z" fill="#fff"/>
<path d="M184.825,68.638c-58.636-7.691-110.187,32.369-88.552,94.285,21.683,62.053,99.274,82.444,158.145,84.044,2.631.072,20.584.234,21.359-.503.818-13.752-.097-27.744-1.984-41.405-.463-3.355-1.833-14.164-3.085-16.576-.746-1.437-2.809-2.271-3.82-3.373-6.761-7.369-9.221-14.996-7.49-25.099-7.747-7.06-9.962-16.998-6.249-26.838-13.387-31.102-31.847-59.75-68.326-64.535ZM254.586,224.078c-.673,2.252-4.935,1.838-6.8,1.709-11.164-.774-25.682-4.331-36.759-6.884-35.55-8.196-72.46-18.401-90.724-53.15-19.021-36.189-.015-73.742,41.232-76.422,30.211-1.963,57.659,20.809,71.164,46.048,14.094,26.34,21.583,58.885,21.887,88.699Z" fill="#fff"/>
<path d="M161.535,89.331c-41.246,2.68-60.253,40.233-41.232,76.422,18.263,34.749,55.174,44.954,90.724,53.15,11.077,2.554,25.594,6.11,36.759,6.884,1.865.129,6.128.543,6.8-1.709-.304-29.815-7.793-62.36-21.887-88.699-13.505-25.239-40.953-48.011-71.164-46.048ZM249.925,219.379c-.041.527-.042,1.133-.508,1.474-27.346-4.127-56.897-9.523-82.494-20.192-27.339-11.396-55.215-41.271-48.222-73.115,3.993-18.182,21.304-31.091,39.475-32.94,59.858-6.091,87.571,68.085,91.222,116.146.151,1.986.652,7.007.527,8.629Z" fill="#000000"/>
<path d="M158.176,94.604c-18.171,1.849-35.482,14.758-39.475,32.94-6.993,31.844,20.883,61.72,48.222,73.115,25.597,10.67,55.148,16.066,82.494,20.192.466-.341.467-.947.508-1.474.125-1.622-.377-6.643-.527-8.629-3.651-48.06-31.364-122.237-91.222-116.146ZM169.067,174.446c-38.104-.223-38.622-58.036-.346-58.754,38.785-.728,39.106,58.981.346,58.754Z" fill="#fff"/>
<path d="M168.72,115.691c-38.276.718-37.758,58.532.346,58.754,38.76.226,38.438-59.482-.346-58.754ZM184.18,164.238c-11.618,9.34-29.594,5.488-36.546-7.589-7.713-14.51,1.213-33.696,17.729-35.679,25.263-3.032,38.229,27.662,18.817,43.267Z" fill="#000000"/>
<path d="M165.363,120.971c-16.516,1.983-25.443,21.169-17.729,35.679,6.952,13.077,24.928,16.929,36.546,7.589,19.412-15.605,6.446-46.3-18.817-43.267Z" fill="#fff"/>
</svg>