<?xml version="1.0" encoding="UTF-8"?><svg id="a" xmlns="http://www.w3.org/2000/svg" width="126.529mm" height="142.804mm" viewBox="0 0 358.665 404.798"><path d="M261.988.665c1.202,1.203,1.15,4.382-.018,5.614-.969,1.022-7.879,2.829-10.034,3.806-19.892,9.014-35.338,23.09-44.385,43.187,12.45,5.237,25.937,9.21,36.257,18.358,10.65,9.441,13.267,20.057,12.362,34.032-.12,1.849-2.057,6.482-.757,7.491,1.163.903,16.792,4.368,20.06,5.424,11.395,3.681,23.591,9.369,33.8,15.612,52.269,31.958,72.707,105.245,12.91,140.814l-1.625,53.031c-1.833,14.647-1.176,29.573-3.816,44.102-21.564,17.207-48.957,25.15-76.014,28.799-58.243,7.855-156.199,5.852-207.12-26.247-1.862-1.174-4.388-2.179-4.303-4.681.378-35.658-.651-71.37.664-106.98-44.359-32.121-35.781-80.247,1.609-113.937,27.944-25.179,64.988-39.849,102.138-44.451,1.214-6.946,2.211-13.275,5.035-19.821,9.889-22.921,36.386-34.944,60.581-32.306,9.323-20.217,25.097-37.762,45.352-47.432,3.134-1.496,14.76-6.958,17.303-4.415Z"/><path d="M251.785,120.363c37.099,6.862,77.553,27.397,92.874,63.791,18.445,43.813-4.181,88.449-53.629,89.634-20.909.501-39.228-11.932-46.442-31.483-1.392-3.772-2.129-16.163-8.678-10.902-17.469,27.49-50.041,48.966-83.609,38.807-13.135-3.975-27.449-14.647-33.652-26.991-1.479-2.944-3.215-10.882-5.999-11.246-4.959-.649-4.928,3.824-7.076,6.84-41.962,58.915-125.593,2.577-89.272-60.08,18.692-32.245,63.498-55.825,98.994-63.468,2.635-.567,17.126-3.533,18.391-3.172,1.765.503,1.045,3.758,1.408,5.368,1.267,5.627,3.056,11.496,5.947,16.514,22.934,39.802,94.782,26.363,110.743-13.614Z" fill="#fff"/><path d="M36.83,333.658c13.485,1.543,26.751,4.665,40.171,6.62,74.704,10.881,148.062,10.434,222.871.76,2.059-.266,10.341-2.262,11.277-2.043.702.164,1.232,1.015,1.208,1.764-2.237,7.401.033,20.01-2.435,26.801-1.14,3.135-19.988,12.435-24.037,14.146-40.425,17.076-105.505,17.335-149.103,14.088-34.631-2.579-69.77-10.791-99.952-28.069v-34.066Z" fill="#fff"/><path d="M36.83,301.089c.143-.483,1.144-1.206,1.795-1.085,13.447,2.202,26.962,4.433,40.511,5.944,78.028,8.701,157.759,5.492,234.688-9.723.312,11.536-.742,23.025-1.09,34.466l-1.448.798c-90.87,14.655-184.366,12.454-274.456-6.067v-24.333Z" fill="#fff"/><path d="M36.83,267.023c5.745.736,10.925,3.304,16.818,3.77,22.027,1.744,44.285-8.168,56.924-26.217,25.384,44.551,79.362,45.334,114.928,11.601,3.605-3.419,6.821-8.764,10.076-11.636.652-.575.836-.965,1.883-.727,5.055,15.952,18.566,29.714,34.625,34.635,14.739,4.516,27.668,1.865,42.494-.199-.396,2.307.888,8.749-.737,10.121-1.599,1.351-28.328,5.545-32.701,6.229-75.083,11.734-161.309,12.525-236.229-.842-2.628-.469-6.055-.82-8.079-2.403v-24.333Z" fill="#fff"/><path d="M197.04,59.63c-1.819,6.752-4.171,14.32-4.48,21.343-.12,2.72-.34,8.087,3.988,7.699,4.662-.418,3.725-10.233,4.454-14.224.409-2.24,2.178-11.354,3.149-12.585,1.118-1.418,4.595.076,6.201.551,25.021,7.403,46.492,23.099,36.128,52.274-16.928,47.654-110.599,51.471-104.828-12.745,1.876-20.876,23.315-42.314,44.533-42.314h10.855Z" fill="#fff"/></svg>