<?xml version="1.0" encoding="UTF-8"?><svg id="a" xmlns="http://www.w3.org/2000/svg" width="750.24" height="500.4" viewBox="0 0 750.24 500.4">
<path d="M750.24,0v500.4H0V0h750.24ZM457.318,54.574c3.333-11.086-8.766-5.465-13.97-3.171-21.475,9.464-39.737,26.846-48.37,48.804-26.972-2.78-57.075,12.869-64.222,40.161-1.063,4.06-1.079,8.376-2.274,12.238-19.337,2.605-38.306,7.417-56.168,15.227-37.597,16.439-80.795,51.219-77.428,96.753,1.416,19.154,14.52,35.048,29.184,46.154l.079,107.389c-.024.696.245,1.251.552,1.848,1.483,2.888,12.536,7.905,15.935,9.501,45.904,21.56,96.051,23.635,145.985,22.445,40.976-.976,85.017-2.795,119.646-27.221,1.456-1.027,5.139-3.362,5.835-4.723,1.038-2.03,1.69-10.131,1.977-12.897,2.173-20.917,2.435-42.811,2.862-63.827.023-1.135.51-2.186.52-3.319l-.424-16.256c4.551-3.118,9.394-5.819,13.591-9.444,22.064-19.054,27.504-47.729,19.58-75.198-12.504-43.343-57.326-69.515-99.422-77.421.378-7.491,1.729-14.606.272-22.102-4.209-21.653-29.861-31.504-48.338-37.811,6.313-13.563,16.78-26.413,29.129-34.928,7.998-5.515,16.792-8.065,25.469-12.202Z" fill="#fff" stroke="#fff"/>
<path d="M457.318,54.574c-8.677,4.138-17.471,6.688-25.469,12.202-12.349,8.515-22.816,21.365-29.129,34.928,18.476,6.307,44.129,16.158,48.338,37.811,1.457,7.496.106,14.611-.272,22.102,42.096,7.906,86.918,34.078,99.422,77.421,7.924,27.469,2.484,56.144-19.58,75.198-4.197,3.625-9.04,6.326-13.591,9.444l.424,16.256c-.01,1.133-.497,2.184-.52,3.319-.427,21.016-.689,42.91-2.862,63.827-.287,2.766-.939,10.867-1.977,12.897-.696,1.361-4.379,3.696-5.835,4.723-34.629,24.426-78.67,26.245-119.646,27.221-49.934,1.19-100.08-.885-145.985-22.445-3.399-1.596-14.452-6.613-15.935-9.501-.307-.597-.575-1.152-.552-1.848l-.079-107.389c-14.664-11.106-27.768-27-29.184-46.154-3.367-45.535,39.831-80.315,77.428-96.753,17.862-7.81,36.831-12.623,56.168-15.227,1.195-3.862,1.21-8.177,2.274-12.238,7.147-27.292,37.25-42.941,64.222-40.161,8.633-21.958,26.895-39.34,48.37-48.804,5.204-2.293,17.303-7.914,13.97,3.171ZM391.201,107.95c-34.09-1.918-62.722,26.039-52.56,60.928,15.263,52.402,107.764,29.275,105.353-21.825-1.077-22.839-25.805-32.556-44.631-37.666l-4.544,24.967c-.949,2.598-4.549,3.921-6.524,1.685-3.398-3.848,2.616-22.67,2.905-28.089ZM329.281,161.2c-31.122,2.543-62.084,14.659-87.034,33.194-30.63,22.755-55.328,60.873-27.889,96.787,20.258,26.516,62.631,27.285,82.75.268,3.266-4.386,7.732-17.678,13.354-8.529,3.369,5.482,4.029,10.923,8.538,16.894,26.052,34.496,79.317,21.654,103.118-8.635,2.319-2.951,6.93-11.409,9.701-12.849,2.617-1.361,3.93-.3,5.059,2.012,1.462,2.994,1.794,6.793,2.924,10.037,7.372,21.164,27.624,32.811,49.578,31.567,43.255-2.451,65.267-41.458,53.147-81.468-12.408-40.961-54.94-63.487-94.375-71.549-14.241,26.868-46.453,41.234-76.252,36.753-23.475-3.53-40.32-20.765-42.618-44.481ZM232.8,315.209v25.428c79.544,12.915,161.84,14.608,241.6,2.319,9.893-1.524,23.718-3.236,33.075-5.825.412-.114,1.223-.121,1.345-.65l.914-9.087-.443-.932c-13.167,2.045-26.632,4.52-39.955,1.085-15.922-4.105-28.244-15.527-35.019-30.246-.571-1.242-1.365-5.146-2.56-5.144-1.169.002-4.672,5.549-5.751,6.747-22.914,25.415-59.696,38.82-91.936,22.313-11.015-5.64-21.898-15.349-26.922-26.823-1.259-2.126-3.882,1.398-4.995,2.578-3.597,3.814-5.702,6.741-10.154,10.001-16.794,12.294-39.666,15.783-59.199,8.237ZM232.8,348.313v24.948c82.128,17.198,167.441,20.381,250.732,9.527,7.935-1.034,15.86-2.345,23.802-3.314l1.468-34.042c-15.534,1.581-30.885,5.048-46.39,7.131-60.763,8.16-125.712,8.622-186.647,1.983-14.391-1.568-28.705-3.86-42.965-6.232ZM231.84,381.897v33.584c30.402,18.065,66.383,25.725,101.525,28.301,32.67,2.395,73.061,1.691,105.447-3.022,23.42-3.408,47.26-10.382,66.072-25.116l1.511-27.99c-70.616,10.811-143.297,12.184-214.256,3.778-20.253-2.399-40.178-6.397-60.3-9.536Z" fill="#000000"/>
<path d="M231.84,381.897c20.122,3.139,40.047,7.137,60.3,9.536,70.959,8.406,143.639,7.032,214.256-3.778l-1.511,27.99c-18.812,14.734-42.653,21.708-66.072,25.116-32.385,4.712-72.776,5.416-105.447,3.022-35.142-2.576-71.123-10.236-101.525-28.301v-33.584Z" fill="#fff"/>
<path d="M232.8,348.313c14.26,2.372,28.574,4.664,42.965,6.232,60.935,6.639,125.884,6.178,186.647-1.983,15.506-2.082,30.856-5.549,46.39-7.131l-1.468,34.042c-7.942.969-15.867,2.28-23.802,3.314-83.291,10.854-168.603,7.671-250.732-9.527v-24.948Z" fill="#fff"/>
<path d="M232.8,315.209c19.533,7.546,42.405,4.057,59.199-8.237,4.453-3.259,6.557-6.187,10.154-10.001,1.113-1.18,3.736-4.705,4.995-2.578,5.023,11.475,15.906,21.183,26.922,26.823,32.24,16.506,69.022,3.102,91.936-22.313,1.08-1.198,4.582-6.745,5.751-6.747,1.196-.002,1.989,3.903,2.56,5.144,6.775,14.719,19.097,26.141,35.019,30.246,13.323,3.435,26.788.96,39.955-1.085l.443.932-.914,9.087c-.122.529-.933.536-1.345.65-9.356,2.589-23.182,4.301-33.075,5.825-79.76,12.29-162.056,10.596-241.6-2.319v-25.428Z" fill="#fff"/>
<path d="M329.281,161.2c2.298,23.716,19.143,40.952,42.618,44.481,29.799,4.481,62.012-9.885,76.252-36.753,39.435,8.062,81.967,30.588,94.375,71.549,12.12,40.01-9.892,79.017-53.147,81.468-21.953,1.244-42.206-10.403-49.578-31.567-1.13-3.244-1.462-7.042-2.924-10.037-1.129-2.312-2.442-3.373-5.059-2.012-2.771,1.441-7.382,9.899-9.701,12.849-23.8,30.29-77.065,43.132-103.118,8.635-4.509-5.971-5.169-11.412-8.538-16.894-5.622-9.149-10.088,4.143-13.354,8.529-20.12,27.017-62.492,26.248-82.75-.268-27.439-35.914-2.741-74.032,27.889-96.787,24.949-18.535,55.911-30.651,87.034-33.194Z" fill="#fff"/>
<path d="M391.201,107.95c-.289,5.419-6.303,24.241-2.905,28.089,1.975,2.237,5.575.913,6.524-1.685l4.544-24.967c18.826,5.109,43.554,14.827,44.631,37.666,2.411,51.1-90.09,74.227-105.353,21.825-10.162-34.889,18.47-62.846,52.56-60.928Z" fill="#fff"/>
</svg>