<?xml version="1.0" encoding="UTF-8"?><svg id="a" xmlns="http://www.w3.org/2000/svg" width="200mm" height="142.35mm" viewBox="0 0 357.554 403.511">

<path d="M355.917,199.885c4.95,25.96-3.37,50.91-24.33,67.76l-11.61,7.11c-.18,8.98.24,17.99,0,26.96-.56,21.14-1.92,43.86-4.49,64.39-.17,1.35.3,3.38,0,4.49-.06.23-2.85,2.97-3.37,3.37-13.25,10.14-33.96,18.09-49.41,21.71-4.23.99-10.15,2.43-14.22,3-38.51,5.38-84.04,5.89-123.53,2.24-8.2-.76-17.35-2.19-25.45-3.74-22.1-4.22-44.99-11.77-65.14-23.21-.76-.44-2.28-1.05-2.99-1.5-2.24-1.41-2.11-6.14-1.87-8.61.02-.27.73-.48.75-.75v-101.45c-2.19-.18-3.9-2.37-5.62-3.74-6.44-5.12-12.2-11.48-16.09-18.35-2.55-4.48-5.63-11.66-6.74-16.47-11.12-47.9,39.67-88,78.98-103.69,8.52-4.08,18.12-6.83,26.95-8.99,6.68-1.63,14.08-3.54,20.96-4.49,1.57-.22,5.13.64,5.62-1.12.31-1.12-.19-3.14,0-4.5.6-4.36,2.14-8.5,3.74-12.72,5.04-13.28,12.24-20.71,24.33-27.33,1.6-.88,5.37-3.37,6.74-3.75,1.97-.53,4.49-.91,6.74-1.49,2.29-.59,6.07-1.98,8.23-2.25,4.86-.6,10.73.44,15.72,0,1.45-.7.86-2.03,1.13-2.62.13-.3.61-.45.75-.75,10.34-22.68,31.59-41.51,55.02-48.29.3-.09.46-.68.75-.75,1.51-.35,2.93.18,3.74,1.5,1.46,2.38-.35,3.46-2.24,4.49-21.06,5.68-43.33,23.95-52.03,44.55-.46,1.08-.93,2.14-.75,3.37,1.23-.4,1.43.59,1.87.75s1.05-.16,1.5,0c13.76,4.82,34.66,13.2,41.55,28.07.5,1.09.51,1.68.75,2.25.21.51,1.32,1.77,1.49,2.25.85,2.27.46,4.4.75,6.73.04.28.73.48.75.75.24,2.67.24,7.07,0,9.74-.11,1.19-1.29,4.68-1.5,5.99-.16,1.02.11,2.28,0,3.37.61.07,1.37-.14,1.87,0,10.9,2.94,22.72,5.77,33.69,10.48,18.38,7.88,36.01,20.34,49.04,36.31,5.15,6.32,8.55,12.45,11.98,20.22,2.71,6.14,4.77,12.33,5.99,18.71ZM351.417,215.615c.27-1.12-1.14-10.97-1.49-12.73-.95-4.74-1.7-9.49-3-14.23-1.03-3.79-4.84-10.15-6.73-13.47-17.26-30.22-48.97-46.33-80.48-54.29-1.79-.45-3.52-.44-5.24-.74-.35-.07-1.22-1.24-3-.75-.13.03-1.83,1.74-1.87,1.87-1.06,3.7-3.59,6.42-5.24,9.73-18.66,21.82-50.22,31.31-76.74,22.84-4.13-1.32-8.4-2.86-11.98-5.24-8.51-5.67-15.13-14.27-18.34-23.59-1.34-3.89-1.92-7.99-2.99-11.98-.14-.5.08-1.27,0-1.87-1.2-.41-1.58.7-1.87.75-1.75.31-4.11-.19-5.99,0-4.2.42-9.36,1.97-13.48,2.99-4.11,1.03-8.56,1.68-12.73,3-3.25,1.02-6.52,2.6-9.73,3.74-7.83,2.8-15.11,5.68-22.46,9.74-24.52,13.52-49.22,32.15-58.77,59.52-9.65,25.44,3.33,56.86,28.83,68.51,11.28,5.74,26.02,5.56,38.18,2.24.34-.09,1.81-1.33,2.24-1.5,13.25-5.02,21.08-11.74,28.83-23.58.2-.32.54-1.92.74-2.25.88-1.38,2.46-2.33,4.12-1.87.35.1,1.79,2.32,1.87,2.62,1.17,4.26,2.15,6.49,4.5,10.48,6.11,10.4,15.59,17.8,26.57,22.84,32.17,15.38,70.34-4.94,88.72-34.07.61-.97,1.91-2.29,2.62-3.37h2.99c1.66.93.82,2.23,1.13,3.37.7,2.63,1.91,7.16,2.99,9.74,5.5,13.16,17.67,24.74,31.07,28.82.68.21,2.08.72,2.24.75.89.18,2.08-.16,3,0,.29.05.47.72.75.75,3.97.49,11.57.28,15.72,0,.26-.02.48-.73.75-.75,3.61-.3,7.06.01,10.48-.75,3.4-.75,7.86-2.73,11.23-4.49,15.75-8.22,27.18-23.3,31.07-40.06.96-4.14.52-8.55,1.49-12.72ZM314.737,288.235c.21-.75.21-9.71,0-10.48-.48-1.8-1.76-.39-1.87-.38-1.71.21-3.57.42-5.24.75-4.91.99-9.77,1.02-14.97,1.5-.27.03-.49.73-.75.75-2.2.17-5.3.18-7.49,0-.27-.02-.47-.72-.75-.75-4.06-.43-7.42-.34-11.23-1.5-15.35-4.67-28.54-17.7-34.06-32.57-.41-1.11-.96-2.11-.75-3.36-1.3-.16-2.25-.06-2.99,1.12-7.62,12.05-25.05,25.04-37.81,30.32-4.35,1.8-9.87,3.6-14.22,4.49-1.04.22-2.67.7-3,.75-5.36.79-18.98.27-23.96-.75-1.05-.21-3.39-1.21-4.49-1.49-7.2-1.85-11.71-4.25-17.97-8.24-9.64-6.15-15.01-11.78-20.58-22.09-.34-.62-1.41-2.48-1.87-2.62-2.37-.7-1.59.65-1.88,1.13-.31.51-2.57,3.25-2.99,3.74-8.04,9.33-20.53,16.92-31.82,19.84-2.47.64-4.28.44-6.74.75-.27.03-.48.72-.74.75-8.54.77-19.46-.21-26.96-3-.45-.17-1.71-1.1-2.24-1.49-.64-.24-1.77.73-1.87,1.12v25.45c1.74,2.78,3.78,1.52,6.36,1.88.28.03.46.69.75.75,14.06,2.49,28.21,3.72,42.67,5.24,12.32,1.29,25.65,3.22,38.18,3.74,45.26,1.87,92.64,1.21,135.51-5.24,11.34-1.71,22.48-2.56,33.69-4.49,5.37-.93,11.17-2.87,16.47-3.75,1.59-.26,4.96.5,5.61-1.87ZM313.987,317.435c.34-7.33-.25-14.76,0-22.09-1.2-.41-1.58.7-1.87.75-19.85,3.4-39.76,6.43-59.89,8.99-14.61,1.85-30.18,2.83-44.92,3.74-32.77,2.04-67.63.88-99.57-1.5-9.68-.72-19.82-.83-29.2-2.24-13.25-2-26.63-3.88-39.67-5.99-1.03-.17-2.29.11-3.37,0v26.58c0,1.07,2.15.97,2.62,1.12,4.12,1.32,8.36,1.47,12.72,2.25,9.53,1.7,19.5,4.01,29.2,5.24,9.59,1.21,18.67,2.19,28.45,2.99,8.76.72,18.07,2.4,26.95,3,51.49,3.48,106.71,2.14,155.72-5.24,6.5-.98,13.05-1.09,19.46-2.25.3-.05.67-1.16,1.88-.75.09-.84-.16-1.85,0-2.62.82-4.14.51-6.9.74-11.23.02-.26.74-.49.75-.75ZM312.497,343.645c.36-2.89.44-6.54-3.37-5.62-2.05.49-4.68,1.09-6.74,1.5-6.55,1.31-13.53,1.24-20.21,2.24-11.08,1.67-23.14,2.91-34.44,3.75-41.19,3.06-84.91,1.59-125.78-.75-7.39-.43-15.87-1.89-23.2-3-14.29-2.15-27.95-3.19-41.93-5.99-6.47-1.29-12.9-1.87-19.46-2.99-.29-.05-.67-1.16-1.87-.75v36.69c1.46-.45,1.74,1.01,2.62,1.5,17.25,9.56,38.06,15.97,56.15,20.21,12.96,3.04,27.6,4.74,41.17,5.99,14.67,1.36,31.33,1.35,45.67.75,12.88-.54,25.52.19,38.18-.75,13.51-1,26.94-3.15,39.68-5.99,8.81-1.97,16.26-4.12,24.7-7.49,7.08-2.81,14.54-6.4,20.96-10.48,1.25-.79,2.56-1.49,3.75-2.24,2.79-1.79,1.54-3.74,1.87-6.37.79-6.33.88-12.92,1.5-19.47.02-.27.71-.47.75-.74ZM249.607,103.305c.17-1.87.19-4.89,0-6.74-.03-.27-.71-.47-.75-.75-.17-1.16.2-2.61,0-3.74-.05-.28-.67-.45-.75-.75-4.01-16.22-22.49-24.03-36.31-28.83-1.32-.45-1.88-.44-2.99-.74-.33-.09-1.97-1.44-2.25-1.5-.96-.21-2.31.14-3.37,0,.4,1.23-.59,1.43-.75,1.87-1.25,3.48-3.36,12.83-3.74,16.47-.22,2.11.35,4.78,0,6.74-.05.26-.61.43-.75.75-.17.4.13.99,0,1.12-.09.1-2.06.44-2.62.75l-1.87-.75c.28-3.74-.38-7.92,0-11.6.29-2.8,1.56-8.04,2.25-11.23.05-.26,1.43-1.98,1.49-2.25.24-1.03-.03-3.07-1.12-3.37-1.97-.53-8.57,0-11.23,0-.25,0-.46.7-.75.75-4.67.83-9.01,1.62-13.47,2.99-23.83,10.69-36.37,34.25-28.83,58.78,1.64,5.33,4.79,10.9,8.24,14.97,5.09,6.01,13.27,10.88,20.59,13.11,3.34,1.01,6.91.96,10.48,1.49.28.05.48.72.75.75,7.35.76,14.42-.94,20.96-2.24,3.54-.71,7.84-1.58,11.23-3,1.9-.79,4.19-2.16,5.99-2.99,13.16-6.11,24.41-18.44,28.07-32.57.64-2.47.44-4.29.75-6.74.04-.28.72-.48.75-.75Z" fill="#000000"/>
<path d="M349.927,202.885c.35,1.76,1.76,11.61,1.49,12.73-.97,4.17-.53,8.58-1.49,12.72-3.89,16.76-15.32,31.84-31.07,40.06-3.37,1.76-7.83,3.74-11.23,4.49-3.42.76-6.87.45-10.48.75-.27.02-.49.73-.75.75-4.15.28-11.75.49-15.72,0-.28-.03-.46-.7-.75-.75-.92-.16-2.11.18-3,0-.16-.03-1.56-.54-2.24-.75-13.4-4.08-25.57-15.66-31.07-28.82-1.08-2.58-2.29-7.11-2.99-9.74-.31-1.14.53-2.44-1.13-3.37h-2.99c-.71,1.08-2.01,2.4-2.62,3.37-18.38,29.13-56.55,49.45-88.72,34.07-10.98-5.04-20.46-12.44-26.57-22.84-2.35-3.99-3.33-6.22-4.5-10.48-.08-.3-1.52-2.52-1.87-2.62-1.66-.46-3.24.49-4.12,1.87-.2.33-.54,1.93-.74,2.25-7.75,11.84-15.58,18.56-28.83,23.58-.43.17-1.9,1.41-2.24,1.5-12.16,3.32-26.9,3.5-38.18-2.24C12.617,247.765-.363,216.345,9.287,190.905c9.55-27.37,34.25-46,58.77-59.52,7.35-4.06,14.63-6.94,22.46-9.74,3.21-1.14,6.48-2.72,9.73-3.74,4.17-1.32,8.62-1.97,12.73-3,4.12-1.02,9.28-2.57,13.48-2.99,1.88-.19,4.24.31,5.99,0,.29-.05.67-1.16,1.87-.75.08.6-.14,1.37,0,1.87,1.07,3.99,1.65,8.09,2.99,11.98,3.21,9.32,9.83,17.92,18.34,23.59,3.58,2.38,7.85,3.92,11.98,5.24,26.52,8.47,58.08-1.02,76.74-22.84,1.65-3.31,4.18-6.03,5.24-9.73.04-.13,1.74-1.84,1.87-1.87,1.78-.49,2.65.68,3,.75,1.72.3,3.45.29,5.24.74,31.51,7.96,63.22,24.07,80.48,54.29,1.89,3.32,5.7,9.68,6.73,13.47,1.3,4.74,2.05,9.49,3,14.23Z" fill="#fff"/>
<path d="M314.737,277.755c.21.77.21,9.73,0,10.48-.65,2.37-4.02,1.61-5.61,1.87-5.3.88-11.1,2.82-16.47,3.75-11.21,1.93-22.35,2.78-33.69,4.49-42.87,6.45-90.25,7.11-135.51,5.24-12.53-.52-25.86-2.45-38.18-3.74-14.46-1.52-28.61-2.75-42.67-5.24-.29-.06-.47-.72-.75-.75-2.58-.36-4.62.9-6.36-1.88v-25.45c.1-.39,1.23-1.36,1.87-1.12.53.39,1.79,1.32,2.24,1.49,7.5,2.79,18.42,3.77,26.96,3,.26-.03.47-.72.74-.75,2.46-.31,4.27-.11,6.74-.75,11.29-2.92,23.78-10.51,31.82-19.84.42-.49,2.68-3.23,2.99-3.74.29-.48-.49-1.83,1.88-1.13.46.14,1.53,2,1.87,2.62,5.57,10.31,10.94,15.94,20.58,22.09,6.26,3.99,10.77,6.39,17.97,8.24,1.1.28,3.44,1.28,4.49,1.49,4.98,1.02,18.6,1.54,23.96.75.33-.05,1.96-.53,3-.75,4.35-.89,9.87-2.69,14.22-4.49,12.76-5.28,30.19-18.27,37.81-30.32.74-1.18,1.69-1.28,2.99-1.12-.21,1.25.34,2.25.75,3.36,5.52,14.87,18.71,27.9,34.06,32.57,3.81,1.16,7.17,1.07,11.23,1.5.28.03.48.73.75.75,2.19.18,5.29.17,7.49,0,.26-.02.48-.72.75-.75,5.2-.48,10.06-.51,14.97-1.5,1.67-.33,3.53-.54,5.24-.75.11-.01,1.39-1.42,1.87.38Z" fill="#fff"/>
<path d="M313.987,295.345c-.25,7.33.34,14.76,0,22.09-.01.26-.73.49-.75.75-.23,4.33.08,7.09-.74,11.23-.16.77.09,1.78,0,2.62-1.21-.41-1.58.7-1.88.75-6.41,1.16-12.96,1.27-19.46,2.25-49.01,7.38-104.23,8.72-155.72,5.24-8.88-.6-18.19-2.28-26.95-3-9.78-.8-18.86-1.78-28.45-2.99-9.7-1.23-19.67-3.54-29.2-5.24-4.36-.78-8.6-.93-12.72-2.25-.47-.15-2.62-.05-2.62-1.12v-26.58c1.08.11,2.34-.17,3.37,0,13.04,2.11,26.42,3.99,39.67,5.99,9.38,1.41,19.52,1.52,29.2,2.24,31.94,2.38,66.8,3.54,99.57,1.5,14.74-.91,30.31-1.89,44.92-3.74,20.13-2.56,40.04-5.59,59.89-8.99.29-.05.67-1.16,1.87-.75Z" fill="#fff"/>
<path d="M309.127,338.025c3.81-.92,3.73,2.73,3.37,5.62-.04.27-.73.47-.75.74-.62,6.55-.71,13.14-1.5,19.47-.33,2.63.92,4.58-1.87,6.37-1.19.75-2.5,1.45-3.75,2.24-6.42,4.08-13.88,7.67-20.96,10.48-8.44,3.37-15.89,5.52-24.7,7.49-12.74,2.84-26.17,4.99-39.68,5.99-12.66.94-25.3.21-38.18.75-14.34.6-31,.61-45.67-.75-13.57-1.25-28.21-2.95-41.17-5.99-18.09-4.24-38.9-10.65-56.15-20.21-.88-.49-1.16-1.95-2.62-1.5v-36.69c1.2-.41,1.58.7,1.87.75,6.56,1.12,12.99,1.7,19.46,2.99,13.98,2.8,27.64,3.84,41.93,5.99,7.33,1.11,15.81,2.57,23.2,3,40.87,2.34,84.59,3.81,125.78.75,11.3-.84,23.36-2.08,34.44-3.75,6.68-1,13.66-.93,20.21-2.24,2.06-.41,4.69-1.01,6.74-1.5Z" fill="#fff"/>
<path d="M249.607,96.565c.19,1.85.17,4.87,0,6.74-.03.27-.71.47-.75.75-.31,2.45-.11,4.27-.75,6.74-3.66,14.13-14.91,26.46-28.07,32.57-1.8.83-4.09,2.2-5.99,2.99-3.39,1.42-7.69,2.29-11.23,3-6.54,1.3-13.61,3-20.96,2.24-.27-.03-.47-.7-.75-.75-3.57-.53-7.14-.48-10.48-1.49-7.32-2.23-15.5-7.1-20.59-13.11-3.45-4.07-6.6-9.64-8.24-14.97-7.54-24.53,5-48.09,28.83-58.78,4.46-1.37,8.8-2.16,13.47-2.99.29-.05.5-.75.75-.75,2.66,0,9.26-.53,11.23,0,1.09.3,1.36,2.34,1.12,3.37-.06.27-1.44,1.99-1.49,2.25-.69,3.19-1.96,8.43-2.25,11.23-.38,3.68.28,7.86,0,11.6l1.87.75c.56-.31,2.53-.65,2.62-.75.13-.13-.17-.72,0-1.12.14-.32.7-.49.75-.75.35-1.96-.22-4.63,0-6.74.38-3.64,2.49-12.99,3.74-16.47.16-.44,1.15-.64.75-1.87,1.06.14,2.41-.21,3.37,0,.28.06,1.92,1.41,2.25,1.5,1.11.3,1.67.29,2.99.74,13.82,4.8,32.3,12.61,36.31,28.83.08.3.7.47.75.75.2,1.13-.17,2.58,0,3.74.04.28.72.48.75.75Z" fill="#fff"/>
</svg>