<?xml version="1.0" encoding="UTF-8"?><svg id="a" xmlns="http://www.w3.org/2000/svg" width="176.389mm" height="176.389mm" viewBox="0 0 500 500"><g id="b">
<path d="M308.915,250.614h0c-4.112,0-7.3,1.99-7.932,4.951-.796,3.724,2.679,7.517,7.91,8.635.94.201,1.887.303,2.816.303,4.112,0,7.299-1.99,7.932-4.951.796-3.724-2.679-7.517-7.91-8.635-.94-.201-1.887-.303-2.816-.303ZM317.778,259.154c-.451,2.11-2.97,3.444-6.069,3.444-.777,0-1.591-.084-2.418-.261-4.123-.881-7.009-3.735-6.445-6.374.451-2.11,2.97-3.444,6.069-3.444.777,0,1.591.084,2.418.261,4.123.881,7.009,3.734,6.445,6.374Z" fill="#000000"/>
<path d="M317.724,242.548c-1.071,1.447-1.244,3.432-.476,5.445.668,1.751,1.994,3.423,3.733,4.71,1.926,1.425,4.103,2.209,6.129,2.209,1.938,0,3.548-.734,4.534-2.066,1.071-1.447,1.244-3.432.476-5.445-.668-1.751-1.994-3.423-3.733-4.71-1.926-1.425-4.102-2.209-6.129-2.209h0c-1.938-.001-3.548.733-4.534,2.066ZM327.254,244.222c2.998,2.218,4.278,5.571,2.858,7.49-.643.869-1.729,1.295-3.003,1.295-1.54,0-3.355-.622-4.996-1.836-2.998-2.218-4.278-5.571-2.858-7.49.643-.869,1.728-1.294,3.003-1.294,1.54,0,3.356.621,4.996,1.835Z" fill="#302e45"/><path d="M255.513,316.057c-.157,0-.314.008-.472.025-3.216.345-5.363,4.084-4.887,8.511.447,4.164,3.074,7.304,6.111,7.304.157,0,.314-.008.472-.025,1.67-.179,3.138-1.307,4.029-3.094.764-1.533,1.069-3.457.858-5.417-.448-4.164-3.075-7.304-6.111-7.304ZM256.533,329.978c-.09.01-.18.014-.269.014-2.02,0-3.876-2.429-4.216-5.603-.356-3.314,1.075-6.186,3.196-6.414.09-.01.179-.014.269-.014,2.02,0,3.876,2.429,4.217,5.603.355,3.315-1.076,6.187-3.197,6.414Z" fill="#000000"/>
<path d="M243.99,325.688h0c-.139,0-.279.007-.418.022-1.465.157-2.746,1.133-3.516,2.678-.642,1.287-.898,2.897-.723,4.532.378,3.516,2.637,6.168,5.256,6.168.139,0,.278-.007.418-.022,1.465-.157,2.746-1.134,3.516-2.678.642-1.287.898-2.897.723-4.532-.378-3.516-2.637-6.168-5.256-6.168ZM244.803,337.172c-.072.008-.143.011-.214.011-1.61,0-3.09-1.936-3.361-4.466-.284-2.642.857-4.931,2.548-5.113.072-.008.143-.011.214-.011,1.61,0,3.09,1.936,3.361,4.466.284,2.643-.857,4.932-2.548,5.113Z" fill="#000000"/>
<path d="M259.5,340.794c.47-1.42.55-2.904.225-4.177-.397-1.553-1.375-2.693-2.685-3.126-.375-.124-.767-.187-1.165-.187h0c-2.182,0-4.257,1.842-5.164,4.582-.47,1.42-.55,2.904-.225,4.177.397,1.553,1.375,2.692,2.685,3.126.375.124.767.187,1.165.187,2.182,0,4.257-1.841,5.164-4.582ZM254.336,343.471c-.193,0-.383-.029-.567-.09-1.428-.472-1.988-2.664-1.25-4.896.643-1.943,2.057-3.275,3.355-3.275.193,0,.383.029.567.09,1.428.472,1.988,2.664,1.25,4.895-.643,1.944-2.057,3.276-3.355,3.276Z" fill="none"/>
<path d="M172.923,221.438c-6.027,2.559-11.755,4.45-16.92,5.848.407.832.8,1.666,1.225,2.494.384.75.777,1.498,1.177,2.243,1.996,3.716,4.2,7.367,6.604,10.896-.173-.254-.351-.505-.522-.76,5.387-1.85,11.184-4.229,16.865-7.263-3.229-4.577-6.019-9.083-8.429-13.458Z" fill="none"/>
<path d="M152.26,187.257c-3.591,0-6.985-.165-10.109-.423.821,3.665,1.827,7.708,3.058,12,.393,1.373.81,2.772,1.251,4.191.211.679.428,1.363.651,2.051,5.156-.585,10.942-1.504,17.045-2.93-.975-2.688-1.816-5.264-2.529-7.693-.783-2.662-1.421-5.153-1.945-7.445-2.543.166-5.029.249-7.422.249Z" fill="none"/>
<path d="M150.234,213.978c.567,1.492,1.162,2.993,1.784,4.499.898,2.17,1.855,4.349,2.872,6.524,5.123-1.365,10.825-3.22,16.844-5.766-.103-.196-.212-.393-.313-.588-1.158-2.22-2.22-4.401-3.193-6.534s-1.858-4.218-2.663-6.246c-.183-.461-.347-.908-.522-1.363-6.115,1.443-11.93,2.387-17.131,2.994.719,2.131,1.491,4.296,2.322,6.48Z" fill="none"/>
<path d="M202.796,273.775s.593-.98,1.416-2.328c.412-.674.881-1.44,1.362-2.223.321-.521.648-1.05.966-1.563.796-1.283,1.543-2.469,2.031-3.204-1.385-1.177-2.732-2.358-4.043-3.543-2.621-2.37-5.095-4.754-7.43-7.143-.326-.334-.629-.668-.95-1.002-4.471,3.784-9.01,7.032-13.325,9.782,5.867,4.702,12.488,8.574,19.973,11.224Z" fill="none"/>
<path d="M166.491,245.066c2.998,4.182,6.311,8.156,9.969,11.8,1.396,1.39,2.858,2.715,4.355,4.001,4.393-2.76,9.034-6.052,13.611-9.916-1.353-1.452-2.672-2.904-3.926-4.355-2.066-2.391-4.002-4.778-5.816-7.153-.642-.84-1.25-1.677-1.862-2.514-5.677,3.054-11.466,5.463-16.873,7.352.183.26.356.526.542.785Z" fill="none"/>
<path d="M186.268,380.54c-.772-.44-1.638-.663-2.492-.663-1.253,0-2.48.479-3.347,1.453-1.343,1.524-.972,3.258-.972,3.258-.485-1.124-1.114-1.933-1.762-2.505-.815-.717-1.791-1.04-2.757-1.04-2.091,0-4.133,1.517-4.387,3.85-.181,1.635.103,3.429.434,4.875.136.043.276.077.417.11.136.032.268.073.406.096.318.052.643.082.974.084.056,0,.112,0,.168-.002.54-.011,1.115-.032,1.717-.062.033-.001.066-.003.099-.005.562-.029,1.152-.069,1.76-.118.059-.005.116-.009.176-.014.636-.053,1.294-.12,1.971-.2.088-.01.181-.024.27-.035.557-.069,1.128-.149,1.707-.239.191-.03.383-.06.576-.092.582-.097,1.172-.205,1.77-.325.116-.024.23-.043.347-.067.68-.142,1.37-.304,2.064-.48.224-.057.45-.12.676-.181.508-.137,1.018-.285,1.53-.442.24-.074.48-.145.721-.224.693-.225,1.387-.467,2.079-.734.037-.015.074-.032.111-.046-.924-3.586-2.695-5.367-4.256-6.252Z" fill="none"/>
<path d="M209.882,260.569c.218.264.449.518.691.76,4.778-6.603,17.717-21.914,40.394-31.073,10.216-4.127,20.992-6.219,32.027-6.219,20.005,0,39.726,7.038,55.532,19.817,1.401,1.132,2.818,2.346,4.214,3.607l.108.087.049.054c3.347,3.037,6.496,6.327,9.363,9.783,44.939,45.332,73.711,57.258,84,60.283.581.171,1.203.338,2.014.541,1.448.362,5.128,1.473,7.996,3.951.144.125.269.264.402.396.056-.095.12-.186.173-.284.333-.613.609-1.261.82-1.938.316-1.015.487-2.094.487-3.212,0-5.963-4.851-10.814-10.814-10.814-2.869,0-5.571,1.136-7.564,3.086-.133-1.367-.522-2.66-1.118-3.831-.298-.586-.647-1.141-1.043-1.659-.989-1.296-2.263-2.362-3.728-3.105-1.465-.742-3.121-1.161-4.873-1.161-.398,0-.794.021-1.185.064-1.173.128-2.306.447-3.369.945.05-.421.076-.844.076-1.267,0-5.963-4.851-10.814-10.814-10.814-1.665,0-3.267.372-4.717,1.079.118-.446.207-.9.267-1.36.06-.46.09-.926.09-1.395,0-2.981-1.213-5.685-3.171-7.643-.489-.49-1.025-.933-1.601-1.322-.576-.389-1.19-.724-1.837-.998-1.293-.548-2.714-.851-4.205-.851-.423,0-.841.025-1.251.074-1.231.146-2.397.503-3.469,1.026.287-.829.481-1.701.56-2.605.026-.302.04-.607.04-.915,0-1.118-.171-2.197-.487-3.212-.211-.677-.487-1.325-.82-1.938-.333-.612-.724-1.19-1.165-1.724-.662-.802-1.437-1.506-2.3-2.09-.576-.389-1.19-.724-1.837-.998-1.293-.548-2.714-.851-4.205-.851-.955,0-1.873.141-2.754.377-.655.176-1.292.4-1.894.688.099-.28.187-.566.264-.856.077-.29.142-.584.195-.883.106-.598.163-1.212.163-1.84,0-1.118-.171-2.197-.487-3.212-.211-.677-.487-1.325-.82-1.938-.333-.613-.724-1.19-1.165-1.724-.661-.802-1.436-1.506-2.299-2.09-.576-.389-1.19-.724-1.837-.998-1.293-.548-2.714-.851-4.205-.851-1.641,0-3.192.378-4.587,1.035.179-.361.339-.732.478-1.114.278-.763.474-1.565.574-2.396.05-.416.076-.839.076-1.268,0-5.963-4.851-10.814-10.814-10.814-1.451,0-2.834.29-4.098.813-.758.314-1.474.711-2.135,1.18.216-.851.343-1.737.343-2.654,0-1.118-.171-2.197-.487-3.212-.211-.677-.487-1.325-.82-1.938-.166-.307-.347-.604-.542-.892-1.946-2.877-5.238-4.772-8.965-4.772-1.157,0-2.27.183-3.314.522-.348.112-.688.243-1.02.389-.664.293-1.292.651-1.878,1.065s-1.129.885-1.622,1.404c.008-.172.026-.341.026-.515,0-2.236-.682-4.316-1.849-6.042-.39-.575-.833-1.111-1.322-1.601s-1.026-.933-1.601-1.322c-.288-.194-.586-.375-.892-.542-.613-.333-1.261-.609-1.938-.82-1.015-.316-2.094-.487-3.212-.487-.995,0-1.958.136-2.873.389-1.372.38-2.635,1.025-3.731,1.876-.731.568-1.387,1.227-1.952,1.96-.283.367-.542.752-.777,1.153-.323-1.915-1.15-3.661-2.339-5.095-.397-.478-.833-.921-1.305-1.325-.472-.404-.979-.767-1.515-1.086-1.341-.797-2.869-1.311-4.501-1.46-.326-.03-.657-.045-.991-.045-4.983,0-9.178,3.392-10.426,7.985-.108-.231-.223-.457-.346-.679-.246-.443-.523-.867-.826-1.27-.759-1.007-1.689-1.878-2.746-2.568-1.48-.967-3.211-1.58-5.073-1.718-.266-.02-.535-.03-.806-.03-1.795,0-3.488.439-4.979,1.216-.895.466-1.716,1.053-2.443,1.74-.35.33-.669.691-.973,1.066-.327.403-.634.822-.901,1.27-.171.288-.33.585-.475.889-.29.609-.524,1.249-.697,1.913-.173.664-.284,1.353-.327,2.06-1.976-1.921-4.639-3.032-7.51-3.032-1.118,0-2.197.17-3.212.487-.567.177-1.108.409-1.631.672-.22.111-.434.229-.645.354-.486.287-.954.602-1.387.96-.534.441-1.026.933-1.467,1.467-.357.433-.672.901-.96,1.387-.124.211-.242.425-.353.645-.263.523-.495,1.064-.672,1.631-.316,1.015-.487,2.094-.487,3.212,0,.22.02.435.033.652-.233-.192-.475-.375-.724-.547-.498-.344-1.027-.649-1.581-.907-.277-.129-.56-.247-.849-.353-.342-.125-.694-.227-1.051-.318-.85-.216-1.738-.336-2.654-.336-3.513,0-6.631,1.692-8.608,4.296-.33.434-.637.886-.899,1.368-.333.613-.609,1.261-.82,1.938-.316,1.015-.487,2.094-.487,3.212,0,.579.047,1.147.136,1.7.089.553.22,1.093.389,1.616-.745-.343-1.536-.598-2.358-.768-.673-.139-1.367-.219-2.08-.224-.023,0-.044-.004-.067-.004-1.118,0-2.197.171-3.212.487-1.354.422-2.594,1.104-3.663,1.986-.534.441-1.026.933-1.467,1.467-.22.267-.428.545-.623.833-1.167,1.726-1.853,3.801-1.853,6.037s.682,4.316,1.849,6.042c.194.288.402.566.623.833Z" fill="none"/>
<path d="M160.847,332.641c-3.256,3.938-4.475,9.174-3.295,14.145l9.175,38.437c.323,1.357,1.078,2.518,2.088,3.366-.233-1.455-.287-2.744-.159-3.902.345-3.164,3.045-5.549,6.281-5.549,1.387,0,2.68.448,3.761,1.302.095-.126.197-.251.307-.376,1.182-1.329,2.921-2.092,4.77-2.092,1.2,0,2.388.316,3.432.911,1.697.962,3.931,2.997,5.08,7.171,2.265-1.014,4.48-2.273,6.535-3.844,2.06-1.574,2.959-4.244,2.252-6.738l-5.478-19.732c-3.768,1.964-7.617,2.949-7.617,2.949l7.147-4.644,11.426-7.904c-13.282-6.514-25.441-14.844-36.318-24.854l-9.387,11.354Z" fill="none"/>
<path d="M161.483,312.582c-14.745-15.888-27.391-34.351-37.586-54.876-14.246-28.681-21.998-59.932-22.419-90.376-.309-22.358,3.165-40.363,10.326-53.514,7.301-13.407,21.071-21.735,35.936-21.735,3.112,0,6.227.376,9.258,1.116.604.147,1.197.309,1.782.481-.348-1.244-.945-2.385-1.746-3.355-.373-.452-.789-.868-1.241-1.241-.452-.373-.94-.704-1.459-.986-1.297-.705-2.782-1.106-4.359-1.106-.402,0-.798.026-1.186.077-.776.101-1.522.301-2.225.585-.703.284-1.363.653-1.967,1.095-.604.441-1.152.955-1.632,1.528-.24.286-.463.588-.667.902-1.53-2.923-4.588-4.926-8.11-4.926-5.047,0-9.152,4.106-9.152,9.152,0,.072.009.142.011.214-.188-.136-.381-.266-.58-.388-.795-.488-1.667-.861-2.596-1.09-.696-.171-1.424-.263-2.173-.263-3.154,0-5.941,1.604-7.587,4.039-.988,1.46-1.565,3.221-1.565,5.113,0,1.256.255,2.454.715,3.545-.606-.127-1.233-.195-1.876-.195-.946,0-1.859.144-2.718.412-1.146.357-2.196.933-3.1,1.68-.452.373-.868.789-1.241,1.241-1.306,1.583-2.092,3.61-2.092,5.818,0,1.31.278,2.554.777,3.68.374.844.873,1.622,1.472,2.31.2.23.411.449.632.658-4.587.491-8.172,4.383-8.172,9.098,0,1.955.617,3.767,1.665,5.255.42.595.908,1.139,1.454,1.618.273.24.56.464.86.67-.494.126-.972.293-1.431.496-.23.102-.454.213-.673.332-1.094.596-2.055,1.409-2.822,2.381-1.227,1.555-1.961,3.516-1.961,5.648,0,1.798.522,3.474,1.422,4.887.45.707.994,1.348,1.615,1.906.31.279.64.537.986.772.347.235.71.447,1.088.634-.378.187-.742.399-1.088.634-.346.235-.676.493-.986.772-.62.558-1.165,1.199-1.615,1.906-.9,1.414-1.422,3.09-1.422,4.887,0,3.772,2.294,7.017,5.56,8.416-.349.196-.685.415-1.004.653-1.277.954-2.298,2.232-2.939,3.712-.48,1.11-.747,2.333-.747,3.618,0,.493.039.977.115,1.449.038.236.084.469.14.698.167.689.412,1.347.725,1.965.208.412.447.806.714,1.179.267.374.561.726.879,1.055.318.329.661.634,1.025.913.728.557,1.542,1.008,2.418,1.329-.66.402-1.265.885-1.802,1.434-.537.55-1.006,1.166-1.392,1.835-.772,1.338-1.215,2.89-1.215,4.544,0,2.684,1.164,5.098,3.012,6.771,1.109,1.004,2.464,1.74,3.963,2.108-.761.63-1.418,1.38-1.942,2.221-.699,1.121-1.163,2.404-1.32,3.779-.04.344-.06.693-.06,1.047,0,.55.049,1.088.142,1.611.186,1.046.551,2.031,1.062,2.922.255.445.547.867.871,1.262.486.592,1.045,1.122,1.663,1.577.824.606,1.752,1.077,2.753,1.382.25.077.504.142.763.197-2.116,1.678-3.48,4.265-3.48,7.169,0,.894.129,1.757.369,2.574.16.544.37,1.068.623,1.565.507.995,1.191,1.885,2.01,2.629,1.433,1.302,3.28,2.157,5.317,2.342-.429.416-.817.873-1.158,1.365-.853,1.23-1.413,2.678-1.576,4.242-.032.313-.049.631-.049.952,0,1.577.401,3.062,1.106,4.359.282.518.613,1.007.986,1.459,1.679,2.035,4.22,3.334,7.059,3.334.072,0,.141-.009.212-.011-1.147,1.529-1.835,3.42-1.835,5.474,0,5.047,4.106,9.152,9.152,9.152.257,0,.509-.018.76-.039-.135.187-.262.38-.382.577-.121.197-.234.399-.339.606-.633,1.24-.992,2.641-.992,4.126,0,2.208.786,4.235,2.093,5.818.373.452.789.868,1.241,1.241.905.746,1.954,1.323,3.1,1.68.86.268,1.773.412,2.719.412.565,0,1.116-.059,1.654-.158-.71,1.3-1.115,2.791-1.115,4.374,0,5.046,4.106,9.152,9.152,9.152.823,0,1.616-.12,2.375-.324-.175.323-.331.658-.467,1.003-.408,1.035-.632,2.162-.632,3.34,0,2.523,1.027,4.811,2.684,6.468,1.243,1.243,2.84,2.131,4.626,2.497.595.122,1.211.186,1.842.186.724,0,1.429-.087,2.104-.249.676-.162,1.322-.4,1.932-.701-.099.539-.158,1.092-.158,1.659,0,5.047,4.106,9.152,9.149,9.15.758,0,1.49-.103,2.195-.277-2.121-2.041-4.196-4.141-6.213-6.314Z" fill="none"/>
<path d="M157.4,173.578c-3.343-.454-6.548-1.157-9.452-2.005-3.213-.891-5.897-1.97-8.144-3.131-.323-.164-.637-.329-.935-.495.036.308.699,6.736,2.726,16.333,5.174.461,11.15.664,17.552.267-1.008-4.868-1.479-8.65-1.747-10.969Z" fill="none"/>
<path d="M63.694,371c4.774-.39,8.327-4.575,7.938-9.348-.37-4.54-4.163-7.973-8.633-7.973-.237,0-.475.009-.715.029-1.699.139-3.233.758-4.499,1.709.005.069.008.135.014.204.021.237.046.477.07.716.05.499.108,1.004.174,1.515.026.209.049.416.079.627.093.672.203,1.355.325,2.047.039.226.083.453.125.681.121.644.251,1.295.397,1.957.025.112.046.221.071.333.175.773.371,1.562.581,2.36.049.184.099.368.148.554.224.824.46,1.656.724,2.506,0,0,.008.027.017.061q.003.008.005.017c.012.044.031.109.054.189.004.014.008.027.012.041.024.082.053.179.087.29.005.018.011.037.017.056.037.117.079.25.126.396.006.02.012.039.019.06.051.158.109.332.173.518.009.026.019.053.028.08.021.063.047.135.07.2.604.135,1.227.205,1.867.205.24,0,.482-.01.726-.03Z" fill="none"/>
<path d="M233.295,404.325c-.887-.688-1.97-1.051-3.04-1.051-1.019,0-2.028.329-2.846,1.022-1.543,1.305-1.419,3.077-1.419,3.077-.324-1.181-.829-2.057-1.391-2.724-.858-.997-2.031-1.456-3.2-1.456-1.879,0-3.745,1.188-4.268,3.238-.485,1.93-.353,4.201-.157,5.774.03.007.058.021.089.027.065.013.132.023.197.036.988.194,1.982.359,2.977.504.218.031.434.064.652.093,1.049.141,2.099.262,3.146.354.115.011.23.017.346.027.992.082,1.98.144,2.961.187.157.007.313.016.469.022,1.034.039,2.059.059,3.07.061.068,0,.138.004.205.004.135,0,.264-.005.399-.006.736-.004,1.466-.015,2.185-.035.073-.002.148-.002.22-.004.057-.002.111-.005.168-.007.021,0,.042,0,.062-.002.887-.029,1.762-.069,2.614-.12.057-5.125-1.753-7.725-3.439-9.021Z" fill="none"/>
<path d="M86.454,335.318c.273,0,.549-.011.826-.034,5.064-.414,8.937-4.521,9.193-9.451-.094-.055-.187-.109-.28-.164-.411-.242-.821-.473-1.23-.693-.23-.124-.461-.246-.69-.363-.323-.166-.644-.322-.964-.475-.256-.122-.512-.245-.766-.359-.317-.142-.63-.274-.944-.404-.235-.097-.472-.201-.705-.292-.462-.181-.918-.347-1.371-.504-.074-.026-.15-.056-.223-.081-.689-.233-1.378-.43-2.068-.599-.228-.056-.455-.093-.682-.142-.463-.1-.925-.196-1.387-.268-.268-.042-.535-.068-.802-.1-.42-.05-.839-.096-1.256-.124-.281-.019-.56-.027-.84-.035-.225-.007-.451-.028-.675-.028-.023,0-.047.002-.07.002-.175,0-.348.015-.523.019-.213.005-.425.012-.637.023-.064.003-.13.003-.194.007-.169.011-.339.023-.508.038-.254.022-.507.053-.76.083-.064.008-.128.013-.192.021-.114.015-.229.026-.343.043-.179.026-.357.058-.535.088-.237.04-.472.083-.707.13,0,.003-.002.007-.003.01-.533,1.372-.77,2.878-.642,4.442.427,5.241,4.814,9.211,9.978,9.21Z" fill="none"/>
<path d="M59.196,343.995c3.523-.288,6.142-3.373,5.855-6.896-.163-2.006-1.24-3.724-2.787-4.776-.003-.003-.006-.006-.01-.008-.071.118-.137.24-.205.359-.086.151-.175.299-.258.452-.02.038-.042.074-.062.112-.055.103-.115.202-.169.306-.257.494-.502.999-.729,1.519-.036.083-.069.172-.105.256-.208.484-.408.982-.601,1.493-.081.217-.159.44-.238.661-.152.426-.297.862-.437,1.307-.072.228-.145.455-.214.688-.19.647-.37,1.308-.531,1.992-.033.138-.059.286-.09.426-.131.584-.251,1.181-.359,1.793-.018.104-.034.212-.053.318.159.012.318.019.478.019.171,0,.342-.007.515-.021Z" fill="none"/>
<path d="M116.671,343.762c.713,1.123,9.857,15.948,5.502,30.455-1.84,6.126-5.789,11.231-11.769,15.246.115,0,.234.007.348.007,16.907,0,23.714-11.486,26.456-20.875.02-.067.04-.134.059-.2.123-.43.237-.855.344-1.274.018-.071.035-.141.053-.211.103-.414.199-.822.288-1.223.015-.07.03-.138.045-.207.087-.399.167-.792.24-1.175.011-.06.022-.119.033-.179.072-.389.139-.77.199-1.138.006-.039.012-.077.018-.116.061-.383.117-.756.166-1.113.001-.011.003-.021.004-.032.049-.359.091-.702.129-1.031.002-.023.005-.048.008-.071.036-.319.066-.62.093-.908.003-.036.007-.072.01-.107.025-.276.046-.534.064-.777.003-.037.005-.073.008-.108.017-.233.03-.45.041-.648.002-.034.003-.067.005-.1.009-.19.017-.364.023-.517,0-.026.002-.047.003-.072.005-.148.009-.28.011-.387,0-.017.001-.027.001-.043.002-.102.003-.189.003-.244v-.096c.032-.991.044-1.96.038-2.907-.013-1.894-.101-3.703-.255-5.429-.077-.863-.171-1.706-.28-2.528-.2-1.507-.459-2.939-.757-4.313-.19-.876-.393-1.733-.618-2.557-.386-1.411-.821-2.747-1.297-4.012-.401-1.066-.836-2.07-1.29-3.036-.623-1.327-1.286-2.573-1.985-3.723-.906-1.49-1.865-2.836-2.848-4.05-.434-.537-.891-1.042-1.357-1.53-.085-.09-.169-.18-.255-.268-.453-.461-.92-.899-1.399-1.314-.093-.081-.187-.158-.281-.237-.5-.42-1.01-.824-1.535-1.196-.011-.008-.022-.014-.033-.022-.52-.366-1.054-.702-1.595-1.02-.1-.059-.199-.12-.3-.177-.532-.302-1.074-.58-1.623-.836-.11-.051-.22-.099-.33-.148-.57-.254-1.145-.491-1.73-.695-.021-.007-.042-.013-.063-.02-.574-.198-1.157-.367-1.744-.517-.107-.027-.214-.057-.322-.083-.582-.139-1.168-.254-1.759-.346-.118-.018-.236-.033-.354-.05-.609-.085-1.22-.151-1.835-.185-.029-.002-.059,0-.088-.003-.373-.018-.747-.031-1.121-.031-.178,0-.357.016-.536.02-.223.005-.446.013-.67.025-.448.024-.896.065-1.344.117-.194.022-.388.039-.582.066-.635.09-1.269.201-1.901.347-.043.009-.085.024-.128.034-.589.139-1.174.305-1.757.493-.199.064-.396.139-.594.209-.432.152-.862.316-1.289.495-.216.091-.431.185-.646.283-.427.194-.85.406-1.271.628-.188.099-.378.193-.565.298-.599.336-1.191.693-1.773,1.087-1.215.823-2.445,1.772-3.669,2.849,8.28,4.191,15.448,11.368,21.356,21.426Z" fill="fff"/>
<path d="M120.835,365.464c-.01-.582-.039-1.16-.081-1.733-.004-.05-.006-.101-.01-.151-.045-.57-.106-1.135-.178-1.693-.007-.054-.013-.108-.02-.162-.075-.557-.163-1.107-.262-1.65-.011-.061-.022-.122-.033-.182-.101-.539-.212-1.071-.332-1.593-.012-.052-.025-.104-.037-.156-.123-.526-.255-1.043-.394-1.548-.011-.038-.022-.074-.032-.111-.142-.509-.291-1.009-.445-1.495-.009-.027-.018-.054-.027-.081-.159-.496-.322-.98-.489-1.448,0-.003-.002-.006-.003-.009-.028,0-.057,0-.086,0-.172,0-.343.009-.512.023-3.955.323-6.892,3.788-6.569,7.744.307,3.751,3.442,6.594,7.145,6.594.195,0,.393-.008.592-.024.604-.05,1.189-.171,1.742-.363,0-.013,0-.026.002-.039.03-.597.038-1.19.03-1.78,0-.048,0-.095,0-.142Z" fill="none"/>
<path d="M67.4,382.868c.268.362.544.724.831,1.082.009.011.018.022.027.033.283.352.576.702.876,1.048.037.043.073.086.111.129.299.341.607.678.924,1.01.053.054.106.108.158.163.325.337.658.67,1.002.995.018.017.037.033.055.05,4.162,3.913,9.702,6.89,16.931,6.89,4.151,0,8.856-.981,14.179-3.33,5.058-2.232,8.83-4.887,11.593-7.777.552-.578,1.065-1.166,1.539-1.761,1.897-2.382,3.184-4.891,4.005-7.431.205-.635.381-1.272.53-1.91.148-.638.271-1.276.368-1.913.035-.233.064-.465.093-.698-.46.112-.928.201-1.41.24-.25.02-.5.03-.747.03-4.689,0-8.661-3.665-9.043-8.344-.197-2.42.558-4.772,2.126-6.621,1.569-1.851,3.767-2.979,6.187-3.176.014,0,.027,0,.041-.002-1.604-3.965-3.239-6.507-3.239-6.507-4.012-6.841-8.349-11.814-12.669-15.411-1.08-.9-2.158-1.713-3.231-2.448-.121-.083-.241-.155-.362-.236-.768,5.448-5.258,9.757-10.838,10.212-.326.026-.656.04-.981.04-6.16,0-11.378-4.815-11.88-10.961-.113-1.38.009-2.734.359-4.044,0-.004.003-.008.004-.012-.064.02-.126.044-.189.064-.196.063-.391.131-.585.199-.423.148-.841.31-1.254.484-.176.075-.354.145-.528.224-.568.256-1.127.529-1.672.833-.003.002-.007.003-.01.005-.549.307-1.081.644-1.603.997-.157.106-.31.22-.465.331-.369.263-.73.537-1.084.824-.161.131-.322.263-.481.399-.373.321-.736.656-1.09,1.003-.107.105-.219.204-.325.312-.45.458-.882.937-1.297,1.438-.095.116-.184.239-.282.365-.269.338-.535.68-.788,1.037l.01.007.011.007c2.107,1.421,3.434,3.686,3.64,6.215.181,2.211-.51,4.359-1.945,6.049s-3.443,2.72-5.654,2.9c-.224.018-.447.027-.669.027-.215,0-.429-.009-.642-.026l-.108-.009c-.276,2.277-.389,4.723-.283,7.355,1.367-.803,2.891-1.303,4.482-1.433.289-.023.581-.035.87-.035,5.461,0,10.087,4.271,10.532,9.723.23,2.816-.651,5.553-2.479,7.706-1.829,2.153-4.386,3.465-7.202,3.695-.294.024-.591.036-.882.036-.366,0-.731-.022-1.094-.06h0c.008.02.018.042.026.063.226.558.482,1.159.769,1.792.015.034.03.068.046.102.141.311.291.629.447.954.021.043.042.086.063.129.324.668.68,1.362,1.069,2.073.022.041.044.082.067.123.191.346.39.695.596,1.047.03.05.059.1.089.15.215.363.437.728.669,1.095,0,0,.002.003.003.004.232.366.474.733.723,1.101.028.041.056.083.084.124.244.357.497.714.758,1.07.039.054.079.107.119.161ZM97.373,337.894c1.553-.132,3.059.357,4.245,1.365,1.187,1.008,1.91,2.416,2.036,3.968.261,3.201-2.131,6.018-5.333,6.279-.161.014-.32.02-.478.02-3,0-5.554-2.31-5.803-5.352-.261-3.202,2.131-6.019,5.333-6.28ZM96.25,370.232c5.273-.424,9.893,3.504,10.322,8.766.429,5.261-3.503,9.891-8.765,10.321-.264.021-.526.032-.785.032-4.931,0-9.129-3.798-9.537-8.797-.429-5.261,3.503-9.892,8.765-10.322ZM79.567,378.602c2.869-.234,5.383,1.908,5.616,4.77.113,1.387-.321,2.734-1.221,3.795-.901,1.06-2.16,1.707-3.547,1.82-.143.012-.286.018-.428.018-2.682,0-4.966-2.066-5.189-4.787-.233-2.863,1.906-5.383,4.769-5.616Z" fill="fff"/>
<path d="M145.691,374.394c-.037-.073-.08-.142-.119-.214-.081-.149-.164-.296-.255-.438-.052-.081-.108-.159-.163-.238-.088-.126-.177-.25-.272-.37-.063-.079-.128-.156-.194-.233-.097-.113-.197-.224-.301-.332-.07-.073-.14-.146-.213-.216-.11-.106-.225-.208-.341-.309-.073-.063-.145-.127-.22-.188-.131-.106-.268-.205-.405-.304-.066-.048-.131-.099-.199-.145-.207-.14-.42-.274-.64-.399-.019-.01-.039-.019-.058-.03-.203-.113-.41-.219-.621-.319-.08-.038-.163-.071-.244-.107-.153-.068-.307-.134-.465-.195-.095-.036-.191-.069-.287-.103-.148-.052-.297-.103-.448-.149-.101-.031-.203-.06-.305-.088-.151-.041-.302-.08-.455-.115-.015-.004-.03-.007-.045-.01-1.456,4.738-3.91,9.928-8.055,14.109-5.242,5.288-12.184,7.969-20.632,7.969-1.357,0-2.769-.079-4.211-.219-.974.512-1.98,1.007-3.037,1.473-5.327,2.35-10.437,3.542-15.189,3.542-7.292,0-13.853-2.821-19.288-8.208-1.592.903-2.913,2.169-3.481,3.883-.851,2.569.322,5.534,2.43,7.232.245.198.503.377.768.544.087.054.177.101.265.153.183.107.368.21.559.304.106.052.214.099.322.147.181.08.364.156.55.225.114.042.228.083.343.121.192.063.386.119.581.171.111.03.221.061.333.087.226.052.454.095.683.133.083.014.165.032.248.044.313.046.629.079.945.1.068.004.137.004.205.007.208.01.417.021.626.021.032,0,.064-.005.097-.005.38-.002.76-.018,1.136-.053,2.695-.252,5.265-1.238,7.732-2.35-2.523,1.278-3.378,4.962-2.723,7.713.655,2.751,3.02,4.937,5.747,5.688.377.104.761.177,1.146.231.125.017.25.023.375.036.264.026.527.046.792.051.057,0,.113.011.17.011.073,0,.145-.014.218-.016.352-.008.703-.033,1.053-.077.101-.013.201-.02.301-.035.434-.066.865-.158,1.289-.276.094-.026.185-.06.278-.088.342-.105.68-.225,1.011-.36.115-.047.229-.092.342-.143.406-.181.806-.376,1.188-.601,2.361-1.389,4.244-3.567,5.3-6.092.151-.361.285-.728.401-1.102-.124.493-.176.998-.166,1.506.01.508.082,1.017.207,1.517.249.999.707,1.959,1.294,2.789,1.173,1.66,2.952,2.839,4.877,3.49.406.137.824.241,1.246.329.087.018.174.037.261.053.411.075.827.129,1.245.158.072.005.145.005.218.009.181.009.363.022.545.022.186,0,.371-.016.556-.025.096-.005.193-.006.289-.013.422-.032.841-.087,1.255-.167.086-.016.171-.04.258-.059.342-.074.68-.167,1.012-.275.102-.033.205-.065.306-.101.396-.143.784-.305,1.157-.497.052-.026.1-.059.152-.087.324-.174.636-.369.937-.581.092-.065.183-.13.273-.198.338-.257.664-.529.963-.835,2.68-2.745,3.232-7.48.881-10.512.339.123.68.244,1.022.364.109.038.219.073.328.111.237.08.474.161.712.238.135.044.271.085.407.127.216.067.432.133.649.196.146.042.293.081.439.121.208.056.415.11.624.161.153.037.306.071.459.105.206.045.412.087.619.126.154.029.308.056.463.081.208.033.417.061.626.086.153.018.306.037.459.051.217.019.434.029.651.039.145.006.291.016.436.017.043,0,.086.005.129.005.302,0,.603-.011.906-.034,1.522-.115,3.06-.57,4.376-1.344,1.316-.774,2.408-1.867,3.039-3.257.646-1.425.743-3.081.31-4.582-.144-.5-.348-.983-.609-1.434-1.046-1.804-2.995-3.054-5.071-3.25.606.039,1.214.056,1.821.06.056,0,.111.005.167.005.314,0,.627-.012.94-.023.122-.004.245-.003.367-.009.502-.024,1.002-.062,1.499-.116.122-.013.243-.034.365-.049.374-.047.747-.099,1.117-.165.175-.031.348-.07.522-.105.317-.064.632-.134.945-.214.184-.047.367-.098.549-.151.304-.087.604-.184.902-.287.176-.061.353-.122.528-.189.315-.121.624-.256.932-.396.147-.067.296-.127.441-.199.447-.22.886-.457,1.314-.722,0,0,.002,0,.003-.002,1.608-.997,2.978-2.464,3.883-4.137,1.164-2.152,1.56-4.645.704-6.922-.09-.241-.194-.472-.307-.697Z" fill="none"/>
<path d="M98.165,347.609c1.044-.085,1.992-.571,2.67-1.37.677-.798,1.004-1.813.919-2.857-.167-2.047-1.886-3.602-3.905-3.602-.106,0-.213.004-.321.013-1.044.085-1.992.572-2.67,1.37-.677.799-1.004,1.814-.92,2.858.177,2.153,2.077,3.768,4.227,3.588Z" fill="none"/>
<path d="M80.261,387.088c.879-.072,1.679-.482,2.25-1.155.572-.673.847-1.527.775-2.407-.141-1.724-1.591-3.036-3.293-3.036-.089,0-.179.004-.27.011-1.816.148-3.173,1.747-3.025,3.563.149,1.815,1.749,3.16,3.563,3.024Z" fill="none"/>
<path d="M97.652,387.42c4.215-.344,7.365-4.053,7.021-8.268-.327-4.004-3.691-7.047-7.64-7.047-.209,0-.418.008-.629.025-4.215.345-7.364,4.054-7.021,8.27.344,4.213,4.038,7.355,8.269,7.02Z" fill="none"/>
<path d="M290.73,357.939c.332-.043.664-.087.996-.132,1.319-.177,2.637-.366,3.955-.581.033-.005.065-.01.098-.015.037-.006.073-.013.111-.019.198-.032.392-.068.589-.101.527-.089,1.053-.179,1.573-.272,0-.003,0-.007,0-.01-1.357-9.658-3.314-19.45-5.212-27.852-4.425.549-8.714.793-12.826.793-3.094,0-6.083-.142-8.963-.383.107.009.209.021.316.03-.126,8.201-.586,18.316-1.734,29.652.908.018,1.816.042,2.725.043.069,0,.139.003.208.003h.018c.309,0,.619-.007.929-.009,1.056-.007,2.113-.026,3.17-.056.386-.011.773-.021,1.159-.035,1.27-.046,2.541-.109,3.813-.189.315-.02.63-.045.945-.067.776-.054,1.552-.113,2.329-.18.095-.008.19-.018.285-.026v-.008c.28-.025.559-.043.839-.069.246-.023.493-.043.739-.067.305-.031.611-.073.917-.105v.008c1.007-.107,2.015-.225,3.022-.353Z" fill="none"/>
<path d="M147.285,140.257c3.17,0,6.085-1.193,8.434-3.181-1.16.584-2.431.909-3.766.909-5.412,0-9.799-5.3-9.799-11.838s4.387-11.838,9.799-11.838c4.183,0,7.744,3.173,9.15,7.63-1.107-7.443-6.863-13.122-13.818-13.122-7.747,0-14.026,7.038-14.026,15.72s6.28,15.72,14.026,15.72Z" fill="none"/>
<path d="M153.84,116.982c-1.962,0-3.552,1.59-3.552,3.552s1.59,3.553,3.552,3.553,3.553-1.59,3.553-3.553-1.591-3.552-3.553-3.552Z" fill="fff"/>
<path d="M400.244,335.795c1.959.448,3.884.828,5.755,1.118.003,0,.007,0,.011.002.516.08,1.028.154,1.537.223.036.005.072.009.109.014.479.064.955.123,1.428.178.049.006.098.012.147.017.464.053.925.101,1.382.145.049.005.098.009.147.014.461.044.92.082,1.375.117l.117.009c.472.035.941.066,1.406.092.02,0,.039.003.059.004,1.473.082,2.908.12,4.305.12.676,0,1.341-.01,1.999-.028.041,0,.083-.002.124-.003.27-.007.532-.022.799-.032-5.887-.971-12.306-2.899-19.242-5.788l-1.458,3.798Z" fill="fff"/>
<path d="M446.534,327.878c-.014-.233-.042-.466-.079-.698-.019-.1-.052-.199-.076-.298-.204-.828-.596-1.621-1.209-2.308-.161-.18-.333-.354-.523-.518-1.548-1.338-3.405-2.219-4.879-2.766-.884-.328-1.63-.536-2.089-.651-.708-.177-1.413-.362-2.113-.568-13.637-4.009-28.503-13.016-42.321-23.301,0,0,0,.001,0,.002-.038-.028-.075-.057-.113-.085,0,0,.001-.001.002-.001-5.241-3.905-10.325-7.99-15.137-12.058,0,0-.001.003-.001.004-.298-.251-.591-.503-.887-.754-5.047-4.294-9.77-8.546-14.037-12.529-.001,0-.001.002-.001.003-.284-.265-.561-.526-.841-.789-4.554-4.273-8.557-8.208-11.814-11.494-2.962-3.579-6.086-6.805-9.28-9.695-.004-.004-.014-.012-.014-.012-1.377-1.245-2.765-2.435-4.158-3.561-.987-.797-1.987-1.569-3.001-2.319-.001.003-.001.007-.002.01-.078-.058-.156-.114-.234-.171,0,0,.003-.002.004-.003-14.93-10.967-32.738-16.777-50.728-16.777-10.481,0-21.022,1.97-31.091,6.037-1.777.717-3.494,1.475-5.15,2.265-.828.395-1.641.798-2.439,1.208-1.596.82-3.133,1.668-4.61,2.537-.739.435-1.463.874-2.172,1.318-13.382,8.371-21.523,18.211-24.983,22.98-.279.384-.523.729-.741,1.044l.067.057-1.228,1.85c-1.515,2.281-5.675,9.16-5.717,9.229l-1.029,1.702c-1.952,3.786-3.78,8.029-4.712,12.039,0,0-.326-5.619,2.583-12.746-12.8-4.574-24.18-12.961-33.824-24.937-7.72-9.587-14.357-21.494-19.727-35.392-8.807-22.793-11.405-43.514-11.836-47.437l-.007-.06-.233-1.998c-6.165-4.338-7.406-8.885-7.406-8.885,2.459,2.79,5.399,5.018,8.441,6.8l1.762.978c8.973,4.717,18.2,5.752,18.2,5.752.967.18,1.91.337,2.843.484.227.035.452.07.677.104.916.138,1.82.265,2.703.371.053.006.105.011.158.017.839.099,1.66.182,2.47.254.209.019.418.037.625.054.837.068,1.663.126,2.469.166.084.004.165.005.249.009.74.034,1.465.054,2.179.065.188.003.376.006.561.007.15,0,.306.006.455.006.462,0,.908-.013,1.359-.023.208-.004.422-.003.628-.01.774-.024,1.532-.061,2.274-.113.154-.011.301-.027.453-.039.585-.046,1.163-.098,1.728-.16.246-.027.485-.059.727-.089.464-.058.923-.119,1.373-.188.252-.039.501-.079.748-.121.438-.074.868-.154,1.293-.238.229-.045.458-.089.683-.137.47-.101.929-.209,1.383-.322.161-.04.327-.076.486-.118.61-.159,1.207-.328,1.787-.508.085-.026.166-.056.251-.083.49-.156.971-.318,1.44-.488.176-.064.347-.131.52-.197.373-.141.741-.285,1.1-.435.183-.076.364-.154.544-.232.346-.151.685-.306,1.019-.465.166-.079.333-.157.496-.238.366-.181.722-.367,1.072-.557.116-.062.234-.122.348-.185.465-.259.919-.524,1.358-.797.032-.02.062-.041.094-.061.4-.251.788-.507,1.167-.769.123-.085.241-.171.361-.257.285-.203.565-.407.838-.615.131-.1.259-.2.387-.301.259-.203.511-.41.759-.618.119-.1.238-.199.354-.3.266-.231.524-.465.778-.701.084-.077.171-.154.253-.232.337-.32.664-.643.978-.97.006-.006.012-.013.018-.019.303-.316.594-.635.877-.956.085-.096.166-.193.249-.29.201-.235.399-.47.59-.706.092-.114.182-.228.272-.342.178-.227.351-.453.52-.681.084-.113.168-.226.25-.339.177-.245.346-.489.513-.734.063-.092.128-.185.19-.278.225-.338.443-.677.65-1.016.005-.007.009-.015.014-.023.201-.329.392-.657.577-.984.06-.105.115-.21.173-.315.127-.231.252-.462.371-.692.064-.122.125-.243.186-.364.109-.215.214-.429.316-.642.058-.12.115-.24.171-.36.104-.224.203-.445.3-.666.045-.103.092-.207.136-.309.134-.312.262-.622.382-.927.002-.007.005-.014.008-.02.58-1.474,1.025-2.989,1.345-4.525-1.565,2.558-3.997,5.451-7.715,7.74-4.335,2.669-9.567,4.005-15.642,4.005-4.302,0-9.031-.678-14.16-2.019-2.736,2.842-7.905,1.902-7.905,1.902,10.346-1.341,8.967-10.729,8.967-10.729.82,3.122.722,5.357.108,6.96,11.477,2.893,20.728,2.269,27.499-1.883,7.494-4.594,9.304-12.066,9.414-12.551-.019-.549-.05-1.098-.103-1.645-.084-.859-.209-1.713-.377-2.561-.335-1.696-.839-3.363-1.515-4.977-.232-.552-.479-1.086-.738-1.605-.086-.171-.18-.332-.268-.499-.18-.34-.358-.681-.549-1.006-.113-.193-.233-.375-.35-.563-.176-.284-.352-.57-.537-.843-.131-.193-.268-.377-.403-.565-.182-.253-.363-.506-.552-.749-.144-.185-.293-.363-.441-.543-.189-.23-.378-.459-.573-.68-.155-.176-.314-.346-.473-.516-.196-.21-.393-.419-.594-.62-.164-.164-.331-.324-.498-.483-.204-.194-.409-.385-.617-.57-.172-.153-.344-.302-.518-.449-.211-.178-.423-.352-.637-.522-.177-.141-.355-.28-.534-.415-.217-.164-.436-.324-.656-.48-.181-.129-.362-.257-.544-.38-.224-.152-.449-.298-.676-.442-.181-.115-.363-.232-.546-.343-.231-.14-.463-.274-.696-.407-.182-.104-.363-.209-.546-.309-.238-.13-.478-.252-.717-.375-.179-.091-.356-.186-.535-.273-.251-.123-.502-.238-.753-.353-.167-.077-.335-.158-.502-.232-.276-.121-.551-.234-.827-.347-.142-.058-.285-.121-.427-.177-.407-.161-.811-.313-1.214-.456-.032-.011-.064-.022-.096-.033-.391-.137-.779-.268-1.165-.39-.148-.047-.293-.088-.44-.133-.258-.079-.518-.159-.773-.231-.168-.047-.333-.089-.499-.134-.23-.062-.46-.125-.686-.182-.174-.043-.345-.083-.518-.124-.212-.051-.425-.102-.633-.148-.174-.039-.345-.074-.516-.11-.2-.042-.4-.084-.596-.122-.169-.033-.335-.064-.501-.094-.19-.035-.377-.069-.562-.101-.164-.028-.326-.054-.486-.08-.178-.028-.353-.056-.526-.081-.155-.023-.308-.044-.458-.065-.17-.024-.335-.046-.499-.066-.143-.018-.284-.035-.422-.051-.16-.018-.314-.035-.467-.051-.131-.014-.261-.028-.387-.04-.147-.014-.287-.026-.426-.038-.119-.01-.24-.02-.353-.029-.132-.01-.256-.019-.38-.027-.106-.007-.215-.015-.315-.021-.122-.008-.233-.013-.345-.019-.087-.004-.178-.009-.259-.013-.105-.005-.198-.008-.293-.011-.075-.003-.156-.006-.224-.008-.083-.002-.152-.004-.225-.005-.061,0-.13-.003-.184-.004-.064,0-.11,0-.163,0-.044,0-.098,0-.135,0-.084,0-.148,0-.192,0h-.005c-.041,0-.064,0-.064,0-1.666-3.706-3.73-6.702-6.041-9.137-.637-.672-1.287-1.314-1.96-1.9-1.335-1.163-2.733-2.164-4.173-3.023-.715-.427-1.442-.807-2.175-1.166-2.219-1.087-4.504-1.886-6.782-2.442-2.888-.705-5.794-1.044-8.665-1.044-13.829,0-26.892,7.855-33.74,20.431-.506.929-.989,1.877-1.45,2.842-.922,1.929-1.754,3.925-2.504,5.976-.375,1.026-.729,2.065-1.064,3.116-1.338,4.205-2.361,8.602-3.123,13.092-.762,4.49-1.263,9.074-1.558,13.65s-.385,9.145-.323,13.608c.429,31.048,8.345,61.49,22.158,89.299,2.102,4.231,4.268,8.294,6.486,12.196.74,1.301,1.485,2.583,2.235,3.848,6.754,11.385,13.935,21.332,21.191,29.999.806.963,1.613,1.91,2.421,2.842,1.615,1.863,3.232,3.664,4.847,5.404,2.339,2.521,4.761,4.944,7.247,7.284.514.485,1.033.962,1.553,1.438-.002.002-.003.003-.005.004.114.104.229.206.343.31.444.404.888.808,1.337,1.207.622.554,1.252,1.098,1.882,1.64.457.393.912.791,1.374,1.179.694.582,1.397,1.151,2.1,1.72.877.711,1.762,1.41,2.654,2.099.528.409,1.054.822,1.587,1.223.652.491,1.312.97,1.971,1.449.446.324.891.65,1.34.969.704.501,1.413.994,2.125,1.482.392.269.786.535,1.18.8.768.516,1.538,1.028,2.314,1.529.282.182.567.36.85.54,3.974,2.528,8.054,4.867,12.228,7.005.131.067.26.135.391.201,1.009.513,2.024,1.014,3.044,1.504.027.013.055.027.082.04h.001c.12.057.241.114.362.172.325.155.654.301.98.454l-.026-.819c-13.58-15.635-5.459-34.453-5.459-34.453-5.169,21.166,7.667,34.195,7.667,34.195l.01,2.093c.001.264.002.52.003.794v.049c.018,4.716.026,10.942.029,17.65v2.176c.003,12.974-.014,27.378-.027,35.896-.003,1.457-.005,2.747-.007,3.826-.004,1.961.984,3.726,2.521,4.784-.132-1.605-.137-3.576.312-5.364.702-2.751,3.216-4.672,6.114-4.672,1.703,0,3.258.66,4.425,1.878.111-.109.229-.217.354-.323,1.122-.95,2.57-1.473,4.077-1.473s3,.515,4.201,1.445c1.929,1.482,4.208,4.492,4.181,10.406.686-.053,1.355-.112,2.009-.175.204-.019.397-.041.597-.061.478-.048.947-.098,1.404-.15.231-.027.454-.054.679-.081.415-.05.82-.101,1.216-.153.214-.029.425-.056.632-.085.408-.056.798-.112,1.181-.169.162-.024.328-.048.485-.072.526-.081,1.031-.161,1.502-.24,2.809-.471,4.855-2.901,4.842-5.75-.002-.46-.003-.942-.003-1.434,0-.14,0-.284,0-.426,0-.403.001-.813.003-1.235,0-.095,0-.189,0-.284.089-17.399,1.225-49.593,1.225-49.593,0,0,.296-.277.782-.809,14.83-15.433,10.468-37.303,10.468-37.303,0,0,1.898,4.672,1.861,11.698,3.935.47,8.113.753,12.491.753s8.705-.287,12.995-.838c-1.225-7.575,1.247-13.402,1.247-13.402-4.305,25.094,20.733,34.919,20.733,34.919l.042,4.272-.007.006c.106,10.276.522,36.593,2.063,51.375,0,.003,0,.007,0,.01.048.465.097.921.148,1.362v.003c.042.362.113.715.211,1.056.464,1.614,1.544,2.952,2.968,3.778-.23-1.756-.378-4.258.185-6.466.694-2.754,3.207-4.677,6.11-4.677,1.714,0,3.275.667,4.423,1.878.113-.113.233-.224.361-.333,1.122-.95,2.571-1.473,4.078-1.473s3,.515,4.205,1.449c2.021,1.562,4.364,4.749,4.162,11.05.161-.016.324-.036.486-.054.357-.039.712-.074,1.071-.119.445-.056.894-.124,1.342-.189.351-.051.699-.097,1.051-.154.473-.077.949-.168,1.424-.256.33-.061.659-.115.99-.182.524-.106,1.049-.229,1.574-.35.285-.066.569-.122.854-.192.788-.193,1.575-.404,2.361-.634.021-.006.043-.011.064-.017,1.073-.315,2.006-.901,2.741-1.667.402-.419.727-.901,1.002-1.412.228-.425.427-.866.557-1.337.19-.691.268-1.422.217-2.166-.239-3.504-.574-9.149-.916-16.042-.076-1.532-.152-3.126-.228-4.771-.076-1.646-.151-3.343-.224-5.082s-.145-3.521-.214-5.334c-.104-2.72-.201-5.513-.29-8.345-.059-1.888-.114-3.794-.164-5.707-.05-1.913-.095-3.834-.134-5.753-.038-1.918-.071-3.835-.097-5.74-.103-7.619-.094-15.049.09-21.66h0,0v-.002l.568-13.931,1.33,11.41c.214-.296.433-.594.638-.887.069-.098.136-.195.204-.293.069-.1.133-.198.201-.298l-.018-.01c.034-.06,3.411-6.038,5.518-10.46l.666-1.398,1.227.947c.493.382,49.607,37.916,76.829,22.898,1.306-1.171,1.973-2.874,1.875-4.556ZM193.212,131.398c1.425,0,2.581,1.156,2.581,2.581s-1.156,2.581-2.581,2.581-2.581-1.156-2.581-2.581c0-1.426,1.156-2.581,2.581-2.581ZM147.285,106.912c8.784,0,15.931,7.906,15.931,17.625s-7.147,17.625-15.931,17.625-15.931-7.907-15.931-17.625,7.147-17.625,15.931-17.625ZM311.912,242.142c-.745,3.485-4.553,5.827-9.476,5.827-1.131,0-2.286-.124-3.432-.369-2.853-.609-5.406-1.916-7.189-3.679-1.976-1.954-2.837-4.351-2.361-6.577.745-3.485,4.554-5.827,9.477-5.827,1.131,0,2.285.124,3.431.369,2.854.61,5.406,1.916,7.189,3.679,1.976,1.954,2.837,4.351,2.361,6.577Z" fill="fff"/>
<path d="M389.266,326.075l-2.383,5.507c-.03-.012-.059-.023-.089-.035.125.051.251.105.375.155.016.006.031.012.047.018.579.232,1.156.456,1.73.672.034.013.069.026.104.039.559.21,1.115.412,1.669.608.039.014.077.027.116.041.556.196,1.109.384,1.66.566.029.009.059.019.089.029.57.187,1.137.367,1.701.54.007.002.013.004.02.006,1.178.361,2.339.679,3.491.978l1.606-4.185c-1.411-.62-2.838-1.271-4.289-1.968-2.01-.964-3.959-1.964-5.847-2.971Z" fill="fff"/>
<path d="M267.455,329.012c-.423,7.012-2.884,15.905-10.58,24.773l-.12,4.427c.677.074,1.352.161,2.031.226.005.001.011.001.017.002,1.397.133,2.797.241,4.2.334.277.018.555.034.832.051,1.2.072,2.402.129,3.606.172.26.009.52.021.781.029.326.01.654.008.98.016-.494-.011-.987-.028-1.48-.045,1.159-11.399,1.619-21.562,1.742-29.771-.676-.067-1.348-.136-2.009-.214Z" fill="fff"/>
<path d="M301.964,233.749c-1.037-.222-2.058-.327-3.033-.327-3.887,0-7.048,1.673-7.613,4.32-.707,3.311,2.912,6.89,8.085,7.995,1.037.222,2.058.327,3.033.327,3.888,0,7.048-1.673,7.613-4.32.707-3.31-2.913-6.89-8.085-7.995Z" fill="fff"/>
<path d="M376.026,318.265l-3.303,6.22c.448.269.897.539,1.344.8.018.01.035.021.053.031,3.56,2.064,7.049,3.814,10.457,5.297l2.482-5.736c-4.146-2.293-7.901-4.587-11.033-6.612Z" fill="fff"/>
<path d="M300.143,356.425c.932-.183,1.853-.371,2.76-.568.284-.062.57-.123.852-.186.881-.197,1.75-.401,2.608-.612.453-.111.903-.224,1.35-.339.555-.143,1.104-.289,1.65-.437.823-.224,1.635-.453,2.437-.688.22-.064.443-.128.661-.193v-.002l-.04-3.436c-8.319-4.225-13.265-9.203-16.137-14.103,1.36,6.553,2.656,13.61,3.641,20.606.072-.014.146-.028.218-.042Z" fill="fff"/>
<path d="M296.182,359.68c-2.788.455-5.598.827-8.419,1.121l.676,30.798c.041,1.896.9,3.614,2.259,4.8.019-1.602.117-2.768.295-3.454.556-2.217,2.572-3.765,4.903-3.765,1.183,0,2.312.418,3.186,1.157.904-.73,2.047-1.131,3.233-1.131,1.243,0,2.439.437,3.374,1.238,2.83,2.448,3.193,6.49,3.193,9.738v.121c1.218.069,2.454.118,3.72.118.543,0,1.096-.025,1.644-.04-1.036-12.747-1.482-31.736-1.671-44.403-5.211,1.531-10.71,2.773-16.393,3.702Z" fill="fff"/>
<path d="M302.316,391.111c-.749,0-1.498.25-2.092.755-1.114.943-1.019,2.219-1.019,2.219-.248-.848-.6-1.486-1.01-1.953-.615-.717-1.458-1.047-2.298-1.047-1.348,0-2.686.851-3.056,2.324-.2.772-.258,2.448-.237,4.163.248.105.495.19.762.257,3.334.876,8.135,1.896,13.612,2.353,0-3.229-.419-6.468-2.534-8.297-.601-.514-1.365-.774-2.128-.774Z" fill="fff"/>
<path d="M338.609,402.077c-.887-.688-1.97-1.051-3.04-1.051-1.019,0-2.028.329-2.846,1.022-1.543,1.314-1.419,3.086-1.419,3.086-.333-1.181-.828-2.067-1.4-2.724-.854-.997-2.027-1.456-3.195-1.456-1.879,0-3.746,1.188-4.263,3.238-.608,2.384-.25,5.288.006,6.759.072.014.14.04.213.051.415.064.855.128,1.316.191.149.02.312.04.466.06.321.042.64.085.98.126.199.024.414.047.62.07.313.036.621.071.948.105.232.024.477.045.717.068.318.031.634.061.964.089.257.022.524.04.787.06.331.025.66.05,1.001.072.275.018.559.032.841.047.344.019.687.038,1.04.053.057.002.11.006.166.008.1.004.202.006.303.01.139.005.283.007.423.012.357.011.713.023,1.078.03.029,0,.058.002.087.002.219.004.442.006.664.008.06.001.122,0,.182.001.247.002.487.009.737.009.084,0,.174-.005.259-.005,1.807-.007,3.687-.071,5.62-.216.055-.004.11-.009.165-.013.237-5.588-1.658-8.35-3.42-9.712Z" fill="fff"/>
<path d="M373.928,316.888c-2.91-1.935-5.13-3.524-6.4-4.457-1.1,2.215-2.376,4.601-3.355,6.397.044.032.089.067.134.099.05.036.1.071.15.107.596.429,1.19.85,1.783,1.262.075.052.15.103.225.155.572.396,1.143.783,1.712,1.162.081.053.161.107.242.16.568.377,1.135.745,1.703,1.107.073.046.147.093.22.14.58.368,1.158.727,1.734,1.078.056.034.112.069.168.103.135.081.268.158.403.239-.683-.411-1.368-.834-2.055-1.268l3.336-6.284Z" fill="fff"/>
<path d="M454.485,329.42c-4.146,14.639-17.632,13.109-17.632,13.109,19.356,4.347,17.631-13.109,17.632-13.109Z" fill="#302e45"/><path d="M456.233,336.982c-3.365,9.169-12.151,9.06-12.151,9.06,12.426,1.932,12.151-9.059,12.151-9.06Z" fill="#000000"/>
<path d="M448.915,329.647c.306-1.713.055-3.414-.667-4.906,1.514-2.159,2.41-4.783,2.41-7.615,0-7.341-5.973-13.314-13.314-13.314-2.137,0-4.202.503-6.055,1.451-2.024-4.821-6.768-8.121-12.272-8.121-.724,0-1.438.057-2.139.17-.998-6.361-6.516-11.242-13.153-11.242-.635,0-1.262.043-1.879.13-.363-7.02-6.188-12.619-13.296-12.619-.545,0-1.086.033-1.621.099v-.019c0-7.342-5.973-13.314-13.314-13.314-.513,0-1.023.03-1.527.088v-.102c0-7.341-5.973-13.314-13.314-13.314-.342,0-.683.013-1.021.039.041-.424.062-.852.062-1.282,0-7.341-5.973-13.314-13.314-13.314-1.18,0-2.341.155-3.461.458-.693-6.695-6.368-11.934-13.243-11.934-2.091,0-4.101.478-5.915,1.385-1.696-5.403-6.751-9.333-12.706-9.333-3.111,0-6.092,1.11-8.444,3.043-2.311-4.04-6.644-6.677-11.541-6.677-4.388,0-8.397,2.172-10.843,5.611-2.458-2.443-5.82-3.891-9.379-3.891-5.613,0-10.467,3.504-12.41,8.486-1.808-.893-3.816-1.365-5.895-1.365-6.159,0-11.355,4.204-12.869,9.894-1.514-.583-3.133-.889-4.773-.889-7.309,0-13.261,5.92-13.314,13.217-.489-.055-.983-.083-1.48-.083-7.341,0-13.314,5.973-13.314,13.314,0,1.49.257,2.919.711,4.258-21.564-20.351-32.801-41.784-38.522-56.758-4.789-12.536-6.531-22.496-7.143-27.301,4.432.681,8.651,1.025,12.578,1.025,10.865,0,19.863-2.599,26.744-7.724,5.107-3.804,8.936-8.882,11.381-15.091,2.827-7.181,2.788-15.26-.105-22.165-3.243-7.738-9.612-13.479-18.418-16.602-5.442-1.93-10.441-2.406-13.005-2.515-3.878-7.795-9.793-13.223-17.617-16.212-.754-5.702-5.635-10.121-11.539-10.121-2.786,0-5.421.987-7.493,2.735-2.157-2.195-5.122-3.475-8.294-3.475-5.197,0-9.61,3.42-11.107,8.127-1.088-.333-2.225-.503-3.383-.503-6.425,0-11.652,5.227-11.652,11.652,0,.309.012.617.036.922-5.814.65-10.349,5.595-10.349,11.579,0,1.836.445,3.64,1.268,5.259-3.917,1.895-6.559,5.899-6.559,10.486,0,2.463.782,4.826,2.182,6.779-3.117,2.122-5.09,5.685-5.09,9.62,0,3.141,1.239,6.057,3.377,8.199-2.137,2.142-3.377,5.058-3.377,8.199,0,3.355,1.435,6.471,3.839,8.642-1.882,2.106-2.969,4.858-2.969,7.757,0,3.532,1.623,6.816,4.267,8.993-1.703,2.052-2.66,4.645-2.66,7.406,0,4.072,2.096,7.728,5.385,9.818-1.121,1.815-1.731,3.921-1.731,6.109,0,4.113,2.197,7.844,5.562,9.924-1.158,1.832-1.787,3.967-1.787,6.196,0,4.586,2.75,8.658,6.721,10.541-.777,1.576-1.187,3.319-1.187,5.127,0,5.178,3.394,9.578,8.075,11.09-.361,1.13-.547,2.314-.547,3.525,0,5.383,3.669,9.926,8.639,11.257-.29,1.022-.439,2.085-.439,3.166,0,5.809,4.273,10.639,9.841,11.511-.099.613-.15,1.234-.15,1.857,0,6.048,4.632,11.035,10.535,11.599-.071.52-.107,1.046-.107,1.572,0,6.425,5.227,11.652,11.652,11.652.505,0,1.006-.032,1.501-.097.823,5.625,5.679,9.957,11.529,9.957.62,0,1.224-.063,1.818-.156l-8.09,9.785c-3.653,4.419-5.044,10.387-3.719,15.965l9.176,38.439c.901,3.796,4.244,6.449,8.127,6.449l.185-.002c6.254-.138,18.089-1.398,27.094-8.28,2.767-2.114,3.942-5.638,2.996-8.976l-5.546-19.979,11.192-7.741c.408.192.812.392,1.222.581.053,15.478.013,47.395-.007,58.775-.007,3.942,2.777,7.367,6.619,8.145,4.396.889,9.283,1.34,14.525,1.34,7.106,0,13.525-.826,17.658-1.518,4.033-.676,6.947-4.135,6.929-8.226-.051-11.56.594-34.972.952-45.543,5.292.574,10.637.864,15.928.864,4.23,0,8.476-.191,12.703-.559l.672,30.617c.078,3.663,2.322,6.891,5.72,8.234.368.154.728.274,1.097.367,3.161.831,8.186,1.933,14.011,2.419,1.977.164,3.94.248,5.834.248.629,0,1.242-.031,1.862-.049.092.973.187,1.903.287,2.772.46,3.999,3.559,7.218,7.536,7.829,3.121.479,8.034,1.051,13.716,1.051,7.178,0,13.859-.892,19.855-2.652,3.939-1.156,6.592-5.005,6.308-9.152-.997-14.573-2.824-52.397-2.194-77.372,1.071-1.386,2.094-2.81,3.059-4.258,17.731,12.781,36.219,19.257,54.989,19.257,11.392,0,20.275-2.437,25.722-4.482,2.726-1.023,4.66-3.348,5.172-6.218ZM209.263,247.657c.195-.288.403-.566.623-.833.441-.534.933-1.026,1.467-1.467,1.069-.882,2.309-1.564,3.663-1.986,1.015-.316,2.094-.487,3.212-.487.023,0,.044.004.067.004.713.005,1.407.085,2.08.224.822.17,1.613.425,2.358.768-.169-.523-.3-1.063-.389-1.616-.089-.553-.136-1.121-.136-1.7,0-1.118.171-2.197.487-3.212.211-.677.487-1.325.82-1.938.262-.482.569-.934.899-1.368,1.977-2.604,5.095-4.296,8.608-4.296.916,0,1.804.12,2.654.336.357.091.709.193,1.051.318.289.106.572.224.849.353.554.258,1.083.563,1.581.907.249.172.491.355.724.547-.013-.217-.033-.432-.033-.652,0-1.118.171-2.197.487-3.212.177-.567.409-1.108.672-1.631.111-.22.229-.434.353-.645.288-.486.603-.954.96-1.387.441-.534.933-1.026,1.467-1.467.433-.358.901-.673,1.387-.96.211-.125.425-.243.645-.354.523-.263,1.064-.495,1.631-.672,1.015-.317,2.094-.487,3.212-.487,2.871,0,5.534,1.111,7.51,3.032.043-.707.154-1.396.327-2.06.173-.664.407-1.304.697-1.913.145-.304.304-.601.475-.889.267-.448.574-.867.901-1.27.304-.375.623-.736.973-1.066.727-.687,1.548-1.274,2.443-1.74,1.491-.777,3.184-1.216,4.979-1.216.271,0,.54.01.806.03,1.862.138,3.593.751,5.073,1.718,1.057.69,1.987,1.561,2.746,2.568.303.403.58.827.826,1.27.123.222.238.448.346.679,1.248-4.593,5.443-7.985,10.426-7.985.334,0,.665.015.991.045,1.632.149,3.16.663,4.501,1.46.536.319,1.043.682,1.515,1.086.472.404.908.847,1.305,1.325,1.189,1.434,2.016,3.18,2.339,5.095.235-.401.494-.786.777-1.153.565-.733,1.221-1.392,1.952-1.96,1.096-.851,2.359-1.496,3.731-1.876.915-.253,1.878-.389,2.873-.389,1.118,0,2.197.171,3.212.487.677.211,1.325.487,1.938.82.306.167.604.348.892.542.575.389,1.112.832,1.601,1.322s.932,1.026,1.322,1.601c1.167,1.726,1.849,3.806,1.849,6.042,0,.174-.018.343-.026.515.493-.519,1.036-.99,1.622-1.404s1.214-.772,1.878-1.065c.332-.146.672-.277,1.02-.389,1.044-.339,2.157-.522,3.314-.522,3.727,0,7.019,1.895,8.965,4.772.195.288.376.585.542.892.333.613.609,1.261.82,1.938.316,1.015.487,2.094.487,3.212,0,.917-.127,1.803-.343,2.654.661-.469,1.377-.866,2.135-1.18,1.264-.523,2.647-.813,4.098-.813,5.963,0,10.814,4.851,10.814,10.814,0,.429-.026.852-.076,1.268-.1.831-.296,1.633-.574,2.396-.139.382-.299.753-.478,1.114,1.395-.657,2.946-1.035,4.587-1.035,1.491,0,2.912.303,4.205.851.647.274,1.261.609,1.837.998.863.584,1.638,1.288,2.299,2.09.441.534.832,1.111,1.165,1.724.333.613.609,1.261.82,1.938.316,1.015.487,2.094.487,3.212,0,.628-.057,1.242-.163,1.84-.053.299-.118.593-.195.883-.077.29-.165.576-.264.856.602-.288,1.239-.512,1.894-.688.881-.236,1.799-.377,2.754-.377,1.491,0,2.912.303,4.205.851.647.274,1.261.609,1.837.998.863.584,1.638,1.288,2.3,2.09.441.534.832,1.112,1.165,1.724.333.613.609,1.261.82,1.938.316,1.015.487,2.094.487,3.212,0,.308-.014.613-.04.915-.079.904-.273,1.776-.56,2.605,1.072-.523,2.238-.88,3.469-1.026.41-.049.828-.074,1.251-.074,1.491,0,2.912.303,4.205.851.647.274,1.261.609,1.837.998.576.389,1.112.832,1.601,1.322,1.958,1.958,3.171,4.662,3.171,7.643,0,.469-.03.935-.09,1.395-.06.46-.149.914-.267,1.36,1.45-.707,3.052-1.079,4.717-1.079,5.963,0,10.814,4.851,10.814,10.814,0,.423-.026.846-.076,1.267,1.063-.498,2.196-.817,3.369-.945.391-.043.787-.064,1.185-.064,1.752,0,3.408.419,4.873,1.161,1.465.743,2.739,1.809,3.728,3.105.396.518.745,1.073,1.043,1.659.596,1.171.985,2.464,1.118,3.831,1.993-1.95,4.695-3.086,7.564-3.086,5.963,0,10.814,4.851,10.814,10.814,0,1.118-.171,2.197-.487,3.212-.211.677-.487,1.325-.82,1.938-.053.098-.117.189-.173.284-.133-.132-.258-.271-.402-.396-2.868-2.478-6.548-3.589-7.996-3.951-.811-.203-1.433-.37-2.014-.541-10.289-3.025-39.061-14.951-84-60.283-2.867-3.456-6.016-6.746-9.363-9.783l-.049-.054-.108-.087c-1.396-1.261-2.813-2.475-4.214-3.607-15.806-12.779-35.527-19.817-55.532-19.817-11.035,0-21.811,2.092-32.027,6.219-22.677,9.159-35.616,24.47-40.394,31.073-.242-.242-.473-.496-.691-.76-.221-.267-.429-.545-.623-.833-1.167-1.726-1.849-3.806-1.849-6.042s.686-4.311,1.853-6.037ZM197.098,253.771c2.335,2.389,4.809,4.773,7.43,7.143,1.311,1.185,2.658,2.366,4.043,3.543-.488.735-1.235,1.921-2.031,3.204-.318.513-.645,1.042-.966,1.563-.481.783-.95,1.549-1.362,2.223-.823,1.348-1.415,2.327-1.416,2.328-7.485-2.65-14.106-6.522-19.973-11.224,4.315-2.75,8.854-5.997,13.325-9.782.321.334.624.668.95,1.002ZM184.684,239.443c1.814,2.375,3.75,4.762,5.816,7.153,1.254,1.451,2.573,2.903,3.926,4.355-4.576,3.864-9.218,7.156-13.611,9.916-1.497-1.287-2.96-2.611-4.355-4.001-3.658-3.644-6.971-7.618-9.969-11.8-.185-.258-.359-.524-.542-.785,5.407-1.89,11.195-4.298,16.873-7.352.612.837,1.22,1.674,1.862,2.514ZM165.009,242.919c-2.404-3.53-4.608-7.18-6.604-10.896-.4-.745-.793-1.493-1.177-2.243-.425-.828-.818-1.662-1.225-2.494,5.165-1.397,10.893-3.288,16.92-5.848,2.41,4.374,5.201,8.881,8.429,13.458-5.681,3.034-11.478,5.413-16.865,7.263.171.255.349.506.522.76ZM165.565,205.867c.805,2.028,1.69,4.113,2.663,6.246s2.035,4.314,3.193,6.534c.102.195.21.393.313.588-6.02,2.545-11.721,4.401-16.844,5.766-1.017-2.175-1.974-4.354-2.872-6.524-.622-1.506-1.217-3.007-1.784-4.499-.831-2.184-1.603-4.349-2.322-6.48,5.201-.607,11.016-1.551,17.131-2.994.175.455.339.902.522,1.363ZM161.627,194.453c.714,2.429,1.555,5.005,2.529,7.693-6.103,1.426-11.89,2.345-17.045,2.93-.223-.688-.44-1.372-.651-2.051-.441-1.419-.858-2.818-1.251-4.191-1.231-4.292-2.237-8.335-3.058-12,3.124.258,6.518.423,10.109.423,2.393,0,4.879-.083,7.422-.249.524,2.292,1.162,4.783,1.945,7.445ZM141.595,184.28c-2.027-9.597-2.69-16.025-2.726-16.333.298.166.612.331.935.495,2.247,1.161,4.931,2.24,8.144,3.131,2.904.848,6.109,1.551,9.452,2.005.268,2.319.739,6.101,1.747,10.969-6.402.397-12.378.194-17.552-.267ZM165.501,319.173c-5.043.002-9.149-4.103-9.149-9.15,0-.567.059-1.12.158-1.659-.61.301-1.256.539-1.932.701-.675.162-1.38.249-2.104.249-.631,0-1.247-.064-1.842-.186-1.786-.366-3.383-1.254-4.626-2.497-1.657-1.657-2.684-3.945-2.684-6.468,0-1.178.224-2.305.632-3.34.136-.345.292-.68.467-1.003-.759.204-1.552.324-2.375.324-5.046,0-9.152-4.106-9.152-9.152,0-1.583.405-3.074,1.115-4.374-.538.099-1.089.158-1.654.158-.946,0-1.859-.144-2.719-.412-1.146-.357-2.195-.934-3.1-1.68-.452-.373-.868-.789-1.241-1.241-1.307-1.583-2.093-3.61-2.093-5.818,0-1.485.359-2.886.992-4.126.105-.207.218-.409.339-.606.12-.197.247-.39.382-.577-.251.021-.503.039-.76.039-5.046,0-9.152-4.105-9.152-9.152,0-2.054.688-3.945,1.835-5.474-.071.002-.14.011-.212.011-2.839,0-5.38-1.299-7.059-3.334-.373-.452-.704-.941-.986-1.459-.705-1.297-1.106-2.782-1.106-4.359,0-.321.017-.639.049-.952.163-1.564.723-3.012,1.576-4.242.341-.492.729-.949,1.158-1.365-2.037-.185-3.884-1.04-5.317-2.342-.819-.744-1.503-1.634-2.01-2.629-.253-.497-.463-1.021-.623-1.565-.24-.817-.369-1.68-.369-2.574,0-2.904,1.364-5.491,3.48-7.169-.259-.055-.513-.12-.763-.197-1.001-.305-1.929-.776-2.753-1.382-.618-.455-1.177-.985-1.663-1.577-.324-.395-.616-.817-.871-1.262-.511-.891-.876-1.876-1.062-2.922-.093-.523-.142-1.061-.142-1.611,0-.354.02-.703.06-1.047.157-1.375.621-2.658,1.32-3.779.524-.841,1.181-1.591,1.942-2.221-1.499-.368-2.854-1.104-3.963-2.108-1.848-1.673-3.012-4.087-3.012-6.771,0-1.654.443-3.206,1.215-4.544.386-.669.855-1.285,1.392-1.835.537-.549,1.142-1.032,1.802-1.434-.876-.321-1.69-.772-2.418-1.329-.364-.279-.707-.584-1.025-.913-.318-.329-.612-.681-.879-1.055-.267-.373-.506-.767-.714-1.179-.313-.618-.558-1.276-.725-1.965-.056-.229-.102-.462-.14-.698-.076-.472-.115-.956-.115-1.449,0-1.285.267-2.508.747-3.618.641-1.48,1.662-2.758,2.939-3.712.319-.238.655-.457,1.004-.653-3.266-1.399-5.56-4.644-5.56-8.416,0-1.797.522-3.473,1.422-4.887.45-.707.995-1.348,1.615-1.906.31-.279.64-.537.986-.772.346-.235.71-.447,1.088-.634-.378-.187-.741-.399-1.088-.634-.346-.235-.676-.493-.986-.772-.621-.558-1.165-1.199-1.615-1.906-.9-1.413-1.422-3.089-1.422-4.887,0-2.132.734-4.093,1.961-5.648.767-.972,1.728-1.785,2.822-2.381.219-.119.443-.23.673-.332.459-.203.937-.37,1.431-.496-.3-.206-.587-.43-.86-.67-.546-.479-1.034-1.023-1.454-1.618-1.048-1.488-1.665-3.3-1.665-5.255,0-4.715,3.585-8.607,8.172-9.098-.221-.209-.432-.428-.632-.658-.599-.688-1.098-1.466-1.472-2.31-.499-1.126-.777-2.37-.777-3.68,0-2.208.786-4.235,2.092-5.818.373-.452.789-.868,1.241-1.241.904-.747,1.954-1.323,3.1-1.68.859-.268,1.772-.412,2.718-.412.643,0,1.27.068,1.876.195-.46-1.091-.715-2.289-.715-3.545,0-1.892.577-3.653,1.565-5.113,1.646-2.435,4.433-4.039,7.587-4.039.749,0,1.477.092,2.173.263.929.229,1.801.602,2.596,1.09.199.122.392.252.58.388-.002-.072-.011-.142-.011-.214,0-5.046,4.105-9.152,9.152-9.152,3.522,0,6.58,2.003,8.11,4.926.204-.314.427-.616.667-.902.48-.573,1.028-1.087,1.632-1.528.604-.442,1.264-.811,1.967-1.095.703-.284,1.449-.484,2.225-.585.388-.051.784-.077,1.186-.077,1.577,0,3.062.401,4.359,1.106.519.282,1.007.613,1.459.986.452.373.868.789,1.241,1.241.801.97,1.398,2.111,1.746,3.355-.585-.172-1.178-.334-1.782-.481-3.031-.74-6.146-1.116-9.258-1.116-14.865,0-28.635,8.328-35.936,21.735-7.161,13.151-10.635,31.156-10.326,53.514.421,30.444,8.173,61.695,22.419,90.376,10.195,20.525,22.841,38.988,37.586,54.876,2.017,2.173,4.092,4.273,6.213,6.314-.705.174-1.437.277-2.195.277ZM190.413,386.838c-.692.267-1.386.509-2.079.734-.241.079-.481.15-.721.224-.512.157-1.022.305-1.53.442-.226.061-.452.124-.676.181-.694.176-1.384.338-2.064.48-.117.024-.231.043-.347.067-.598.12-1.188.228-1.77.325-.193.032-.385.062-.576.092-.579.09-1.15.17-1.707.239-.089.011-.182.025-.27.035-.677.08-1.335.147-1.971.2-.06.005-.117.009-.176.014-.608.049-1.198.089-1.76.118-.033.002-.066.004-.099.005-.602.03-1.177.051-1.717.062-.056.002-.112.002-.168.002-.331-.002-.656-.032-.974-.084-.138-.023-.27-.064-.406-.096-.141-.033-.281-.067-.417-.11-.331-1.446-.615-3.24-.434-4.875.254-2.333,2.296-3.85,4.387-3.85.966,0,1.942.323,2.757,1.04.648.572,1.277,1.381,1.762,2.505,0,0-.371-1.734.972-3.258.867-.974,2.094-1.453,3.347-1.453.854,0,1.72.223,2.492.663,1.561.885,3.332,2.666,4.256,6.252-.037.014-.074.031-.111.046ZM195.126,354.045l-7.147,4.644s3.849-.985,7.617-2.949l5.478,19.732c.707,2.494-.192,5.164-2.252,6.738-2.055,1.571-4.27,2.83-6.535,3.844-1.149-4.174-3.383-6.209-5.08-7.171-1.044-.595-2.232-.911-3.432-.911-1.849,0-3.588.763-4.77,2.092-.11.125-.212.25-.307.376-1.081-.854-2.374-1.302-3.761-1.302-3.236,0-5.936,2.385-6.281,5.549-.128,1.158-.074,2.447.159,3.902-1.01-.848-1.765-2.009-2.088-3.366l-9.175-38.437c-1.18-4.971.039-10.207,3.295-14.145l9.387-11.354c10.877,10.01,23.036,18.34,36.318,24.854l-11.426,7.904ZM234.12,413.466c-.02.001-.041.001-.062.002-.057.002-.111.005-.168.007-.072.002-.147.002-.22.004-.719.02-1.449.031-2.185.035-.135,0-.264.006-.399.006-.067,0-.137-.004-.205-.004-1.011-.002-2.036-.022-3.07-.061-.156-.006-.312-.015-.469-.022-.981-.043-1.969-.105-2.961-.187-.116-.01-.231-.016-.346-.027-1.047-.092-2.097-.213-3.146-.354-.218-.029-.434-.062-.652-.093-.995-.145-1.989-.31-2.977-.504-.065-.013-.132-.023-.197-.036-.031-.006-.059-.02-.089-.027-.196-1.573-.328-3.844.157-5.774.523-2.05,2.389-3.238,4.268-3.238,1.169,0,2.342.459,3.2,1.456.562.667,1.067,1.543,1.391,2.724,0,0-.124-1.772,1.419-3.077.818-.693,1.827-1.022,2.846-1.022,1.07,0,2.153.363,3.04,1.051,1.686,1.296,3.496,3.896,3.439,9.021-.852.051-1.727.091-2.614.12ZM269.202,359.042c-.326-.008-.654-.006-.98-.016-.261-.008-.521-.02-.781-.029-1.204-.043-2.406-.1-3.606-.172-.277-.017-.555-.033-.832-.051-1.403-.093-2.803-.201-4.2-.334-.006,0-.012,0-.017-.002-.679-.065-1.354-.152-2.031-.226l.12-4.427c7.696-8.868,10.157-17.761,10.58-24.773.661.078,1.333.147,2.009.214-.123,8.209-.583,18.372-1.742,29.771.493.017.986.034,1.48.045ZM286.791,358.389c-.246.024-.493.044-.739.067-.28.026-.559.044-.839.069v.008c-.095.008-.19.018-.285.026-.777.067-1.553.126-2.329.18-.315.022-.63.047-.945.067-1.272.08-2.543.143-3.813.189-.386.014-.773.024-1.159.035-1.057.03-2.114.049-3.17.056-.31.002-.62.009-.929.009h-.018c-.069,0-.139-.003-.208-.003-.909,0-1.817-.025-2.725-.043,1.148-11.336,1.608-21.451,1.734-29.652-.107-.009-.209-.021-.316-.03,2.88.241,5.869.383,8.963.383,4.112,0,8.401-.244,12.826-.793,1.898,8.402,3.855,18.194,5.212,27.852,0,.003,0,.007,0,.01-.52.093-1.046.183-1.573.272-.197.033-.391.069-.589.101-.038.006-.074.013-.111.019-.033.005-.065.01-.098.015-1.318.215-2.636.404-3.955.581-.332.045-.664.089-.996.132-1.007.128-2.015.246-3.022.353v-.008c-.306.032-.612.074-.917.105ZM296.284,335.861c2.872,4.9,7.818,9.878,16.137,14.103l.04,3.436v.002c-.218.065-.441.129-.661.193-.802.235-1.614.464-2.437.688-.546.148-1.095.294-1.65.437-.447.115-.897.228-1.35.339-.858.211-1.727.415-2.608.612-.282.063-.568.124-.852.186-.907.197-1.828.385-2.76.568-.072.014-.146.028-.218.042-.985-6.996-2.281-14.053-3.641-20.606ZM293.366,397.829c-.267-.067-.514-.152-.762-.257-.021-1.715.037-3.391.237-4.163.37-1.473,1.708-2.324,3.056-2.324.84,0,1.683.33,2.298,1.047.41.467.762,1.105,1.01,1.953,0,0-.095-1.276,1.019-2.219.594-.505,1.343-.755,2.092-.755.763,0,1.527.26,2.128.774,2.115,1.829,2.534,5.068,2.534,8.297-5.477-.457-10.278-1.477-13.612-2.353ZM312.602,400.421c-1.266,0-2.502-.049-3.72-.118v-.121c0-3.248-.363-7.29-3.193-9.738-.935-.801-2.131-1.238-3.374-1.238-1.186,0-2.329.401-3.233,1.131-.874-.739-2.003-1.157-3.186-1.157-2.331,0-4.347,1.548-4.903,3.765-.178.686-.276,1.852-.295,3.454-1.359-1.186-2.218-2.904-2.259-4.8l-.676-30.798c2.821-.294,5.631-.666,8.419-1.121,5.683-.929,11.182-2.171,16.393-3.702.189,12.667.635,31.656,1.671,44.403-.548.015-1.101.04-1.644.04ZM342.029,411.789c-.055.004-.11.009-.165.013-1.933.145-3.813.209-5.62.216-.085,0-.175.005-.259.005-.25,0-.49-.007-.737-.009-.06-.001-.122,0-.182-.001-.222-.002-.445-.004-.664-.008-.029,0-.058-.002-.087-.002-.365-.007-.721-.019-1.078-.03-.14-.005-.284-.007-.423-.012-.101-.004-.203-.006-.303-.01-.056-.002-.109-.006-.166-.008-.353-.015-.696-.034-1.04-.053-.282-.015-.566-.029-.841-.047-.341-.022-.67-.047-1.001-.072-.263-.02-.53-.038-.787-.06-.33-.028-.646-.058-.964-.089-.24-.023-.485-.044-.717-.068-.327-.034-.635-.069-.948-.105-.206-.023-.421-.046-.62-.07-.34-.041-.659-.084-.98-.126-.154-.02-.317-.04-.466-.06-.461-.063-.901-.127-1.316-.191-.073-.011-.141-.037-.213-.051-.256-1.471-.614-4.375-.006-6.759.517-2.05,2.384-3.238,4.263-3.238,1.168,0,2.341.459,3.195,1.456.572.657,1.067,1.543,1.4,2.724,0,0-.124-1.772,1.419-3.086.818-.693,1.827-1.022,2.846-1.022,1.07,0,2.153.363,3.04,1.051,1.762,1.362,3.657,4.124,3.42,9.712ZM372.244,324.201c-.056-.034-.112-.069-.168-.103-.576-.351-1.154-.71-1.734-1.078-.073-.047-.147-.094-.22-.14-.568-.362-1.135-.73-1.703-1.107-.081-.053-.161-.107-.242-.16-.569-.379-1.14-.766-1.712-1.162-.075-.052-.15-.103-.225-.155-.593-.412-1.187-.833-1.783-1.262-.05-.036-.1-.071-.15-.107-.045-.032-.09-.067-.134-.099.979-1.796,2.255-4.182,3.355-6.397,1.27.933,3.49,2.522,6.4,4.457l-3.336,6.284c.687.434,1.372.857,2.055,1.268-.135-.081-.268-.158-.403-.239ZM374.12,325.316c-.018-.01-.035-.021-.053-.031-.447-.261-.896-.531-1.344-.8l3.303-6.22c3.132,2.025,6.887,4.319,11.033,6.612l-2.482,5.736c-3.408-1.483-6.897-3.233-10.457-5.297ZM397.796,335.199c-1.153-.299-2.313-.617-3.491-.978-.007-.002-.013-.004-.02-.006-.564-.173-1.131-.353-1.701-.54-.03-.01-.06-.02-.089-.029-.551-.182-1.104-.37-1.66-.566-.039-.014-.077-.027-.116-.041-.554-.196-1.11-.398-1.669-.608-.035-.013-.07-.026-.104-.039-.574-.216-1.151-.44-1.73-.672-.016-.006-.031-.012-.047-.018-.124-.05-.25-.104-.375-.155.03.012.059.023.089.035l2.383-5.507c1.888,1.007,3.837,2.007,5.847,2.971,1.451.697,2.878,1.348,4.289,1.968l-1.606,4.185ZM420.144,337.817c-.041.001-.083.002-.124.003-.658.018-1.323.028-1.999.028-1.397,0-2.832-.038-4.305-.12-.02,0-.039-.003-.059-.004-.465-.026-.934-.057-1.406-.092l-.117-.009c-.455-.035-.914-.073-1.375-.117-.049-.005-.098-.009-.147-.014-.457-.044-.918-.092-1.382-.145-.049-.005-.098-.011-.147-.017-.473-.055-.949-.114-1.428-.178-.037-.005-.073-.009-.109-.014-.509-.069-1.021-.143-1.537-.223-.004-.001-.008-.001-.011-.002-1.871-.29-3.795-.669-5.755-1.118l1.458-3.798c6.936,2.889,13.355,4.817,19.242,5.788-.267.01-.529.025-.799.032ZM367.83,309.536l-1.227-.947-.666,1.398c-2.107,4.422-5.484,10.4-5.518,10.46l.018.01c-.068.1-.132.198-.201.298-.068.098-.135.195-.204.293-.205.293-.424.591-.638.887l-1.33-11.41-.568,13.931h0s0,.002,0,.002h0c-.184,6.611-.193,14.041-.09,21.66.026,1.905.059,3.822.097,5.74.039,1.919.084,3.84.134,5.753.05,1.913.105,3.819.164,5.707.089,2.832.186,5.625.29,8.345.069,1.813.141,3.595.214,5.334s.148,3.436.224,5.082c.076,1.645.152,3.239.228,4.771.342,6.893.677,12.538.916,16.042.051.744-.027,1.475-.217,2.166-.13.471-.329.912-.557,1.337-.275.511-.6.993-1.002,1.412-.735.766-1.668,1.352-2.741,1.667-.021.006-.043.011-.064.017-.786.23-1.573.441-2.361.634-.285.07-.569.126-.854.192-.525.121-1.05.244-1.574.35-.331.067-.66.121-.99.182-.475.088-.951.179-1.424.256-.352.057-.7.103-1.051.154-.448.065-.897.133-1.342.189-.359.045-.714.08-1.071.119-.162.018-.325.038-.486.054.202-6.301-2.141-9.488-4.162-11.05-1.205-.934-2.699-1.449-4.205-1.449s-2.956.523-4.078,1.473c-.128.109-.248.22-.361.333-1.148-1.211-2.709-1.878-4.423-1.878-2.903,0-5.416,1.923-6.11,4.677-.563,2.208-.415,4.71-.185,6.466-1.424-.826-2.504-2.164-2.968-3.778-.098-.341-.169-.694-.211-1.056v-.003c-.051-.441-.1-.897-.148-1.362,0-.003,0-.007,0-.01-1.541-14.782-1.957-41.099-2.063-51.375l.007-.006-.042-4.272s-25.038-9.825-20.733-34.919c0,0-2.472,5.827-1.247,13.402-4.29.551-8.626.838-12.995.838s-8.556-.283-12.491-.753c.037-7.026-1.861-11.698-1.861-11.698,0,0,4.362,21.87-10.468,37.303-.486.532-.782.809-.782.809,0,0-1.136,32.194-1.225,49.593,0,.095,0,.189,0,.284-.002.422-.003.832-.003,1.235,0,.142,0,.286,0,.426,0,.492,0,.974.003,1.434.013,2.849-2.033,5.279-4.842,5.75-.471.079-.976.159-1.502.24-.157.024-.323.048-.485.072-.383.057-.773.113-1.181.169-.207.029-.418.056-.632.085-.396.052-.801.103-1.216.153-.225.027-.448.054-.679.081-.457.052-.926.102-1.404.15-.2.02-.393.042-.597.061-.654.063-1.323.122-2.009.175.027-5.914-2.252-8.924-4.181-10.406-1.201-.93-2.695-1.445-4.201-1.445s-2.955.523-4.077,1.473c-.125.106-.243.214-.354.323-1.167-1.218-2.722-1.878-4.425-1.878-2.898,0-5.412,1.921-6.114,4.672-.449,1.788-.444,3.759-.312,5.364-1.537-1.058-2.525-2.823-2.521-4.784.002-1.079.004-2.369.007-3.826.013-8.518.03-22.922.027-35.896v-2.176c-.003-6.708-.011-12.934-.029-17.65v-.049c-.001-.274-.002-.53-.003-.794l-.01-2.093s-12.836-13.029-7.667-34.195c0,0-8.121,18.818,5.459,34.453l.026.819c-.326-.153-.655-.299-.98-.454-.121-.058-.242-.115-.362-.173h-.001c-.027-.012-.055-.026-.082-.039-1.02-.49-2.035-.991-3.044-1.504-.131-.066-.26-.134-.391-.201-4.174-2.138-8.254-4.477-12.228-7.005-.283-.18-.568-.358-.85-.54-.776-.501-1.546-1.013-2.314-1.529-.394-.265-.788-.531-1.18-.8-.712-.488-1.421-.981-2.125-1.482-.449-.319-.894-.645-1.34-.969-.659-.479-1.319-.958-1.971-1.449-.533-.401-1.059-.814-1.587-1.223-.892-.689-1.777-1.388-2.654-2.099-.703-.569-1.406-1.138-2.1-1.72-.462-.388-.917-.786-1.374-1.179-.63-.542-1.26-1.086-1.882-1.64-.449-.399-.893-.803-1.337-1.207-.114-.104-.229-.206-.343-.31.002-.001.003-.002.005-.004-.52-.476-1.039-.953-1.553-1.438-2.486-2.34-4.908-4.763-7.247-7.284-1.615-1.74-3.232-3.541-4.847-5.404-.808-.932-1.615-1.879-2.421-2.842-7.256-8.667-14.437-18.614-21.191-29.999-.75-1.265-1.495-2.547-2.235-3.848-2.218-3.902-4.384-7.965-6.486-12.196-13.813-27.809-21.729-58.251-22.158-89.299-.062-4.463.028-9.032.323-13.608s.796-9.16,1.558-13.65c.762-4.49,1.785-8.887,3.123-13.092.335-1.051.689-2.09,1.064-3.116.75-2.051,1.582-4.047,2.504-5.976.461-.965.944-1.913,1.45-2.842,6.848-12.576,19.911-20.431,33.74-20.431,2.871,0,5.777.339,8.665,1.044,2.278.556,4.563,1.355,6.782,2.442.733.359,1.46.739,2.175,1.166,1.44.859,2.838,1.86,4.173,3.023.673.586,1.323,1.228,1.96,1.9,2.311,2.435,4.375,5.431,6.041,9.137,0,0,.023,0,.064,0h.005c.044,0,.108,0,.192,0,.037,0,.091,0,.135,0,.053,0,.099,0,.163,0,.054.001.123.003.184.004.073,0,.142.003.225.005.068.002.149.005.224.008.095.003.188.006.293.011.081.004.172.009.259.013.112.006.223.011.345.019.1.006.209.014.315.021.124.008.248.017.38.027.113.009.234.019.353.029.139.012.279.024.426.038.126.012.256.026.387.04.153.016.307.033.467.051.138.016.279.033.422.051.164.02.329.042.499.066.15.021.303.042.458.065.173.025.348.053.526.081.16.026.322.052.486.08.185.032.372.066.562.101.166.03.332.061.501.094.196.038.396.08.596.122.171.036.342.071.516.11.208.046.421.097.633.148.173.041.344.081.518.124.226.057.456.12.686.182.166.045.331.087.499.134.255.072.515.152.773.231.147.045.292.086.44.133.386.122.774.253,1.165.39.032.011.064.022.096.033.403.143.807.295,1.214.456.142.056.285.119.427.177.276.113.551.226.827.347.167.074.335.155.502.232.251.115.502.23.753.353.179.087.356.182.535.273.239.123.479.245.717.375.183.1.364.205.546.309.233.133.465.267.696.407.183.111.365.228.546.343.227.144.452.29.676.442.182.123.363.251.544.38.22.156.439.316.656.48.179.135.357.274.534.415.214.17.426.344.637.522.174.147.346.296.518.449.208.185.413.376.617.57.167.159.334.319.498.483.201.201.398.41.594.62.159.17.318.34.473.516.195.221.384.45.573.68.148.18.297.358.441.543.189.243.37.496.552.749.135.188.272.372.403.565.185.273.361.559.537.843.117.188.237.37.35.563.191.325.369.666.549,1.006.088.167.182.328.268.499.259.519.506,1.053.738,1.605.676,1.614,1.18,3.281,1.515,4.977.168.848.293,1.702.377,2.561.053.547.084,1.096.103,1.645-.11.485-1.92,7.957-9.414,12.551-6.771,4.152-16.022,4.776-27.499,1.883.614-1.603.712-3.838-.108-6.96,0,0,1.379,9.388-8.967,10.729,0,0,5.169.94,7.905-1.902,5.129,1.341,9.858,2.019,14.16,2.019,6.075,0,11.307-1.336,15.642-4.005,3.718-2.289,6.15-5.182,7.715-7.74-.32,1.536-.765,3.051-1.345,4.525-.003.006-.006.013-.008.02-.12.305-.248.615-.382.927-.044.102-.091.206-.136.309-.097.221-.196.442-.3.666-.056.12-.113.24-.171.36-.102.213-.207.427-.316.642-.061.121-.122.242-.186.364-.119.23-.244.461-.371.692-.058.105-.113.21-.173.315-.185.327-.376.655-.577.984-.005.008-.009.016-.014.023-.207.339-.425.678-.65,1.016-.062.093-.127.186-.19.278-.167.245-.336.489-.513.734-.082.113-.166.226-.25.339-.169.228-.342.454-.52.681-.09.114-.18.228-.272.342-.191.236-.389.471-.59.706-.083.097-.164.194-.249.29-.283.321-.574.64-.877.956-.006.006-.012.013-.018.019-.314.327-.641.65-.978.97-.082.078-.169.155-.253.232-.254.236-.512.47-.778.701-.116.101-.235.2-.354.3-.248.208-.5.415-.759.618-.128.101-.256.201-.387.301-.273.208-.553.412-.838.615-.12.086-.238.172-.361.257-.379.262-.767.518-1.167.769-.032.02-.062.041-.094.061-.439.273-.893.538-1.358.797-.114.063-.232.123-.348.185-.35.19-.706.376-1.072.557-.163.081-.33.159-.496.238-.334.159-.673.314-1.019.465-.18.078-.361.156-.544.232-.359.15-.727.294-1.1.435-.173.066-.344.133-.52.197-.469.17-.95.332-1.44.488-.085.027-.166.057-.251.083-.58.18-1.177.349-1.787.508-.159.042-.325.078-.486.118-.454.113-.913.221-1.383.322-.225.048-.454.092-.683.137-.425.084-.855.164-1.293.238-.247.042-.496.082-.748.121-.45.069-.909.13-1.373.188-.242.03-.481.062-.727.089-.565.062-1.143.114-1.728.16-.152.012-.299.028-.453.039-.742.052-1.5.089-2.274.113-.206.007-.42.006-.628.01-.451.01-.897.023-1.359.023-.149,0-.305-.005-.455-.006-.185-.001-.373-.004-.561-.007-.714-.011-1.439-.031-2.179-.065-.084-.004-.165-.005-.249-.009-.806-.04-1.632-.098-2.469-.166-.207-.017-.416-.035-.625-.054-.81-.072-1.631-.155-2.47-.254-.053-.006-.105-.011-.158-.017-.883-.106-1.787-.233-2.703-.371-.225-.034-.45-.069-.677-.104-.933-.147-1.876-.304-2.843-.484,0,0-9.227-1.035-18.2-5.752l-1.762-.978c-3.042-1.782-5.982-4.01-8.441-6.8,0,0,1.241,4.547,7.406,8.885l.233,1.998.007.06c.431,3.923,3.029,24.644,11.836,47.437,5.37,13.898,12.007,25.805,19.727,35.392,9.644,11.976,21.024,20.363,33.824,24.937-2.909,7.127-2.583,12.746-2.583,12.746.932-4.01,2.76-8.253,4.712-12.039l1.029-1.702c.042-.069,4.202-6.948,5.717-9.229l1.228-1.85-.067-.057c.218-.315.462-.66.741-1.044,3.46-4.769,11.601-14.609,24.983-22.98.709-.444,1.433-.883,2.172-1.318,1.477-.869,3.014-1.717,4.61-2.537.798-.41,1.611-.813,2.439-1.208,1.656-.79,3.373-1.548,5.15-2.265,10.069-4.067,20.61-6.037,31.091-6.037,17.99,0,35.798,5.81,50.728,16.777,0,0-.003.002-.004.003.078.057.156.113.234.171,0-.003,0-.007.002-.01,1.014.75,2.014,1.522,3.001,2.319,1.393,1.126,2.781,2.316,4.158,3.561,0,0,.01.008.014.012,3.194,2.89,6.318,6.116,9.28,9.695,3.257,3.286,7.26,7.221,11.814,11.494.28.263.557.524.841.789,0-.001,0-.002.001-.003,4.267,3.983,8.99,8.235,14.037,12.529.296.251.589.503.887.754,0,0,.001-.003.001-.004,4.812,4.068,9.896,8.153,15.137,12.058,0,0-.002.001-.002.001.038.028.075.057.113.085,0,0,0-.002,0-.002,13.818,10.285,28.684,19.292,42.321,23.301.7.206,1.405.391,2.113.568.459.115,1.205.323,2.089.651,1.474.547,3.331,1.428,4.879,2.766.19.164.362.338.523.518.613.687,1.005,1.48,1.209,2.308.024.099.057.198.076.298.037.232.065.465.079.698.098,1.682-.569,3.385-1.875,4.556-27.222,15.018-76.336-22.516-76.829-22.898Z" fill="#000000"/>

<path d="M147.285,142.162c8.784,0,15.931-7.906,15.931-17.625s-7.147-17.625-15.931-17.625-15.931,7.907-15.931,17.625,7.146,17.625,15.931,17.625ZM153.84,124.087c-1.962,0-3.552-1.59-3.552-3.553s1.59-3.552,3.552-3.552,3.553,1.59,3.553,3.552-1.591,3.553-3.553,3.553ZM147.285,108.817c6.955,0,12.711,5.679,13.818,13.122-1.406-4.457-4.967-7.63-9.15-7.63-5.412,0-9.799,5.3-9.799,11.838s4.387,11.838,9.799,11.838c1.335,0,2.606-.325,3.766-.909-2.349,1.988-5.264,3.181-8.434,3.181-7.746,0-14.026-7.038-14.026-15.72s6.279-15.72,14.026-15.72Z" fill="#000000"/>
<path d="M193.212,136.56c1.425,0,2.581-1.155,2.581-2.581s-1.156-2.581-2.581-2.581-2.581,1.155-2.581,2.581c0,1.425,1.155,2.581,2.581,2.581Z" fill="#000000"/>
<path d="M302.362,231.886c-1.146-.245-2.3-.369-3.431-.369-4.923,0-8.732,2.342-9.477,5.827-.476,2.226.385,4.623,2.361,6.577,1.783,1.763,4.336,3.07,7.189,3.679,1.146.245,2.301.369,3.432.369,4.923,0,8.731-2.342,9.476-5.827.476-2.226-.385-4.623-2.361-6.577-1.783-1.763-4.335-3.069-7.189-3.679ZM310.049,241.744c-.565,2.647-3.725,4.32-7.613,4.32-.975,0-1.996-.105-3.033-.327-5.173-1.105-8.792-4.684-8.085-7.995.565-2.647,3.726-4.32,7.613-4.32.975,0,1.996.105,3.033.327,5.172,1.105,8.792,4.685,8.085,7.995Z" fill="#000000"/>
<path d="M215.295,122.147c.325,0,.649-.126.895-.376l3.218-3.295c2.259,3.277,3.858,6.542,4.975,9.603l-4.352,1.818c-.636.266-.937.998-.671,1.635.2.48.665.769,1.154.769.161,0,.324-.031.481-.098l4.176-1.744c1.109,3.707,1.545,7.011,1.687,9.522l-5.385-.082h-.02c-.681,0-1.238.547-1.249,1.231-.01.69.54,1.258,1.231,1.269l5.477.083c-.021,1.526-.141,2.424-.146,2.461-.099.683.373,1.317,1.055,1.418.062.01.123.014.184.014.609,0,1.142-.445,1.235-1.067.023-.158.16-1.161.194-2.787l23.482.358h.02c.681,0,1.238-.548,1.249-1.231.01-.69-.541-1.258-1.231-1.269l-23.555-.359c-.13-2.764-.597-6.425-1.866-10.548l22.295-9.312c.636-.266.937-.998.671-1.635-.266-.637-.998-.938-1.635-.671l-22.134,9.245c-1.233-3.324-3.012-6.874-5.542-10.446l15.88-16.261c.482-.494.473-1.286-.021-1.768-.493-.481-1.285-.472-1.768.021l-15.603,15.978c-.39-.493-.794-.987-1.216-1.479-.45-.524-1.239-.586-1.763-.137-.525.45-.586,1.239-.137,1.763.473.552.917,1.107,1.349,1.662l-3.509,3.593c-.482.494-.473,1.286.021,1.768.243.237.558.355.873.355Z" fill="#000000"/>
<path d="M64.05,307.62c-.615.314-.859,1.067-.546,1.682.221.433.66.682,1.115.682.191,0,.385-.044.566-.137.544-.277,1.084-.534,1.622-.778l2.336,3.718c.238.378.644.585,1.06.585.228,0,.458-.062.665-.191.584-.367.76-1.139.393-1.724l-2.114-3.365c3.22-1.224,6.297-1.909,9.114-2.24l.651,4.051c.099.614.63,1.052,1.233,1.052.066,0,.133-.005.2-.016.682-.11,1.145-.751,1.036-1.433l-.621-3.865c3.323-.168,6.178.127,8.342.512l-1.167,4.541c-.172.669.23,1.35.899,1.522.105.026.209.039.312.039.556,0,1.064-.375,1.209-.938l1.191-4.633c1.239.323,1.943.595,1.973.607.641.256,1.368-.054,1.625-.694.258-.64-.051-1.366-.69-1.625-.13-.052-.935-.367-2.281-.727l5.208-20.265c.172-.669-.23-1.35-.899-1.522-.667-.167-1.349.231-1.521.899l-5.227,20.336c-2.408-.453-5.623-.797-9.38-.575l-3.418-21.27c-.111-.682-.758-1.144-1.433-1.036-.681.11-1.145.751-1.036,1.433l3.39,21.1c-3.102.381-6.499,1.174-10.067,2.588l-10.782-17.162c-.368-.585-1.14-.76-1.724-.394-.585.368-.761,1.139-.394,1.724l10.573,16.83c-.469.219-.941.447-1.414.688Z" fill="#000000"/>
<path d="M140.11,367.476c1.403-5.634,1.45-10.178,1.448-10.825.451-14.041-2.863-25.534-9.849-34.162-4.942-6.104-12.111-9.605-19.67-9.605-5.078,0-10.077,1.567-14.457,4.533-1.67,1.13-3.249,2.391-4.741,3.771-.901-.382-1.81-.742-2.736-1.057-2.796-.949-5.664-1.43-8.523-1.43-10.066,0-18.895,5.885-23.042,15.359-4.451,10.171-4.602,22.132-.448,35.552.192.701,1.993,7.014,6.336,13.385.902,1.323,1.854,2.543,2.845,3.681-2.017,1.269-3.431,2.959-4.099,4.974-1.133,3.421.197,7.518,3.235,9.965,2.12,1.708,4.885,2.61,7.996,2.61.485,0,.978-.023,1.466-.069.727-.068,1.441-.182,2.139-.33-.152,1.297-.076,2.605.205,3.783.843,3.542,3.793,6.494,7.515,7.52,1.008.278,2.067.419,3.147.419,2.386,0,4.788-.671,6.946-1.94,1.234-.726,2.359-1.633,3.341-2.677.122.197.25.392.386.583,1.406,1.989,3.579,3.557,6.118,4.415,1.38.466,2.832.703,4.317.703,3.457,0,6.718-1.31,8.947-3.593,2.194-2.247,3.233-5.41,3.034-8.421,1.321.301,2.681.493,4.08.493.368,0,.736-.014,1.094-.041,4.314-.326,7.956-2.648,9.504-6.06,1.181-2.603,1.036-5.752-.375-8.237,2.397-.486,4.558-1.321,6.46-2.501,5.737-3.559,7.172-9.901,5.61-14.062-1.258-3.351-4.387-5.83-8.229-6.736ZM98.984,319.487c.582-.394,1.174-.751,1.773-1.087.187-.105.377-.199.565-.298.421-.222.844-.434,1.271-.628.215-.098.43-.192.646-.283.427-.179.857-.343,1.289-.495.198-.07.395-.145.594-.209.583-.188,1.168-.354,1.757-.493.043-.01.085-.025.128-.034.632-.146,1.266-.257,1.901-.347.194-.027.388-.044.582-.066.448-.052.896-.093,1.344-.117.224-.012.447-.02.67-.025.179-.004.358-.02.536-.02.374,0,.748.013,1.121.031.029.002.059,0,.088.003.615.034,1.226.1,1.835.185.118.017.236.032.354.05.591.092,1.177.207,1.759.346.108.026.215.056.322.083.587.15,1.17.319,1.744.517.021.007.042.013.063.02.585.204,1.16.441,1.73.695.11.049.22.097.33.148.549.256,1.091.534,1.623.836.101.057.2.118.3.177.541.318,1.075.654,1.595,1.02.011.008.022.014.033.022.525.372,1.035.776,1.535,1.196.094.079.188.156.281.237.479.415.946.853,1.399,1.314.086.088.17.178.255.268.466.488.923.993,1.357,1.53.983,1.214,1.942,2.56,2.848,4.05.699,1.15,1.362,2.396,1.985,3.723.454.966.889,1.97,1.29,3.036.476,1.265.911,2.601,1.297,4.012.225.824.428,1.681.618,2.557.298,1.374.557,2.806.757,4.313.109.822.203,1.665.28,2.528.154,1.726.242,3.535.255,5.429.006.947-.006,1.916-.038,2.907v.096c0,.055,0,.142-.003.244,0,.016-.001.026-.001.043-.002.107-.006.239-.011.387,0,.025-.002.046-.003.072-.006.153-.014.327-.023.517-.002.033-.003.066-.005.1-.011.198-.024.415-.041.648-.003.035-.005.071-.008.108-.018.243-.039.501-.064.777-.003.035-.007.071-.01.107-.027.288-.057.589-.093.908-.003.023-.006.048-.008.071-.038.329-.08.672-.129,1.031-.001.011-.003.021-.004.032-.049.357-.105.73-.166,1.113-.006.039-.012.077-.018.116-.06.368-.127.749-.199,1.138-.011.06-.022.119-.033.179-.073.383-.153.776-.24,1.175-.015.069-.03.137-.045.207-.089.401-.185.809-.288,1.223-.018.07-.035.14-.053.211-.107.419-.221.844-.344,1.274-.019.066-.039.133-.059.2-2.742,9.389-9.549,20.875-26.456,20.875-.114,0-.233-.006-.348-.007,5.98-4.015,9.929-9.12,11.769-15.246,4.355-14.507-4.789-29.332-5.502-30.455-5.908-10.058-13.076-17.235-21.356-21.426,1.224-1.077,2.454-2.026,3.669-2.849ZM120.804,367.425c-.553.192-1.138.313-1.742.363-.199.016-.397.024-.592.024-3.703,0-6.838-2.843-7.145-6.594-.323-3.956,2.614-7.421,6.569-7.744.169-.014.34-.023.512-.023.029,0,.058,0,.086,0,0,.003.002.006.003.009.167.468.33.952.489,1.448.009.027.018.054.027.081.154.486.303.986.445,1.495.01.037.021.073.032.111.139.505.271,1.022.394,1.548.012.052.025.104.037.156.12.522.231,1.054.332,1.593.011.06.022.121.033.182.099.543.187,1.093.262,1.65.007.054.013.108.02.162.072.558.133,1.123.178,1.693.004.05.006.101.01.151.042.573.071,1.151.081,1.733,0,.047,0,.094,0,.142.008.59,0,1.183-.03,1.78,0,.013-.002.026-.002.039ZM77.118,321.666s.002-.007.003-.01c.235-.047.47-.09.707-.13.178-.03.356-.062.535-.088.114-.017.229-.028.343-.043.064-.008.128-.013.192-.021.253-.03.506-.061.76-.083.169-.015.339-.027.508-.038.064-.004.13-.004.194-.007.212-.011.424-.018.637-.023.175-.004.348-.018.523-.019.023,0,.047-.002.07-.002.224,0,.45.021.675.028.28.008.559.016.84.035.417.028.836.074,1.256.124.267.032.534.058.802.1.462.072.924.168,1.387.268.227.049.454.086.682.142.69.169,1.379.366,2.068.599.073.025.149.055.223.081.453.157.909.323,1.371.504.233.091.47.195.705.292.314.13.627.262.944.404.254.114.51.237.766.359.32.153.641.309.964.475.229.117.46.239.69.363.409.22.819.451,1.23.693.093.055.186.109.28.164-.256,4.93-4.129,9.037-9.193,9.451-.277.023-.553.034-.826.034-5.164.001-9.551-3.969-9.978-9.21-.128-1.564.109-3.07.642-4.442ZM58.256,343.679c.108-.612.228-1.209.359-1.793.031-.14.057-.288.09-.426.161-.684.341-1.345.531-1.992.069-.233.142-.46.214-.688.14-.445.285-.881.437-1.307.079-.221.157-.444.238-.661.193-.511.393-1.009.601-1.493.036-.084.069-.173.105-.256.227-.52.472-1.025.729-1.519.054-.104.114-.203.169-.306.02-.038.042-.074.062-.112.083-.153.172-.301.258-.452.068-.119.134-.241.205-.359.004.002.007.005.01.008,1.547,1.052,2.624,2.77,2.787,4.776.287,3.523-2.332,6.608-5.855,6.896-.173.014-.344.021-.515.021-.16,0-.319-.007-.478-.019.019-.106.035-.214.053-.318ZM61.031,370.625c-.009-.027-.019-.054-.028-.08-.064-.186-.122-.36-.173-.518-.007-.021-.013-.04-.019-.06-.047-.146-.089-.279-.126-.396-.006-.019-.012-.038-.017-.056-.034-.111-.063-.208-.087-.29-.004-.014-.008-.027-.012-.041-.023-.08-.042-.145-.054-.189q-.002-.009-.005-.017c-.009-.034-.017-.061-.017-.061-.264-.85-.5-1.682-.724-2.506-.049-.186-.099-.37-.148-.554-.21-.798-.406-1.587-.581-2.36-.025-.112-.046-.221-.071-.333-.146-.662-.276-1.313-.397-1.957-.042-.228-.086-.455-.125-.681-.122-.692-.232-1.375-.325-2.047-.03-.211-.053-.418-.079-.627-.066-.511-.124-1.016-.174-1.515-.024-.239-.049-.479-.07-.716-.006-.069-.009-.135-.014-.204,1.266-.951,2.8-1.57,4.499-1.709.24-.02.478-.029.715-.029,4.47,0,8.263,3.433,8.633,7.973.389,4.773-3.164,8.958-7.938,9.348-.244.02-.486.03-.726.03-.64,0-1.263-.07-1.867-.205-.023-.065-.049-.137-.07-.2ZM66.523,381.637c-.028-.041-.056-.083-.084-.124-.249-.368-.491-.735-.723-1.101-.001,0-.002-.003-.003-.004-.232-.367-.454-.732-.669-1.095-.03-.05-.059-.1-.089-.15-.206-.352-.405-.701-.596-1.047-.023-.041-.045-.082-.067-.123-.389-.711-.745-1.405-1.069-2.073-.021-.043-.042-.086-.063-.129-.156-.325-.306-.643-.447-.954-.016-.034-.031-.068-.046-.102-.287-.633-.543-1.234-.769-1.792-.008-.021-.018-.043-.026-.063h0c.363.038.728.06,1.094.06.291,0,.588-.012.882-.036,2.816-.23,5.373-1.542,7.202-3.695,1.828-2.153,2.709-4.89,2.479-7.706-.445-5.452-5.071-9.723-10.532-9.723-.289,0-.581.012-.87.035-1.591.13-3.115.63-4.482,1.433-.106-2.632.007-5.078.283-7.355l.108.009c.213.017.427.026.642.026.222,0,.445-.009.669-.027,2.211-.18,4.219-1.21,5.654-2.9s2.126-3.838,1.945-6.049c-.206-2.529-1.533-4.794-3.64-6.215l-.011-.007-.01-.007c.253-.357.519-.699.788-1.037.098-.126.187-.249.282-.365.415-.501.847-.98,1.297-1.438.106-.108.218-.207.325-.312.354-.347.717-.682,1.09-1.003.159-.136.32-.268.481-.399.354-.287.715-.561,1.084-.824.155-.111.308-.225.465-.331.522-.353,1.054-.69,1.603-.997.003-.002.007-.003.01-.005.545-.304,1.104-.577,1.672-.833.174-.079.352-.149.528-.224.413-.174.831-.336,1.254-.484.194-.068.389-.136.585-.199.063-.02.125-.044.189-.064,0,.004-.003.008-.004.012-.35,1.31-.472,2.664-.359,4.044.502,6.146,5.72,10.961,11.88,10.961.325,0,.655-.014.981-.04,5.58-.455,10.07-4.764,10.838-10.212.121.081.241.153.362.236,1.073.735,2.151,1.548,3.231,2.448,4.32,3.597,8.657,8.57,12.669,15.411,0,0,1.635,2.542,3.239,6.507-.014.001-.027.001-.041.002-2.42.197-4.618,1.325-6.187,3.176-1.568,1.849-2.323,4.201-2.126,6.621.382,4.679,4.354,8.344,9.043,8.344.247,0,.497-.01.747-.03.482-.039.95-.128,1.41-.24-.029.233-.058.465-.093.698-.097.637-.22,1.275-.368,1.913-.149.638-.325,1.275-.53,1.91-.821,2.54-2.108,5.049-4.005,7.431-.474.595-.987,1.183-1.539,1.761-2.763,2.89-6.535,5.545-11.593,7.777-5.323,2.349-10.028,3.33-14.179,3.33-7.229,0-12.769-2.977-16.931-6.89-.018-.017-.037-.033-.055-.05-.344-.325-.677-.658-1.002-.995-.052-.055-.105-.109-.158-.163-.317-.332-.625-.669-.924-1.01-.038-.043-.074-.086-.111-.129-.3-.346-.593-.696-.876-1.048-.009-.011-.018-.022-.027-.033-.287-.358-.563-.72-.831-1.082-.04-.054-.08-.107-.119-.161-.261-.356-.514-.713-.758-1.07ZM145.294,382.013c-.905,1.673-2.275,3.14-3.883,4.137,0,.001-.002.001-.003.002-.428.265-.867.502-1.314.722-.145.072-.294.132-.441.199-.308.14-.617.275-.932.396-.175.067-.352.128-.528.189-.298.103-.598.2-.902.287-.182.053-.365.104-.549.151-.313.08-.628.15-.945.214-.174.035-.347.074-.522.105-.37.066-.743.118-1.117.165-.122.015-.243.036-.365.049-.497.054-.997.092-1.499.116-.122.006-.245.005-.367.009-.313.011-.626.023-.94.023-.056,0-.111-.005-.167-.005-.607-.004-1.215-.021-1.821-.06,2.076.196,4.025,1.446,5.071,3.25.261.451.465.934.609,1.434.433,1.501.336,3.157-.31,4.582-.631,1.39-1.723,2.483-3.039,3.257-1.316.774-2.854,1.229-4.376,1.344-.303.023-.604.034-.906.034-.043,0-.086-.005-.129-.005-.145-.001-.291-.011-.436-.017-.217-.01-.434-.02-.651-.039-.153-.014-.306-.033-.459-.051-.209-.025-.418-.053-.626-.086-.155-.025-.309-.052-.463-.081-.207-.039-.413-.081-.619-.126-.153-.034-.306-.068-.459-.105-.209-.051-.416-.105-.624-.161-.146-.04-.293-.079-.439-.121-.217-.063-.433-.129-.649-.196-.136-.042-.272-.083-.407-.127-.238-.077-.475-.158-.712-.238-.109-.038-.219-.073-.328-.111-.342-.12-.683-.241-1.022-.364,2.351,3.032,1.799,7.767-.881,10.512-.299.306-.625.578-.963.835-.09.068-.181.133-.273.198-.301.212-.613.407-.937.581-.052.028-.1.061-.152.087-.373.192-.761.354-1.157.497-.101.036-.204.068-.306.101-.332.108-.67.201-1.012.275-.087.019-.172.043-.258.059-.414.08-.833.135-1.255.167-.096.007-.193.008-.289.013-.185.009-.37.025-.556.025-.182,0-.364-.013-.545-.022-.073-.004-.146-.004-.218-.009-.418-.029-.834-.083-1.245-.158-.087-.016-.174-.035-.261-.053-.422-.088-.84-.192-1.246-.329-1.925-.651-3.704-1.83-4.877-3.49-.587-.83-1.045-1.79-1.294-2.789-.125-.5-.197-1.009-.207-1.517-.01-.508.042-1.013.166-1.506-.116.374-.25.741-.401,1.102-1.056,2.525-2.939,4.703-5.3,6.092-.382.225-.782.42-1.188.601-.113.051-.227.096-.342.143-.331.135-.669.255-1.011.36-.093.028-.184.062-.278.088-.424.118-.855.21-1.289.276-.1.015-.2.022-.301.035-.35.044-.701.069-1.053.077-.073.002-.145.016-.218.016-.057,0-.113-.01-.17-.011-.265-.005-.528-.025-.792-.051-.125-.013-.25-.019-.375-.036-.385-.054-.769-.127-1.146-.231-2.727-.751-5.092-2.937-5.747-5.688-.655-2.751.2-6.435,2.723-7.713-2.467,1.112-5.037,2.098-7.732,2.35-.376.035-.756.051-1.136.053-.033,0-.065.005-.097.005-.209,0-.418-.011-.626-.021-.068-.003-.137-.003-.205-.007-.316-.021-.632-.054-.945-.1-.083-.012-.165-.03-.248-.044-.229-.038-.457-.081-.683-.133-.112-.026-.222-.057-.333-.087-.195-.052-.389-.108-.581-.171-.115-.038-.229-.079-.343-.121-.186-.069-.369-.145-.55-.225-.108-.048-.216-.095-.322-.147-.191-.094-.376-.197-.559-.304-.088-.052-.178-.099-.265-.153-.265-.167-.523-.346-.768-.544-2.108-1.698-3.281-4.663-2.43-7.232.568-1.714,1.889-2.98,3.481-3.883,5.435,5.387,11.996,8.208,19.288,8.208,4.752,0,9.862-1.192,15.189-3.542,1.057-.466,2.063-.961,3.037-1.473,1.442.14,2.854.219,4.211.219,8.448,0,15.39-2.681,20.632-7.969,4.145-4.181,6.599-9.371,8.055-14.109.015.003.03.006.045.01.153.035.304.074.455.115.102.028.204.057.305.088.151.046.3.097.448.149.096.034.192.067.287.103.158.061.312.127.465.195.081.036.164.069.244.107.211.1.418.206.621.319.019.011.039.02.058.03.22.125.433.259.64.399.068.046.133.097.199.145.137.099.274.198.405.304.075.061.147.125.22.188.116.101.231.203.341.309.073.07.143.143.213.216.104.108.204.219.301.332.066.077.131.154.194.233.095.12.184.244.272.37.055.079.111.157.163.238.091.142.174.289.255.438.039.072.082.141.119.214.113.225.217.456.307.697.856,2.277.46,4.77-.704,6.922Z" fill="#000000"/>
<path d="M97.843,349.526c.158,0,.317-.006.478-.02,3.202-.261,5.594-3.078,5.333-6.279-.126-1.552-.849-2.96-2.036-3.968-1.186-1.008-2.692-1.497-4.245-1.365-3.202.261-5.594,3.078-5.333,6.28.249,3.042,2.803,5.352,5.803,5.352ZM94.858,341.163c.678-.798,1.626-1.285,2.67-1.37.108-.009.215-.013.321-.013,2.019,0,3.738,1.555,3.905,3.602.085,1.044-.242,2.059-.919,2.857-.678.799-1.626,1.285-2.67,1.37-2.15.18-4.05-1.435-4.227-3.588-.084-1.044.243-2.059.92-2.858Z" fill="#000000"/>
<path d="M97.022,389.351c.259,0,.521-.011.785-.032,5.262-.43,9.194-5.06,8.765-10.321-.429-5.262-5.049-9.19-10.322-8.766-5.262.43-9.194,5.061-8.765,10.322.408,4.999,4.606,8.797,9.537,8.797ZM96.404,372.13c.211-.017.42-.025.629-.025,3.949,0,7.313,3.043,7.64,7.047.344,4.215-2.806,7.924-7.021,8.268-4.231.335-7.925-2.807-8.269-7.02-.343-4.216,2.806-7.925,7.021-8.27Z" fill="#000000"/>
<path d="M79.987,389.005c.142,0,.285-.006.428-.018,1.387-.113,2.646-.76,3.547-1.82.9-1.061,1.334-2.408,1.221-3.795-.233-2.862-2.747-5.004-5.616-4.77-2.863.233-5.002,2.753-4.769,5.616.223,2.721,2.507,4.787,5.189,4.787ZM79.723,380.501c.091-.007.181-.011.27-.011,1.702,0,3.152,1.312,3.293,3.036.072.88-.203,1.734-.775,2.407-.571.673-1.371,1.083-2.25,1.155-1.814.136-3.414-1.209-3.563-3.024-.148-1.816,1.209-3.415,3.025-3.563Z" fill="#000000"/>
</g>
</svg>