<?xml version="1.0" encoding="UTF-8"?><svg id="a" xmlns="http://www.w3.org/2000/svg" width="800.523mm" height="590.55mm" viewBox="0 0 2269.2 1674">
<path d="M2269.2,0v1674H0V0h2269.2ZM2268.24,1.92H2.88v1671.12h2265.36V1.92Z" fill="#fff"/>
<path d="M2268.24,1.92v1671.12H2.88V1.92h2265.36ZM1201.793,322.514v-39.834c0-2.728-8.085-19.34-10.047-22.588-17.483-28.94-61.946-35.208-90.08-18.984-25.15,14.504-31.347,46.38-32.403,73.224-.175,4.44,1.301,8.539,1.02,13.479-.062,1.086.64,2.632-.946,2.376-20.518-38.998-51.37-83.469-100.725-54.152-29.711,17.648-35.445,46.379-26.682,78.365,3.755,13.705,10.694,24.709,17.009,37.217l-39.097-18.969c-47.855-22.505-91.727,20.524-87.608,68.407,2.579,29.984,32.63,48.778,53.753,65.745-35.207-3.651-76.875.382-88.041,40.111-8.158,29.026-3.254,65.859,24.393,82.573,4.473,2.704,24.363,11.704,28.612,11.704h38.876l-41.292,28.299c-31.763,30.459-19.374,79.787,16.646,100.491,30.27,17.399,59.657,2.021,86.568-13.591l-4.785,10.565c-51.363,66.639,24.887,141.95,91.664,96.46l26.854-33.127c-.685,27.837,4.069,63.838,32.656,76.294,4.193,1.827,9.404,1.989,12.467,5.771v68.63c-13.725-17.658-31.384-32.234-54.335-35.414-11.952-1.656-31.254-.002-42.84,3.993-16.185,5.582-12.96,16.196-7.631,29.198,16.188,39.491,60.859,75.075,102.886,47.337v52.792l-47.519,1.916c-21.409,2.248-43.295,3.886-63.802,11.07-8.853,3.101-22.498,8.593-23.95,19.245-1.468,10.773.356,25.487.889,36.396,1.062,21.761,1.961,47.477,7.181,68.649,3.305,13.404,8.213,16.831,21.379,19.895,1.673.389,7.555.074,7.956,1.824.1,2.5-.265,5.05-.048,7.548,3.81,43.865,7.471,88.579,14.535,132.322,5.136,31.806,20.449,33.337,49.402,36.987,34.692,4.374,71.718,3.623,106.444,1.055,15.756-1.165,45.556-2.01,58.102-11.97,7.678-6.096,9.359-18.839,11.205-28.15,7.461-37.637,9.287-77.721,11.813-115.85.421-6.358-1.153-18.882,5.494-22.342,5.356-2.788,11.762-2.936,16.809-7.887,4.982-4.889,7.123-22.887,8.277-30.379,2.748-17.841,4.016-35.606,4.928-53.623.608-12.007,2.353-26.028-.41-37.976-2.789-12.06-26.456-17.134-37.007-19.626-20.08-4.742-40.394-6.934-60.972-8.14-1.873-.11-3.64-.923-5.712-1.008-8.49-.347-21.155,1.355-28.83.033-.759-.131-1.448-.302-2.003-.877-.451-.362-2.328-3.205-2.328-3.431v-42.234c0-.409-2.024-1.401-1.92-2.392,11.366,1.345,20.722,10.34,31.412,14.175,60.735,21.791,135.424-50.075,146.666-106.313,1.207-6.039,2.985-10.981-.653-16.657-5.402-8.427-22.826-12.815-32.293-14.741-46.292-9.418-95.594.664-126.874,37.64l-18.249,28.293-1.813-62.272c16.065-4.786,27.71-14.945,34.616-30.178,1.517-3.346,7.505-19.68,7.505-22.251v-33.115c9.122,9.352,14.5,21.959,23.056,32.137,28.267,33.624,74.707,28.635,100.608-4.944,22.685-29.409,8.077-63.799-7.516-92.456l27.183,14.564c35.688,15.259,66.768,9.042,85.293-26.402,23.066-44.131-3.72-83.825-43.878-103.319l-.442-2.91c1.717-.716,2.925,1.916,3.356,1.916h31.677c3.957,0,23.801-7.921,28.005-10.391,36.376-21.371,37.784-91.724,2.562-114.241-5.145-3.289-28.252-13.588-33.446-13.588h-35.996c.113-1.046,1.244-1.693,1.998-2.322,25.657-21.418,61.411-29.236,63.231-70.281-3.188-38.832-35.192-65.737-74.246-60.717-21.308,2.739-38.375,13.953-56.744,23.879-.61-.648.633-2.132,1.064-2.768,21.606-31.868,41.807-77.133,6.649-107.625-20.224-17.54-50.277-23.643-74.734-11.33-21.011,10.578-30.391,31.64-44.799,48.79Z" fill="#fff"/>
<path d="M1201.793,322.514c14.408-17.149,23.788-38.211,44.799-48.79,24.457-12.313,54.51-6.21,74.734,11.33,35.158,30.492,14.958,75.757-6.649,107.625-.431.636-1.675,2.12-1.064,2.768,18.369-9.927,35.436-21.14,56.744-23.879,39.055-5.02,71.058,21.884,74.246,60.717-1.819,41.046-37.574,48.864-63.231,70.281-.754.629-1.885,1.276-1.998,2.322h35.996c5.194,0,28.302,10.3,33.446,13.588,35.223,22.517,33.815,92.87-2.562,114.241-4.203,2.469-24.048,10.391-28.005,10.391h-31.677c-.431,0-1.639-2.632-3.356-1.916l.442,2.91c40.158,19.494,66.944,59.188,43.878,103.319-18.525,35.443-49.605,41.661-85.293,26.402l-27.183-14.564c15.593,28.658,30.201,63.047,7.516,92.456-25.901,33.579-72.341,38.568-100.608,4.944-8.556-10.178-13.934-22.785-23.056-32.137v33.115c0,2.57-5.989,18.905-7.505,22.251-6.906,15.232-18.551,25.391-34.616,30.178l1.813,62.272,18.249-28.293c31.28-36.976,80.583-47.058,126.874-37.64,9.467,1.926,26.891,6.315,32.293,14.741,3.639,5.677,1.86,10.619.653,16.657-11.242,56.238-85.931,128.105-146.666,106.313-10.69-3.835-20.046-12.831-31.412-14.175-.104.991,1.92,1.983,1.92,2.392v42.234c0,.227,1.877,3.069,2.328,3.431.554.575,1.244.746,2.003.877,7.675,1.322,20.34-.38,28.83-.033,2.072.085,3.838.898,5.712,1.008,20.578,1.206,40.892,3.398,60.972,8.14,10.551,2.492,34.218,7.566,37.007,19.626,2.763,11.948,1.018,25.969.41,37.976-.912,18.017-2.181,35.782-4.928,53.623-1.154,7.492-3.295,25.49-8.277,30.379-5.046,4.952-11.453,5.1-16.809,7.887-6.647,3.46-5.073,15.983-5.494,22.342-2.526,38.129-4.352,78.213-11.813,115.85-1.846,9.311-3.527,22.054-11.205,28.15-12.546,9.96-42.346,10.805-58.102,11.97-34.727,2.568-71.753,3.319-106.444-1.055-28.953-3.651-44.266-5.181-49.402-36.987-7.064-43.743-10.725-88.458-14.535-132.322-.217-2.498.147-5.048.048-7.548-.401-1.75-6.283-1.435-7.956-1.824-13.166-3.064-18.075-6.491-21.379-19.895-5.22-21.171-6.119-46.888-7.181-68.649-.532-10.909-2.357-25.623-.889-36.396,1.452-10.652,15.096-16.144,23.95-19.245,20.507-7.184,42.393-8.822,63.802-11.07l47.519-1.916v-52.792c-42.027,27.738-86.698-7.845-102.886-47.337-5.33-13.002-8.554-23.616,7.631-29.198,11.586-3.996,30.888-5.65,42.84-3.993,22.951,3.18,40.61,17.756,54.335,35.414v-68.63c-3.063-3.782-8.274-3.944-12.467-5.771-28.587-12.456-33.341-48.457-32.656-76.294l-26.854,33.127c-66.776,45.49-143.027-29.821-91.664-96.46l4.785-10.565c-26.911,15.612-56.298,30.99-86.568,13.591-36.02-20.704-48.41-70.032-16.646-100.491l41.292-28.299h-38.876c-4.248,0-24.139-9-28.612-11.704-27.648-16.714-32.551-53.547-24.393-82.573,11.166-39.729,52.834-43.762,88.041-40.111-21.123-16.966-51.173-35.761-53.753-65.745-4.119-47.883,39.753-90.912,87.608-68.407l39.097,18.969c-6.314-12.507-13.254-23.511-17.009-37.217-8.763-31.986-3.028-60.717,26.682-78.365,49.355-29.317,80.206,15.154,100.725,54.152,1.586.255.885-1.29.946-2.376.281-4.94-1.195-9.039-1.02-13.479,1.056-26.844,7.253-58.72,32.403-73.224,28.133-16.225,72.597-9.956,90.08,18.984,1.962,3.248,10.047,19.86,10.047,22.588v39.834ZM1166.188,416.488c8.512-24.47,17.413-48.925,21.878-74.586,6.579-37.816,9.019-89.835-39.643-98.001-62.02-10.408-70.805,47.28-66.622,94.456,2.321,26.182,9.286,51.794,17.441,76.626,1.724,3.428,7.628.728,10.837.594,13.803-.578,28.429-.461,42.324,0,4.342.144,9.116,1.939,13.786.912ZM994.215,276.68c-19.195,2.529-43.133,23.513-44.874,43.436-4.718,53.996,42.713,98.87,77.247,133.97l1.777.765c17.791-13.65,36.448-23.735,57.247-32.064,2.863-1.867,2.149-6.396,1.846-9.466-1.64-16.598-13.724-47.004-20.555-62.948-11.245-26.242-38.502-78.197-72.688-73.693ZM1181.75,421.269c12.465,4.799,26.036,9.648,37.247,16.983,5.311,3.475,17.358,14.808,22.106,16.301,1.845.58,3.048.637,4.9.008,4.269-1.449,17.694-15.625,21.561-19.724,28.714-30.433,94.05-108.749,43.003-144.784-64.834-45.766-104.997,41.054-119.817,91.01-3.16,10.65-7.196,24.456-8.87,35.279-.252,1.628-.549,3.298-.13,4.928ZM983.825,527.848c5.12-23.792,19.85-44.17,34.532-62.98.366-.839-.087-1.444-.373-2.177-2.072-5.31-18.45-20.788-23.51-25.493-26.065-24.235-80.852-72.055-118.739-56.306-19.718,8.196-34.922,35.164-32.841,56.221,4.687,47.424,80.252,74.982,119.146,86.27,3.209.931,20.086,5.917,21.786,4.464ZM1373.395,381.326c-28.088,3.254-65.266,30.576-86.19,49.154-7.72,6.854-19.272,17.383-25.924,24.95-1.687,1.919-6.588,7.495-6.614,9.602-.078,6.165,16.915,25.78,20.854,32.841,4.384,7.856,7.035,17.027,11.676,24.794,2.144,1.319,11.602-1.032,14.635-1.731,34.66-7.988,105.087-36.907,124.416-67.561,22.247-35.283-15.524-76.373-52.853-72.048ZM1123.834,424.532c-146.917,11.055-188.719,216.532-56.129,282.109,99.516,49.219,211.984-18.676,217.643-128.28,4.447-86.125-76.836-160.2-161.514-153.829ZM978.974,607.474l-2.762-29.153,2.774-33.446c-.927-2.782-15.215-8.023-18.588-9.293-52.085-19.618-162.444-47.062-156.048,43.738,3.323,47.177,53.333,55.518,91.612,51.208,28.716-3.233,55.552-14.972,83.01-23.054ZM1294.061,607.474c55.032,20.399,176.312,58.75,168.865-41.676-4.371-58.946-79.658-53.262-121.003-44.129-17.173,3.793-33.691,9.971-49.963,16.405,5.423,22.974,1.727,46.116,2.101,69.4ZM1287.304,622.073c-3.789,13.46-9.883,27.745-17.917,39.194-4.019,5.727-14.793,15.376-13.828,22.568.402,2.994,5.546,8.92,7.682,11.569,29.602,36.712,115.917,116.184,153.108,48.508,37.289-67.854-55.605-103.821-105.125-117.606-7.775-2.164-15.741-4.947-23.92-4.234ZM983.636,625.147c-1.014-.904-2.6-1.242-3.947-1.174-5.334.271-13.4,2.137-18.846,3.282-32.572,6.846-90.996,30.703-110.778,58.162-26.918,37.366,10.449,86.905,53.439,81.273,28.996-3.799,79.549-44.185,99.128-65.972,2.882-3.206,11.01-12.431,11.767-16.062,2.042-9.786-6.329-15.849-11.132-23.005-7.723-11.507-12.547-24.626-19.632-36.505ZM1088.442,726.695c-13.233-4.056-27.936-9.763-39.195-17.915-6.833-4.947-17.48-18.575-26.477-11.923-34.869,33.293-129.21,123.901-52.975,162.402,64.873,32.763,95.768-49.353,110.35-96.39,1.509-4.869,10.379-33.752,8.297-36.174ZM1183.701,726.756c-1.583,2.256,4.015,27.073,5.114,31.554,11.496,46.855,49.566,146.377,112.733,98.293,37.959-28.895,20.041-67.9-2.423-100.135-15.846-22.739-35.787-42.373-56.068-61.086l-2.172-.313c-17.051,14.089-36.484,24.067-57.185,31.687ZM1170.04,731.493c-16.469-.52-32.89,2.818-49.402,1.886-3.436-.194-15.897-2.863-17.767-1.532-10.447,25.37-19.844,51.519-23.811,78.889-6.142,42.373-3.035,90.14,50.255,92.496,67.377,2.979,65.432-74.013,54.737-120.961-3.898-17.11-10.31-33.614-14.011-50.779ZM1145.159,912.829h-22.078l-3.84,218.849h32.637l-6.719-218.849ZM1252.65,970.365c-27.504,10.017-55.232,22.313-79.002,39.582-1.847,1.342-10.554,7.28-10.217,8.863,16.545,14.037,39.272,20.924,60.82,17.742,46.536-6.873,78.248-48.434,96.744-88.513,1.756-3.805,7.686-16.653,6.087-19.836-2.435-4.844-23.498-10.843-29.26-12.055-18.039-3.794-40.578-3.62-58.388,1.205-41.107,11.135-71.185,46.123-78.909,87.622,18.777-10.772,36.056-22.898,55.971-31.851,6.582-2.959,27.544-12.326,33.654-10.258l2.5,7.499ZM1103.876,1002.096c-2.717-20.975-19.508-36.674-39.13-42.932-10.665-3.401-39.572-5.911-48.567.825-6.492,4.861,2.683,20.791,5.944,26.439,14.918,25.835,45.201,49.207,75.991,34.381,1.492-.718,4.751-2.07,4.9-3.82-.123-4.201-6.638-7.367-9.999-9.303-5.336-3.074-39.241-17.517-39.918-19.657.003-12.659,9.582-6.545,16.884-3.384,11.622,5.03,22.533,11.904,33.893,17.453ZM1108.683,1089.444c-33.962,1.776-68.92,1.476-101.753,11.035-3.853,1.122-17.238,5.116-19.261,7.611-2.739,3.377-.071,4.754,2.592,6.184,19.318,10.371,57.48,15.014,79.541,16.449l38.88.956v-42.234ZM1162.437,1131.678c34.634-.048,70.053-1.267,103.446-11.262,5.05-1.512,12.35-3.735,16.896-6.142,4.475-2.369,4.918-3.701.547-7.015-12.838-9.731-62.828-15.603-80.089-16.86l-40.8-.956v42.234ZM1276.419,1223.579c2.671-4.893,3.709-10.443,4.756-15.882,4.319-22.447,5.043-46.076,6.093-68.777.116-2.517.747-11.297-1.609-11.97-19.158,3.766-38.197,8.67-57.581,11.335-57.909,7.961-131.037,7.561-188.855-.981-18.447-2.725-36.505-7.187-54.363-12.343.555,7.176.588,14.407.952,21.599.976,19.298.682,50.644,6.454,68.416,2.234,6.88,4.117,8.09,10.82,10.298,22.287,7.34,52.773,7.726,76.325,9.106,1.634.096,3.158.882,4.791.968,18.476,2.806,39.597-1.553,57.492.102,8.392.776,17.218,3.298,16.906,13.329l-137.265-7.67c1.617,8.677,2.971,17.589,3.846,26.382,3.501,35.193,3.403,72.529,9.879,107.224.965,5.168,2.765,15.245,5.612,19.345,5.158,7.429,22.82,7.609,31.05,9.265,45.614-.884,96.871,7.125,141.78-1.254,14.408-2.688,20.579-4.312,24.493-19.662,8.008-31.409,8.801-72.663,11.786-105.318,1.096-11.989,3.077-23.967,3.85-35.991l-73.976,5.342-.905-8.223c28.209-2.723,57.227-1.845,84.686-9.864,4.418-1.29,8.854-2.745,12.983-4.775Z" fill="#000000"/>
<path d="M1181.75,421.269c-.419-1.63-.121-3.3.13-4.928,1.674-10.823,5.711-24.629,8.87-35.279,14.82-49.956,54.983-136.776,119.817-91.01,51.048,36.035-14.289,114.35-43.003,144.784-3.867,4.099-17.293,18.275-21.561,19.724-1.852.629-3.056.572-4.9-.008-4.748-1.493-16.795-12.826-22.106-16.301-11.211-7.334-24.782-12.184-37.247-16.983Z" fill="#fff"/>
<path d="M978.974,607.474c-27.458,8.082-54.294,19.821-83.01,23.054-38.279,4.31-88.289-4.031-91.612-51.208-6.396-90.801,103.963-63.356,156.048-43.738,3.373,1.27,17.66,6.511,18.588,9.293l-2.774,33.446,2.762,29.153Z" fill="#fff"/>
<path d="M1294.061,607.474c-.374-23.285,3.322-46.426-2.101-69.4,16.272-6.434,32.79-12.612,49.963-16.405,41.346-9.132,116.632-14.817,121.003,44.129,7.447,100.426-113.833,62.074-168.865,41.676Z" fill="#fff"/>
<path d="M983.825,527.848c-1.7,1.453-18.577-3.533-21.786-4.464-38.893-11.288-114.458-38.847-119.146-86.27-2.081-21.058,13.123-48.025,32.841-56.221,37.887-15.749,92.674,32.072,118.739,56.306,5.06,4.705,21.439,20.182,23.51,25.493.286.733.739,1.338.373,2.177-14.682,18.81-29.411,39.188-34.532,62.98Z" fill="#fff"/>
<path d="M1287.304,622.073c8.179-.713,16.145,2.07,23.92,4.234,49.52,13.785,142.414,49.752,105.125,117.606-37.191,67.675-123.505-11.796-153.108-48.508-2.136-2.649-7.28-8.575-7.682-11.569-.965-7.192,9.809-16.841,13.828-22.568,8.034-11.449,14.128-25.735,17.917-39.194Z" fill="#fff"/>
<path d="M1088.442,726.695c2.082,2.423-6.788,31.306-8.297,36.174-14.581,47.037-45.476,129.153-110.35,96.39-76.235-38.501,18.106-129.109,52.975-162.402,8.997-6.652,19.645,6.976,26.477,11.923,11.259,8.152,25.962,13.859,39.195,17.915Z" fill="#fff"/>
<path d="M1170.04,731.493c3.701,17.164,10.114,33.669,14.011,50.779,10.695,46.949,12.64,123.94-54.737,120.961-53.29-2.356-56.397-50.123-50.255-92.496,3.967-27.369,13.364-53.519,23.811-78.889,1.87-1.332,14.332,1.338,17.767,1.532,16.512.932,32.934-2.406,49.402-1.886Z" fill="#fff"/>
<path d="M983.636,625.147c7.085,11.879,11.909,24.998,19.632,36.505,4.803,7.156,13.174,13.219,11.132,23.005-.758,3.631-8.886,12.856-11.767,16.062-19.58,21.786-70.133,62.173-99.128,65.972-42.99,5.632-80.357-43.907-53.439-81.273,19.781-27.459,78.205-51.316,110.778-58.162,5.447-1.145,13.513-3.011,18.846-3.282,1.347-.068,2.933.27,3.947,1.174Z" fill="#fff"/>
<path d="M1166.188,416.488c-4.67,1.028-9.444-.768-13.786-.912-13.895-.461-28.521-.577-42.324,0-3.209.134-9.113,2.834-10.837-.594-8.155-24.832-15.12-50.444-17.441-76.626-4.182-47.176,4.602-104.864,66.622-94.456,48.662,8.166,46.222,60.185,39.643,98.001-4.465,25.661-13.366,50.116-21.878,74.586Z" fill="#fff"/>
<path d="M1373.395,381.326c37.329-4.325,75.1,36.765,52.853,72.048-19.329,30.654-89.756,59.573-124.416,67.561-3.033.699-12.491,3.05-14.635,1.731-4.641-7.766-7.293-16.938-11.676-24.794-3.94-7.061-20.932-26.676-20.854-32.841.027-2.107,4.927-7.683,6.614-9.602,6.652-7.567,18.204-18.096,25.924-24.95,20.924-18.578,58.102-45.899,86.19-49.154Z" fill="#fff"/>
<path d="M1183.701,726.756c20.701-7.62,40.134-17.598,57.185-31.687l2.172.313c20.281,18.713,40.222,38.348,56.068,61.086,22.463,32.235,40.381,71.241,2.423,100.135-63.167,48.083-101.237-51.438-112.733-98.293-1.099-4.481-6.697-29.298-5.114-31.554Z" fill="#fff"/>
<path d="M994.215,276.68c34.186-4.503,61.443,47.451,72.688,73.693,6.832,15.943,18.915,46.349,20.555,62.948.303,3.069,1.017,7.599-1.846,9.466-20.799,8.329-39.456,18.414-57.247,32.064l-1.777-.765c-34.534-35.1-81.966-79.974-77.247-133.97,1.741-19.922,25.679-40.907,44.874-43.436Z" fill="#fff"/>
<path d="M1252.65,970.365l-2.5-7.499c-6.11-2.068-27.071,7.299-33.654,10.258-19.915,8.952-37.194,21.079-55.971,31.851,7.724-41.499,37.802-76.487,78.909-87.622,17.811-4.824,40.349-4.999,58.388-1.205,5.762,1.212,26.825,7.211,29.26,12.055,1.6,3.182-4.331,16.031-6.087,19.836-18.496,40.079-50.208,81.64-96.744,88.513-21.548,3.182-44.275-3.705-60.82-17.742-.337-1.583,8.369-7.521,10.217-8.863,23.77-17.269,51.498-29.565,79.002-39.582Z" fill="#fff"/>
<polygon points="1145.159 912.829 1151.878 1131.678 1119.242 1131.678 1123.081 912.829 1145.159 912.829" fill="#fff"/>
<path d="M1103.876,1002.096c-11.36-5.549-22.271-12.423-33.893-17.453-7.302-3.161-16.881-9.275-16.884,3.384.677,2.14,34.582,16.583,39.918,19.657,3.361,1.936,9.876,5.102,9.999,9.303-.149,1.751-3.409,3.102-4.9,3.82-30.79,14.826-61.073-8.545-75.991-34.381-3.261-5.648-12.437-21.577-5.944-26.439,8.995-6.735,37.902-4.226,48.567-.825,19.621,6.258,36.413,21.957,39.13,42.932Z" fill="#fff"/>
<path d="M1276.419,1223.579c-4.129,2.031-8.564,3.485-12.983,4.775-27.46,8.019-56.477,7.141-84.686,9.864l.905,8.223,73.976-5.342c-.773,12.024-2.754,24.002-3.85,35.991-2.985,32.655-3.778,73.909-11.786,105.318-3.914,15.35-10.085,16.973-24.493,19.662-44.909,8.379-96.166.37-141.78,1.254-8.23-1.657-25.892-1.837-31.05-9.265-2.847-4.1-4.647-14.177-5.612-19.345-6.476-34.695-6.379-72.032-9.879-107.224-.875-8.793-2.229-17.705-3.846-26.382l137.265,7.67c.312-10.031-8.513-12.553-16.906-13.329-17.896-1.654-39.016,2.705-57.492-.102-1.633-.086-3.157-.872-4.791-.968-23.551-1.379-54.038-1.766-76.325-9.106-6.703-2.207-8.585-3.417-10.82-10.298-5.771-17.772-5.478-49.118-6.454-68.416-.364-7.192-.397-14.423-.952-21.599,17.858,5.157,35.916,9.618,54.363,12.343,57.818,8.542,130.946,8.942,188.855.981,19.384-2.665,38.423-7.568,57.581-11.335,2.357.673,1.726,9.453,1.609,11.97-1.05,22.701-1.775,46.33-6.093,68.777-1.046,5.438-2.084,10.988-4.756,15.882Z" fill="#fff"/>
<path d="M1162.437,1131.678v-42.234l40.8.956c17.262,1.257,67.252,7.129,80.089,16.86,4.371,3.313,3.927,4.646-.547,7.015-4.546,2.407-11.846,4.63-16.896,6.142-33.392,9.995-68.811,11.213-103.446,11.262Z" fill="#fff"/>
<path d="M1108.683,1089.444v42.234l-38.88-.956c-22.061-1.435-60.223-6.077-79.541-16.449-2.663-1.43-5.331-2.807-2.592-6.184,2.023-2.494,15.408-6.489,19.261-7.611,32.833-9.558,67.791-9.259,101.753-11.035Z" fill="#fff"/>
<path d="M1123.834,424.532c84.678-6.372,165.961,67.703,161.514,153.829-5.66,109.604-118.127,177.499-217.643,128.28-132.59-65.576-90.788-271.054,56.129-282.109ZM1073.894,510.891c-19.667,2.579-14.703,32.186,5.484,28.518,4.461-.811,7.638-6.315,8.883-10.305,3.421-10.962-2.452-19.775-14.367-18.213ZM1192.504,514.796c-7.85,7.85-4.529,21.45,7.11,23.463,26.612,4.604,22.197-36.079-2.616-26.172-1.096.438-3.712,1.927-4.494,2.709ZM1108.697,546.165l-3.657,5.261c14.993,29.42,56.344,28.174,73.607,1.767l-5.17-7.018c-18.144,14.987-36.859,22.914-57.134,6.244-1.379-1.133-6.206-7.294-7.647-6.254Z" fill="#fff"/>
<path d="M1108.697,546.165c1.441-1.04,6.268,5.12,7.647,6.254,20.275,16.67,38.99,8.743,57.134-6.244l5.17,7.018c-17.264,26.407-58.614,27.653-73.607-1.767l3.657-5.261Z" fill="#000000"/>
<path d="M1192.504,514.796c.782-.782,3.398-2.271,4.494-2.709,24.813-9.907,29.228,30.776,2.616,26.172-11.639-2.014-14.96-15.613-7.11-23.463Z" fill="#000000"/>
<path d="M1073.894,510.891c11.915-1.563,17.788,7.25,14.367,18.213-1.245,3.99-4.423,9.495-8.883,10.305-20.186,3.668-25.151-25.939-5.484-28.518Z" />
</svg>