<?xml version="1.0" encoding="UTF-8"?><svg id="a" xmlns="http://www.w3.org/2000/svg" width="62.442mm" height="84.137mm" viewBox="0 0 177 238.5">
<path d="M146.317,105.316c.447-7.124-2.305-16.505-4.04-23.571-2.068-8.424-4.976-16.646-7.161-25.039,7.108-2.435,10.217-11.555,3.583-16.369-5.196-3.769-9.066-.152-10.25-.905-5.752-11.933-12.417-22.78-26.811-24.499,1.632-10.036-8.806-15.043-15.769-7.823l-1.58,6.288c-14.71,1.843-29.221,5.582-41.513,14.187-13.878,9.715-17.024,19.005-16.631,35.783l2.267,24.635c-11.288,4.968-8.766,17.793,3.338,18.441,3.53,14.043,7.589,39.821,17.995,50.225,2.821,2.821,6.255,2.992,8.097,4.619,1.741,1.538,4.333,7.565,6.4,10.072,9.484,11.501,19.833,6.373,32.75,5.738,3.157,9.769,10.325,48.861,17.809,53.933,4.68,3.171,16.255.411,18.314-4.724,2.221-5.537-1.951-21.286-3.387-27.711-2.141-9.58-5.434-18.963-7.31-28.622,12.002-5.969,23.993-6.683,25.442-22.611,1.295-14.244-2.413-28.196-1.544-42.047ZM133.751,53.192l-3.741-9.988c7.949-6.707,14.367,9.072,3.741,9.988ZM98.578,14.246l-11.202-.747c-.511-9.431,12.664-8.907,11.202.747ZM29.122,91.5l1.495,11.249c-7.433,1.023-9.188-10.147-1.495-11.249ZM51.877,154.529c-13.732-13.126-23.391-77.85-22.78-97.187.836-26.436,30.788-38.765,53.653-40.617,13.032-1.056,27.432.493,35.869,11.528,9.146,11.963,23.867,57.557,24.766,72.639.948,15.896-14.124,3.124-19.959,2.034-21.41-4-10.481,19.664-22.667,28.635-7.792,5.736-13.846,2.891-20.452-2.583-4.497-3.727-7.477-10.504-14.528-6.295-9.056,5.405,5.125,25.319-2.996,32.242-4.358,2.719-7.035,3.304-10.906-.396ZM127.344,201.742c1.114,5.19,5.067,19.648,2.658,23.685-8.558,7.02-13.379,5.571-17.589-4.192-5.808-13.47-8.287-29.787-12.313-43.926l1.251-1.658,18.111-4.634c2.513,10.242,5.666,20.399,7.882,30.723ZM142.798,155.028c-3.079,5.915-21.393,11.925-27.96,13.922-9.502,2.889-32.67,8.893-41.681,6.208-5.138-1.531-9.704-10.788-12.646-15.039,16.063-6.1,2.664-23.967,5.542-32.666,2.784-8.414,12.843,5.125,16.595,7.423,12.463,7.632,23.574-.025,27.345-12.792,1.083-3.665,1.813-14.213,5.196-15.781,10.111-3.355,17.19,8.707,27.451,4.699.672,11.61,5.548,33.671.157,44.026Z" fill="#000000"/>
<path d="M65.779,122.683c7.051-4.209,10.031,2.568,14.528,6.295,6.605,5.473,12.66,8.319,20.452,2.583,12.186-8.97,1.257-32.635,22.667-28.635,5.836,1.09,20.907,13.862,19.959-2.034-.899-15.081-15.62-60.676-24.766-72.639-8.437-11.035-22.837-12.584-35.869-11.528-22.865,1.852-52.817,14.181-53.653,40.617-.611,19.337,9.048,84.061,22.78,97.187,3.871,3.7,6.549,3.115,10.906.396,8.121-6.922-6.06-26.837,2.996-32.242ZM114.794,68.411c14.459-3.344,15.884,18.143,2.102,17.104-10.075-.76-10.059-15.264-2.102-17.104ZM90.169,39.917c10.326-2.106,15.14,11.009,6.435,16.218-11.656,6.975-19.038-13.648-6.435-16.218ZM83.26,94.857c11.393-.311,12.412,16.695,1.508,17.677-13.326,1.2-12.693-17.371-1.508-17.677ZM45.363,77.075c-9.573-1.679-8.916-16.35.767-17.677,12.725-1.744,13.516,20.183-.767,17.677ZM59.553,43.325c-9.919-1.742-9.257-16.554.768-17.687,12.874-1.455,12.921,20.091-.768,17.687Z" fill="#fff"/>
<path d="M115.19,106.304c-3.383,1.568-4.114,12.116-5.196,15.781-3.771,12.766-14.882,20.423-27.345,12.792-3.752-2.298-13.811-15.837-16.595-7.423-2.878,8.699,10.521,26.566-5.542,32.666,2.942,4.251,7.508,13.508,12.646,15.039,9.012,2.685,32.179-3.319,41.681-6.208,6.567-1.997,24.88-8.007,27.96-13.922,5.391-10.355.514-32.416-.157-44.026-10.261,4.009-17.34-8.054-27.451-4.699Z" fill="#fff"/>
<path d="M101.351,175.653l-1.251,1.658c4.027,14.138,6.505,30.455,12.313,43.926,4.21,9.763,9.031,11.211,17.589,4.192,2.409-4.037-1.545-18.496-2.658-23.685-2.215-10.324-5.369-20.481-7.882-30.723l-18.111,4.634Z" fill="#fff"/>
<path d="M130.01,43.204l3.741,9.988c10.626-.916,4.208-16.695-3.741-9.988Z" fill="#fff"/>
<path d="M98.578,14.246c1.463-9.654-11.713-10.179-11.202-.747l11.202.747Z" fill="#fff"/>
<path d="M30.618,102.749l-1.495-11.249c-7.692,1.102-5.938,12.272,1.495,11.249Z" fill="#fff"/>
<path d="M46.13,59.398c-9.683,1.327-10.34,15.998-.767,17.677,14.283,2.505,13.492-19.421.767-17.677ZM46.105,74.121c-6.27-1.298-6.015-10.667.002-11.753,9.234-1.668,9.076,13.632-.002,11.753Z" fill="#000000"/>
<path d="M84.768,112.533c10.904-.982,9.885-17.988-1.508-17.677-11.185.306-11.818,18.876,1.508,17.677ZM81.938,98.412c8.338-1.917,10.169,8.768,3.991,10.748-8.871,2.843-11.094-9.115-3.991-10.748Z" fill="#000000"/>
<path d="M60.321,25.638c-10.025,1.133-10.686,15.945-.768,17.687,13.688,2.404,13.642-19.142.768-17.687ZM62.293,40.483c-8.858,1.127-8.798-10.635-1.995-11.869,6.984-1.266,9.856,10.869,1.995,11.869Z" fill="#000000"/>
<path d="M96.604,56.135c8.705-5.209,3.89-18.324-6.435-16.218-12.602,2.57-5.221,23.194,6.435,16.218ZM96.864,44.466c4.6,5.73-3.964,14.132-9.084,8.007-5.254-6.284,4.791-13.355,9.084-8.007Z" fill="#000000"/>
<path d="M116.896,85.515c13.782,1.04,12.357-20.447-2.102-17.104-7.957,1.84-7.973,16.344,2.102,17.104ZM115.541,71.404c7.789-2.366,11.104,8.001,5.259,10.528-8.783,3.796-11.767-8.551-5.259-10.528Z" fill="#000000"/>
<path d="M46.107,62.367c-6.017,1.087-6.272,10.456-.002,11.753,9.077,1.879,9.236-13.421.002-11.753Z" fill="#fff"/>
<path d="M85.928,109.16c6.178-1.98,4.348-12.666-3.991-10.748-7.103,1.633-4.881,13.592,3.991,10.748Z" fill="#fff"/>
<path d="M60.298,28.615c-6.804,1.234-6.863,12.995,1.995,11.869,7.861-1,4.989-13.135-1.995-11.869Z" fill="#fff"/>
<path d="M96.864,44.466c-4.293-5.348-14.338,1.723-9.084,8.007,5.121,6.125,13.684-2.277,9.084-8.007Z" fill="#fff"/>
<path d="M120.8,81.932c5.846-2.527,2.531-12.894-5.259-10.528-6.509,1.977-3.524,14.324,5.259,10.528Z" fill="#fff"/>
</svg>