<?xml version="1.0" encoding="UTF-8"?>
<svg id="a" xmlns="http://www.w3.org/2000/svg" viewBox="0 0 658.6 529.9"><defs><style>.b{fill:#fff;}</style></defs>
<path d="M601.9,388.3c2.5,4.9,1.9,6-2.9,8.4-55.7,21.7-108.5,50.5-159.7,81.5-2,1.3-4.2.7-5.8-1.1-56.2-88-122.5-174.5-210.8-232.6l-.6,22.7c-1.8,5.5-7.9,7.9-12.8,4.4l-48.3-37.1c-82.7,25.2-78.2,35.6-47.8-49.5l-35.8-50.1c-3.1-5.6.6-12.1,7-12.4,20.3-.2,40.9,2.2,61.2,1.7l36-48.8c4.7-5.5,12.7-3.8,14.7,3.1l13.4,45.6c166.9,7.5,309.6,125.6,392.3,264.3ZM541,411.3l51.3-21.6c-1.9-3.2-3.9-6.3-5.8-9.4-2-3.1-4-6.2-6-9.3-1.4-2.1-2.7-4.1-4.1-6.2-2.1-3.1-4.2-6.1-6.3-9.2-1.4-2-2.9-4.1-4.3-6.1s-2.9-4-4.4-6c-2.9-4-5.9-8-9-11.9-1.5-2-3.1-3.9-4.6-5.9-3.4-4.4-6.9-8.7-10.5-13-2.8-3.4-5.7-6.8-8.6-10.1-2.5-2.8-5-5.6-7.5-8.4-3.3-3.7-6.7-7.4-10.2-11-.9-.9-1.7-1.8-2.6-2.7-1.3-1.4-2.6-2.7-3.9-4-1.3-1.3-2.6-2.7-3.9-4-.9-.9-1.8-1.8-2.7-2.6-4.9-4.8-9.8-9.5-14.9-14.1-1-.9-1.9-1.8-2.9-2.6-1.4-1.2-2.7-2.5-4.1-3.7-1.4-1.3-2.9-2.5-4.3-3.8-.9-.8-1.7-1.5-2.6-2.3-1-.9-2.1-1.8-3.1-2.6-1.8-1.6-3.6-3.1-5.5-4.6-1.5-1.2-3-2.4-4.5-3.7-1-.8-1.9-1.6-2.9-2.3-1.9-1.6-3.9-3.1-5.9-4.6-31.8-24.6-66.3-45.3-102.9-60.9-1.6-.7-3.2-1.4-4.8-2-2.9-1.2-5.9-2.4-8.8-3.5-1.7-.6-3.3-1.3-5-1.9-2.6-1-5.3-1.9-7.9-2.9-2-.7-4.1-1.4-6.1-2.1-1.5-.5-2.9-1-4.4-1.4-4.7-1.5-9.4-2.9-14.2-4.2-2.1-.6-4.3-1.2-6.4-1.7-7.4-1.9-14.9-3.7-22.5-5.2-3.7-.7-7.3-1.4-11-2-1.2-.2-2.5-.4-3.7-.6-2.5-.4-4.9-.8-7.4-1.1-9.9-1.4-20-2.3-30.1-2.9l1.3,3.8,59.3,19.7c5.1,3.2,5.1,11.5-.6,13.8,115.3,43.2,215.8,128.7,269.1,241ZM487.3,440.2l46-24.5c-52.8-111.5-153.2-198.2-269.5-238.7l-2.2.5-33.4,22.5.3,1c3.3,1.7,6.5,3.4,9.8,5.2,8.1,4.4,16.3,8.9,24.4,13.5,4.9,2.8,9.7,5.6,14.5,8.5h0c4.8,2.9,9.6,5.8,14.4,8.8,1.6,1,3.2,2,4.8,3,7.9,5,15.8,10.2,23.5,15.5,3.1,2.1,6.2,4.3,9.2,6.5,7.7,5.5,15.2,11,22.6,16.8,19.3,15,37.7,31,54.8,48.2,1.3,1.3,2.6,2.7,3.9,4,3.9,4,7.7,8.1,11.5,12.2,5,5.5,9.8,11.2,14.5,16.9,4.7,5.8,9.2,11.6,13.6,17.6,1.1,1.5,2.2,3,3.3,4.5,2.1,3,4.3,6.1,6.3,9.2,2.1,3.1,4.1,6.2,6.1,9.4,3,4.7,5.8,9.5,8.6,14.4,4.6,8.1,8.9,16.5,12.9,25ZM438.4,468.3l41.2-23.3c-51.5-108.1-152.8-183.5-257.1-237.3.4,8.7-.6,17.7,0,26.2,90.2,58.5,158,145.2,215.9,234.5ZM266.7,163.1l-60.7-20.2-18-61.4-38,51.7-64.2-1.8,36.9,52.1-21.6,60.6,61.4-19.4,50.8,39.1.7-64.3s0,0,0,0c.1-.1.4-.3.7-.6.3-.2.6-.5,1.1-.8,1.8-1.3,4.9-3.3,8.6-5.8.6-.4,1.3-.9,2-1.4,0,0,0,0,0,0,1.1-.7,2.1-1.4,3.3-2.2,3.1-2,6.3-4.2,9.5-6.4.8-.5,1.6-1.1,2.4-1.6,0,0,0,0,0,0,.8-.5,1.6-1.1,2.4-1.6.4-.3.8-.6,1.2-.8.8-.5,1.6-1.1,2.4-1.6t0,0c1.6-1,3.1-2.1,4.5-3.1,0,0,0,0,0,0,5.1-3.5,9.5-6.5,11.9-8.5,0,0,0,0,0,0,.9-.7,1.5-1.2,1.9-1.6.2-.2.3-.4.3-.5Z" fill="#000000"/>
<path class="b" d="M592.4,389.6l-51.3,21.6c-53.3-112.3-153.8-197.9-269.1-241,5.7-2.4,5.8-10.6.6-13.8l-59.3-19.7-1.3-3.8c10.1.6,20.2,1.5,30.1,2.9,2.5.3,5,.7,7.4,1.1,1.2.2,2.5.4,3.7.6,3.7.6,7.4,1.3,11,2,7.6,1.5,15.1,3.2,22.5,5.2,2.1.6,4.3,1.1,6.4,1.7,4.8,1.3,9.5,2.7,14.2,4.2,1.5.5,2.9.9,4.4,1.4,2.1.7,4.1,1.4,6.1,2.1,2.6.9,5.3,1.9,7.9,2.9,1.7.6,3.3,1.3,5,1.9,3,1.2,5.9,2.3,8.8,3.5,1.6.7,3.2,1.3,4.8,2,36.6,15.6,71.1,36.4,102.9,60.9,2,1.5,3.9,3.1,5.9,4.6,1,.8,2,1.5,2.9,2.3,1.5,1.2,3,2.4,4.5,3.7,1.8,1.5,3.7,3,5.5,4.6,1,.9,2.1,1.7,3.1,2.6.9.8,1.8,1.5,2.6,2.3,1.4,1.3,2.9,2.5,4.3,3.8,1.4,1.2,2.8,2.4,4.1,3.7,1,.9,1.9,1.7,2.9,2.6,5,4.6,10,9.3,14.9,14.1.9.9,1.8,1.8,2.7,2.6,1.3,1.3,2.6,2.6,3.9,4,1.3,1.3,2.6,2.7,3.9,4,.9.9,1.7,1.8,2.6,2.7,3.4,3.6,6.8,7.3,10.2,11,2.5,2.8,5,5.6,7.5,8.4,2.9,3.3,5.8,6.7,8.6,10.1,3.6,4.3,7.1,8.6,10.5,13,1.5,2,3.1,3.9,4.6,5.9,3,4,6,7.9,9,11.9,1.5,2,2.9,4,4.4,6,1.4,2,2.9,4,4.3,6.1,2.1,3.1,4.2,6.1,6.3,9.2,1.4,2,2.7,4.1,4.1,6.2,2,3.1,4,6.2,6,9.3,2,3.1,3.9,6.3,5.8,9.4Z" fill="#fff"/>
<path class="b" d="M533.4,415.8l-46,24.5c-4-8.5-8.3-16.9-12.9-25-2.8-4.9-5.6-9.7-8.6-14.4-2-3.2-4-6.3-6.1-9.4-2.1-3.1-4.2-6.1-6.3-9.2-1.1-1.5-2.2-3-3.3-4.5-4.4-6-8.9-11.9-13.6-17.6-4.7-5.8-9.5-11.4-14.5-16.9-3.7-4.1-7.6-8.2-11.5-12.2-1.3-1.3-2.6-2.7-3.9-4-17.1-17.2-35.5-33.3-54.8-48.2-7.4-5.8-15-11.4-22.6-16.8-3.1-2.2-6.2-4.3-9.2-6.5-7.8-5.3-15.6-10.5-23.5-15.5-1.6-1-3.2-2-4.8-3-4.8-3-9.6-5.9-14.4-8.8h0c-4.8-2.9-9.6-5.7-14.5-8.5-8.1-4.6-16.2-9.1-24.4-13.5-3.3-1.8-6.5-3.5-9.8-5.2l-.3-1,33.4-22.5,2.2-.5c116.3,40.5,216.6,127.2,269.5,238.7Z" fill="#fff"/>
<path class="b" d="M498.1,269.7c.9.9,1.8,1.8,2.7,2.6-.9-.9-1.8-1.8-2.7-2.6Z" fill="#fff"/>
<path class="b" d="M480.3,252.9c1,.9,1.9,1.7,2.9,2.6-1-.9-1.9-1.8-2.9-2.6Z" fill="#fff"/>
<path class="b" d="M471.9,245.4c1.5,1.3,2.9,2.5,4.3,3.8-1.4-1.3-2.9-2.5-4.3-3.8Z" fill="#fff"/>
<path class="b" d="M465.8,400.9c3,4.7,5.8,9.5,8.6,14.4-2.8-4.9-5.6-9.7-8.6-14.4Z" fill="#fff"/>
<path class="b" d="M466.2,240.5c1,.9,2.1,1.7,3.1,2.6-1-.9-2.1-1.8-3.1-2.6Z" fill="#fff"/>
<path class="b" d="M456.2,232.3c1.5,1.2,3,2.4,4.5,3.7-1.5-1.2-3-2.4-4.5-3.7Z" fill="#fff"/>
<path class="b" d="M453.4,382.3c2.1,3,4.3,6.1,6.3,9.2-2.1-3.1-4.2-6.1-6.3-9.2Z" fill="#fff"/>
<path class="b" d="M447.4,225.3c2,1.5,3.9,3.1,5.9,4.6-1.9-1.6-3.9-3.1-5.9-4.6Z" fill="#fff"/>
<path class="b" d="M436.5,360.1c4.7,5.8,9.2,11.6,13.6,17.6-4.4-6-8.9-11.9-13.6-17.6Z" fill="#fff"/>
<path class="b" d="M421.9,343.2c5,5.5,9.8,11.2,14.5,16.9-4.7-5.8-9.5-11.4-14.5-16.9Z" fill="#fff"/>
<path class="b" d="M410.5,330.9c3.9,4,7.7,8.1,11.5,12.2-3.7-4.1-7.6-8.2-11.5-12.2Z" fill="#fff"/>
<path class="b" d="M410.5,330.9c-1.3-1.3-2.6-2.7-3.9-4,1.3,1.3,2.6,2.7,3.9,4Z" fill="#fff"/>
<path class="b" d="M329.2,261.9c7.7,5.4,15.2,11,22.6,16.8-7.4-5.8-15-11.4-22.6-16.8Z" fill="#fff"/>
<path class="b" d="M319.9,255.4c3.1,2.1,6.2,4.3,9.2,6.5-3.1-2.2-6.2-4.3-9.2-6.5Z" fill="#fff"/>
<path class="b" d="M296.4,239.9c7.9,5,15.8,10.2,23.5,15.5-7.8-5.3-15.6-10.5-23.5-15.5Z" fill="#fff"/>
<path class="b" d="M277.3,228.1c4.8,2.9,9.6,5.8,14.4,8.8-4.8-3-9.6-5.9-14.4-8.8Z" fill="#fff"/>
<path class="b" d="M262.8,219.7c4.9,2.8,9.7,5.6,14.5,8.5-4.8-2.9-9.6-5.7-14.5-8.5Z" fill="#fff"/>
<path class="b" d="M206,142.9l60.7,20.2c0,0-.1.3-.3.5-.4.4-1,.9-1.9,1.6,0,0,0,0,0,0-2.5,1.9-6.8,5-11.9,8.5,0,0,0,0,0,0-1.5,1-3,2-4.5,3.1t0,0c-.8.5-1.6,1.1-2.4,1.6-.4.3-.8.5-1.2.8-.8.5-1.6,1.1-2.4,1.6,0,0,0,0,0,0-.8.5-1.6,1.1-2.4,1.6-3.2,2.2-6.5,4.3-9.5,6.4-1.1.7-2.2,1.5-3.3,2.2,0,0,0,0,0,0-.7.5-1.4.9-2,1.4-3.7,2.5-6.8,4.5-8.6,5.8-.4.3-.8.6-1.1.8-.3.2-.6.4-.7.6,0,0,0,0,0,0l-.7,64.3-50.8-39.1-61.4,19.4,21.6-60.6-36.9-52.1,64.2,1.8,38-51.7,18,61.4Z" fill="#fff"/>
<path class="b" d="M264.5,165.2c.9-.7,1.5-1.2,1.9-1.6-.4.4-1,.9-1.9,1.6Z" fill="#fff"/>
<path class="b" d="M252.5,173.6c5.1-3.5,9.5-6.5,11.9-8.5-2.5,1.9-6.8,5-11.9,8.5Z" fill="#fff"/>
<path class="b" d="M248,176.7c1.6-1,3.1-2.1,4.5-3.1-1.5,1-3,2-4.5,3.1Z" fill="#fff"/>
<path class="b" d="M245.6,178.3c.8-.5,1.6-1.1,2.4-1.6-.8.5-1.6,1.1-2.4,1.6Z" fill="#fff"/>
<path class="b" d="M238.4,206.2c8.1,4.4,16.3,8.9,24.4,13.5-8.1-4.6-16.2-9.1-24.4-13.5Z" fill="#fff"/>
<path class="b" d="M241.9,180.7c.8-.5,1.6-1.1,2.4-1.6-.8.5-1.6,1.1-2.4,1.6Z" fill="#fff"/>
<path class="b" d="M239.5,182.4c.8-.5,1.6-1.1,2.4-1.6-.8.5-1.6,1.1-2.4,1.6Z" fill="#fff"/>
<path class="b" d="M479.6,445l-41.2,23.3c-57.9-89.3-125.7-176-215.9-234.5-.5-8.5.4-17.5,0-26.2,104.2,53.8,205.5,129.3,257.1,237.3Z" fill="#fff"/>
</svg>