<?xml version="1.0" encoding="utf-8"?>
<!-- Generator: Adobe Illustrator 27.5.0, SVG Export Plug-In . SVG Version: 6.00 Build 0)  -->
<svg version="1.1" xmlns="http://www.w3.org/2000/svg" xmlns:xlink="http://www.w3.org/1999/xlink" x="0px" y="0px"
	 viewBox="0 0 500 500" style="enable-background:new 0 0 500 500;" xml:space="preserve">
<g id="BACKGROUND">
	<rect style="fill:#FFFFFF;" width="500" height="500"/>
</g>
<g id="OBJECTS">
	<g>
		<g>
			
				<circle style="fill:none;stroke:#000000;stroke-width:2;stroke-linecap:round;stroke-linejoin:round;stroke-miterlimit:10;" cx="319.003" cy="304.017" r="114.547"/>
			<g>
				<path style="fill:none;stroke:#000000;stroke-width:2;stroke-linecap:round;stroke-linejoin:round;stroke-miterlimit:10;" d="
					M290.185,192.967c0,0,18.826-39.68,28.818-39.68s28.818,39.68,28.818,39.68"/>
				<path style="fill:none;stroke:#000000;stroke-width:2;stroke-linecap:round;stroke-linejoin:round;stroke-miterlimit:10;" d="
					M347.821,415.066c0,0-18.826,39.68-28.818,39.68s-28.818-39.68-28.818-39.68"/>
			</g>
			<g>
				<path style="fill:none;stroke:#000000;stroke-width:2;stroke-linecap:round;stroke-linejoin:round;stroke-miterlimit:10;" d="
					M430.052,275.198c0,0,39.68,18.826,39.68,28.818c0,9.993-39.68,28.818-39.68,28.818"/>
				<path style="fill:none;stroke:#000000;stroke-width:2;stroke-linecap:round;stroke-linejoin:round;stroke-miterlimit:10;" d="
					M207.954,332.835c0,0-39.68-18.826-39.68-28.818c0-9.993,39.68-28.818,39.68-28.818"/>
			</g>
			<g>
				<path style="fill:none;stroke:#000000;stroke-width:2;stroke-linecap:round;stroke-linejoin:round;stroke-miterlimit:10;" d="
					M377.149,205.115c0,0,41.369-14.746,48.435-7.68c7.066,7.066-7.68,48.435-7.68,48.435"/>
				<path style="fill:none;stroke:#000000;stroke-width:2;stroke-linecap:round;stroke-linejoin:round;stroke-miterlimit:10;" d="
					M260.857,402.918c0,0-41.369,14.746-48.435,7.68c-7.066-7.066,7.68-48.435,7.68-48.435"/>
			</g>
			<g>
				<path style="fill:none;stroke:#000000;stroke-width:2;stroke-linecap:round;stroke-linejoin:round;stroke-miterlimit:10;" d="
					M417.904,362.163c0,0,14.746,41.369,7.68,48.435c-7.066,7.066-48.435-7.68-48.435-7.68"/>
				<path style="fill:none;stroke:#000000;stroke-width:2;stroke-linecap:round;stroke-linejoin:round;stroke-miterlimit:10;" d="
					M220.102,245.87c0,0-14.746-41.369-7.68-48.435c7.066-7.066,48.435,7.68,48.435,7.68"/>
			</g>
			<g>
				<path style="fill:none;stroke:#000000;stroke-width:2;stroke-linecap:round;stroke-linejoin:round;stroke-miterlimit:10;" d="
					M339.994,178.034c0,0,27.458-17.097,36.69-13.273c9.232,3.824,16.559,35.329,16.559,35.329"/>
				<path style="fill:none;stroke:#000000;stroke-width:2;stroke-linecap:round;stroke-linejoin:round;stroke-miterlimit:10;" d="
					M297.858,430.554c0,0-27.305,16.542-36.537,12.718c-9.232-3.824-16.448-34.596-16.448-34.596"/>
			</g>
			<g>
				<path style="fill:none;stroke:#000000;stroke-width:2;stroke-linecap:round;stroke-linejoin:round;stroke-miterlimit:10;" d="
					M298.122,178.034c0,0-27.458-17.097-36.69-13.273c-9.232,3.824-16.559,35.329-16.559,35.329"/>
				<path style="fill:none;stroke:#000000;stroke-width:2;stroke-linecap:round;stroke-linejoin:round;stroke-miterlimit:10;" d="
					M339.994,429.733c0,0,27.569,17.363,36.801,13.539c9.232-3.824,16.448-34.596,16.448-34.596"/>
			</g>
			<g>
				<path style="fill:none;stroke:#000000;stroke-width:2;stroke-linecap:round;stroke-linejoin:round;stroke-miterlimit:10;" d="
					M193.079,283.077c0,0-17.097-27.458-13.273-36.69c3.824-9.232,35.329-16.559,35.329-16.559"/>
				<path style="fill:none;stroke:#000000;stroke-width:2;stroke-linecap:round;stroke-linejoin:round;stroke-miterlimit:10;" d="
					M444.778,325.949c0,0,17.363,26.569,13.539,35.801c-3.824,9.232-34.596,16.448-34.596,16.448"/>
			</g>
			<g>
				<path style="fill:none;stroke:#000000;stroke-width:2;stroke-linecap:round;stroke-linejoin:round;stroke-miterlimit:10;" d="
					M193.079,324.949c0,0-17.097,27.458-13.273,36.69c3.824,9.232,35.329,16.559,35.329,16.559"/>
				<path style="fill:none;stroke:#000000;stroke-width:2;stroke-linecap:round;stroke-linejoin:round;stroke-miterlimit:10;" d="
					M444.778,282.077c0,0,17.363-26.569,13.539-35.801c-3.824-9.232-34.596-16.448-34.596-16.448"/>
			</g>
		</g>
		<g>
			<g>
				<path style="stroke:#000000;stroke-width:2;stroke-linecap:round;stroke-linejoin:round;stroke-miterlimit:10;" d="
					M332.694,304.288c0.171,6.077,5.235,10.866,11.313,10.695c6.077-0.17,10.866-5.235,10.695-11.313
					c-0.171-6.077-5.235-10.866-11.313-10.695C337.312,293.146,332.524,298.211,332.694,304.288z"/>
				
					<path style="fill:#FFFFFF;stroke:#000000;stroke-width:2;stroke-linecap:round;stroke-linejoin:round;stroke-miterlimit:10;" d="
					M340.83,299.703c0.067,2.404,2.071,4.299,4.475,4.231s4.299-2.071,4.231-4.475c-0.068-2.404-2.071-4.299-4.475-4.231
					S340.762,297.299,340.83,299.703z"/>
				
					<path style="fill:#FFFFFF;stroke:#000000;stroke-width:2;stroke-linecap:round;stroke-linejoin:round;stroke-miterlimit:10;" d="
					M337.573,306.445c0.039,1.393,1.2,2.49,2.593,2.451c1.393-0.039,2.49-1.2,2.451-2.593c-0.039-1.393-1.2-2.49-2.593-2.451
					S337.534,305.052,337.573,306.445z"/>
			</g>
			<g>
				<path style="stroke:#000000;stroke-width:2;stroke-linecap:round;stroke-linejoin:round;stroke-miterlimit:10;" d="
					M280.324,294.611c0.171,6.077,5.235,10.866,11.313,10.695c6.077-0.171,10.866-5.236,10.695-11.313
					c-0.171-6.077-5.235-10.866-11.313-10.695C284.941,283.469,280.153,288.534,280.324,294.611z"/>
				
					<path style="fill:#FFFFFF;stroke:#000000;stroke-width:2;stroke-linecap:round;stroke-linejoin:round;stroke-miterlimit:10;" d="
					M288.459,290.026c0.068,2.404,2.071,4.299,4.475,4.231c2.404-0.067,4.299-2.071,4.231-4.475s-2.071-4.299-4.475-4.231
					C290.286,285.618,288.392,287.622,288.459,290.026z"/>
				
					<path style="fill:#FFFFFF;stroke:#000000;stroke-width:2;stroke-linecap:round;stroke-linejoin:round;stroke-miterlimit:10;" d="
					M285.202,296.768c0.039,1.393,1.2,2.49,2.593,2.451c1.393-0.039,2.49-1.2,2.451-2.593c-0.039-1.393-1.2-2.49-2.593-2.451
					C286.26,294.215,285.163,295.375,285.202,296.768z"/>
			</g>
			<g>
				<path style="stroke:#000000;stroke-width:2;stroke-linecap:round;stroke-linejoin:round;stroke-miterlimit:10;" d="
					M305.346,304.345c4.464-2.949,7.011,3.539,10.722,4.347c2.505,0.545,11.984-5.306,13.113,1c0.175,0.976,0.107,1.905-0.157,2.773
					c-3.318-1.389-7.078-1.739-10.576-0.888c-3.438,0.837-6.569,2.818-8.868,5.504C304.268,313.592,301.782,306.7,305.346,304.345z"
					/>
				<path style="fill:none;stroke:#000000;stroke-width:2;stroke-linecap:round;stroke-linejoin:round;stroke-miterlimit:10;" d="
					M318.447,311.577c3.499-0.851,7.258-0.501,10.576,0.888c-1.444,4.743-8.789,7.671-14.934,6.484
					c-1.65-0.319-3.169-0.987-4.51-1.868C311.878,314.396,315.009,312.414,318.447,311.577z"/>
			</g>
		</g>
	</g>
	<g>
		<path style="fill:none;stroke:#000000;stroke-width:2;stroke-linecap:round;stroke-linejoin:round;stroke-miterlimit:10;" d="
			M179.696,253.491c0,0-49.57-33.382-11.462-91.697c32.891-50.334,110.137-22.426,110.137-22.426s-24.971-60.831-78.242-72.262
			c-27.36-5.871-66.281-3.489-104.655,36.38c-95.076,98.78-19.436,242.201,86.714,239.211"/>
		<g>
			<g>
				<path style="stroke:#000000;stroke-width:2;stroke-linecap:round;stroke-linejoin:round;stroke-miterlimit:10;" d="
					M94.851,182.969c-1.685,5.408-7.434,8.426-12.841,6.741c-5.407-1.684-8.426-7.434-6.741-12.841
					c1.684-5.408,7.434-8.426,12.841-6.741C93.517,171.812,96.535,177.561,94.851,182.969z"/>
				
					<path style="fill:#FFFFFF;stroke:#000000;stroke-width:2;stroke-linecap:round;stroke-linejoin:round;stroke-miterlimit:10;" d="
					M88.71,176.806c-0.666,2.139-2.941,3.333-5.08,2.667s-3.333-2.941-2.667-5.08c0.666-2.139,2.941-3.333,5.08-2.667
					C88.182,172.393,89.376,174.667,88.71,176.806z"/>
				
					<path style="fill:#FFFFFF;stroke:#000000;stroke-width:2;stroke-linecap:round;stroke-linejoin:round;stroke-miterlimit:10;" d="
					M89.932,183.674c-0.386,1.239-1.704,1.931-2.943,1.545c-1.239-0.386-1.931-1.704-1.545-2.943
					c0.386-1.239,1.704-1.931,2.943-1.545C89.626,181.117,90.318,182.435,89.932,183.674z"/>
			</g>
			<g>
				<path style="stroke:#000000;stroke-width:2;stroke-linecap:round;stroke-linejoin:round;stroke-miterlimit:10;" d="
					M144.259,187.487c-1.684,5.408-7.434,8.426-12.841,6.741c-5.408-1.685-8.426-7.434-6.741-12.841
					c1.684-5.408,7.434-8.426,12.841-6.741C142.925,176.33,145.943,182.079,144.259,187.487z"/>
				
					<path style="fill:#FFFFFF;stroke:#000000;stroke-width:2;stroke-linecap:round;stroke-linejoin:round;stroke-miterlimit:10;" d="
					M138.118,181.325c-0.666,2.139-2.941,3.333-5.08,2.667c-2.139-0.666-3.333-2.941-2.667-5.08c0.666-2.139,2.941-3.333,5.08-2.667
					C137.59,176.911,138.784,179.185,138.118,181.325z"/>
				
					<path style="fill:#FFFFFF;stroke:#000000;stroke-width:2;stroke-linecap:round;stroke-linejoin:round;stroke-miterlimit:10;" d="
					M139.34,188.192c-0.386,1.239-1.704,1.931-2.943,1.545c-1.239-0.386-1.931-1.704-1.545-2.943
					c0.386-1.239,1.704-1.931,2.943-1.545C139.034,185.635,139.726,186.953,139.34,188.192z"/>
			</g>
			<g>
				<path style="stroke:#000000;stroke-width:2;stroke-linecap:round;stroke-linejoin:round;stroke-miterlimit:10;" d="
					M119.365,189.912c-3.261-3.77-7.18,1.407-10.712,1.196c-2.384-0.143-9.411-7.779-12.013-2.408
					c-0.403,0.831-0.576,1.681-0.558,2.527c3.326-0.409,6.786,0.224,9.709,1.869c2.873,1.617,5.181,4.183,6.566,7.171
					C118,198.476,121.968,192.922,119.365,189.912z"/>
				<path style="fill:none;stroke:#000000;stroke-width:2;stroke-linecap:round;stroke-linejoin:round;stroke-miterlimit:10;" d="
					M105.792,193.096c-2.923-1.645-6.383-2.278-9.709-1.869c0.1,4.618,5.949,9.095,11.759,9.579c1.56,0.13,3.091-0.086,4.516-0.539
					C110.973,197.279,108.665,194.713,105.792,193.096z"/>
			</g>
		</g>
		<path style="fill:none;stroke:#000000;stroke-width:2;stroke-linecap:round;stroke-linejoin:round;stroke-miterlimit:10;" d="
			M205.523,68.976c2.219,4.767,1.133,9.567-1.598,14.061c-2.731,4.493-6.899,7.91-11.119,11.046
			c-8.458,6.286-17.732,12.101-23.326,21.032c-7.6,12.136-6.49,29.09,2.627,40.132"/>
		<path style="fill:none;stroke:#000000;stroke-width:2;stroke-linecap:round;stroke-linejoin:round;stroke-miterlimit:10;" d="
			M77.88,124.672c11.164,6.801,24.391,10.437,37.418,9.36c13.028-1.077,25.756-7.046,34.242-16.989
			c11.638-13.636,14.273-33.14,11.393-50.834"/>
		
			<circle style="fill:none;stroke:#000000;stroke-width:2;stroke-linecap:round;stroke-linejoin:round;stroke-miterlimit:10;" cx="142.385" cy="148.107" r="12.584"/>
		<path style="fill:none;stroke:#000000;stroke-width:2;stroke-linecap:round;stroke-linejoin:round;stroke-miterlimit:10;" d="
			M52.531,203.586c8.464-1.969,15.985,2.463,21.159,9.445c5.174,6.982,7.545,15.579,10.162,23.866s5.775,16.78,12.032,22.812
			c5.542,5.343,12.976,8.223,19.178,12.784c9.132,6.715,15.311,16.991,18.207,27.951c2.896,10.96,2.675,22.575,0.65,33.728"/>
		<path style="fill:none;stroke:#000000;stroke-width:2;stroke-linecap:round;stroke-linejoin:round;stroke-miterlimit:10;" d="
			M153.969,204.684c-13.81-1.181-27.842,7.984-32.311,21.105c-4.469,13.12,1.051,28.945,12.711,36.44
			c6.323,4.064,14.801,5.644,21.372,1.994c2.881-1.6,5.184-4.063,7.252-6.629c2.727-3.382,5.139-7.018,7.195-10.846"/>
		<path style="fill:none;stroke:#000000;stroke-width:2;stroke-linecap:round;stroke-linejoin:round;stroke-miterlimit:10;" d="
			M181.891,287.73c-4.589-6.055-13.667-7.583-20.647-4.583c-6.632,2.85-11.553,9.44-12.213,16.628
			c-0.66,7.188,3.064,14.649,9.303,18.28c6.239,3.631,14.683,3.134,20.34-1.35"/>
	</g>
	<g>
		<path style="fill:none;stroke:#000000;stroke-width:2;stroke-linecap:round;stroke-linejoin:round;stroke-miterlimit:10;" d="
			M290.053,69.599c1.674,0.112,4.731,9.585,4.731,9.585s9.603-0.318,10.578,1.537s-7.655,7.461-7.655,7.461
			s2.616,9.014,1.807,10.535c-0.809,1.521-9.461-4.974-9.461-4.974s-7.514,5.852-9.461,4.974
			c-1.948-0.878,1.807-10.535,1.807-10.535s-8.284-6.264-7.654-7.461c0.629-1.198,10.578-1.537,10.578-1.537
			S288.379,69.486,290.053,69.599z"/>
		<path style="fill:none;stroke:#000000;stroke-width:2;stroke-linecap:round;stroke-linejoin:round;stroke-miterlimit:10;" d="
			M119.471,356.145c1.571-0.591,8.275,6.767,8.275,6.767s8.61-4.265,10.265-2.98c1.656,1.285-3.879,9.961-3.879,9.961
			s6.114,7.122,6.007,8.842c-0.107,1.72-10.672-0.611-10.672-0.611s-4.417,8.438-6.553,8.445
			c-2.136,0.007-2.717-10.338-2.717-10.338s-10.134-2.272-10.057-3.623c0.077-1.351,8.993-5.779,8.993-5.779
			S117.9,356.736,119.471,356.145z"/>
		<path style="fill:none;stroke:#000000;stroke-width:2;stroke-linecap:round;stroke-linejoin:round;stroke-miterlimit:10;" d="
			M406.297,126.59c0.981,0.838-1.483,8.083-1.483,8.083s6.068,4.212,5.818,5.804c-0.25,1.592-8.146,1.088-8.146,1.088
			s-2.525,6.76-3.722,7.327c-1.197,0.566-3.552-7.411-3.552-7.411s-7.32,0.16-8.118-1.275c-0.798-1.435,5.95-5.668,5.95-5.668
			s-2.233-7.665-1.296-8.115c0.938-0.45,7.229,3.908,7.229,3.908S405.316,125.752,406.297,126.59z"/>
		<g>
			
				<line style="fill:none;stroke:#000000;stroke-width:2;stroke-linecap:round;stroke-linejoin:round;stroke-miterlimit:10;" x1="337.977" y1="138.853" x2="356.659" y2="138.853"/>
			
				<line style="fill:none;stroke:#000000;stroke-width:2;stroke-linecap:round;stroke-linejoin:round;stroke-miterlimit:10;" x1="347.318" y1="129.512" x2="347.318" y2="148.194"/>
			
				<line style="fill:none;stroke:#000000;stroke-width:2;stroke-linecap:round;stroke-linejoin:round;stroke-miterlimit:10;" x1="340.712" y1="132.247" x2="353.923" y2="145.458"/>
			
				<line style="fill:none;stroke:#000000;stroke-width:2;stroke-linecap:round;stroke-linejoin:round;stroke-miterlimit:10;" x1="353.923" y1="132.247" x2="340.712" y2="145.458"/>
		</g>
		<g>
			
				<line style="fill:none;stroke:#000000;stroke-width:2;stroke-linecap:round;stroke-linejoin:round;stroke-miterlimit:10;" x1="185.025" y1="182.039" x2="203.708" y2="182.039"/>
			
				<line style="fill:none;stroke:#000000;stroke-width:2;stroke-linecap:round;stroke-linejoin:round;stroke-miterlimit:10;" x1="194.367" y1="172.698" x2="194.367" y2="191.38"/>
			
				<line style="fill:none;stroke:#000000;stroke-width:2;stroke-linecap:round;stroke-linejoin:round;stroke-miterlimit:10;" x1="187.761" y1="175.434" x2="200.972" y2="188.644"/>
			
				<line style="fill:none;stroke:#000000;stroke-width:2;stroke-linecap:round;stroke-linejoin:round;stroke-miterlimit:10;" x1="200.972" y1="175.434" x2="187.761" y2="188.644"/>
		</g>
		<g>
			
				<line style="fill:none;stroke:#000000;stroke-width:2;stroke-linecap:round;stroke-linejoin:round;stroke-miterlimit:10;" x1="172.429" y1="402.768" x2="191.112" y2="402.768"/>
			
				<line style="fill:none;stroke:#000000;stroke-width:2;stroke-linecap:round;stroke-linejoin:round;stroke-miterlimit:10;" x1="181.771" y1="393.427" x2="181.771" y2="412.109"/>
			
				<line style="fill:none;stroke:#000000;stroke-width:2;stroke-linecap:round;stroke-linejoin:round;stroke-miterlimit:10;" x1="175.165" y1="396.163" x2="188.376" y2="409.374"/>
			
				<line style="fill:none;stroke:#000000;stroke-width:2;stroke-linecap:round;stroke-linejoin:round;stroke-miterlimit:10;" x1="188.376" y1="396.163" x2="175.165" y2="409.374"/>
		</g>
		<path style="fill:none;stroke:#000000;stroke-width:2;stroke-linecap:round;stroke-linejoin:round;stroke-miterlimit:10;" d="
			M264.706,63.505c0,1.325-1.074,2.399-2.399,2.399c-1.325,0-2.399-1.074-2.399-2.399s1.074-2.399,2.399-2.399
			C263.632,61.106,264.706,62.18,264.706,63.505z"/>
		<path style="fill:none;stroke:#000000;stroke-width:2;stroke-linecap:round;stroke-linejoin:round;stroke-miterlimit:10;" d="
			M306.693,135.482c0,1.988-1.611,3.599-3.599,3.599s-3.599-1.611-3.599-3.599c0-1.988,1.611-3.599,3.599-3.599
			S306.693,133.494,306.693,135.482z"/>
		<path style="fill:none;stroke:#000000;stroke-width:2;stroke-linecap:round;stroke-linejoin:round;stroke-miterlimit:10;" d="
			M236.515,164.873c0,1.988-1.611,3.599-3.599,3.599c-1.988,0-3.599-1.611-3.599-3.599c0-1.988,1.611-3.599,3.599-3.599
			C234.904,161.274,236.515,162.885,236.515,164.873z"/>
		<path style="fill:none;stroke:#000000;stroke-width:2;stroke-linecap:round;stroke-linejoin:round;stroke-miterlimit:10;" d="
			M417.057,172.37c0,1.822-1.477,3.299-3.299,3.299c-1.822,0-3.299-1.477-3.299-3.299c0-1.822,1.477-3.299,3.299-3.299
			C415.58,169.071,417.057,170.548,417.057,172.37z"/>
		<path style="fill:none;stroke:#000000;stroke-width:2;stroke-linecap:round;stroke-linejoin:round;stroke-miterlimit:10;" d="
			M66.77,298.63c0,1.325-1.074,2.399-2.399,2.399c-1.325,0-2.399-1.074-2.399-2.399c0-1.325,1.074-2.399,2.399-2.399
			C65.695,296.23,66.77,297.305,66.77,298.63z"/>
		<path style="fill:none;stroke:#000000;stroke-width:2;stroke-linecap:round;stroke-linejoin:round;stroke-miterlimit:10;" d="
			M152.542,409.294c0,1.822-1.477,3.299-3.299,3.299c-1.822,0-3.299-1.477-3.299-3.299c0-1.822,1.477-3.299,3.299-3.299
			C151.065,405.995,152.542,407.472,152.542,409.294z"/>
		<path style="fill:none;stroke:#000000;stroke-width:2;stroke-linecap:round;stroke-linejoin:round;stroke-miterlimit:10;" d="
			M231.717,444.083c0,2.153-1.745,3.899-3.899,3.899c-2.153,0-3.899-1.746-3.899-3.899s1.745-3.899,3.899-3.899
			C229.971,440.185,231.717,441.93,231.717,444.083z"/>
	</g>
	<g>
		<path style="fill:none;stroke:#000000;stroke-width:2;stroke-linecap:round;stroke-linejoin:round;stroke-miterlimit:10;" d="
			M191.295,65.379c21.735-24.572,57.701-35.543,89.449-27.286c31.749,8.257,57.812,35.36,64.822,67.408
			c6.835-7.869,18.044-11.106,28.323-12.839c9.887-1.667,20.145-1.955,29.85,0.561c19.749,5.12,35.383,21.924,41.547,41.373
			s3.548,41.027-4.662,59.704c5.877,1.53,10.965,5.809,14.584,10.687c6.979,9.409,10.954,20.855,12.312,32.491
			c1.358,11.636,0.18,23.47-2.453,34.886c-1.46,6.328-3.406,12.646-6.928,18.103"/>
		<path style="fill:none;stroke:#000000;stroke-width:2;stroke-linecap:round;stroke-linejoin:round;stroke-miterlimit:10;" d="
			M93.075,413.303c5.079,6.307,11.349,11.589,18.607,15.179c14.323,7.085,30.97,7.162,46.949,7.091
			c10.732,20.59,33.163,34.418,56.094,38.061c24.347,3.868,51.606-3.531,66.447-23.216c9.551,2.454,19.48,1.876,28.015-3.063"/>
		<path style="fill:none;stroke:#000000;stroke-width:2;stroke-linecap:round;stroke-linejoin:round;stroke-miterlimit:10;" d="
			M51.926,214.289c-15.181,20.533-25.218,53.2-20.471,78.29c4.747,25.09,23.924,47.858,48.875,53.291
			c-2.805,15.573-4.672,28.055,0.451,43.026"/>
		<path style="fill:none;stroke:#000000;stroke-width:2;stroke-linecap:round;stroke-linejoin:round;stroke-miterlimit:10;" d="
			M415.94,75.501h-54.665c0.98-4.496,2.171-7.967,5.18-11.449c3.009-3.482,8.382-5.356,12.349-3.025
			c2.154,1.266,3.549,3.514,5.561,4.994c1.3-6.071,5.399-11.482,10.89-14.379c2.309-1.218,4.908-2.015,7.513-1.826
			c4.849,0.35,8.926,4.095,11.062,8.463C415.966,62.647,415.421,70.667,415.94,75.501z"/>
		<path style="fill:none;stroke:#000000;stroke-width:2;stroke-linecap:round;stroke-linejoin:round;stroke-miterlimit:10;" d="
			M99.159,100.093H51.081c-1.035-5.546-0.061-12.919,3.435-17.346c3.496-4.428,10.228-6.471,15.078-3.589
			c2.355-8.75,5.053-17.676,10.655-24.798c5.602-7.122,14.791-12.125,23.665-10.292c9.685,2.001,16.099,11.143,20.417,20.04
			c3.638-3.157,8.514-5.305,13.125-3.912s8.391,5.266,9.672,9.91"/>
		<path style="fill:none;stroke:#000000;stroke-width:2;stroke-linecap:round;stroke-linejoin:round;stroke-miterlimit:10;" d="
			M437.56,466.713h-63.12c0.873-4.418,2.88-9.035,6.953-10.956c4.073-1.922,9.054-1.789,13.019,0.346
			c0.909-3.947,2.139-7.98,4.835-11.002c5.619-6.299,16.225-5.984,23.092-1.075C429.206,448.934,435.621,458.497,437.56,466.713z"/>
		<path style="fill:none;stroke:#000000;stroke-width:2;stroke-linecap:round;stroke-linejoin:round;stroke-miterlimit:10;" d="
			M113.586,413.193H61.371c1.278-5.213,2.92-11.05,5.947-15.482c3.027-4.433,7.764-7.981,13.116-8.381
			c4.28-0.32,8.563,1.418,11.813,4.222c3.249,2.804,5.531,6.599,7.06,10.609c1.963-2.399,5.965-2.041,8.37-0.084
			C110.081,406.032,112.479,410.298,113.586,413.193z"/>
	</g>
</g>
</svg>
